<?xml version="1.0" encoding="UTF-8"?>
<svg xmlns="http://www.w3.org/2000/svg" xmlns:xlink="http://www.w3.org/1999/xlink" width="20px" height="px" viewBox="0 0 20 20" version="1.1">
<g id="surface1">
<path style=" stroke:none;fill-rule:nonzero;fill:rgb(0%,0%,0%);fill-opacity:1;" d="M 15.5 15.066406 C 14.796875 15.066406 14.378906 14.703125 14.351562 14.191406 L 15.019531 14.191406 C 15.019531 14.359375 15.113281 14.589844 15.519531 14.605469 C 15.808594 14.605469 15.964844 14.429688 15.964844 14.300781 C 15.964844 14.171875 15.679688 14.085938 15.425781 14.046875 C 15.195312 14.015625 14.96875 13.957031 14.753906 13.871094 C 14.53125 13.746094 14.398438 13.507812 14.40625 13.253906 C 14.40625 12.796875 14.785156 12.433594 15.453125 12.433594 C 16.125 12.433594 16.511719 12.765625 16.539062 13.269531 L 15.933594 13.269531 C 15.933594 13.140625 15.898438 12.925781 15.519531 12.925781 C 15.265625 12.925781 15.105469 12.964844 15.070312 13.15625 C 15.035156 13.34375 15.613281 13.398438 16.03125 13.5 C 16.382812 13.546875 16.648438 13.835938 16.671875 14.191406 C 16.671875 14.820312 16.171875 15.066406 15.519531 15.066406 M 2.273438 13.746094 C 2.273438 14.152344 2.59375 14.488281 3 14.5 C 3.195312 14.503906 3.382812 14.425781 3.523438 14.289062 C 3.660156 14.148438 3.738281 13.960938 3.734375 13.765625 C 3.742188 13.566406 3.667969 13.371094 3.53125 13.226562 C 3.390625 13.082031 3.199219 13 3 13 C 2.601562 13.015625 2.285156 13.332031 2.269531 13.730469 M 3 15.070312 C 2.277344 15.058594 1.695312 14.46875 1.695312 13.746094 C 1.699219 13.027344 2.28125 12.441406 3 12.441406 C 3.273438 12.433594 3.542969 12.511719 3.765625 12.671875 L 3.765625 12.46875 L 4.378906 12.46875 L 4.378906 15 L 3.738281 15 L 3.738281 14.851562 C 3.519531 14.996094 3.261719 15.074219 3 15.070312 M 5.210938 13.746094 C 5.203125 13.945312 5.277344 14.136719 5.417969 14.277344 C 5.554688 14.421875 5.746094 14.5 5.945312 14.5 C 6.347656 14.488281 6.667969 14.167969 6.679688 13.765625 C 6.679688 13.355469 6.355469 13.015625 5.945312 13 C 5.542969 13.003906 5.214844 13.328125 5.210938 13.730469 M 5.914062 15.054688 C 5.566406 15.054688 5.230469 14.914062 4.984375 14.667969 C 4.738281 14.417969 4.601562 14.078125 4.605469 13.730469 C 4.601562 13.382812 4.738281 13.046875 4.984375 12.800781 C 5.230469 12.558594 5.566406 12.421875 5.914062 12.425781 C 6.1875 12.417969 6.457031 12.5 6.679688 12.65625 L 6.679688 11.554688 L 7.316406 11.554688 L 7.316406 15 L 6.679688 15 L 6.679688 14.851562 C 6.453125 14.996094 6.1875 15.074219 5.914062 15.070312 M 12.039062 13.746094 C 12.03125 13.945312 12.109375 14.136719 12.246094 14.277344 C 12.386719 14.421875 12.574219 14.5 12.773438 14.5 C 13.179688 14.488281 13.503906 14.152344 13.5 13.746094 C 13.492188 13.34375 13.175781 13.019531 12.773438 13 C 12.371094 13.003906 12.046875 13.328125 12.039062 13.730469 M 12.738281 15.054688 C 12.390625 15.054688 12.054688 14.914062 11.808594 14.664062 C 11.566406 14.417969 11.429688 14.078125 11.433594 13.730469 C 11.429688 13.382812 11.566406 13.046875 11.8125 12.804688 C 12.058594 12.558594 12.394531 12.421875 12.738281 12.425781 C 13.011719 12.417969 13.28125 12.496094 13.503906 12.65625 L 13.503906 12.453125 L 14.113281 12.453125 L 14.113281 15 L 13.5 15 L 13.5 14.851562 C 13.273438 14.996094 13.007812 15.074219 12.734375 15.070312 M 9.105469 13.746094 C 9.101562 14.15625 9.429688 14.492188 9.839844 14.5 C 10.035156 14.5 10.222656 14.425781 10.359375 14.285156 C 10.5 14.148438 10.578125 13.960938 10.574219 13.765625 C 10.582031 13.566406 10.507812 13.371094 10.367188 13.226562 C 10.230469 13.082031 10.039062 13 9.839844 13 C 9.441406 13.011719 9.121094 13.332031 9.105469 13.730469 M 10.574219 11.554688 L 11.210938 11.554688 L 11.210938 15 L 10.574219 15 L 10.574219 14.851562 C 10.359375 15 10.101562 15.078125 9.839844 15.070312 C 9.105469 15.074219 8.503906 14.480469 8.5 13.746094 C 8.503906 13.394531 8.648438 13.058594 8.898438 12.8125 C 9.152344 12.570312 9.488281 12.433594 9.839844 12.441406 C 10.105469 12.429688 10.363281 12.511719 10.574219 12.671875 Z M 7.605469 12.429688 L 8.25 12.429688 L 8.25 14.988281 L 7.605469 14.988281 Z M 7.605469 11.570312 L 8.246094 11.570312 L 8.246094 12.199219 L 7.605469 12.199219 Z M 7.605469 11.570312 "/>
<path style=" stroke:none;fill-rule:nonzero;fill:rgb(0%,0%,0%);fill-opacity:1;" d="M 3.296875 10.820312 L 5.5 9.546875 L 6.679688 11.570312 L 3.710938 11.570312 Z M 11.5 11.570312 L 8.433594 6.226562 L 10.636719 4.929688 L 14.464844 11.570312 Z M 10.574219 11.570312 L 8.113281 7.273438 L 5.878906 8.535156 L 7.605469 11.570312 Z M 10.574219 11.570312 "/>
</g>
</svg>
