<?xml version="1.0" encoding="UTF-8"?>
<svg xmlns="http://www.w3.org/2000/svg" xmlns:xlink="http://www.w3.org/1999/xlink" width="20px" height="px" viewBox="0 0 20 7" version="1.1">
<g id="surface1">
<path style=" stroke:none;fill-rule:nonzero;fill:rgb(0%,0%,0%);fill-opacity:1;" d="M 0 0 L 20 0 L 20 7 L 0 7 Z M 1.226562 0.0859375 C 0.59375 0.0859375 0.0820312 0.609375 0.0820312 1.253906 L 0.0820312 5.746094 C 0.0820312 6.394531 0.59375 6.917969 1.226562 6.917969 L 18.796875 6.917969 C 19.429688 6.917969 19.941406 6.394531 19.941406 5.746094 L 19.945312 1.257812 C 19.945312 0.609375 19.429688 0.0859375 18.796875 0.0859375 Z M 1.226562 0.0859375 "/>
<path style=" stroke:none;fill-rule:nonzero;fill:rgb(66.27451%,66.27451%,66.27451%);fill-opacity:1;" d="M 1.226562 0.0859375 L 18.796875 0.0859375 C 19.429688 0.0859375 19.945312 0.609375 19.945312 1.257812 L 19.941406 5.746094 C 19.941406 6.394531 19.429688 6.917969 18.796875 6.917969 L 1.226562 6.917969 C 0.59375 6.917969 0.0820312 6.394531 0.0820312 5.746094 L 0.0820312 1.253906 C 0.0820312 0.609375 0.59375 0.0859375 1.226562 0.0859375 Z M 19.796875 1.261719 C 19.796875 0.691406 19.347656 0.230469 18.789062 0.230469 L 1.234375 0.230469 C 0.679688 0.230469 0.226562 0.691406 0.226562 1.261719 L 0.226562 5.734375 C 0.226562 6.304688 0.679688 6.765625 1.234375 6.765625 L 18.789062 6.765625 C 19.347656 6.765625 19.796875 6.304688 19.796875 5.734375 Z M 19.796875 1.261719 "/>
<path style=" stroke:none;fill-rule:nonzero;fill:rgb(0%,0%,0%);fill-opacity:1;" d="M 19.796875 5.734375 C 19.796875 6.304688 19.347656 6.765625 18.789062 6.765625 L 1.234375 6.765625 C 0.679688 6.765625 0.226562 6.304688 0.226562 5.734375 L 0.226562 1.261719 C 0.226562 0.691406 0.679688 0.230469 1.234375 0.230469 L 18.789062 0.230469 C 19.347656 0.230469 19.796875 0.691406 19.796875 1.261719 Z M 10.074219 1.257812 C 10.074219 1.246094 10.0625 1.234375 10.050781 1.234375 L 9.925781 1.234375 C 9.917969 1.234375 9.910156 1.238281 9.90625 1.242188 C 9.902344 1.246094 9.902344 1.25 9.902344 1.257812 L 9.898438 2.390625 C 9.898438 2.40625 9.910156 2.414062 9.921875 2.414062 L 10.046875 2.414062 C 10.054688 2.414062 10.0625 2.414062 10.066406 2.410156 C 10.070312 2.402344 10.070312 2.398438 10.070312 2.390625 Z M 12.875 2.308594 L 12.867188 2.378906 C 12.863281 2.40625 12.875 2.417969 12.902344 2.417969 L 12.996094 2.414062 C 13.019531 2.414062 13.03125 2.402344 13.03125 2.378906 L 13.03125 1.246094 C 13.03125 1.238281 13.027344 1.238281 13.023438 1.238281 L 12.875 1.234375 C 12.871094 1.234375 12.867188 1.234375 12.867188 1.238281 C 12.863281 1.238281 12.863281 1.242188 12.863281 1.246094 L 12.863281 1.675781 C 12.863281 1.683594 12.859375 1.691406 12.851562 1.691406 C 12.847656 1.695312 12.839844 1.691406 12.835938 1.6875 C 12.753906 1.566406 12.640625 1.527344 12.5 1.566406 C 12.050781 1.6875 12.1875 2.605469 12.71875 2.402344 C 12.773438 2.378906 12.804688 2.335938 12.851562 2.296875 C 12.855469 2.292969 12.859375 2.289062 12.867188 2.292969 C 12.871094 2.296875 12.875 2.300781 12.875 2.308594 Z M 17.027344 1.679688 L 17.03125 1.246094 C 17.03125 1.238281 17.027344 1.234375 17.015625 1.234375 L 16.867188 1.238281 C 16.863281 1.238281 16.859375 1.238281 16.859375 1.242188 L 16.863281 2.378906 C 16.863281 2.402344 16.875 2.414062 16.898438 2.414062 L 16.996094 2.417969 C 17.023438 2.417969 17.035156 2.40625 17.035156 2.378906 L 17.03125 1.921875 C 17.03125 1.8125 17.113281 1.71875 17.21875 1.707031 L 17.269531 1.703125 C 17.308594 1.699219 17.351562 1.714844 17.378906 1.742188 C 17.410156 1.769531 17.429688 1.8125 17.429688 1.851562 L 17.429688 2.371094 C 17.429688 2.402344 17.445312 2.414062 17.472656 2.417969 L 17.550781 2.417969 C 17.5625 2.417969 17.574219 2.414062 17.582031 2.402344 C 17.59375 2.394531 17.597656 2.382812 17.597656 2.371094 C 17.601562 2.195312 17.597656 2.019531 17.59375 1.832031 C 17.585938 1.507812 17.222656 1.46875 17.046875 1.683594 C 17.035156 1.699219 17.027344 1.699219 17.027344 1.679688 Z M 5.457031 1.300781 L 5.449219 2.394531 C 5.449219 2.40625 5.457031 2.414062 5.464844 2.414062 L 5.878906 2.414062 C 6.160156 2.417969 6.390625 2.191406 6.390625 1.914062 L 6.394531 1.796875 C 6.394531 1.519531 6.167969 1.289062 5.886719 1.289062 L 5.472656 1.285156 C 5.46875 1.285156 5.464844 1.285156 5.460938 1.289062 C 5.457031 1.292969 5.457031 1.296875 5.457031 1.300781 Z M 16.453125 1.546875 L 16.449219 1.375 C 16.449219 1.367188 16.445312 1.363281 16.4375 1.359375 L 16.289062 1.351562 C 16.285156 1.351562 16.28125 1.351562 16.28125 1.359375 L 16.277344 1.546875 C 16.277344 1.5625 16.273438 1.570312 16.257812 1.570312 L 16.175781 1.566406 C 16.164062 1.566406 16.15625 1.570312 16.152344 1.574219 C 16.144531 1.582031 16.140625 1.589844 16.140625 1.601562 L 16.140625 1.675781 C 16.140625 1.703125 16.152344 1.714844 16.179688 1.714844 L 16.257812 1.714844 C 16.273438 1.714844 16.28125 1.71875 16.28125 1.734375 C 16.277344 1.878906 16.273438 2.019531 16.269531 2.160156 C 16.261719 2.355469 16.371094 2.4375 16.597656 2.414062 C 16.621094 2.410156 16.628906 2.398438 16.632812 2.378906 L 16.640625 2.316406 C 16.640625 2.300781 16.628906 2.285156 16.613281 2.28125 L 16.472656 2.253906 C 16.457031 2.25 16.449219 2.238281 16.449219 2.222656 L 16.445312 1.738281 C 16.445312 1.71875 16.453125 1.710938 16.472656 1.710938 L 16.585938 1.710938 C 16.617188 1.710938 16.632812 1.695312 16.632812 1.664062 L 16.632812 1.613281 C 16.632812 1.582031 16.617188 1.566406 16.589844 1.566406 L 16.472656 1.566406 C 16.457031 1.566406 16.453125 1.558594 16.453125 1.546875 Z M 9.070312 1.664062 L 9.070312 1.59375 C 9.070312 1.574219 9.058594 1.5625 9.039062 1.566406 L 8.9375 1.566406 C 8.917969 1.566406 8.90625 1.578125 8.90625 1.597656 L 8.90625 2.398438 C 8.90625 2.40625 8.90625 2.410156 8.914062 2.414062 C 8.917969 2.421875 8.925781 2.421875 8.929688 2.421875 L 9.054688 2.410156 C 9.070312 2.410156 9.078125 2.402344 9.078125 2.386719 L 9.074219 1.90625 C 9.074219 1.777344 9.136719 1.710938 9.261719 1.710938 L 9.316406 1.707031 C 9.355469 1.707031 9.394531 1.722656 9.421875 1.75 C 9.449219 1.777344 9.464844 1.816406 9.464844 1.855469 L 9.464844 2.390625 C 9.464844 2.40625 9.472656 2.414062 9.488281 2.414062 L 9.613281 2.410156 C 9.628906 2.410156 9.636719 2.402344 9.636719 2.386719 C 9.632812 2.238281 9.632812 2.082031 9.636719 1.917969 C 9.640625 1.632812 9.476562 1.464844 9.179688 1.582031 C 9.167969 1.589844 9.15625 1.597656 9.148438 1.609375 L 9.097656 1.675781 C 9.09375 1.679688 9.085938 1.683594 9.082031 1.679688 C 9.074219 1.679688 9.070312 1.671875 9.070312 1.664062 Z M 6.992188 2.429688 C 7.21875 2.429688 7.40625 2.234375 7.40625 1.992188 C 7.40625 1.75 7.226562 1.550781 7 1.550781 C 6.769531 1.550781 6.585938 1.746094 6.585938 1.988281 C 6.582031 2.230469 6.765625 2.429688 6.992188 2.429688 Z M 8.363281 2.183594 L 8.203125 1.578125 C 8.199219 1.566406 8.191406 1.558594 8.179688 1.5625 L 8.054688 1.566406 C 8.039062 1.566406 8.03125 1.574219 8.027344 1.585938 L 7.867188 2.183594 C 7.863281 2.1875 7.859375 2.195312 7.851562 2.195312 C 7.84375 2.195312 7.839844 2.1875 7.835938 2.179688 L 7.695312 1.578125 C 7.695312 1.570312 7.6875 1.566406 7.679688 1.566406 L 7.535156 1.566406 C 7.527344 1.566406 7.523438 1.570312 7.527344 1.578125 L 7.75 2.390625 C 7.753906 2.40625 7.761719 2.410156 7.777344 2.410156 L 7.910156 2.410156 C 7.925781 2.410156 7.9375 2.402344 7.941406 2.386719 L 8.09375 1.828125 C 8.097656 1.820312 8.105469 1.816406 8.113281 1.816406 C 8.121094 1.816406 8.128906 1.820312 8.128906 1.828125 L 8.28125 2.351562 C 8.296875 2.402344 8.34375 2.433594 8.394531 2.433594 C 8.445312 2.429688 8.488281 2.394531 8.5 2.34375 C 8.558594 2.085938 8.625 1.835938 8.707031 1.585938 C 8.710938 1.582031 8.707031 1.578125 8.707031 1.574219 C 8.703125 1.570312 8.699219 1.566406 8.695312 1.566406 L 8.550781 1.5625 C 8.542969 1.5625 8.535156 1.566406 8.535156 1.574219 L 8.394531 2.183594 C 8.390625 2.191406 8.386719 2.195312 8.378906 2.195312 C 8.371094 2.195312 8.367188 2.191406 8.363281 2.183594 Z M 10.695312 2.429688 C 10.921875 2.4375 11.109375 2.246094 11.117188 2.003906 C 11.125 1.761719 10.949219 1.558594 10.722656 1.550781 C 10.496094 1.542969 10.308594 1.734375 10.300781 1.976562 C 10.292969 2.21875 10.46875 2.421875 10.695312 2.429688 Z M 11.855469 2.328125 L 11.847656 2.386719 C 11.847656 2.394531 11.847656 2.402344 11.855469 2.410156 C 11.859375 2.414062 11.867188 2.417969 11.875 2.417969 L 11.976562 2.414062 C 12.003906 2.414062 12.015625 2.402344 12.015625 2.375 C 12.007812 2.207031 12.003906 2.027344 12 1.84375 C 11.996094 1.449219 11.488281 1.484375 11.328125 1.734375 C 11.320312 1.746094 11.320312 1.761719 11.328125 1.773438 C 11.335938 1.789062 11.347656 1.796875 11.363281 1.792969 L 11.457031 1.785156 C 11.472656 1.785156 11.484375 1.777344 11.496094 1.769531 C 11.5625 1.695312 11.648438 1.679688 11.75 1.71875 C 11.789062 1.734375 11.816406 1.761719 11.832031 1.800781 L 11.835938 1.816406 C 11.859375 1.882812 11.835938 1.914062 11.765625 1.914062 C 11.582031 1.910156 11.273438 1.949219 11.292969 2.183594 C 11.308594 2.410156 11.535156 2.480469 11.71875 2.394531 C 11.765625 2.375 11.789062 2.34375 11.828125 2.3125 C 11.832031 2.308594 11.839844 2.308594 11.84375 2.3125 C 11.851562 2.3125 11.855469 2.320312 11.855469 2.328125 Z M 14.148438 2.429688 C 14.375 2.421875 14.550781 2.21875 14.542969 1.976562 C 14.535156 1.734375 14.347656 1.542969 14.121094 1.550781 C 13.894531 1.558594 13.714844 1.761719 13.722656 2.003906 C 13.730469 2.246094 13.921875 2.4375 14.148438 2.429688 Z M 14.925781 1.6875 L 14.929688 1.589844 C 14.929688 1.585938 14.925781 1.578125 14.921875 1.574219 C 14.917969 1.566406 14.910156 1.566406 14.90625 1.566406 L 14.792969 1.566406 C 14.773438 1.5625 14.765625 1.574219 14.765625 1.59375 L 14.765625 2.382812 C 14.765625 2.40625 14.777344 2.417969 14.800781 2.417969 L 14.886719 2.414062 C 14.914062 2.414062 14.929688 2.398438 14.929688 2.371094 L 14.933594 1.898438 C 14.933594 1.777344 14.996094 1.714844 15.117188 1.707031 L 15.171875 1.707031 C 15.210938 1.707031 15.25 1.722656 15.277344 1.75 C 15.304688 1.777344 15.320312 1.816406 15.320312 1.855469 L 15.324219 2.386719 C 15.324219 2.40625 15.332031 2.414062 15.351562 2.414062 L 15.460938 2.414062 C 15.480469 2.414062 15.492188 2.402344 15.492188 2.382812 C 15.496094 2.207031 15.496094 2.023438 15.492188 1.84375 C 15.484375 1.519531 15.097656 1.449219 14.941406 1.691406 C 14.929688 1.707031 14.925781 1.703125 14.925781 1.6875 Z M 18.015625 2.035156 L 18.550781 2.039062 C 18.582031 2.039062 18.597656 2.023438 18.597656 1.988281 C 18.578125 1.375 17.828125 1.441406 17.8125 1.960938 C 17.804688 2.21875 17.929688 2.410156 18.195312 2.429688 C 18.371094 2.441406 18.5 2.367188 18.574219 2.210938 C 18.585938 2.191406 18.578125 2.183594 18.558594 2.183594 L 18.449219 2.183594 C 18.4375 2.183594 18.425781 2.1875 18.417969 2.195312 C 18.253906 2.367188 18.015625 2.292969 17.992188 2.0625 C 17.992188 2.042969 18 2.035156 18.015625 2.035156 Z M 3.898438 1.578125 C 3.480469 1.625 3.207031 1.992188 3.203125 2.40625 C 3.203125 2.414062 3.203125 2.417969 3.207031 2.421875 C 3.210938 2.425781 3.21875 2.429688 3.222656 2.429688 C 3.652344 2.40625 3.945312 2.023438 3.921875 1.597656 C 3.921875 1.582031 3.914062 1.578125 3.898438 1.578125 Z M 1.941406 2.863281 C 1.484375 3.535156 1.851562 4.566406 2.332031 5.105469 C 2.683594 5.5 2.902344 5.132812 3.273438 5.144531 C 3.382812 5.148438 3.492188 5.171875 3.59375 5.214844 C 3.824219 5.304688 4.003906 5.328125 4.183594 5.144531 C 4.402344 4.921875 4.5625 4.644531 4.667969 4.324219 C 4.671875 4.308594 4.667969 4.300781 4.65625 4.292969 C 4.070312 4 4.046875 3.246094 4.558594 2.855469 C 4.570312 2.847656 4.570312 2.835938 4.5625 2.828125 C 4.363281 2.554688 4.097656 2.4375 3.765625 2.480469 C 3.550781 2.507812 3.308594 2.699219 3.105469 2.617188 C 2.953125 2.558594 2.789062 2.476562 2.628906 2.484375 C 2.328125 2.503906 2.101562 2.628906 1.941406 2.863281 Z M 12.910156 4.816406 C 12.777344 5.167969 12.066406 5.125 11.984375 4.714844 C 11.984375 4.707031 11.980469 4.703125 11.972656 4.703125 L 11.675781 4.703125 C 11.667969 4.703125 11.664062 4.703125 11.664062 4.710938 C 11.710938 5.046875 11.902344 5.242188 12.238281 5.308594 C 12.640625 5.382812 13.175781 5.261719 13.242188 4.769531 C 13.316406 4.214844 12.789062 4.121094 12.378906 4.027344 C 12.261719 4 12.101562 3.921875 12.058594 3.800781 C 11.917969 3.398438 12.8125 3.210938 12.902344 3.738281 C 12.902344 3.75 12.910156 3.753906 12.921875 3.753906 L 13.203125 3.753906 C 13.207031 3.753906 13.210938 3.753906 13.214844 3.75 C 13.214844 3.746094 13.21875 3.742188 13.214844 3.738281 C 13.152344 2.953125 11.871094 2.941406 11.730469 3.644531 C 11.675781 3.929688 11.816406 4.132812 12.066406 4.253906 C 12.296875 4.363281 12.617188 4.371094 12.785156 4.480469 C 12.917969 4.570312 12.960938 4.683594 12.910156 4.816406 Z M 7.085938 4.71875 C 7.097656 4.71875 7.105469 4.726562 7.109375 4.738281 L 7.285156 5.273438 C 7.289062 5.285156 7.300781 5.292969 7.308594 5.292969 L 7.59375 5.292969 C 7.601562 5.296875 7.609375 5.289062 7.613281 5.285156 C 7.617188 5.277344 7.621094 5.265625 7.617188 5.257812 L 6.894531 3.1875 C 6.890625 3.179688 6.878906 3.171875 6.867188 3.171875 L 6.558594 3.171875 C 6.546875 3.171875 6.539062 3.175781 6.535156 3.1875 L 5.808594 5.257812 C 5.804688 5.265625 5.804688 5.273438 5.8125 5.28125 C 5.816406 5.289062 5.824219 5.292969 5.832031 5.292969 L 6.113281 5.292969 C 6.125 5.292969 6.132812 5.285156 6.136719 5.273438 L 6.308594 4.738281 C 6.3125 4.726562 6.324219 4.71875 6.335938 4.71875 Z M 13.933594 3.992188 L 14.183594 3.996094 C 14.191406 3.996094 14.199219 3.992188 14.199219 3.984375 L 14.207031 3.757812 C 14.207031 3.753906 14.199219 3.746094 14.195312 3.746094 L 13.941406 3.746094 C 13.921875 3.746094 13.914062 3.738281 13.914062 3.71875 L 13.914062 3.382812 C 13.914062 3.378906 13.914062 3.378906 13.90625 3.378906 L 13.617188 3.378906 C 13.609375 3.378906 13.609375 3.382812 13.605469 3.386719 L 13.605469 3.722656 C 13.605469 3.730469 13.605469 3.738281 13.597656 3.742188 C 13.59375 3.746094 13.589844 3.75 13.582031 3.75 L 13.429688 3.746094 C 13.402344 3.746094 13.386719 3.761719 13.386719 3.789062 L 13.386719 3.957031 C 13.386719 3.988281 13.402344 4 13.429688 4 L 13.589844 4 C 13.601562 3.996094 13.605469 4.003906 13.605469 4.015625 C 13.605469 4.316406 13.605469 4.613281 13.605469 4.910156 C 13.605469 5.289062 13.882812 5.332031 14.183594 5.289062 C 14.195312 5.289062 14.199219 5.28125 14.199219 5.273438 L 14.199219 5.042969 C 14.199219 5.035156 14.195312 5.03125 14.1875 5.03125 C 13.964844 5.082031 13.917969 4.980469 13.914062 4.777344 C 13.914062 4.519531 13.914062 4.265625 13.914062 4.011719 C 13.914062 4 13.921875 3.992188 13.933594 3.992188 Z M 17.222656 4.601562 L 18.226562 4.601562 C 18.242188 4.601562 18.25 4.59375 18.25 4.578125 C 18.277344 4.285156 18.179688 3.964844 17.921875 3.816406 C 17.679688 3.675781 17.339844 3.707031 17.128906 3.890625 C 16.757812 4.21875 16.800781 5.039062 17.277344 5.246094 C 17.621094 5.398438 18.085938 5.296875 18.226562 4.902344 C 18.242188 4.859375 18.226562 4.839844 18.183594 4.839844 L 17.992188 4.839844 C 17.949219 4.839844 17.921875 4.859375 17.910156 4.902344 C 17.890625 4.957031 17.84375 5 17.765625 5.027344 C 17.492188 5.136719 17.160156 4.953125 17.203125 4.617188 C 17.203125 4.605469 17.210938 4.601562 17.222656 4.601562 Z M 8.128906 5.0625 C 8.128906 5.058594 8.132812 5.054688 8.136719 5.050781 C 8.140625 5.050781 8.148438 5.050781 8.152344 5.058594 C 8.253906 5.222656 8.402344 5.304688 8.597656 5.3125 C 9.390625 5.335938 9.472656 3.890625 8.714844 3.742188 C 8.492188 3.699219 8.300781 3.777344 8.144531 3.972656 C 8.140625 3.976562 8.132812 3.980469 8.128906 3.976562 C 8.121094 3.976562 8.117188 3.96875 8.117188 3.960938 L 8.125 3.804688 C 8.125 3.765625 8.105469 3.746094 8.070312 3.746094 L 7.882812 3.746094 C 7.84375 3.746094 7.820312 3.765625 7.820312 3.808594 L 7.820312 5.785156 C 7.820312 5.796875 7.828125 5.804688 7.839844 5.804688 L 8.113281 5.808594 C 8.121094 5.808594 8.128906 5.800781 8.128906 5.792969 Z M 9.785156 5.074219 C 9.785156 5.066406 9.789062 5.0625 9.792969 5.058594 C 9.800781 5.058594 9.808594 5.058594 9.8125 5.066406 C 10.046875 5.421875 10.535156 5.375 10.761719 5.039062 C 10.902344 4.828125 10.917969 4.457031 10.851562 4.222656 C 10.710938 3.707031 10.144531 3.550781 9.792969 3.980469 C 9.789062 3.984375 9.785156 3.984375 9.78125 3.984375 C 9.777344 3.980469 9.773438 3.976562 9.773438 3.972656 L 9.777344 3.78125 C 9.777344 3.757812 9.765625 3.746094 9.742188 3.746094 L 9.527344 3.746094 C 9.492188 3.746094 9.476562 3.765625 9.476562 3.796875 L 9.476562 5.796875 C 9.476562 5.800781 9.480469 5.804688 9.484375 5.804688 L 9.769531 5.808594 C 9.78125 5.808594 9.785156 5.800781 9.785156 5.792969 Z M 15.78125 4.394531 C 15.777344 4.03125 15.492188 3.738281 15.136719 3.742188 L 15.019531 3.742188 C 14.664062 3.742188 14.378906 4.035156 14.378906 4.394531 L 14.378906 4.648438 C 14.378906 5.011719 14.667969 5.304688 15.023438 5.304688 L 15.140625 5.300781 C 15.496094 5.300781 15.78125 5.007812 15.78125 4.648438 Z M 16.335938 3.972656 L 16.34375 3.800781 C 16.34375 3.765625 16.328125 3.746094 16.292969 3.746094 L 16.105469 3.746094 C 16.066406 3.746094 16.046875 3.765625 16.046875 3.804688 L 16.046875 5.269531 C 16.046875 5.289062 16.058594 5.296875 16.078125 5.296875 L 16.332031 5.289062 C 16.347656 5.289062 16.355469 5.28125 16.355469 5.261719 C 16.355469 4.980469 16.355469 4.691406 16.359375 4.390625 C 16.359375 4.101562 16.519531 3.996094 16.789062 4.027344 C 16.804688 4.03125 16.816406 4.019531 16.816406 4.003906 L 16.816406 3.777344 C 16.816406 3.753906 16.804688 3.742188 16.785156 3.738281 C 16.578125 3.710938 16.4375 3.792969 16.355469 3.976562 C 16.351562 3.984375 16.347656 3.984375 16.34375 3.984375 C 16.339844 3.984375 16.335938 3.976562 16.335938 3.972656 Z M 16.335938 3.972656 "/>
<path style=" stroke:none;fill-rule:nonzero;fill:rgb(100%,100%,100%);fill-opacity:1;" d="M 9.925781 1.234375 L 10.050781 1.234375 C 10.0625 1.234375 10.074219 1.246094 10.074219 1.257812 L 10.070312 2.390625 C 10.070312 2.40625 10.0625 2.414062 10.046875 2.414062 L 9.921875 2.414062 C 9.910156 2.414062 9.898438 2.40625 9.898438 2.390625 L 9.902344 1.257812 C 9.902344 1.246094 9.910156 1.234375 9.925781 1.234375 Z M 9.925781 1.234375 "/>
<path style=" stroke:none;fill-rule:nonzero;fill:rgb(100%,100%,100%);fill-opacity:1;" d="M 12.851562 2.296875 C 12.804688 2.335938 12.773438 2.378906 12.71875 2.402344 C 12.1875 2.605469 12.050781 1.6875 12.5 1.566406 C 12.640625 1.527344 12.753906 1.566406 12.835938 1.6875 C 12.839844 1.691406 12.847656 1.695312 12.851562 1.691406 C 12.859375 1.691406 12.863281 1.683594 12.863281 1.675781 L 12.863281 1.246094 C 12.863281 1.242188 12.863281 1.238281 12.867188 1.238281 C 12.867188 1.234375 12.871094 1.234375 12.875 1.234375 L 13.023438 1.238281 C 13.027344 1.238281 13.03125 1.238281 13.03125 1.246094 L 13.03125 2.378906 C 13.03125 2.402344 13.019531 2.414062 12.996094 2.414062 L 12.902344 2.417969 C 12.875 2.417969 12.863281 2.40625 12.867188 2.378906 L 12.875 2.308594 C 12.875 2.300781 12.871094 2.296875 12.867188 2.292969 C 12.859375 2.289062 12.855469 2.292969 12.851562 2.296875 Z M 12.636719 2.28125 C 12.761719 2.28125 12.867188 2.152344 12.867188 1.992188 C 12.867188 1.832031 12.761719 1.699219 12.636719 1.699219 C 12.507812 1.699219 12.40625 1.828125 12.40625 1.992188 C 12.40625 2.152344 12.507812 2.28125 12.636719 2.28125 Z M 17.046875 1.683594 C 17.222656 1.46875 17.585938 1.507812 17.59375 1.832031 C 17.597656 2.019531 17.601562 2.195312 17.597656 2.371094 C 17.597656 2.382812 17.59375 2.394531 17.582031 2.402344 C 17.574219 2.414062 17.5625 2.417969 17.550781 2.417969 L 17.472656 2.417969 C 17.445312 2.414062 17.429688 2.402344 17.429688 2.371094 L 17.429688 1.851562 C 17.429688 1.8125 17.410156 1.769531 17.378906 1.742188 C 17.351562 1.714844 17.308594 1.699219 17.269531 1.703125 L 17.21875 1.707031 C 17.113281 1.71875 17.03125 1.8125 17.03125 1.921875 L 17.035156 2.378906 C 17.035156 2.40625 17.023438 2.417969 16.996094 2.417969 L 16.898438 2.414062 C 16.875 2.414062 16.863281 2.402344 16.863281 2.378906 L 16.859375 1.242188 C 16.859375 1.238281 16.863281 1.238281 16.867188 1.238281 L 17.015625 1.234375 C 17.027344 1.234375 17.03125 1.238281 17.03125 1.246094 L 17.027344 1.679688 C 17.027344 1.699219 17.035156 1.699219 17.046875 1.683594 Z M 5.457031 1.300781 C 5.457031 1.296875 5.457031 1.292969 5.460938 1.289062 C 5.464844 1.285156 5.46875 1.285156 5.472656 1.285156 L 5.886719 1.289062 C 6.167969 1.289062 6.394531 1.519531 6.394531 1.796875 L 6.390625 1.914062 C 6.390625 2.191406 6.160156 2.417969 5.878906 2.414062 L 5.464844 2.414062 C 5.457031 2.414062 5.449219 2.40625 5.449219 2.394531 Z M 5.625 1.472656 L 5.625 2.234375 C 5.625 2.246094 5.636719 2.257812 5.648438 2.257812 L 5.855469 2.257812 C 5.949219 2.257812 6.042969 2.21875 6.109375 2.148438 C 6.179688 2.082031 6.214844 1.988281 6.214844 1.890625 L 6.214844 1.820312 C 6.214844 1.617188 6.054688 1.453125 5.855469 1.453125 L 5.648438 1.449219 C 5.636719 1.449219 5.625 1.460938 5.625 1.472656 Z M 16.472656 1.566406 L 16.589844 1.566406 C 16.617188 1.566406 16.632812 1.582031 16.632812 1.613281 L 16.632812 1.664062 C 16.632812 1.695312 16.617188 1.710938 16.585938 1.710938 L 16.472656 1.710938 C 16.453125 1.710938 16.445312 1.71875 16.445312 1.738281 L 16.449219 2.222656 C 16.449219 2.238281 16.457031 2.25 16.472656 2.253906 L 16.613281 2.28125 C 16.628906 2.285156 16.640625 2.300781 16.640625 2.316406 L 16.632812 2.378906 C 16.628906 2.398438 16.621094 2.410156 16.597656 2.414062 C 16.371094 2.4375 16.261719 2.355469 16.269531 2.160156 C 16.273438 2.019531 16.277344 1.878906 16.28125 1.734375 C 16.28125 1.71875 16.273438 1.714844 16.257812 1.714844 L 16.179688 1.714844 C 16.152344 1.714844 16.140625 1.703125 16.140625 1.675781 L 16.140625 1.601562 C 16.140625 1.589844 16.144531 1.582031 16.152344 1.574219 C 16.15625 1.570312 16.164062 1.566406 16.175781 1.566406 L 16.257812 1.570312 C 16.273438 1.570312 16.277344 1.5625 16.277344 1.546875 L 16.28125 1.359375 C 16.28125 1.351562 16.285156 1.351562 16.289062 1.351562 L 16.4375 1.359375 C 16.445312 1.363281 16.449219 1.367188 16.449219 1.375 L 16.453125 1.546875 C 16.453125 1.558594 16.457031 1.566406 16.472656 1.566406 Z M 16.472656 1.566406 "/>
<path style=" stroke:none;fill-rule:nonzero;fill:rgb(0%,0%,0%);fill-opacity:1;" d="M 5.625 1.472656 C 5.625 1.460938 5.636719 1.449219 5.648438 1.449219 L 5.855469 1.453125 C 6.054688 1.453125 6.214844 1.617188 6.214844 1.820312 L 6.214844 1.890625 C 6.214844 1.988281 6.179688 2.082031 6.109375 2.148438 C 6.042969 2.21875 5.949219 2.257812 5.855469 2.257812 L 5.648438 2.257812 C 5.636719 2.257812 5.625 2.246094 5.625 2.234375 Z M 5.625 1.472656 "/>
<path style=" stroke:none;fill-rule:nonzero;fill:rgb(100%,100%,100%);fill-opacity:1;" d="M 9.097656 1.675781 L 9.148438 1.609375 C 9.15625 1.597656 9.167969 1.589844 9.179688 1.582031 C 9.476562 1.464844 9.640625 1.632812 9.636719 1.917969 C 9.632812 2.082031 9.632812 2.238281 9.636719 2.386719 C 9.636719 2.402344 9.628906 2.410156 9.613281 2.410156 L 9.488281 2.414062 C 9.472656 2.414062 9.464844 2.40625 9.464844 2.390625 L 9.464844 1.855469 C 9.464844 1.816406 9.449219 1.777344 9.421875 1.75 C 9.394531 1.722656 9.355469 1.707031 9.316406 1.707031 L 9.261719 1.710938 C 9.136719 1.710938 9.074219 1.777344 9.074219 1.90625 L 9.078125 2.386719 C 9.078125 2.402344 9.070312 2.410156 9.054688 2.410156 L 8.929688 2.421875 C 8.925781 2.421875 8.917969 2.421875 8.914062 2.414062 C 8.90625 2.410156 8.90625 2.40625 8.90625 2.398438 L 8.90625 1.597656 C 8.90625 1.578125 8.917969 1.566406 8.9375 1.566406 L 9.039062 1.566406 C 9.058594 1.5625 9.070312 1.574219 9.070312 1.59375 L 9.070312 1.664062 C 9.070312 1.671875 9.074219 1.679688 9.082031 1.679688 C 9.085938 1.683594 9.09375 1.679688 9.097656 1.675781 Z M 6.992188 2.429688 C 6.765625 2.429688 6.582031 2.230469 6.585938 1.988281 C 6.585938 1.746094 6.769531 1.550781 7 1.550781 C 7.226562 1.550781 7.40625 1.75 7.40625 1.992188 C 7.40625 2.234375 7.21875 2.429688 6.992188 2.429688 Z M 6.996094 2.28125 C 7.125 2.28125 7.230469 2.152344 7.230469 1.988281 C 7.230469 1.828125 7.125 1.695312 6.996094 1.695312 C 6.867188 1.695312 6.765625 1.828125 6.765625 1.988281 C 6.765625 2.152344 6.871094 2.28125 6.996094 2.28125 Z M 6.996094 2.28125 "/>
<path style=" stroke:none;fill-rule:nonzero;fill:rgb(100%,100%,100%);fill-opacity:1;" d="M 8.363281 2.183594 C 8.367188 2.191406 8.371094 2.195312 8.378906 2.195312 C 8.386719 2.195312 8.390625 2.191406 8.394531 2.183594 L 8.535156 1.574219 C 8.535156 1.566406 8.542969 1.5625 8.550781 1.5625 L 8.695312 1.566406 C 8.699219 1.566406 8.703125 1.570312 8.707031 1.574219 C 8.707031 1.578125 8.710938 1.582031 8.707031 1.585938 C 8.625 1.835938 8.558594 2.085938 8.5 2.34375 C 8.488281 2.394531 8.445312 2.429688 8.394531 2.433594 C 8.34375 2.433594 8.296875 2.402344 8.28125 2.351562 L 8.128906 1.828125 C 8.128906 1.820312 8.121094 1.816406 8.113281 1.816406 C 8.105469 1.816406 8.097656 1.820312 8.09375 1.828125 L 7.941406 2.386719 C 7.9375 2.402344 7.925781 2.410156 7.910156 2.410156 L 7.777344 2.410156 C 7.761719 2.410156 7.753906 2.40625 7.75 2.390625 L 7.527344 1.578125 C 7.523438 1.570312 7.527344 1.566406 7.535156 1.566406 L 7.679688 1.566406 C 7.6875 1.566406 7.695312 1.570312 7.695312 1.578125 L 7.835938 2.179688 C 7.839844 2.1875 7.84375 2.195312 7.851562 2.195312 C 7.859375 2.195312 7.863281 2.1875 7.867188 2.183594 L 8.027344 1.585938 C 8.03125 1.574219 8.039062 1.566406 8.054688 1.566406 L 8.179688 1.5625 C 8.191406 1.558594 8.199219 1.566406 8.203125 1.578125 Z M 10.695312 2.429688 C 10.46875 2.421875 10.292969 2.21875 10.300781 1.976562 C 10.308594 1.734375 10.496094 1.542969 10.722656 1.550781 C 10.949219 1.558594 11.125 1.761719 11.117188 2.003906 C 11.109375 2.246094 10.921875 2.4375 10.695312 2.429688 Z M 10.710938 2.285156 C 10.839844 2.28125 10.941406 2.148438 10.941406 1.988281 C 10.941406 1.824219 10.835938 1.695312 10.707031 1.695312 C 10.578125 1.695312 10.476562 1.828125 10.476562 1.992188 C 10.480469 2.15625 10.585938 2.285156 10.710938 2.285156 Z M 10.710938 2.285156 "/>
<path style=" stroke:none;fill-rule:nonzero;fill:rgb(100%,100%,100%);fill-opacity:1;" d="M 11.828125 2.3125 C 11.789062 2.34375 11.765625 2.375 11.71875 2.394531 C 11.535156 2.480469 11.308594 2.410156 11.292969 2.183594 C 11.273438 1.949219 11.582031 1.910156 11.765625 1.914062 C 11.835938 1.914062 11.859375 1.882812 11.835938 1.816406 L 11.832031 1.800781 C 11.816406 1.761719 11.789062 1.734375 11.75 1.71875 C 11.648438 1.679688 11.5625 1.695312 11.496094 1.769531 C 11.484375 1.777344 11.472656 1.785156 11.457031 1.785156 L 11.363281 1.792969 C 11.347656 1.796875 11.335938 1.789062 11.328125 1.773438 C 11.320312 1.761719 11.320312 1.746094 11.328125 1.734375 C 11.488281 1.484375 11.996094 1.449219 12 1.84375 C 12.003906 2.027344 12.007812 2.207031 12.015625 2.375 C 12.015625 2.402344 12.003906 2.414062 11.976562 2.414062 L 11.875 2.417969 C 11.867188 2.417969 11.859375 2.414062 11.855469 2.410156 C 11.847656 2.402344 11.847656 2.394531 11.847656 2.386719 L 11.855469 2.328125 C 11.855469 2.320312 11.851562 2.3125 11.84375 2.3125 C 11.839844 2.308594 11.832031 2.308594 11.828125 2.3125 Z M 11.523438 2.265625 C 11.65625 2.320312 11.890625 2.238281 11.839844 2.054688 C 11.835938 2.042969 11.828125 2.035156 11.8125 2.035156 C 11.714844 2.035156 11.503906 2.019531 11.464844 2.144531 C 11.453125 2.191406 11.476562 2.246094 11.523438 2.265625 Z M 14.148438 2.429688 C 13.921875 2.4375 13.730469 2.246094 13.722656 2.003906 C 13.714844 1.761719 13.894531 1.558594 14.121094 1.550781 C 14.347656 1.542969 14.535156 1.734375 14.542969 1.976562 C 14.550781 2.21875 14.375 2.421875 14.148438 2.429688 Z M 14.132812 2.285156 C 14.261719 2.285156 14.367188 2.152344 14.367188 1.988281 C 14.367188 1.828125 14.261719 1.695312 14.132812 1.695312 C 14.007812 1.695312 13.902344 1.828125 13.902344 1.988281 C 13.902344 2.152344 14.007812 2.285156 14.132812 2.285156 Z M 14.132812 2.285156 "/>
<path style=" stroke:none;fill-rule:nonzero;fill:rgb(100%,100%,100%);fill-opacity:1;" d="M 14.941406 1.691406 C 15.097656 1.449219 15.484375 1.519531 15.492188 1.84375 C 15.496094 2.023438 15.496094 2.207031 15.492188 2.382812 C 15.492188 2.402344 15.480469 2.414062 15.460938 2.414062 L 15.351562 2.414062 C 15.332031 2.414062 15.324219 2.40625 15.324219 2.386719 L 15.320312 1.855469 C 15.320312 1.816406 15.304688 1.777344 15.277344 1.75 C 15.25 1.722656 15.210938 1.707031 15.171875 1.707031 L 15.117188 1.707031 C 14.996094 1.714844 14.933594 1.777344 14.933594 1.898438 L 14.929688 2.371094 C 14.929688 2.398438 14.914062 2.414062 14.886719 2.414062 L 14.800781 2.417969 C 14.777344 2.417969 14.765625 2.40625 14.765625 2.382812 L 14.765625 1.59375 C 14.765625 1.574219 14.773438 1.5625 14.792969 1.566406 L 14.90625 1.566406 C 14.910156 1.566406 14.917969 1.566406 14.921875 1.574219 C 14.925781 1.578125 14.929688 1.585938 14.929688 1.589844 L 14.925781 1.6875 C 14.925781 1.703125 14.929688 1.707031 14.941406 1.691406 Z M 17.992188 2.0625 C 18.015625 2.292969 18.253906 2.367188 18.417969 2.195312 C 18.425781 2.1875 18.4375 2.183594 18.449219 2.183594 L 18.558594 2.183594 C 18.578125 2.183594 18.585938 2.191406 18.574219 2.210938 C 18.5 2.367188 18.371094 2.441406 18.195312 2.429688 C 17.929688 2.410156 17.804688 2.21875 17.8125 1.960938 C 17.828125 1.441406 18.578125 1.375 18.597656 1.988281 C 18.597656 2.023438 18.582031 2.039062 18.550781 2.039062 L 18.015625 2.035156 C 18 2.035156 17.992188 2.042969 17.992188 2.0625 Z M 18.007812 1.914062 L 18.40625 1.910156 C 18.414062 1.910156 18.417969 1.90625 18.417969 1.898438 L 18.417969 1.894531 C 18.417969 1.78125 18.324219 1.691406 18.210938 1.691406 L 18.199219 1.691406 C 18.085938 1.695312 17.996094 1.785156 18 1.898438 L 18 1.90625 C 18 1.90625 18 1.910156 18.003906 1.914062 C 18.003906 1.914062 18.007812 1.917969 18.007812 1.914062 Z M 3.203125 2.40625 C 3.207031 1.992188 3.480469 1.625 3.898438 1.578125 C 3.914062 1.578125 3.921875 1.582031 3.921875 1.597656 C 3.945312 2.023438 3.652344 2.40625 3.222656 2.429688 C 3.21875 2.429688 3.210938 2.425781 3.207031 2.421875 C 3.203125 2.417969 3.203125 2.414062 3.203125 2.40625 Z M 3.203125 2.40625 "/>
<path style=" stroke:none;fill-rule:nonzero;fill:rgb(0%,0%,0%);fill-opacity:1;" d="M 18.007812 1.914062 C 18.007812 1.917969 18.003906 1.914062 18.003906 1.914062 C 18 1.910156 18 1.90625 18 1.90625 L 18 1.898438 C 17.996094 1.785156 18.085938 1.695312 18.199219 1.691406 L 18.210938 1.691406 C 18.324219 1.691406 18.417969 1.78125 18.417969 1.894531 L 18.417969 1.898438 C 18.417969 1.90625 18.414062 1.910156 18.40625 1.910156 Z M 18.007812 1.914062 "/>
<path style=" stroke:none;fill-rule:nonzero;fill:rgb(0%,0%,0%);fill-opacity:1;" d="M 6.996094 2.28125 C 7.125 2.28125 7.230469 2.152344 7.230469 1.988281 C 7.230469 1.828125 7.125 1.695312 6.996094 1.695312 C 6.867188 1.695312 6.765625 1.828125 6.765625 1.988281 C 6.765625 2.152344 6.871094 2.28125 6.996094 2.28125 Z M 6.996094 2.28125 "/>
<path style=" stroke:none;fill-rule:nonzero;fill:rgb(0%,0%,0%);fill-opacity:1;" d="M 10.710938 2.285156 C 10.839844 2.28125 10.941406 2.148438 10.941406 1.988281 C 10.941406 1.824219 10.835938 1.695312 10.707031 1.695312 C 10.578125 1.695312 10.476562 1.828125 10.476562 1.992188 C 10.480469 2.15625 10.585938 2.285156 10.710938 2.285156 Z M 10.710938 2.285156 "/>
<path style=" stroke:none;fill-rule:nonzero;fill:rgb(0%,0%,0%);fill-opacity:1;" d="M 14.132812 2.285156 C 14.261719 2.285156 14.367188 2.152344 14.367188 1.988281 C 14.367188 1.828125 14.261719 1.695312 14.132812 1.695312 C 14.007812 1.695312 13.902344 1.828125 13.902344 1.988281 C 13.902344 2.152344 14.007812 2.285156 14.132812 2.285156 Z M 14.132812 2.285156 "/>
<path style=" stroke:none;fill-rule:nonzero;fill:rgb(0%,0%,0%);fill-opacity:1;" d="M 12.636719 2.28125 C 12.761719 2.28125 12.867188 2.152344 12.867188 1.992188 C 12.867188 1.832031 12.761719 1.699219 12.636719 1.699219 C 12.507812 1.699219 12.40625 1.828125 12.40625 1.992188 C 12.40625 2.152344 12.507812 2.28125 12.636719 2.28125 Z M 12.636719 2.28125 "/>
<path style=" stroke:none;fill-rule:nonzero;fill:rgb(0%,0%,0%);fill-opacity:1;" d="M 11.839844 2.054688 C 11.890625 2.238281 11.65625 2.320312 11.523438 2.265625 C 11.476562 2.246094 11.453125 2.191406 11.464844 2.144531 C 11.503906 2.019531 11.714844 2.035156 11.8125 2.035156 C 11.828125 2.035156 11.835938 2.042969 11.839844 2.054688 Z M 11.839844 2.054688 "/>
<path style=" stroke:none;fill-rule:nonzero;fill:rgb(100%,100%,100%);fill-opacity:1;" d="M 1.941406 2.863281 C 2.101562 2.628906 2.328125 2.503906 2.628906 2.484375 C 2.789062 2.476562 2.953125 2.558594 3.105469 2.617188 C 3.308594 2.699219 3.550781 2.507812 3.765625 2.480469 C 4.097656 2.4375 4.363281 2.554688 4.5625 2.828125 C 4.570312 2.835938 4.570312 2.847656 4.558594 2.855469 C 4.046875 3.246094 4.070312 4 4.65625 4.292969 C 4.667969 4.300781 4.671875 4.308594 4.667969 4.324219 C 4.5625 4.644531 4.402344 4.921875 4.183594 5.144531 C 4.003906 5.328125 3.824219 5.304688 3.59375 5.214844 C 3.492188 5.171875 3.382812 5.148438 3.273438 5.144531 C 2.902344 5.132812 2.683594 5.5 2.332031 5.105469 C 1.851562 4.566406 1.484375 3.535156 1.941406 2.863281 Z M 12.910156 4.816406 C 12.960938 4.683594 12.917969 4.570312 12.785156 4.480469 C 12.617188 4.371094 12.296875 4.363281 12.066406 4.253906 C 11.816406 4.132812 11.675781 3.929688 11.730469 3.644531 C 11.871094 2.941406 13.152344 2.953125 13.214844 3.738281 C 13.21875 3.742188 13.214844 3.746094 13.214844 3.75 C 13.210938 3.753906 13.207031 3.753906 13.203125 3.753906 L 12.921875 3.753906 C 12.910156 3.753906 12.902344 3.75 12.902344 3.738281 C 12.8125 3.210938 11.917969 3.398438 12.058594 3.800781 C 12.101562 3.921875 12.261719 4 12.378906 4.027344 C 12.789062 4.121094 13.316406 4.214844 13.242188 4.769531 C 13.175781 5.261719 12.640625 5.382812 12.238281 5.308594 C 11.902344 5.242188 11.710938 5.046875 11.664062 4.710938 C 11.664062 4.703125 11.667969 4.703125 11.675781 4.703125 L 11.972656 4.703125 C 11.980469 4.703125 11.984375 4.707031 11.984375 4.714844 C 12.066406 5.125 12.777344 5.167969 12.910156 4.816406 Z M 7.085938 4.71875 L 6.335938 4.71875 C 6.324219 4.71875 6.3125 4.726562 6.308594 4.738281 L 6.136719 5.273438 C 6.132812 5.285156 6.125 5.292969 6.113281 5.292969 L 5.832031 5.292969 C 5.824219 5.292969 5.816406 5.289062 5.8125 5.28125 C 5.804688 5.273438 5.804688 5.265625 5.808594 5.257812 L 6.535156 3.1875 C 6.539062 3.175781 6.546875 3.171875 6.558594 3.171875 L 6.867188 3.171875 C 6.878906 3.171875 6.890625 3.179688 6.894531 3.1875 L 7.617188 5.257812 C 7.621094 5.265625 7.617188 5.277344 7.613281 5.285156 C 7.609375 5.289062 7.601562 5.296875 7.59375 5.292969 L 7.308594 5.292969 C 7.300781 5.292969 7.289062 5.285156 7.285156 5.273438 L 7.109375 4.738281 C 7.105469 4.726562 7.097656 4.71875 7.085938 4.71875 Z M 6.410156 4.433594 C 6.40625 4.4375 6.40625 4.445312 6.410156 4.449219 C 6.414062 4.453125 6.417969 4.457031 6.425781 4.457031 L 7 4.457031 C 7.003906 4.457031 7.007812 4.453125 7.011719 4.449219 C 7.015625 4.445312 7.015625 4.4375 7.015625 4.433594 L 6.726562 3.5625 C 6.722656 3.554688 6.71875 3.550781 6.710938 3.550781 C 6.703125 3.550781 6.695312 3.554688 6.695312 3.5625 Z M 13.914062 4.011719 C 13.914062 4.265625 13.914062 4.519531 13.914062 4.777344 C 13.917969 4.980469 13.964844 5.082031 14.1875 5.03125 C 14.195312 5.03125 14.199219 5.035156 14.199219 5.042969 L 14.199219 5.273438 C 14.199219 5.28125 14.195312 5.289062 14.183594 5.289062 C 13.882812 5.332031 13.605469 5.289062 13.605469 4.910156 C 13.605469 4.613281 13.605469 4.316406 13.605469 4.015625 C 13.605469 4.003906 13.601562 3.996094 13.589844 4 L 13.429688 4 C 13.402344 4 13.386719 3.988281 13.386719 3.957031 L 13.386719 3.789062 C 13.386719 3.761719 13.402344 3.746094 13.429688 3.746094 L 13.582031 3.75 C 13.589844 3.75 13.59375 3.746094 13.597656 3.742188 C 13.605469 3.738281 13.605469 3.730469 13.605469 3.722656 L 13.605469 3.386719 C 13.609375 3.382812 13.609375 3.378906 13.617188 3.378906 L 13.90625 3.378906 C 13.914062 3.378906 13.914062 3.378906 13.914062 3.382812 L 13.914062 3.71875 C 13.914062 3.738281 13.921875 3.746094 13.941406 3.746094 L 14.195312 3.746094 C 14.199219 3.746094 14.207031 3.753906 14.207031 3.757812 L 14.199219 3.984375 C 14.199219 3.992188 14.191406 3.996094 14.183594 3.996094 L 13.933594 3.992188 C 13.921875 3.992188 13.914062 4 13.914062 4.011719 Z M 13.914062 4.011719 "/>
<path style=" stroke:none;fill-rule:nonzero;fill:rgb(0%,0%,0%);fill-opacity:1;" d="M 6.410156 4.433594 L 6.695312 3.5625 C 6.695312 3.554688 6.703125 3.550781 6.710938 3.550781 C 6.71875 3.550781 6.722656 3.554688 6.726562 3.5625 L 7.015625 4.433594 C 7.015625 4.4375 7.015625 4.445312 7.011719 4.449219 C 7.007812 4.453125 7.003906 4.457031 7 4.457031 L 6.425781 4.457031 C 6.417969 4.457031 6.414062 4.453125 6.410156 4.449219 C 6.40625 4.445312 6.40625 4.4375 6.410156 4.433594 Z M 6.410156 4.433594 "/>
<path style=" stroke:none;fill-rule:nonzero;fill:rgb(100%,100%,100%);fill-opacity:1;" d="M 17.203125 4.617188 C 17.160156 4.953125 17.492188 5.136719 17.765625 5.027344 C 17.84375 5 17.890625 4.957031 17.910156 4.902344 C 17.921875 4.859375 17.949219 4.839844 17.992188 4.839844 L 18.183594 4.839844 C 18.226562 4.839844 18.242188 4.859375 18.226562 4.902344 C 18.085938 5.296875 17.621094 5.398438 17.277344 5.246094 C 16.800781 5.039062 16.757812 4.21875 17.128906 3.890625 C 17.339844 3.707031 17.679688 3.675781 17.921875 3.816406 C 18.179688 3.964844 18.277344 4.285156 18.25 4.578125 C 18.25 4.59375 18.242188 4.601562 18.226562 4.601562 L 17.222656 4.601562 C 17.210938 4.601562 17.203125 4.605469 17.203125 4.617188 Z M 17.210938 4.378906 L 17.933594 4.375 C 17.941406 4.375 17.945312 4.371094 17.945312 4.363281 L 17.945312 4.359375 C 17.945312 4.152344 17.777344 3.984375 17.574219 3.984375 L 17.5625 3.984375 C 17.359375 3.988281 17.199219 4.15625 17.199219 4.363281 L 17.199219 4.371094 C 17.199219 4.375 17.203125 4.378906 17.210938 4.378906 Z M 8.128906 5.0625 L 8.128906 5.792969 C 8.128906 5.800781 8.121094 5.808594 8.113281 5.808594 L 7.839844 5.804688 C 7.828125 5.804688 7.820312 5.796875 7.820312 5.785156 L 7.820312 3.808594 C 7.820312 3.765625 7.84375 3.746094 7.882812 3.746094 L 8.070312 3.746094 C 8.105469 3.746094 8.125 3.765625 8.125 3.804688 L 8.117188 3.960938 C 8.117188 3.96875 8.121094 3.976562 8.128906 3.976562 C 8.132812 3.980469 8.140625 3.976562 8.144531 3.972656 C 8.300781 3.777344 8.492188 3.699219 8.714844 3.742188 C 9.472656 3.890625 9.390625 5.335938 8.597656 5.3125 C 8.402344 5.304688 8.253906 5.222656 8.152344 5.058594 C 8.148438 5.050781 8.140625 5.050781 8.136719 5.050781 C 8.132812 5.054688 8.128906 5.058594 8.128906 5.0625 Z M 8.523438 5.046875 C 8.746094 5.046875 8.925781 4.8125 8.925781 4.523438 C 8.925781 4.230469 8.746094 3.996094 8.527344 3.996094 C 8.304688 3.996094 8.125 4.230469 8.125 4.519531 C 8.125 4.808594 8.300781 5.046875 8.523438 5.046875 Z M 9.785156 5.074219 L 9.785156 5.792969 C 9.785156 5.800781 9.78125 5.808594 9.769531 5.808594 L 9.484375 5.804688 C 9.480469 5.804688 9.476562 5.800781 9.476562 5.796875 L 9.476562 3.796875 C 9.476562 3.765625 9.492188 3.746094 9.527344 3.746094 L 9.742188 3.746094 C 9.765625 3.746094 9.777344 3.757812 9.777344 3.78125 L 9.773438 3.972656 C 9.773438 3.976562 9.777344 3.980469 9.78125 3.984375 C 9.785156 3.984375 9.789062 3.984375 9.792969 3.980469 C 10.144531 3.550781 10.710938 3.707031 10.851562 4.222656 C 10.917969 4.457031 10.902344 4.828125 10.761719 5.039062 C 10.535156 5.375 10.046875 5.421875 9.8125 5.066406 C 9.808594 5.058594 9.800781 5.058594 9.792969 5.058594 C 9.789062 5.0625 9.785156 5.066406 9.785156 5.074219 Z M 10.179688 5.046875 C 10.398438 5.046875 10.578125 4.808594 10.578125 4.519531 C 10.578125 4.230469 10.398438 3.996094 10.179688 3.996094 C 9.957031 3.996094 9.777344 4.230469 9.78125 4.519531 C 9.78125 4.8125 9.960938 5.046875 10.179688 5.046875 Z M 15.78125 4.648438 C 15.78125 5.007812 15.496094 5.300781 15.140625 5.300781 L 15.023438 5.304688 C 14.667969 5.304688 14.378906 5.011719 14.378906 4.648438 L 14.378906 4.394531 C 14.378906 4.035156 14.664062 3.742188 15.019531 3.742188 L 15.136719 3.742188 C 15.492188 3.738281 15.777344 4.03125 15.78125 4.394531 Z M 14.734375 4.808594 C 14.832031 5.058594 15.121094 5.121094 15.316406 4.964844 C 15.5 4.820312 15.503906 4.484375 15.441406 4.273438 C 15.367188 4.015625 15.050781 3.890625 14.847656 4.066406 C 14.65625 4.230469 14.648438 4.589844 14.734375 4.808594 Z M 16.355469 3.976562 C 16.4375 3.792969 16.578125 3.710938 16.785156 3.738281 C 16.804688 3.742188 16.816406 3.753906 16.816406 3.777344 L 16.816406 4.003906 C 16.816406 4.019531 16.804688 4.03125 16.789062 4.027344 C 16.519531 3.996094 16.359375 4.101562 16.359375 4.390625 C 16.355469 4.691406 16.355469 4.980469 16.355469 5.261719 C 16.355469 5.28125 16.347656 5.289062 16.332031 5.289062 L 16.078125 5.296875 C 16.058594 5.296875 16.046875 5.289062 16.046875 5.269531 L 16.046875 3.804688 C 16.046875 3.765625 16.066406 3.746094 16.105469 3.746094 L 16.292969 3.746094 C 16.328125 3.746094 16.34375 3.765625 16.34375 3.800781 L 16.335938 3.972656 C 16.335938 3.976562 16.339844 3.984375 16.34375 3.984375 C 16.347656 3.984375 16.351562 3.984375 16.355469 3.976562 Z M 16.355469 3.976562 "/>
<path style=" stroke:none;fill-rule:nonzero;fill:rgb(0%,0%,0%);fill-opacity:1;" d="M 17.210938 4.378906 C 17.203125 4.378906 17.199219 4.375 17.199219 4.371094 L 17.199219 4.363281 C 17.199219 4.15625 17.359375 3.988281 17.5625 3.984375 L 17.574219 3.984375 C 17.777344 3.984375 17.945312 4.152344 17.945312 4.359375 L 17.945312 4.363281 C 17.945312 4.371094 17.941406 4.375 17.933594 4.375 Z M 14.734375 4.808594 C 14.648438 4.589844 14.65625 4.230469 14.847656 4.066406 C 15.050781 3.890625 15.367188 4.015625 15.441406 4.273438 C 15.503906 4.484375 15.5 4.820312 15.316406 4.964844 C 15.121094 5.121094 14.832031 5.058594 14.734375 4.808594 Z M 14.734375 4.808594 "/>
<path style=" stroke:none;fill-rule:nonzero;fill:rgb(0%,0%,0%);fill-opacity:1;" d="M 8.523438 5.046875 C 8.746094 5.046875 8.925781 4.8125 8.925781 4.523438 C 8.925781 4.230469 8.746094 3.996094 8.527344 3.996094 C 8.304688 3.996094 8.125 4.230469 8.125 4.519531 C 8.125 4.808594 8.300781 5.046875 8.523438 5.046875 Z M 8.523438 5.046875 "/>
<path style=" stroke:none;fill-rule:nonzero;fill:rgb(0%,0%,0%);fill-opacity:1;" d="M 10.179688 5.046875 C 10.398438 5.046875 10.578125 4.808594 10.578125 4.519531 C 10.578125 4.230469 10.398438 3.996094 10.175781 3.996094 C 9.957031 3.996094 9.777344 4.230469 9.78125 4.519531 C 9.78125 4.8125 9.960938 5.046875 10.179688 5.046875 Z M 10.179688 5.046875 "/>
</g>
</svg>
