<?xml version="1.0" encoding="UTF-8"?>
<svg xmlns="http://www.w3.org/2000/svg" xmlns:xlink="http://www.w3.org/1999/xlink" width="20px" height="px" viewBox="0 0 18 6" version="1.1">
<g id="surface1">
<path style=" stroke:none;fill-rule:nonzero;fill:rgb(0%,0%,0%);fill-opacity:1;" d="M 1.816406 4.253906 C 1.484375 4.253906 1.324219 3.992188 1.40625 3.6875 C 1.578125 3.054688 2.6875 2.121094 3.445312 2.121094 C 4 2.121094 3.957031 2.628906 3.632812 3.0625 L 3.453125 3.261719 C 2.8125 3.910156 2.21875 4.253906 1.816406 4.253906 Z M 4.519531 0 C 3.554688 0 2.492188 0.609375 1.824219 1.183594 L 1.875 1.261719 C 2.914062 0.515625 4.351562 0.03125 4.746094 0.757812 C 4.957031 1.140625 4.601562 1.914062 4.101562 2.527344 C 4.222656 2.257812 4.140625 1.738281 3.445312 1.738281 C 2.285156 1.738281 0 3.316406 0 4.929688 C 0 5.578125 0.4375 6 1.15625 6 C 3.085938 6 5.699219 2.757812 5.699219 1.128906 C 5.699219 0.554688 5.375 0 4.519531 0 Z M 7 4.253906 C 6.890625 4.253906 6.796875 4.214844 6.738281 4.140625 C 6.675781 4.0625 6.660156 3.957031 6.6875 3.84375 C 6.75 3.597656 7.007812 3.40625 7.273438 3.40625 L 7.890625 3.40625 L 7.671875 4.253906 Z M 8.785156 1.710938 C 8.605469 1.488281 8.320312 1.390625 8.113281 1.390625 L 6.988281 1.390625 L 6.796875 2.121094 L 7.859375 2.121094 L 7.960938 2.132812 C 7.960938 2.132812 8.058594 2.144531 8.113281 2.21875 C 8.15625 2.28125 8.160156 2.371094 8.128906 2.492188 L 8.082031 2.6875 L 7.410156 2.6875 C 6.835938 2.6875 6.03125 3.109375 5.851562 3.796875 C 5.761719 4.136719 5.839844 4.433594 6.015625 4.652344 C 6.1875 4.867188 6.507812 4.988281 6.859375 4.988281 L 8.269531 4.988281 L 8.636719 3.570312 L 8.910156 2.527344 C 9.015625 2.117188 8.902344 1.859375 8.785156 1.710938 Z M 16.527344 1.390625 C 16.222656 1.390625 15.9375 1.480469 15.707031 1.65625 C 15.476562 1.832031 15.347656 2.046875 15.269531 2.339844 C 15.105469 2.972656 15.589844 3.28125 15.980469 3.496094 C 16.261719 3.652344 16.503906 3.789062 16.453125 3.988281 C 16.414062 4.128906 16.355469 4.253906 16.007812 4.253906 L 14.957031 4.253906 L 14.765625 4.988281 L 15.929688 4.988281 C 16.242188 4.988281 16.53125 4.921875 16.765625 4.738281 C 16.996094 4.554688 17.128906 4.296875 17.210938 3.988281 C 17.285156 3.6875 17.234375 3.40625 17.046875 3.191406 C 16.894531 3.015625 16.667969 2.890625 16.472656 2.78125 C 16.21875 2.644531 15.980469 2.511719 16.023438 2.351562 C 16.050781 2.257812 16.144531 2.121094 16.347656 2.121094 L 17.371094 2.121094 L 17.5625 1.390625 Z M 10.417969 1.390625 C 10.113281 1.390625 9.832031 1.480469 9.601562 1.65625 C 9.367188 1.832031 9.238281 2.046875 9.164062 2.339844 C 8.996094 2.972656 9.484375 3.28125 9.875 3.496094 C 10.152344 3.652344 10.394531 3.789062 10.34375 3.988281 C 10.308594 4.128906 10.246094 4.253906 9.902344 4.253906 L 8.847656 4.253906 L 8.65625 4.988281 L 9.824219 4.988281 C 10.136719 4.988281 10.421875 4.921875 10.65625 4.738281 C 10.886719 4.554688 11.019531 4.296875 11.101562 3.988281 C 11.179688 3.6875 11.125 3.40625 10.941406 3.191406 C 10.785156 3.015625 10.5625 2.890625 10.363281 2.78125 C 10.113281 2.644531 9.875 2.511719 9.917969 2.351562 C 9.941406 2.257812 10.035156 2.121094 10.238281 2.121094 L 11.261719 2.121094 L 11.453125 1.390625 Z M 12.007812 1.390625 L 11.09375 4.988281 L 11.867188 4.988281 L 12.78125 1.390625 Z M 14.832031 1.390625 C 13.476562 1.394531 12.765625 2.324219 12.539062 3.1875 C 12.269531 4.214844 12.800781 4.988281 13.777344 4.988281 L 14.429688 4.988281 L 14.617188 4.253906 L 13.96875 4.253906 C 13.601562 4.253906 13.101562 3.960938 13.304688 3.1875 C 13.464844 2.574219 14.046875 2.121094 14.6875 2.121094 L 15.101562 2.121094 L 15.292969 1.390625 Z M 17.507812 4.824219 L 17.574219 4.824219 L 17.574219 4.667969 L 17.628906 4.667969 C 17.664062 4.667969 17.691406 4.671875 17.703125 4.679688 C 17.726562 4.695312 17.742188 4.726562 17.742188 4.769531 L 17.742188 4.816406 C 17.742188 4.816406 17.742188 4.816406 17.742188 4.820312 L 17.742188 4.824219 L 17.808594 4.824219 L 17.804688 4.816406 C 17.800781 4.8125 17.800781 4.804688 17.800781 4.796875 C 17.800781 4.789062 17.800781 4.777344 17.800781 4.769531 L 17.800781 4.738281 C 17.800781 4.71875 17.792969 4.695312 17.78125 4.679688 C 17.765625 4.65625 17.742188 4.644531 17.714844 4.640625 C 17.738281 4.636719 17.753906 4.628906 17.769531 4.621094 C 17.792969 4.601562 17.804688 4.578125 17.804688 4.542969 C 17.804688 4.492188 17.785156 4.457031 17.746094 4.441406 C 17.726562 4.433594 17.691406 4.429688 17.640625 4.429688 L 17.507812 4.429688 L 17.507812 4.824219 M 17.699219 4.609375 C 17.6875 4.617188 17.664062 4.617188 17.636719 4.617188 L 17.574219 4.617188 L 17.574219 4.476562 L 17.632812 4.476562 C 17.671875 4.476562 17.699219 4.480469 17.714844 4.488281 C 17.730469 4.5 17.742188 4.519531 17.742188 4.546875 C 17.742188 4.578125 17.726562 4.597656 17.699219 4.609375 Z M 17.898438 4.371094 C 17.832031 4.304688 17.742188 4.265625 17.648438 4.269531 C 17.550781 4.269531 17.46875 4.304688 17.402344 4.371094 C 17.335938 4.4375 17.296875 4.53125 17.296875 4.625 C 17.296875 4.726562 17.332031 4.8125 17.402344 4.882812 C 17.46875 4.953125 17.550781 4.988281 17.648438 4.988281 C 17.746094 4.988281 17.828125 4.953125 17.898438 4.882812 C 17.964844 4.8125 18 4.726562 18 4.625 C 18 4.527344 17.964844 4.441406 17.898438 4.371094 Z M 17.863281 4.40625 C 17.921875 4.46875 17.949219 4.539062 17.949219 4.625 C 17.949219 4.710938 17.921875 4.785156 17.863281 4.847656 C 17.804688 4.90625 17.730469 4.9375 17.648438 4.9375 C 17.566406 4.9375 17.492188 4.90625 17.433594 4.847656 C 17.378906 4.789062 17.347656 4.707031 17.347656 4.625 C 17.347656 4.539062 17.378906 4.46875 17.433594 4.40625 C 17.492188 4.347656 17.566406 4.316406 17.648438 4.316406 C 17.730469 4.316406 17.804688 4.347656 17.863281 4.40625 Z M 17.863281 4.40625 "/>
</g>
</svg>
