<?xml version="1.0" encoding="UTF-8"?>
<svg xmlns="http://www.w3.org/2000/svg" xmlns:xlink="http://www.w3.org/1999/xlink" width="20px" height="px" viewBox="0 0 20 20" version="1.1">
<g id="surface1">
<path style=" stroke:none;fill-rule:nonzero;fill:rgb(0%,0%,0%);fill-opacity:1;" d="M 3.335938 13.332031 L 3.335938 3.332031 L 1.671875 3.332031 L 1.671875 1.667969 L 4.171875 1.667969 C 4.632812 1.667969 5.003906 2.039062 5.003906 2.5 L 5.003906 12.5 L 15.371094 12.5 L 17.035156 5.832031 L 6.671875 5.832031 L 6.671875 4.167969 L 18.101562 4.167969 C 18.5625 4.167969 18.9375 4.539062 18.9375 5 C 18.9375 5.066406 18.929688 5.136719 18.910156 5.203125 L 16.828125 13.535156 C 16.734375 13.90625 16.402344 14.167969 16.019531 14.167969 L 4.171875 14.167969 C 3.710938 14.167969 3.335938 13.792969 3.335938 13.332031 Z M 5.003906 19.167969 C 4.082031 19.167969 3.335938 18.421875 3.335938 17.5 C 3.335938 16.578125 4.082031 15.832031 5.003906 15.832031 C 5.925781 15.832031 6.671875 16.578125 6.671875 17.5 C 6.671875 18.421875 5.925781 19.167969 5.003906 19.167969 Z M 15.003906 19.167969 C 14.082031 19.167969 13.335938 18.421875 13.335938 17.5 C 13.335938 16.578125 14.082031 15.832031 15.003906 15.832031 C 15.925781 15.832031 16.671875 16.578125 16.671875 17.5 C 16.671875 18.421875 15.925781 19.167969 15.003906 19.167969 Z M 15.003906 19.167969 "/>
</g>
</svg>
