<?xml version="1.0" encoding="UTF-8"?>
<svg xmlns="http://www.w3.org/2000/svg" xmlns:xlink="http://www.w3.org/1999/xlink" width="20px" height="px" viewBox="0 0 20 20" version="1.1">
<g id="surface1">
<path style=" stroke:none;fill-rule:nonzero;fill:rgb(0%,0%,0%);fill-opacity:1;" d="M 18.734375 5 C 18.734375 7.0625 17.0625 8.738281 14.996094 8.738281 C 12.933594 8.738281 11.257812 7.0625 11.257812 5 C 11.257812 2.9375 12.933594 1.261719 14.996094 1.261719 C 17.0625 1.261719 18.734375 2.9375 18.734375 5 Z M 18.113281 5 C 18.113281 3.277344 16.71875 1.882812 14.996094 1.882812 C 13.277344 1.882812 11.882812 3.277344 11.882812 5 C 11.882812 6.722656 13.277344 8.117188 14.996094 8.117188 C 16.71875 8.117188 18.113281 6.722656 18.113281 5 Z M 18.113281 5 "/>
<path style=" stroke:none;fill-rule:nonzero;fill:rgb(0%,0%,0%);fill-opacity:1;" d="M 15.261719 3.515625 C 14.929688 3.34375 14.65625 3.4375 14.445312 3.789062 C 14.351562 3.953125 14.34375 4.148438 14.421875 4.320312 C 14.503906 4.488281 14.660156 4.605469 14.847656 4.632812 C 16.070312 4.820312 16.820312 5.972656 15.699219 6.914062 C 15.507812 7.074219 15.324219 7.246094 15.148438 7.425781 C 15.082031 7.492188 15.007812 7.503906 14.925781 7.449219 C 14.429688 7.140625 14.046875 6.742188 13.78125 6.25 C 13.761719 6.214844 13.753906 6.175781 13.753906 6.136719 C 13.738281 5.722656 13.882812 5.558594 14.195312 5.648438 C 14.277344 5.667969 14.335938 5.738281 14.339844 5.820312 C 14.375 6.253906 14.59375 6.5 14.996094 6.558594 C 15.128906 6.578125 15.242188 6.542969 15.339844 6.453125 C 15.707031 6.121094 15.714844 5.78125 15.375 5.441406 C 15.3125 5.378906 15.230469 5.339844 15.144531 5.332031 C 14.074219 5.234375 13.636719 4.644531 13.835938 3.558594 C 13.851562 3.472656 13.898438 3.394531 13.964844 3.335938 L 14.867188 2.601562 C 14.945312 2.535156 15.027344 2.53125 15.117188 2.585938 C 15.664062 2.914062 16.054688 3.371094 16.292969 3.953125 C 16.335938 4.058594 16.292969 4.179688 16.195312 4.234375 L 15.953125 4.367188 C 15.808594 4.445312 15.71875 4.402344 15.679688 4.242188 C 15.605469 3.941406 15.566406 3.671875 15.261719 3.515625 Z M 15.261719 3.515625 "/>
<path style=" stroke:none;fill-rule:nonzero;fill:rgb(0%,0%,0%);fill-opacity:1;" d="M 5.496094 9.277344 L 6.039062 9.191406 C 6.125 9.175781 6.214844 9.222656 6.253906 9.300781 C 6.296875 9.382812 6.28125 9.480469 6.21875 9.542969 L 5.289062 10.476562 C 5.195312 10.570312 5.054688 10.59375 4.929688 10.539062 C 4.398438 10.289062 4.023438 9.898438 3.804688 9.359375 C 3.78125 9.296875 3.792969 9.230469 3.839844 9.183594 C 3.886719 9.132812 3.953125 9.117188 4.015625 9.140625 L 4.398438 9.277344 C 4.460938 9.300781 4.53125 9.292969 4.589844 9.253906 C 4.644531 9.214844 4.675781 9.152344 4.679688 9.085938 C 4.695312 7.601562 4.066406 4.789062 6.328125 4.734375 C 7.679688 4.699219 9.03125 4.683594 10.382812 4.679688 C 10.488281 4.679688 10.578125 4.769531 10.578125 4.875 L 10.582031 5.136719 C 10.582031 5.253906 10.523438 5.308594 10.410156 5.308594 L 6.089844 5.316406 C 5.660156 5.316406 5.3125 5.667969 5.3125 6.097656 L 5.316406 9.125 C 5.316406 9.171875 5.335938 9.214844 5.371094 9.242188 C 5.40625 9.273438 5.453125 9.285156 5.496094 9.277344 Z M 5.496094 9.277344 "/>
<path style=" stroke:none;fill-rule:nonzero;fill:rgb(0%,0%,0%);fill-opacity:1;" d="M 14.46875 10.625 L 14.226562 10.867188 C 14.113281 10.980469 13.933594 10.972656 13.828125 10.847656 C 13.722656 10.71875 13.730469 10.523438 13.847656 10.410156 L 14.835938 9.40625 C 14.925781 9.320312 15.0625 9.320312 15.148438 9.40625 L 16.15625 10.398438 C 16.246094 10.488281 16.246094 10.578125 16.164062 10.671875 L 16.003906 10.851562 C 15.910156 10.953125 15.816406 10.953125 15.726562 10.851562 L 15.523438 10.625 C 15.390625 10.472656 15.320312 10.496094 15.320312 10.703125 C 15.308594 11.777344 15.304688 12.84375 15.304688 13.90625 C 15.308594 14.859375 14.363281 15.28125 13.46875 15.304688 C 12.238281 15.332031 11.011719 15.324219 9.789062 15.277344 C 9.636719 15.273438 9.527344 15.238281 9.46875 15.164062 C 9.410156 15.097656 9.382812 15.019531 9.386719 14.925781 C 9.398438 14.785156 9.476562 14.710938 9.617188 14.710938 L 13.527344 14.679688 C 14.304688 14.667969 14.691406 14.277344 14.6875 13.503906 L 14.6875 10.710938 C 14.6875 10.660156 14.65625 10.617188 14.605469 10.597656 C 14.558594 10.578125 14.503906 10.589844 14.46875 10.625 Z M 14.46875 10.625 "/>
<path style=" stroke:none;fill-rule:nonzero;fill:rgb(0%,0%,0%);fill-opacity:1;" d="M 1.257812 13.046875 C 1.257812 12.425781 2.414062 11.273438 3.054688 11.261719 C 4.417969 11.242188 5.597656 11.238281 6.597656 11.257812 C 7.792969 11.277344 8.75 12.253906 8.75 13.449219 L 8.746094 18.4375 C 8.746094 18.609375 8.609375 18.746094 8.4375 18.746094 L 1.558594 18.746094 C 1.394531 18.746094 1.257812 18.613281 1.257812 18.445312 C 1.253906 16.679688 1.253906 14.878906 1.257812 13.046875 Z M 4.070312 12.136719 C 4.054688 11.964844 3.691406 11.863281 3.257812 11.902344 C 2.824219 11.941406 2.484375 12.109375 2.5 12.277344 C 2.515625 12.445312 2.878906 12.550781 3.3125 12.511719 C 3.746094 12.472656 4.082031 12.304688 4.070312 12.136719 Z M 5.929688 12.257812 C 6.410156 12.5 6.914062 12.558594 7.441406 12.429688 C 7.496094 12.414062 7.539062 12.367188 7.546875 12.3125 C 7.554688 12.257812 7.53125 12.199219 7.484375 12.167969 C 6.980469 11.839844 6.460938 11.8125 5.917969 12.089844 C 5.820312 12.144531 5.71875 12.144531 5.617188 12.09375 C 5.351562 11.957031 5.070312 11.890625 4.777344 11.898438 C 4.632812 11.90625 4.515625 12.019531 4.503906 12.164062 C 4.492188 12.308594 4.589844 12.4375 4.730469 12.46875 C 5.054688 12.53125 5.347656 12.46875 5.617188 12.285156 C 5.714844 12.214844 5.820312 12.207031 5.929688 12.257812 Z M 4.09375 14.988281 C 3.914062 14.984375 3.769531 14.839844 3.765625 14.664062 L 3.75 13.460938 C 3.75 13.28125 3.605469 13.132812 3.425781 13.132812 L 2.214844 13.101562 C 2.128906 13.101562 2.042969 13.136719 1.976562 13.195312 C 1.914062 13.257812 1.878906 13.34375 1.878906 13.429688 L 1.867188 17.796875 C 1.867188 17.980469 2.015625 18.128906 2.199219 18.128906 L 7.804688 18.128906 C 7.984375 18.128906 8.132812 17.980469 8.132812 17.796875 L 8.121094 13.453125 C 8.121094 13.269531 7.972656 13.125 7.789062 13.125 L 6.558594 13.132812 C 6.378906 13.132812 6.230469 13.28125 6.230469 13.460938 L 6.234375 14.679688 C 6.234375 14.765625 6.199219 14.851562 6.136719 14.914062 C 6.074219 14.976562 5.988281 15.011719 5.898438 15.007812 Z M 5.664062 13.554688 C 5.667969 13.320312 5.484375 13.125 5.25 13.121094 L 4.804688 13.109375 C 4.570312 13.105469 4.375 13.292969 4.371094 13.527344 L 4.359375 13.988281 C 4.355469 14.222656 4.542969 14.417969 4.777344 14.421875 L 5.21875 14.433594 C 5.453125 14.4375 5.648438 14.253906 5.652344 14.019531 Z M 5.664062 13.554688 "/>
<path style=" stroke:none;fill-rule:nonzero;fill:rgb(0%,0%,0%);fill-opacity:1;" d="M 6.277344 17.320312 C 6.222656 17.308594 6.179688 17.261719 6.171875 17.207031 C 6.167969 17.148438 6.199219 17.09375 6.25 17.070312 C 6.59375 16.917969 6.953125 16.890625 7.332031 16.992188 C 7.46875 17.035156 7.546875 17.175781 7.515625 17.3125 C 7.480469 17.453125 7.347656 17.539062 7.207031 17.515625 Z M 6.277344 17.320312 "/>
</g>
</svg>
