<?xml version="1.0" encoding="UTF-8"?>
<svg xmlns="http://www.w3.org/2000/svg" xmlns:xlink="http://www.w3.org/1999/xlink" width="20px" height="px" viewBox="0 0 20 20" version="1.1">
<defs>
<linearGradient id="linear0" gradientUnits="userSpaceOnUse" x1="261.567" y1="317.736" x2="744.424" y2="800.592" gradientTransform="matrix(0.0222222,0,0,0.0222222,0,0)">
<stop offset="0" style="stop-color:rgb(35.294118%,33.333333%,97.254902%);stop-opacity:1;"/>
<stop offset="1" style="stop-color:rgb(54.901961%,41.568627%,88.627451%);stop-opacity:1;"/>
</linearGradient>
<linearGradient id="linear1" gradientUnits="userSpaceOnUse" x1="559.884" y1="330.966" x2="886.624" y2="657.706" gradientTransform="matrix(0.0222222,0,0,0.0222222,0,0)">
<stop offset="0" style="stop-color:rgb(10.196078%,66.27451%,90.980392%);stop-opacity:1;"/>
<stop offset="0.422" style="stop-color:rgb(23.921569%,50.196078%,93.72549%);stop-opacity:1;"/>
<stop offset="0.791" style="stop-color:rgb(33.72549%,38.431373%,95.686275%);stop-opacity:1;"/>
<stop offset="1" style="stop-color:rgb(37.254902%,34.117647%,96.470588%);stop-opacity:1;"/>
</linearGradient>
<filter id="alpha" filterUnits="objectBoundingBox" x="0%" y="0%" width="100%" height="100%">
  <feColorMatrix type="matrix" in="SourceGraphic" values="0 0 0 0 1 0 0 0 0 1 0 0 0 0 1 0 0 0 1 0"/>
</filter>
<mask id="mask0">
  <g filter="url(#alpha)">
<rect x="0" y="0" width="20" height="20" style="fill:rgb(0%,0%,0%);fill-opacity:0.701961;stroke:none;"/>
  </g>
</mask>
<linearGradient id="linear2" gradientUnits="userSpaceOnUse" x1="604.334" y1="771.667" x2="604.334" y2="173" gradientTransform="matrix(0.0222222,0,0,0.0222222,0,0)">
<stop offset="0" style="stop-color:rgb(100%,34.117647%,74.117647%);stop-opacity:1;"/>
<stop offset="1" style="stop-color:rgb(63.529412%,50.588235%,100%);stop-opacity:1;"/>
</linearGradient>
<linearGradient id="linear3" gradientUnits="userSpaceOnUse" x1="530.734" y1="784.334" x2="530.734" y2="185.667" gradientTransform="matrix(0.0222222,0,0,0.0222222,0,0)">
<stop offset="0" style="stop-color:rgb(100%,34.117647%,74.117647%);stop-opacity:1;"/>
<stop offset="1" style="stop-color:rgb(63.529412%,50.588235%,100%);stop-opacity:1;"/>
</linearGradient>
<linearGradient id="linear4" gradientUnits="userSpaceOnUse" x1="457.134" y1="797" x2="457.134" y2="198.333" gradientTransform="matrix(0.0222222,0,0,0.0222222,0,0)">
<stop offset="0" style="stop-color:rgb(100%,34.117647%,74.117647%);stop-opacity:1;"/>
<stop offset="1" style="stop-color:rgb(63.529412%,50.588235%,100%);stop-opacity:1;"/>
</linearGradient>
<linearGradient id="linear5" gradientUnits="userSpaceOnUse" x1="383.534" y1="809.666" x2="383.534" y2="211" gradientTransform="matrix(0.0222222,0,0,0.0222222,0,0)">
<stop offset="0" style="stop-color:rgb(100%,34.117647%,74.117647%);stop-opacity:1;"/>
<stop offset="1" style="stop-color:rgb(63.529412%,50.588235%,100%);stop-opacity:1;"/>
</linearGradient>
<linearGradient id="linear6" gradientUnits="userSpaceOnUse" x1="309.935" y1="822.332" x2="309.935" y2="223.667" gradientTransform="matrix(0.0222222,0,0,0.0222222,0,0)">
<stop offset="0" style="stop-color:rgb(100%,34.117647%,74.117647%);stop-opacity:1;"/>
<stop offset="1" style="stop-color:rgb(63.529412%,50.588235%,100%);stop-opacity:1;"/>
</linearGradient>
<linearGradient id="linear7" gradientUnits="userSpaceOnUse" x1="236.334" y1="834.998" x2="236.334" y2="236.333" gradientTransform="matrix(0.0222222,0,0,0.0222222,0,0)">
<stop offset="0" style="stop-color:rgb(100%,34.117647%,74.117647%);stop-opacity:1;"/>
<stop offset="1" style="stop-color:rgb(63.529412%,50.588235%,100%);stop-opacity:1;"/>
</linearGradient>
<clipPath id="clip1">
  <rect x="0" y="0" width="20" height="20"/>
</clipPath>
<g id="surface5" clip-path="url(#clip1)">
<path style=" stroke:none;fill-rule:nonzero;fill:url(#linear2);" d="M 13.484375 15.921875 L 13.484375 5.472656 C 13.453125 5.484375 13.417969 5.492188 13.386719 5.503906 L 13.375 5.507812 L 13.375 15.902344 C 13.410156 15.910156 13.449219 15.914062 13.484375 15.921875 Z M 13.484375 15.921875 "/>
<path style=" stroke:none;fill-rule:nonzero;fill:url(#linear3);" d="M 11.851562 15.773438 L 11.851562 5.941406 C 11.8125 5.949219 11.773438 5.957031 11.738281 5.96875 L 11.738281 15.773438 C 11.777344 15.773438 11.8125 15.773438 11.851562 15.773438 Z M 11.851562 15.773438 "/>
<path style=" stroke:none;fill-rule:nonzero;fill:url(#linear4);" d="M 10.214844 15.832031 L 10.214844 6.292969 L 10.101562 6.316406 L 10.101562 15.84375 C 10.140625 15.839844 10.175781 15.835938 10.214844 15.832031 Z M 10.214844 15.832031 "/>
<path style=" stroke:none;fill-rule:nonzero;fill:url(#linear5);" d="M 8.578125 16.105469 L 8.578125 6.648438 C 8.542969 6.660156 8.503906 6.667969 8.46875 6.679688 L 8.46875 16.132812 C 8.503906 16.125 8.542969 16.113281 8.578125 16.105469 Z M 8.578125 16.105469 "/>
<path style=" stroke:none;fill-rule:nonzero;fill:url(#linear6);" d="M 6.941406 16.679688 L 6.941406 7.140625 C 6.90625 7.152344 6.867188 7.167969 6.832031 7.179688 L 6.832031 16.730469 C 6.867188 16.714844 6.90625 16.699219 6.941406 16.679688 Z M 6.941406 16.679688 "/>
<path style=" stroke:none;fill-rule:nonzero;fill:url(#linear7);" d="M 5.308594 17.59375 L 5.308594 7.882812 C 5.269531 7.902344 5.234375 7.925781 5.195312 7.945312 L 5.195312 17.667969 C 5.234375 17.644531 5.269531 17.617188 5.308594 17.59375 Z M 5.308594 17.59375 "/>
</g>
<linearGradient id="linear8" gradientUnits="userSpaceOnUse" x1="353.05" y1="629.753" x2="634.157" y2="910.86" gradientTransform="matrix(0.0222222,0,0,0.0222222,0,0)">
<stop offset="0" style="stop-color:rgb(78.039216%,62.745098%,96.470588%);stop-opacity:1;"/>
<stop offset="1" style="stop-color:rgb(100%,34.117647%,74.117647%);stop-opacity:1;"/>
</linearGradient>
<linearGradient id="linear9" gradientUnits="userSpaceOnUse" x1="739.5" y1="419.5" x2="752.5" y2="419.5" gradientTransform="matrix(0.0222222,0,0,0.0222222,0,0)">
<stop offset="0" style="stop-color:rgb(100%,34.117647%,74.117647%);stop-opacity:1;"/>
<stop offset="1" style="stop-color:rgb(99.607843%,41.568627%,46.666667%);stop-opacity:1;"/>
</linearGradient>
<linearGradient id="linear10" gradientUnits="userSpaceOnUse" x1="694.75" y1="418.25" x2="707.75" y2="418.25" gradientTransform="matrix(0.0222222,0,0,0.0222222,0,0)">
<stop offset="0" style="stop-color:rgb(100%,34.117647%,74.117647%);stop-opacity:1;"/>
<stop offset="1" style="stop-color:rgb(99.607843%,41.568627%,46.666667%);stop-opacity:1;"/>
</linearGradient>
<linearGradient id="linear11" gradientUnits="userSpaceOnUse" x1="426.948" y1="256.53" x2="163.764" y2="24.259" gradientTransform="matrix(-0.0188867,0.000353333,-0.000417778,-0.0222178,11.010156,6.961289)">
<stop offset="0" style="stop-color:rgb(10.196078%,66.27451%,90.980392%);stop-opacity:1;"/>
<stop offset="1" style="stop-color:rgb(35.294118%,33.333333%,97.254902%);stop-opacity:1;"/>
</linearGradient>
<linearGradient id="linear12" gradientUnits="userSpaceOnUse" x1="419.563" y1="751.291" x2="608.225" y2="751.291" gradientTransform="matrix(0.0222222,0,0,0.0222222,0,0)">
<stop offset="0" style="stop-color:rgb(100%,88.627451%,65.882353%);stop-opacity:1;"/>
<stop offset="0.418" style="stop-color:rgb(59.215686%,88.627451%,76.862745%);stop-opacity:1;"/>
<stop offset="1" style="stop-color:rgb(0%,88.627451%,92.54902%);stop-opacity:1;"/>
</linearGradient>
<linearGradient id="linear13" gradientUnits="userSpaceOnUse" x1="313.642" y1="717.443" x2="502.304" y2="717.443" gradientTransform="matrix(0.0222222,0,0,0.0222222,0,0)">
<stop offset="0" style="stop-color:rgb(100%,88.627451%,65.882353%);stop-opacity:1;"/>
<stop offset="0.418" style="stop-color:rgb(59.215686%,88.627451%,76.862745%);stop-opacity:1;"/>
<stop offset="1" style="stop-color:rgb(0%,88.627451%,92.54902%);stop-opacity:1;"/>
</linearGradient>
<linearGradient id="linear14" gradientUnits="userSpaceOnUse" x1="331" y1="586.654" x2="712.667" y2="586.654" gradientTransform="matrix(0.0222222,0,0,0.0222222,0,0)">
<stop offset="0" style="stop-color:rgb(60%,27.058824%,45.490196%);stop-opacity:1;"/>
<stop offset="1" style="stop-color:rgb(26.27451%,14.509804%,43.529412%);stop-opacity:1;"/>
</linearGradient>
<linearGradient id="linear15" gradientUnits="userSpaceOnUse" x1="90.478" y1="710.313" x2="178.5" y2="710.313" gradientTransform="matrix(0.0222222,0,0,0.0222222,0,0)">
<stop offset="0" style="stop-color:rgb(95.686275%,74.509804%,63.921569%);stop-opacity:1;"/>
<stop offset="1" style="stop-color:rgb(90.980392%,52.941176%,55.686275%);stop-opacity:1;"/>
</linearGradient>
<linearGradient id="linear16" gradientUnits="userSpaceOnUse" x1="82.517" y1="698.99" x2="119.554" y2="698.99" gradientTransform="matrix(0.0222222,0,0,0.0222222,0,0)">
<stop offset="0" style="stop-color:rgb(99.607843%,41.568627%,46.666667%);stop-opacity:1;"/>
<stop offset="1" style="stop-color:rgb(78.823529%,10.980392%,56.862745%);stop-opacity:1;"/>
</linearGradient>
<linearGradient id="linear17" gradientUnits="userSpaceOnUse" x1="80.72" y1="709.963" x2="116.339" y2="709.963" gradientTransform="matrix(0.0222222,0,0,0.0222222,0,0)">
<stop offset="0" style="stop-color:rgb(60%,27.058824%,45.490196%);stop-opacity:1;"/>
<stop offset="1" style="stop-color:rgb(26.27451%,14.509804%,43.529412%);stop-opacity:1;"/>
</linearGradient>
<linearGradient id="linear18" gradientUnits="userSpaceOnUse" x1="147.665" y1="640.316" x2="475.585" y2="640.316" gradientTransform="matrix(0.0222222,0,0,0.0222222,0,0)">
<stop offset="0" style="stop-color:rgb(1.960784%,77.254902%,85.490196%);stop-opacity:1;"/>
<stop offset="1" style="stop-color:rgb(34.509804%,37.647059%,76.862745%);stop-opacity:1;"/>
</linearGradient>
<linearGradient id="linear19" gradientUnits="userSpaceOnUse" x1="421.053" y1="453.76" x2="500.088" y2="532.795" gradientTransform="matrix(0.0222222,0,0,0.0222222,0,0)">
<stop offset="0" style="stop-color:rgb(97.647059%,63.137255%,26.666667%);stop-opacity:1;"/>
<stop offset="1" style="stop-color:rgb(99.215686%,88.235294%,65.490196%);stop-opacity:1;"/>
</linearGradient>
<linearGradient id="linear20" gradientUnits="userSpaceOnUse" x1="302.5" y1="521.429" x2="365.244" y2="521.429" gradientTransform="matrix(0.0222222,0,0,0.0222222,0,0)">
<stop offset="0" style="stop-color:rgb(95.686275%,74.509804%,63.921569%);stop-opacity:1;"/>
<stop offset="1" style="stop-color:rgb(90.980392%,52.941176%,55.686275%);stop-opacity:1;"/>
</linearGradient>
<linearGradient id="linear21" gradientUnits="userSpaceOnUse" x1="345.129" y1="745.438" x2="405.663" y2="745.438" gradientTransform="matrix(0.0222222,0,0,0.0222222,0,0)">
<stop offset="0" style="stop-color:rgb(95.686275%,74.509804%,63.921569%);stop-opacity:1;"/>
<stop offset="1" style="stop-color:rgb(90.980392%,52.941176%,55.686275%);stop-opacity:1;"/>
</linearGradient>
<linearGradient id="linear22" gradientUnits="userSpaceOnUse" x1="337.84" y1="769.113" x2="379.625" y2="769.113" gradientTransform="matrix(0.0222222,0,0,0.0222222,0,0)">
<stop offset="0" style="stop-color:rgb(99.607843%,41.568627%,46.666667%);stop-opacity:1;"/>
<stop offset="1" style="stop-color:rgb(78.823529%,10.980392%,56.862745%);stop-opacity:1;"/>
</linearGradient>
<linearGradient id="linear23" gradientUnits="userSpaceOnUse" x1="337.84" y1="771.053" x2="410.944" y2="771.053" gradientTransform="matrix(0.0222222,0,0,0.0222222,0,0)">
<stop offset="0" style="stop-color:rgb(60%,27.058824%,45.490196%);stop-opacity:1;"/>
<stop offset="1" style="stop-color:rgb(26.27451%,14.509804%,43.529412%);stop-opacity:1;"/>
</linearGradient>
<linearGradient id="linear24" gradientUnits="userSpaceOnUse" x1="263.211" y1="618.234" x2="500.81" y2="618.234" gradientTransform="matrix(0.0222222,0,0,0.0222222,0,0)">
<stop offset="0" style="stop-color:rgb(0%,88.627451%,92.54902%);stop-opacity:1;"/>
<stop offset="1" style="stop-color:rgb(0%,56.470588%,69.803922%);stop-opacity:1;"/>
</linearGradient>
<linearGradient id="linear25" gradientUnits="userSpaceOnUse" x1="483.097" y1="500.807" x2="604.12" y2="621.83" gradientTransform="matrix(0.0222222,0,0,0.0222222,0,0)">
<stop offset="0" style="stop-color:rgb(99.215686%,88.235294%,65.490196%);stop-opacity:1;"/>
<stop offset="1" style="stop-color:rgb(97.647059%,63.137255%,26.666667%);stop-opacity:1;"/>
</linearGradient>
<linearGradient id="linear26" gradientUnits="userSpaceOnUse" x1="553.639" y1="380.236" x2="577.001" y2="380.236" gradientTransform="matrix(0.0222222,0,0,0.0222222,0,0)">
<stop offset="0" style="stop-color:rgb(77.254902%,9.411765%,55.686275%);stop-opacity:1;"/>
<stop offset="1" style="stop-color:rgb(62.352941%,21.176471%,67.843137%);stop-opacity:1;"/>
</linearGradient>
<linearGradient id="linear27" gradientUnits="userSpaceOnUse" x1="544.295" y1="412.739" x2="606.076" y2="412.739" gradientTransform="matrix(0.0222222,0,0,0.0222222,0,0)">
<stop offset="0" style="stop-color:rgb(95.686275%,74.509804%,63.921569%);stop-opacity:1;"/>
<stop offset="1" style="stop-color:rgb(90.980392%,52.941176%,55.686275%);stop-opacity:1;"/>
</linearGradient>
<linearGradient id="linear28" gradientUnits="userSpaceOnUse" x1="550.33" y1="408.396" x2="571.5" y2="408.396" gradientTransform="matrix(0.0222222,0,0,0.0222222,0,0)">
<stop offset="0" style="stop-color:rgb(100%,34.117647%,74.117647%);stop-opacity:1;"/>
<stop offset="1" style="stop-color:rgb(93.72549%,65.098039%,60.392157%);stop-opacity:1;"/>
</linearGradient>
<linearGradient id="linear29" gradientUnits="userSpaceOnUse" x1="563.111" y1="389.066" x2="622.519" y2="389.066" gradientTransform="matrix(0.0222222,0,0,0.0222222,0,0)">
<stop offset="0" style="stop-color:rgb(79.607843%,12.54902%,56.470588%);stop-opacity:1;"/>
<stop offset="1" style="stop-color:rgb(26.27451%,14.509804%,43.529412%);stop-opacity:1;"/>
</linearGradient>
<linearGradient id="linear30" gradientUnits="userSpaceOnUse" x1="429.762" y1="460.802" x2="456.681" y2="460.802" gradientTransform="matrix(0.0222222,0,0,0.0222222,0,0)">
<stop offset="0" style="stop-color:rgb(60%,27.058824%,45.490196%);stop-opacity:1;"/>
<stop offset="1" style="stop-color:rgb(26.27451%,14.509804%,43.529412%);stop-opacity:1;"/>
</linearGradient>
<linearGradient id="linear31" gradientUnits="userSpaceOnUse" x1="426.451" y1="482.813" x2="467.063" y2="482.813" gradientTransform="matrix(0.0222222,0,0,0.0222222,0,0)">
<stop offset="0" style="stop-color:rgb(95.686275%,74.509804%,63.921569%);stop-opacity:1;"/>
<stop offset="1" style="stop-color:rgb(90.980392%,52.941176%,55.686275%);stop-opacity:1;"/>
</linearGradient>
<linearGradient id="linear32" gradientUnits="userSpaceOnUse" x1="442.031" y1="568.041" x2="636.945" y2="568.041" gradientTransform="matrix(0.0222222,0,0,0.0222222,0,0)">
<stop offset="0" style="stop-color:rgb(99.215686%,88.235294%,65.490196%);stop-opacity:1;"/>
<stop offset="1" style="stop-color:rgb(97.647059%,63.137255%,26.666667%);stop-opacity:1;"/>
</linearGradient>
<linearGradient id="linear33" gradientUnits="userSpaceOnUse" x1="527.498" y1="649.902" x2="623.648" y2="649.902" gradientTransform="matrix(0.0222222,0,0,0.0222222,0,0)">
<stop offset="0" style="stop-color:rgb(100%,34.117647%,74.117647%);stop-opacity:1;"/>
<stop offset="1" style="stop-color:rgb(99.607843%,41.568627%,46.666667%);stop-opacity:1;"/>
</linearGradient>
<linearGradient id="linear34" gradientUnits="userSpaceOnUse" x1="535.375" y1="674.67" x2="663.94" y2="674.67" gradientTransform="matrix(0.0222222,0,0,0.0222222,0,0)">
<stop offset="0" style="stop-color:rgb(100%,88.627451%,65.882353%);stop-opacity:1;"/>
<stop offset="0.105" style="stop-color:rgb(98.039216%,88.627451%,66.27451%);stop-opacity:1;"/>
<stop offset="0.228" style="stop-color:rgb(92.54902%,88.627451%,67.843137%);stop-opacity:1;"/>
<stop offset="0.362" style="stop-color:rgb(83.137255%,88.627451%,70.196078%);stop-opacity:1;"/>
<stop offset="0.502" style="stop-color:rgb(70.196078%,88.627451%,73.72549%);stop-opacity:1;"/>
<stop offset="0.647" style="stop-color:rgb(53.333333%,88.627451%,78.431373%);stop-opacity:1;"/>
<stop offset="0.797" style="stop-color:rgb(32.941176%,88.627451%,83.921569%);stop-opacity:1;"/>
<stop offset="0.948" style="stop-color:rgb(9.019608%,88.627451%,90.196078%);stop-opacity:1;"/>
<stop offset="1" style="stop-color:rgb(0%,88.627451%,92.54902%);stop-opacity:1;"/>
</linearGradient>
<linearGradient id="linear35" gradientUnits="userSpaceOnUse" x1="341.642" y1="702.534" x2="279.418" y2="764.759" gradientTransform="matrix(-0.0222222,0,0,0.0222222,23.718067,0)">
<stop offset="0" style="stop-color:rgb(35.294118%,33.333333%,97.254902%);stop-opacity:1;"/>
<stop offset="1" style="stop-color:rgb(54.901961%,41.568627%,88.627451%);stop-opacity:1;"/>
</linearGradient>
<linearGradient id="linear36" gradientUnits="userSpaceOnUse" x1="794.391" y1="693.666" x2="751.183" y2="736.874" gradientTransform="matrix(0.0222222,0,0,0.0222222,0,0)">
<stop offset="0" style="stop-color:rgb(60%,27.058824%,45.490196%);stop-opacity:1;"/>
<stop offset="1" style="stop-color:rgb(26.27451%,14.509804%,43.529412%);stop-opacity:1;"/>
</linearGradient>
<linearGradient id="linear37" gradientUnits="userSpaceOnUse" x1="274.244" y1="519.738" x2="296.513" y2="519.738" gradientTransform="matrix(-0.0222222,0,0,0.0222222,23.718067,0)">
<stop offset="0" style="stop-color:rgb(97.647059%,63.137255%,26.666667%);stop-opacity:1;"/>
<stop offset="1" style="stop-color:rgb(99.215686%,88.235294%,65.490196%);stop-opacity:1;"/>
</linearGradient>
<linearGradient id="linear38" gradientUnits="userSpaceOnUse" x1="295.665" y1="677.441" x2="410.877" y2="677.441" gradientTransform="matrix(-0.0222222,0,0,0.0222222,23.718067,0)">
<stop offset="0" style="stop-color:rgb(0%,56.470588%,69.803922%);stop-opacity:1;"/>
<stop offset="1" style="stop-color:rgb(0%,88.627451%,92.54902%);stop-opacity:1;"/>
</linearGradient>
<linearGradient id="linear39" gradientUnits="userSpaceOnUse" x1="309.746" y1="694.78" x2="346.477" y2="694.78" gradientTransform="matrix(-0.0222222,0,0,0.0222222,23.718067,0)">
<stop offset="0" style="stop-color:rgb(97.647059%,63.137255%,26.666667%);stop-opacity:1;"/>
<stop offset="1" style="stop-color:rgb(99.215686%,88.235294%,65.490196%);stop-opacity:1;"/>
</linearGradient>
<linearGradient id="linear40" gradientUnits="userSpaceOnUse" x1="229.246" y1="646.25" x2="281.693" y2="646.25" gradientTransform="matrix(-0.0222222,0,0,0.0222222,23.718067,0)">
<stop offset="0" style="stop-color:rgb(0%,56.470588%,69.803922%);stop-opacity:1;"/>
<stop offset="1" style="stop-color:rgb(0%,88.627451%,92.54902%);stop-opacity:1;"/>
</linearGradient>
<linearGradient id="linear41" gradientUnits="userSpaceOnUse" x1="283.163" y1="615.102" x2="336.956" y2="615.102" gradientTransform="matrix(-0.0222222,0,0,0.0222222,23.718067,0)">
<stop offset="0" style="stop-color:rgb(97.647059%,63.137255%,26.666667%);stop-opacity:1;"/>
<stop offset="1" style="stop-color:rgb(99.215686%,88.235294%,65.490196%);stop-opacity:1;"/>
</linearGradient>
<linearGradient id="linear42" gradientUnits="userSpaceOnUse" x1="242.845" y1="629.467" x2="334.998" y2="629.467" gradientTransform="matrix(-0.0222222,0,0,0.0222222,23.718067,0)">
<stop offset="0" style="stop-color:rgb(99.607843%,41.568627%,46.666667%);stop-opacity:1;"/>
<stop offset="1" style="stop-color:rgb(100%,34.117647%,74.117647%);stop-opacity:1;"/>
</linearGradient>
<linearGradient id="linear43" gradientUnits="userSpaceOnUse" x1="351.205" y1="679.873" x2="373.848" y2="679.873" gradientTransform="matrix(-0.0222222,0,0,0.0222222,23.718067,0)">
<stop offset="0" style="stop-color:rgb(0%,56.470588%,69.803922%);stop-opacity:1;"/>
<stop offset="1" style="stop-color:rgb(0%,88.627451%,92.54902%);stop-opacity:1;"/>
</linearGradient>
<linearGradient id="linear44" gradientUnits="userSpaceOnUse" x1="317.907" y1="283.337" x2="317.907" y2="180.885" gradientTransform="matrix(0.0222222,0,0,0.0222222,0,0)">
<stop offset="0" style="stop-color:rgb(60%,27.058824%,45.490196%);stop-opacity:1;"/>
<stop offset="1" style="stop-color:rgb(26.27451%,14.509804%,43.529412%);stop-opacity:1;"/>
</linearGradient>
<linearGradient id="linear45" gradientUnits="userSpaceOnUse" x1="324.393" y1="232.447" x2="339.981" y2="232.447" gradientTransform="matrix(0.0222222,0,0,0.0222222,0,0)">
<stop offset="0" style="stop-color:rgb(99.215686%,88.235294%,65.490196%);stop-opacity:1;"/>
<stop offset="1" style="stop-color:rgb(97.647059%,63.137255%,26.666667%);stop-opacity:1;"/>
</linearGradient>
<linearGradient id="linear46" gradientUnits="userSpaceOnUse" x1="332.478" y1="276.347" x2="345.977" y2="276.347" gradientTransform="matrix(0.0222222,0,0,0.0222222,0,0)">
<stop offset="0" style="stop-color:rgb(99.215686%,88.235294%,65.490196%);stop-opacity:1;"/>
<stop offset="1" style="stop-color:rgb(97.647059%,63.137255%,26.666667%);stop-opacity:1;"/>
</linearGradient>
<linearGradient id="linear47" gradientUnits="userSpaceOnUse" x1="309.332" y1="301.089" x2="348.347" y2="301.089" gradientTransform="matrix(0.0222222,0,0,0.0222222,0,0)">
<stop offset="0" style="stop-color:rgb(60%,27.058824%,45.490196%);stop-opacity:1;"/>
<stop offset="1" style="stop-color:rgb(26.27451%,14.509804%,43.529412%);stop-opacity:1;"/>
</linearGradient>
<linearGradient id="linear48" gradientUnits="userSpaceOnUse" x1="309.332" y1="297.394" x2="335.383" y2="297.394" gradientTransform="matrix(0.0222222,0,0,0.0222222,0,0)">
<stop offset="0" style="stop-color:rgb(78.039216%,62.745098%,96.470588%);stop-opacity:1;"/>
<stop offset="1" style="stop-color:rgb(100%,34.117647%,74.117647%);stop-opacity:1;"/>
</linearGradient>
<linearGradient id="linear49" gradientUnits="userSpaceOnUse" x1="202" y1="378.667" x2="335" y2="378.667" gradientTransform="matrix(0.0222222,0,0,0.0222222,0,0)">
<stop offset="0" style="stop-color:rgb(99.215686%,88.235294%,65.490196%);stop-opacity:1;"/>
<stop offset="1" style="stop-color:rgb(97.647059%,63.137255%,26.666667%);stop-opacity:1;"/>
</linearGradient>
<linearGradient id="linear50" gradientUnits="userSpaceOnUse" x1="335" y1="359.334" x2="363.334" y2="359.334" gradientTransform="matrix(0.0222222,0,0,0.0222222,0,0)">
<stop offset="0" style="stop-color:rgb(91.764706%,50.588235%,14.117647%);stop-opacity:1;"/>
<stop offset="0.096" style="stop-color:rgb(87.058824%,52.156863%,18.039216%);stop-opacity:1;"/>
<stop offset="0.269" style="stop-color:rgb(74.509804%,55.686275%,27.843137%);stop-opacity:1;"/>
<stop offset="0.5" style="stop-color:rgb(54.117647%,61.568627%,43.921569%);stop-opacity:1;"/>
<stop offset="0.777" style="stop-color:rgb(26.27451%,70.196078%,66.27451%);stop-opacity:1;"/>
<stop offset="1" style="stop-color:rgb(1.960784%,77.254902%,85.490196%);stop-opacity:1;"/>
</linearGradient>
<linearGradient id="linear51" gradientUnits="userSpaceOnUse" x1="252" y1="275.668" x2="318.5" y2="342.167" gradientTransform="matrix(0.0222222,0,0,0.0222222,0,0)">
<stop offset="0" style="stop-color:rgb(0%,88.627451%,92.54902%);stop-opacity:1;"/>
<stop offset="0.017" style="stop-color:rgb(2.745098%,88.627451%,91.764706%);stop-opacity:1;"/>
<stop offset="0.179" style="stop-color:rgb(28.235294%,88.627451%,85.098039%);stop-opacity:1;"/>
<stop offset="0.34" style="stop-color:rgb(50.196078%,88.627451%,79.215686%);stop-opacity:1;"/>
<stop offset="0.494" style="stop-color:rgb(67.843137%,88.627451%,74.509804%);stop-opacity:1;"/>
<stop offset="0.64" style="stop-color:rgb(81.960784%,88.627451%,70.588235%);stop-opacity:1;"/>
<stop offset="0.777" style="stop-color:rgb(91.764706%,88.627451%,68.235294%);stop-opacity:1;"/>
<stop offset="0.901" style="stop-color:rgb(98.039216%,88.627451%,66.27451%);stop-opacity:1;"/>
<stop offset="1" style="stop-color:rgb(100%,88.627451%,65.882353%);stop-opacity:1;"/>
</linearGradient>
<linearGradient id="linear52" gradientUnits="userSpaceOnUse" x1="234.875" y1="249.551" x2="234.875" y2="108.685" gradientTransform="matrix(0.0222222,0,0,0.0222222,0,0)">
<stop offset="0" style="stop-color:rgb(99.607843%,41.568627%,46.666667%);stop-opacity:1;"/>
<stop offset="1" style="stop-color:rgb(100%,34.117647%,74.117647%);stop-opacity:1;"/>
</linearGradient>
<linearGradient id="linear53" gradientUnits="userSpaceOnUse" x1="247.306" y1="179.833" x2="278.635" y2="179.833" gradientTransform="matrix(0.0222222,0,0,0.0222222,0,0)">
<stop offset="0" style="stop-color:rgb(99.215686%,88.235294%,65.490196%);stop-opacity:1;"/>
<stop offset="1" style="stop-color:rgb(97.647059%,63.137255%,26.666667%);stop-opacity:1;"/>
</linearGradient>
<linearGradient id="linear54" gradientUnits="userSpaceOnUse" x1="166.982" y1="145.113" x2="245.01" y2="223.141" gradientTransform="matrix(0.0222222,0,0,0.0222222,0,0)">
<stop offset="0" style="stop-color:rgb(78.039216%,62.745098%,96.470588%);stop-opacity:1;"/>
<stop offset="1" style="stop-color:rgb(100%,34.117647%,74.117647%);stop-opacity:1;"/>
</linearGradient>
<linearGradient id="linear55" gradientUnits="userSpaceOnUse" x1="198.81" y1="119.533" x2="258.694" y2="119.533" gradientTransform="matrix(0.0222222,0,0,0.0222222,0,0)">
<stop offset="0" style="stop-color:rgb(99.215686%,88.235294%,65.490196%);stop-opacity:1;"/>
<stop offset="1" style="stop-color:rgb(97.647059%,63.137255%,26.666667%);stop-opacity:1;"/>
</linearGradient>
<linearGradient id="linear56" gradientUnits="userSpaceOnUse" x1="195.283" y1="197.609" x2="211.183" y2="197.609" gradientTransform="matrix(0.0222222,0,0,0.0222222,0,0)">
<stop offset="0" style="stop-color:rgb(99.215686%,88.235294%,65.490196%);stop-opacity:1;"/>
<stop offset="1" style="stop-color:rgb(97.647059%,63.137255%,26.666667%);stop-opacity:1;"/>
</linearGradient>
<linearGradient id="linear57" gradientUnits="userSpaceOnUse" x1="205.169" y1="185.984" x2="233.402" y2="185.984" gradientTransform="matrix(0.0222222,0,0,0.0222222,0,0)">
<stop offset="0" style="stop-color:rgb(99.215686%,88.235294%,65.490196%);stop-opacity:1;"/>
<stop offset="1" style="stop-color:rgb(97.647059%,63.137255%,26.666667%);stop-opacity:1;"/>
</linearGradient>
<linearGradient id="linear58" gradientUnits="userSpaceOnUse" x1="199.081" y1="117.3" x2="257.274" y2="117.3" gradientTransform="matrix(0.0222222,0,0,0.0222222,0,0)">
<stop offset="0" style="stop-color:rgb(78.039216%,62.745098%,96.470588%);stop-opacity:1;"/>
<stop offset="1" style="stop-color:rgb(100%,34.117647%,74.117647%);stop-opacity:1;"/>
</linearGradient>
<linearGradient id="linear59" gradientUnits="userSpaceOnUse" x1="159.984" y1="213.909" x2="308.957" y2="213.909" gradientTransform="matrix(0.0222222,0,0,0.0222222,0,0)">
<stop offset="0" style="stop-color:rgb(99.215686%,88.235294%,65.490196%);stop-opacity:1;"/>
<stop offset="1" style="stop-color:rgb(97.647059%,63.137255%,26.666667%);stop-opacity:1;"/>
</linearGradient>
<linearGradient id="linear60" gradientUnits="userSpaceOnUse" x1="231.5" y1="92.165" x2="236.667" y2="92.165" gradientTransform="matrix(0.0222222,0,0,0.0222222,0,0)">
<stop offset="0" style="stop-color:rgb(99.215686%,88.235294%,65.490196%);stop-opacity:1;"/>
<stop offset="1" style="stop-color:rgb(97.647059%,63.137255%,26.666667%);stop-opacity:1;"/>
</linearGradient>
<linearGradient id="linear61" gradientUnits="userSpaceOnUse" x1="203.625" y1="45.166" x2="264.793" y2="106.334" gradientTransform="matrix(0.0222222,0,0,0.0222222,0,0)">
<stop offset="0" style="stop-color:rgb(62.352941%,21.176471%,67.843137%);stop-opacity:1;"/>
<stop offset="1" style="stop-color:rgb(26.27451%,14.509804%,43.529412%);stop-opacity:1;"/>
</linearGradient>
<linearGradient id="linear62" gradientUnits="userSpaceOnUse" x1="173.465" y1="309.875" x2="173.465" y2="195.829" gradientTransform="matrix(0.0222222,0,0,0.0222222,0,0)">
<stop offset="0" style="stop-color:rgb(60%,27.058824%,45.490196%);stop-opacity:1;"/>
<stop offset="1" style="stop-color:rgb(26.27451%,14.509804%,43.529412%);stop-opacity:1;"/>
</linearGradient>
<linearGradient id="linear63" gradientUnits="userSpaceOnUse" x1="156.865" y1="257.07" x2="173.407" y2="257.07" gradientTransform="matrix(0.0222222,0,0,0.0222222,0,0)">
<stop offset="0" style="stop-color:rgb(99.215686%,88.235294%,65.490196%);stop-opacity:1;"/>
<stop offset="1" style="stop-color:rgb(97.647059%,63.137255%,26.666667%);stop-opacity:1;"/>
</linearGradient>
<linearGradient id="linear64" gradientUnits="userSpaceOnUse" x1="162.613" y1="301.57" x2="176.733" y2="301.57" gradientTransform="matrix(0.0222222,0,0,0.0222222,0,0)">
<stop offset="0" style="stop-color:rgb(99.215686%,88.235294%,65.490196%);stop-opacity:1;"/>
<stop offset="1" style="stop-color:rgb(97.647059%,63.137255%,26.666667%);stop-opacity:1;"/>
</linearGradient>
<linearGradient id="linear65" gradientUnits="userSpaceOnUse" x1="165.125" y1="322.889" x2="208.789" y2="322.889" gradientTransform="matrix(0.0222222,0,0,0.0222222,0,0)">
<stop offset="0" style="stop-color:rgb(100%,34.117647%,74.117647%);stop-opacity:1;"/>
<stop offset="1" style="stop-color:rgb(99.607843%,41.568627%,46.666667%);stop-opacity:1;"/>
</linearGradient>
<linearGradient id="linear66" gradientUnits="userSpaceOnUse" x1="177.247" y1="318.368" x2="195.638" y2="318.368" gradientTransform="matrix(0.0222222,0,0,0.0222222,0,0)">
<stop offset="0" style="stop-color:rgb(99.215686%,88.235294%,65.490196%);stop-opacity:1;"/>
<stop offset="1" style="stop-color:rgb(97.647059%,63.137255%,26.666667%);stop-opacity:1;"/>
</linearGradient>
<linearGradient id="linear67" gradientUnits="userSpaceOnUse" x1="209.028" y1="319.424" x2="225.377" y2="319.424" gradientTransform="matrix(0.0222222,0,0,0.0222222,0,0)">
<stop offset="0" style="stop-color:rgb(100%,34.117647%,74.117647%);stop-opacity:1;"/>
<stop offset="1" style="stop-color:rgb(99.607843%,41.568627%,46.666667%);stop-opacity:1;"/>
</linearGradient>
<linearGradient id="linear68" gradientUnits="userSpaceOnUse" x1="200.935" y1="348.245" x2="220.938" y2="348.245" gradientTransform="matrix(0.0222222,0,0,0.0222222,0,0)">
<stop offset="0" style="stop-color:rgb(100%,34.117647%,74.117647%);stop-opacity:1;"/>
<stop offset="1" style="stop-color:rgb(99.607843%,41.568627%,46.666667%);stop-opacity:1;"/>
</linearGradient>
<linearGradient id="linear69" gradientUnits="userSpaceOnUse" x1="185.377" y1="357.789" x2="202.638" y2="357.789" gradientTransform="matrix(0.0222222,0,0,0.0222222,0,0)">
<stop offset="0" style="stop-color:rgb(100%,34.117647%,74.117647%);stop-opacity:1;"/>
<stop offset="1" style="stop-color:rgb(99.607843%,41.568627%,46.666667%);stop-opacity:1;"/>
</linearGradient>
<linearGradient id="linear70" gradientUnits="userSpaceOnUse" x1="209.091" y1="319.647" x2="225.375" y2="319.647" gradientTransform="matrix(0.0222222,0,0,0.0222222,0,0)">
<stop offset="0" style="stop-color:rgb(26.27451%,14.509804%,43.529412%);stop-opacity:1;"/>
<stop offset="1" style="stop-color:rgb(60%,27.058824%,45.490196%);stop-opacity:1;"/>
</linearGradient>
<linearGradient id="linear71" gradientUnits="userSpaceOnUse" x1="200.935" y1="344.435" x2="220.938" y2="344.435" gradientTransform="matrix(0.0222222,0,0,0.0222222,0,0)">
<stop offset="0" style="stop-color:rgb(26.27451%,14.509804%,43.529412%);stop-opacity:1;"/>
<stop offset="1" style="stop-color:rgb(60%,27.058824%,45.490196%);stop-opacity:1;"/>
</linearGradient>
<linearGradient id="linear72" gradientUnits="userSpaceOnUse" x1="185.385" y1="356.842" x2="202.638" y2="356.842" gradientTransform="matrix(0.0222222,0,0,0.0222222,0,0)">
<stop offset="0" style="stop-color:rgb(26.27451%,14.509804%,43.529412%);stop-opacity:1;"/>
<stop offset="1" style="stop-color:rgb(60%,27.058824%,45.490196%);stop-opacity:1;"/>
</linearGradient>
<linearGradient id="linear73" gradientUnits="userSpaceOnUse" x1="173.438" y1="316.643" x2="208.789" y2="316.643" gradientTransform="matrix(0.0222222,0,0,0.0222222,0,0)">
<stop offset="0" style="stop-color:rgb(26.27451%,14.509804%,43.529412%);stop-opacity:1;"/>
<stop offset="1" style="stop-color:rgb(60%,27.058824%,45.490196%);stop-opacity:1;"/>
</linearGradient>
</defs>
<g id="surface1">
<path style=" stroke:none;fill-rule:nonzero;fill:url(#linear0);" d="M 17.15625 5.800781 C 17.921875 6.378906 18.265625 7.167969 18.097656 8.527344 C 17.949219 9.726562 17.464844 10.207031 17.800781 11.296875 C 18.109375 12.308594 19.273438 15.015625 17.398438 16.933594 C 15.523438 18.847656 12.257812 18.347656 11.089844 18.183594 C 9.917969 18.023438 8.464844 17.734375 6.808594 18.199219 C 5.296875 18.625 3.976562 18.339844 3.515625 17.199219 C 3.0625 16.070312 3.695312 14.660156 4.15625 13.859375 C 4.613281 13.058594 4.664062 12.367188 3.976562 12.082031 C 3.167969 11.746094 2.621094 10.765625 3.476562 9.511719 C 4.238281 8.398438 5.679688 7.316406 8.96875 6.554688 C 10.460938 6.210938 11.535156 6.101562 13.386719 5.503906 C 14.484375 5.148438 16.144531 5.039062 17.15625 5.800781 Z M 17.15625 5.800781 "/>
<path style=" stroke:none;fill-rule:nonzero;fill:url(#linear1);" d="M 17.800781 11.296875 C 17.464844 10.207031 17.949219 9.726562 18.097656 8.527344 C 18.265625 7.167969 17.921875 6.378906 17.15625 5.800781 C 16.457031 5.273438 15.449219 5.164062 14.535156 5.261719 L 14.535156 15.753906 L 17.566406 16.75 C 19.203125 14.847656 18.101562 12.277344 17.800781 11.296875 Z M 17.800781 11.296875 "/>
<path style=" stroke:none;fill-rule:nonzero;fill:rgb(10.196078%,66.27451%,90.980392%);fill-opacity:1;" d="M 16.121094 16.367188 L 16.121094 5.335938 C 16.101562 5.332031 16.078125 5.328125 16.054688 5.324219 L 16.054688 16.367188 Z M 16.121094 16.367188 "/>
<use xlink:href="#surface5" mask="url(#mask0)"/>
<path style=" stroke:none;fill-rule:nonzero;fill:url(#linear8);" d="M 6.808594 18.199219 C 8.464844 17.734375 9.917969 18.023438 11.089844 18.183594 C 12.257812 18.347656 15.523438 18.847656 17.398438 16.933594 C 17.59375 16.734375 17.753906 16.527344 17.890625 16.316406 C 16.824219 15.75 14.621094 14.957031 10.792969 15.132812 C 6.601562 15.328125 4.761719 16.722656 4.078125 17.949219 C 4.71875 18.441406 5.710938 18.507812 6.808594 18.199219 Z M 6.808594 18.199219 "/>
<path style=" stroke:none;fill-rule:nonzero;fill:url(#linear9);" d="M 16.722656 9.320312 C 16.722656 9.402344 16.65625 9.464844 16.578125 9.464844 C 16.496094 9.464844 16.433594 9.402344 16.433594 9.320312 C 16.433594 9.242188 16.496094 9.179688 16.578125 9.179688 C 16.65625 9.179688 16.722656 9.242188 16.722656 9.320312 Z M 16.722656 9.320312 "/>
<path style=" stroke:none;fill-rule:nonzero;fill:url(#linear10);" d="M 15.726562 9.292969 C 15.726562 9.375 15.664062 9.4375 15.582031 9.4375 C 15.503906 9.4375 15.4375 9.375 15.4375 9.292969 C 15.4375 9.214844 15.503906 9.148438 15.582031 9.148438 C 15.664062 9.148438 15.726562 9.214844 15.726562 9.292969 Z M 15.726562 9.292969 "/>
<path style=" stroke:none;fill-rule:nonzero;fill:url(#linear11);" d="M 3.199219 6.796875 C 2.609375 6.386719 3.417969 5.597656 2.894531 5 C 2.453125 4.488281 1.589844 4.023438 1.777344 3.046875 C 1.976562 2.023438 3.644531 1.703125 4.570312 1.886719 C 5.15625 2 5.253906 1.980469 6.28125 1.816406 C 7.617188 1.601562 8.65625 2.042969 9.179688 2.746094 C 9.671875 3.40625 9.75 4.421875 8.886719 4.898438 C 8.1875 5.28125 6.945312 5.476562 6.132812 5.765625 C 4.5 6.347656 3.816406 7.226562 3.199219 6.796875 Z M 3.199219 6.796875 "/>
<path style=" stroke:none;fill-rule:nonzero;fill:url(#linear12);" d="M 13.515625 16.601562 C 13.414062 16.5 13.304688 16.410156 13.183594 16.332031 C 13 16.210938 12.800781 16.113281 12.589844 16.039062 C 12.167969 15.898438 11.714844 15.859375 11.273438 15.917969 C 10.828125 15.980469 10.394531 16.148438 10.035156 16.429688 C 9.851562 16.566406 9.691406 16.734375 9.558594 16.929688 C 9.492188 17.027344 9.4375 17.128906 9.390625 17.234375 C 9.363281 17.292969 9.34375 17.351562 9.324219 17.410156 L 9.671875 17.5 C 9.710938 17.363281 9.769531 17.234375 9.84375 17.113281 C 9.945312 16.949219 10.078125 16.800781 10.230469 16.671875 C 10.535156 16.417969 10.914062 16.25 11.3125 16.175781 C 11.710938 16.105469 12.132812 16.125 12.527344 16.238281 C 12.839844 16.332031 13.136719 16.488281 13.382812 16.703125 Z M 13.515625 16.601562 "/>
<path style=" stroke:none;fill-rule:nonzero;fill:url(#linear13);" d="M 11.164062 15.871094 C 11.058594 15.769531 10.949219 15.679688 10.832031 15.601562 C 10.644531 15.480469 10.445312 15.382812 10.234375 15.308594 C 9.816406 15.167969 9.359375 15.128906 8.917969 15.1875 C 8.476562 15.25 8.042969 15.417969 7.679688 15.699219 C 7.5 15.839844 7.335938 16.003906 7.207031 16.199219 C 7.140625 16.296875 7.082031 16.398438 7.035156 16.503906 C 7.011719 16.5625 6.988281 16.621094 6.96875 16.679688 L 7.253906 16.726562 C 7.292969 16.589844 7.347656 16.460938 7.425781 16.339844 C 7.527344 16.175781 7.65625 16.027344 7.808594 15.898438 C 8.113281 15.644531 8.492188 15.476562 8.894531 15.402344 C 9.292969 15.332031 9.710938 15.347656 10.105469 15.464844 C 10.417969 15.558594 10.714844 15.710938 10.960938 15.929688 Z M 11.164062 15.871094 "/>
<path style=" stroke:none;fill-rule:nonzero;fill:url(#linear14);" d="M 15.835938 10.742188 L 12.132812 9.871094 C 12.132812 9.871094 11.730469 12.421875 10.394531 13.015625 C 8.820312 13.710938 7.355469 13.710938 7.355469 13.710938 L 8.113281 15.472656 C 8.113281 15.472656 9.398438 16.378906 11.371094 16.171875 C 14.550781 15.835938 15.449219 12.945312 15.835938 10.742188 Z M 15.835938 10.742188 "/>
<path style=" stroke:none;fill-rule:nonzero;fill:url(#linear15);" d="M 3.964844 16.042969 C 3.871094 16.109375 2.972656 16.398438 2.796875 16.40625 C 2.605469 16.417969 1.992188 15.414062 2.011719 15.230469 C 2.023438 15.117188 2.140625 15.167969 2.214844 15.214844 C 2.285156 15.261719 2.703125 15.554688 2.910156 15.574219 C 3.167969 15.601562 3.527344 15.34375 3.527344 15.34375 Z M 3.964844 16.042969 "/>
<path style=" stroke:none;fill-rule:nonzero;fill:url(#linear16);" d="M 2.65625 15.382812 C 2.675781 15.445312 2.546875 15.816406 2.253906 16.007812 C 1.761719 15.378906 1.835938 15.082031 1.835938 15.082031 C 1.835938 15.082031 1.875 15.050781 1.953125 15.0625 C 2.046875 15.078125 2.65625 15.382812 2.65625 15.382812 Z M 2.65625 15.382812 "/>
<path style=" stroke:none;fill-rule:nonzero;fill:url(#linear17);" d="M 1.867188 15.066406 C 1.878906 15.296875 2.058594 15.625 2.257812 15.949219 C 2.429688 16.222656 2.582031 16.4375 2.585938 16.449219 C 2.589844 16.460938 2.496094 16.503906 2.460938 16.480469 C 2.421875 16.453125 2.246094 16.199219 2.046875 15.816406 C 1.835938 15.417969 1.789062 15.242188 1.792969 15.160156 C 1.800781 15.074219 1.867188 15.066406 1.867188 15.066406 Z M 1.867188 15.066406 "/>
<path style=" stroke:none;fill-rule:nonzero;fill:url(#linear18);" d="M 9.546875 12.316406 C 9.546875 12.316406 6.855469 13.679688 5.769531 14.183594 C 4.769531 14.652344 3.285156 15.386719 3.28125 15.4375 C 3.277344 15.488281 3.734375 16.128906 3.894531 16.140625 C 4.214844 16.164062 6.445312 15.140625 7.109375 14.957031 C 7.644531 14.808594 10.195312 14.125 10.570312 14.0625 Z M 9.546875 12.316406 "/>
<path style=" stroke:none;fill-rule:nonzero;fill:rgb(0%,88.627451%,92.54902%);fill-opacity:1;" d="M 3.664062 15.988281 C 3.652344 15.988281 3.644531 15.980469 3.644531 15.96875 C 3.640625 15.957031 3.648438 15.949219 3.65625 15.945312 C 3.785156 15.902344 5.917969 15.113281 6.5 14.832031 C 6.511719 14.828125 6.527344 14.832031 6.53125 14.84375 C 6.535156 14.851562 6.53125 14.867188 6.519531 14.871094 C 5.9375 15.152344 3.800781 15.945312 3.671875 15.988281 C 3.667969 15.988281 3.667969 15.988281 3.664062 15.988281 Z M 3.664062 15.988281 "/>
<path style=" stroke:none;fill-rule:nonzero;fill:url(#linear19);" d="M 12.65625 10.164062 C 12.339844 10.097656 11.933594 10.015625 11.640625 10.085938 C 10.9375 10.25 10.539062 11.390625 9.914062 11.546875 C 9.546875 11.640625 8.738281 11.453125 8.117188 11.324219 L 8.003906 11.957031 C 8.652344 12.207031 9.378906 12.460938 9.761719 12.496094 C 10.398438 12.550781 12.890625 10.210938 12.65625 10.164062 Z M 12.65625 10.164062 "/>
<path style=" stroke:none;fill-rule:nonzero;fill:url(#linear20);" d="M 7.5625 11.226562 C 7.003906 11.171875 6.8125 11.34375 6.722656 11.429688 C 6.722656 11.429688 7.316406 11.691406 8.003906 11.957031 L 8.117188 11.324219 C 7.898438 11.277344 7.703125 11.242188 7.5625 11.226562 Z M 7.5625 11.226562 "/>
<path style=" stroke:none;fill-rule:nonzero;fill:rgb(77.647059%,42.352941%,31.372549%);fill-opacity:1;" d="M 7.257812 11.453125 C 7.253906 11.453125 7.25 11.449219 7.246094 11.445312 C 7.246094 11.445312 7.246094 11.4375 7.246094 11.4375 C 7.304688 11.355469 7.488281 11.371094 7.636719 11.382812 C 7.691406 11.386719 7.738281 11.390625 7.769531 11.390625 C 7.773438 11.390625 7.777344 11.394531 7.777344 11.398438 C 7.78125 11.40625 7.773438 11.410156 7.769531 11.410156 C 7.738281 11.414062 7.6875 11.410156 7.632812 11.40625 C 7.5 11.394531 7.316406 11.378906 7.265625 11.449219 C 7.261719 11.453125 7.261719 11.453125 7.257812 11.453125 Z M 7.257812 11.453125 "/>
<path style=" stroke:none;fill-rule:nonzero;fill:rgb(99.215686%,88.235294%,65.490196%);fill-opacity:1;" d="M 8.003906 11.980469 C 7.996094 11.980469 7.992188 11.976562 7.984375 11.972656 C 7.980469 11.96875 7.980469 11.960938 7.980469 11.953125 L 8.09375 11.320312 C 8.097656 11.308594 8.109375 11.300781 8.121094 11.304688 C 8.132812 11.304688 8.140625 11.316406 8.136719 11.328125 L 8.023438 11.960938 C 8.023438 11.972656 8.015625 11.980469 8.003906 11.980469 Z M 8.003906 11.980469 "/>
<path style=" stroke:none;fill-rule:nonzero;fill:url(#linear21);" d="M 8.574219 15.753906 C 8.613281 15.847656 9.035156 16.480469 9.015625 16.636719 C 8.988281 16.804688 7.875 17.425781 7.714844 17.375 C 7.621094 17.34375 7.695312 17.234375 7.746094 17.179688 C 7.800781 17.125 8.207031 16.710938 8.164062 16.460938 C 8.140625 16.328125 7.953125 16.035156 7.953125 16.035156 Z M 8.574219 15.753906 "/>
<path style=" stroke:none;fill-rule:nonzero;fill:url(#linear22);" d="M 7.921875 16.757812 C 7.980469 16.75 8.320312 16.890625 8.4375 17.148438 C 7.800781 17.472656 7.515625 17.421875 7.515625 17.421875 C 7.515625 17.421875 7.496094 17.382812 7.519531 17.320312 C 7.550781 17.238281 7.921875 16.757812 7.921875 16.757812 Z M 7.921875 16.757812 "/>
<path style=" stroke:none;fill-rule:nonzero;fill:url(#linear23);" d="M 7.507812 17.378906 C 7.578125 17.378906 8.023438 17.242188 8.339844 17.128906 C 8.660156 17.015625 9.101562 16.792969 9.113281 16.789062 C 9.125 16.789062 9.148438 16.859375 9.117188 16.890625 C 9.089844 16.917969 8.546875 17.199219 8.183594 17.328125 C 7.839844 17.453125 7.648438 17.496094 7.578125 17.472656 C 7.503906 17.453125 7.507812 17.378906 7.507812 17.378906 Z M 7.507812 17.378906 "/>
<path style=" stroke:none;fill-rule:nonzero;fill:url(#linear24);" d="M 6.527344 11.339844 C 5.804688 11.433594 5.765625 12.246094 5.925781 12.734375 C 6.207031 13.589844 7.792969 16.054688 7.851562 16.125 C 7.9375 16.226562 8.675781 15.84375 8.703125 15.777344 C 8.734375 15.710938 8.269531 14.671875 8.035156 14.222656 C 7.761719 13.691406 7.230469 12.761719 7.230469 12.761719 C 7.230469 12.761719 9.121094 15.394531 11.074219 15.03125 C 11.09375 15.027344 11.109375 15.023438 11.128906 15.019531 L 9.546875 12.316406 C 9.136719 12.261719 7.292969 11.242188 6.527344 11.339844 Z M 6.527344 11.339844 "/>
<path style=" stroke:none;fill-rule:nonzero;fill:rgb(0%,88.627451%,92.54902%);fill-opacity:1;" d="M 10.761719 14.542969 C 10.054688 14.542969 8.949219 13.890625 7.558594 12.652344 C 7.523438 12.621094 7.5 12.601562 7.484375 12.589844 C 7.476562 12.582031 7.476562 12.566406 7.484375 12.558594 C 7.492188 12.546875 7.503906 12.546875 7.515625 12.554688 C 7.527344 12.566406 7.550781 12.589844 7.585938 12.621094 C 9.398438 14.230469 10.351562 14.527344 10.832031 14.496094 C 10.839844 14.492188 10.84375 14.496094 10.851562 14.5 C 10.855469 14.503906 10.855469 14.507812 10.855469 14.515625 C 10.859375 14.519531 10.855469 14.527344 10.851562 14.53125 C 10.847656 14.535156 10.84375 14.539062 10.835938 14.539062 C 10.8125 14.539062 10.785156 14.542969 10.761719 14.542969 Z M 10.761719 14.542969 "/>
<path style=" stroke:none;fill-rule:nonzero;fill:rgb(0%,100%,100%);fill-opacity:1;" d="M 6.789062 12.816406 C 6.78125 12.816406 6.773438 12.8125 6.769531 12.804688 C 6.734375 12.734375 6.636719 12.523438 6.722656 12.378906 C 6.773438 12.292969 6.871094 12.246094 7.019531 12.238281 C 7.027344 12.238281 7.035156 12.242188 7.042969 12.25 C 7.046875 12.253906 7.046875 12.265625 7.042969 12.269531 C 7.039062 12.277344 7.03125 12.28125 7.023438 12.285156 C 6.890625 12.292969 6.804688 12.332031 6.761719 12.398438 C 6.710938 12.484375 6.726562 12.613281 6.808594 12.785156 C 6.8125 12.792969 6.8125 12.800781 6.808594 12.804688 C 6.804688 12.8125 6.796875 12.816406 6.789062 12.816406 Z M 8.457031 15.960938 C 8.445312 15.960938 8.4375 15.953125 8.433594 15.945312 C 8.226562 15.421875 7.21875 13.449219 7.085938 13.246094 C 7.082031 13.234375 7.082031 13.222656 7.09375 13.214844 C 7.105469 13.207031 7.117188 13.210938 7.125 13.222656 C 7.253906 13.425781 8.265625 15.40625 8.476562 15.929688 C 8.476562 15.9375 8.476562 15.945312 8.472656 15.949219 C 8.46875 15.957031 8.460938 15.960938 8.457031 15.960938 Z M 8.457031 15.960938 "/>
<path style=" stroke:none;fill-rule:nonzero;fill:rgb(0%,88.627451%,92.54902%);fill-opacity:1;" d="M 9.964844 14.339844 C 9.960938 14.339844 9.953125 14.339844 9.949219 14.335938 C 9.945312 14.328125 9.941406 14.324219 9.945312 14.316406 C 9.957031 14.171875 10.097656 13.878906 10.355469 13.699219 C 10.363281 13.695312 10.378906 13.695312 10.386719 13.707031 C 10.390625 13.714844 10.390625 13.730469 10.378906 13.738281 C 10.125 13.910156 10 14.203125 9.988281 14.320312 C 9.988281 14.332031 9.976562 14.339844 9.964844 14.339844 Z M 9.964844 14.339844 "/>
<path style=" stroke:none;fill-rule:nonzero;fill:url(#linear25);" d="M 14.363281 11.785156 C 14.371094 10.890625 13.410156 10.40625 12.941406 10.238281 C 12.867188 10.210938 12.476562 10.105469 12.144531 10.082031 C 11.8125 10.0625 11.457031 10.480469 11.117188 11.066406 C 10.746094 11.710938 10.128906 12.378906 9.554688 12.320312 C 9.554688 12.316406 9.550781 12.316406 9.546875 12.316406 L 11.128906 15.019531 C 13.109375 14.625 14.347656 13.125 14.363281 11.785156 Z M 14.363281 11.785156 "/>
<path style=" stroke:none;fill-rule:nonzero;fill:rgb(100%,100%,100%);fill-opacity:1;" d="M 11.128906 15.042969 C 11.121094 15.042969 11.113281 15.035156 11.109375 15.03125 L 9.527344 12.328125 C 9.523438 12.320312 9.523438 12.3125 9.527344 12.304688 C 9.53125 12.300781 9.539062 12.292969 9.546875 12.292969 C 9.554688 12.292969 9.5625 12.300781 9.566406 12.304688 L 11.148438 15.007812 C 11.152344 15.015625 11.152344 15.023438 11.148438 15.03125 C 11.144531 15.035156 11.136719 15.042969 11.128906 15.042969 Z M 11.128906 15.042969 "/>
<path style=" stroke:none;fill-rule:nonzero;fill:url(#linear26);" d="M 12.539062 8.144531 C 12.496094 8.136719 12.539062 8.292969 12.476562 8.308594 C 12.40625 8.328125 12.3125 8.292969 12.304688 8.449219 C 12.296875 8.554688 12.332031 8.722656 12.347656 8.753906 C 12.363281 8.785156 12.820312 8.542969 12.820312 8.492188 C 12.820312 8.46875 12.5625 8.148438 12.539062 8.144531 Z M 12.539062 8.144531 "/>
<path style=" stroke:none;fill-rule:nonzero;fill:rgb(90.980392%,52.941176%,55.686275%);fill-opacity:1;" d="M 12.523438 9.914062 C 12.496094 9.980469 12.320312 10.449219 12.320312 10.476562 C 12.320312 10.507812 12.398438 10.746094 12.722656 10.75 C 13.027344 10.753906 13.160156 10.578125 13.171875 10.535156 C 13.179688 10.496094 13.234375 9.578125 13.234375 9.578125 C 13.234375 9.578125 12.902344 9.636719 12.777344 9.703125 C 12.652344 9.769531 12.523438 9.914062 12.523438 9.914062 Z M 12.523438 9.914062 "/>
<path style=" stroke:none;fill-rule:nonzero;fill:url(#linear27);" d="M 13.308594 9.457031 C 13.320312 9.433594 13.332031 9.402344 13.339844 9.375 C 13.371094 9.28125 13.609375 8.957031 13.339844 8.648438 C 13.070312 8.34375 12.722656 8.363281 12.722656 8.363281 C 12.121094 8.589844 11.976562 9.574219 12.1875 9.820312 C 12.425781 10.097656 12.808594 9.976562 13.074219 9.746094 C 13.109375 9.78125 13.160156 9.800781 13.21875 9.800781 C 13.332031 9.800781 13.425781 9.722656 13.425781 9.621094 C 13.425781 9.550781 13.375 9.488281 13.308594 9.457031 Z M 13.308594 9.457031 "/>
<path style=" stroke:none;fill-rule:nonzero;fill:url(#linear28);" d="M 12.664062 8.851562 C 12.609375 8.882812 12.222656 9.144531 12.230469 9.230469 C 12.234375 9.316406 12.382812 9.304688 12.460938 9.292969 C 12.542969 9.28125 12.699219 8.898438 12.699219 8.871094 C 12.699219 8.839844 12.664062 8.851562 12.664062 8.851562 Z M 12.664062 8.851562 "/>
<path style=" stroke:none;fill-rule:nonzero;fill:rgb(100%,100%,100%);fill-opacity:1;" d="M 12.273438 9.441406 C 12.308594 9.507812 12.503906 9.558594 12.578125 9.5625 C 12.5625 9.59375 12.460938 9.71875 12.34375 9.679688 C 12.207031 9.636719 12.273438 9.441406 12.273438 9.441406 Z M 12.273438 9.441406 "/>
<path style=" stroke:none;fill-rule:nonzero;fill:rgb(0%,56.470588%,69.803922%);fill-opacity:1;" d="M 12.808594 9.195312 C 12.792969 9.195312 12.773438 9.1875 12.765625 9.171875 C 12.757812 9.15625 12.753906 9.136719 12.761719 9.121094 C 12.792969 9.058594 12.863281 8.992188 12.898438 8.976562 C 12.921875 8.960938 12.953125 8.972656 12.964844 8.996094 C 12.976562 9.023438 12.96875 9.050781 12.941406 9.0625 C 12.929688 9.070312 12.875 9.121094 12.855469 9.164062 C 12.84375 9.183594 12.828125 9.195312 12.808594 9.195312 Z M 12.398438 8.945312 C 12.382812 8.945312 12.371094 8.9375 12.359375 8.925781 C 12.351562 8.910156 12.351562 8.894531 12.359375 8.882812 C 12.382812 8.832031 12.4375 8.773438 12.46875 8.757812 C 12.492188 8.75 12.519531 8.757812 12.527344 8.78125 C 12.539062 8.800781 12.53125 8.828125 12.507812 8.839844 C 12.5 8.84375 12.457031 8.882812 12.4375 8.917969 C 12.433594 8.933594 12.417969 8.945312 12.398438 8.945312 Z M 12.398438 8.945312 "/>
<path style=" stroke:none;fill-rule:nonzero;fill:url(#linear29);" d="M 13.386719 8.300781 C 13.332031 8.25 13.339844 8.097656 13.25 8.058594 C 13.15625 8.019531 13.03125 8.097656 12.972656 8.066406 C 12.925781 8.042969 12.917969 7.9375 12.898438 7.867188 C 12.878906 7.796875 12.835938 7.714844 12.75 7.722656 C 12.492188 7.746094 12.433594 8.125 12.632812 8.40625 C 12.839844 8.695312 13.332031 8.738281 13.328125 9.089844 C 13.324219 9.285156 13.082031 9.359375 13.128906 9.460938 C 13.175781 9.558594 13.300781 9.460938 13.308594 9.460938 C 13.308594 9.460938 13.308594 9.457031 13.308594 9.457031 C 13.359375 9.480469 13.398438 9.519531 13.417969 9.570312 C 13.550781 9.496094 13.820312 9.308594 13.832031 8.996094 C 13.847656 8.570312 13.441406 8.351562 13.386719 8.300781 Z M 13.386719 8.300781 "/>
<path style=" stroke:none;fill-rule:nonzero;fill:url(#linear30);" d="M 9.554688 9.992188 C 9.554688 9.957031 9.542969 9.550781 9.578125 9.535156 C 9.609375 9.515625 10.089844 9.671875 10.128906 9.800781 C 10.167969 9.941406 10.148438 10.894531 10.082031 10.9375 C 9.992188 11 9.578125 10.742188 9.558594 10.652344 C 9.542969 10.558594 9.554688 9.992188 9.554688 9.992188 Z M 9.554688 9.992188 "/>
<path style=" stroke:none;fill-rule:nonzero;fill:rgb(100%,60.784314%,73.333333%);fill-opacity:1;" d="M 9.40625 9.375 L 9.328125 9.332031 C 9.402344 9.199219 9.527344 9.121094 9.660156 9.121094 C 9.726562 9.121094 9.792969 9.140625 9.847656 9.179688 L 9.800781 9.253906 C 9.757812 9.226562 9.710938 9.210938 9.660156 9.210938 C 9.558594 9.210938 9.464844 9.273438 9.40625 9.375 Z M 9.273438 9.113281 L 9.179688 9.074219 C 9.242188 8.925781 9.367188 8.824219 9.519531 8.796875 C 9.65625 8.769531 9.792969 8.8125 9.878906 8.90625 L 9.808594 8.972656 C 9.742188 8.90625 9.640625 8.875 9.539062 8.894531 C 9.417969 8.917969 9.320312 8.996094 9.273438 9.113281 Z M 9.078125 8.773438 L 8.96875 8.695312 C 9.117188 8.476562 9.34375 8.347656 9.582031 8.347656 C 9.691406 8.347656 9.796875 8.375 9.894531 8.425781 L 9.835938 8.542969 C 9.753906 8.503906 9.667969 8.480469 9.582031 8.480469 C 9.386719 8.480469 9.203125 8.585938 9.078125 8.773438 Z M 9.078125 8.773438 "/>
<path style=" stroke:none;fill-rule:nonzero;fill:url(#linear31);" d="M 10.378906 11.246094 C 10.300781 11.066406 10.25 10.621094 10.242188 10.441406 C 10.234375 10.261719 10.210938 10.230469 10.175781 10.226562 C 10.125 10.226562 10.105469 10.265625 10.082031 10.375 C 10.058594 10.476562 10.070312 10.722656 10.019531 10.738281 C 9.964844 10.753906 9.75 10.339844 9.695312 10.195312 C 9.628906 10.035156 9.625 9.890625 9.5625 9.886719 C 9.523438 9.886719 9.515625 9.9375 9.515625 10.019531 C 9.511719 10.089844 9.535156 10.214844 9.535156 10.214844 C 9.535156 10.214844 9.488281 10.226562 9.480469 10.292969 C 9.464844 10.398438 9.496094 10.496094 9.496094 10.496094 C 9.496094 10.496094 9.464844 10.546875 9.480469 10.664062 C 9.503906 10.835938 9.589844 11.015625 9.695312 11.1875 C 9.722656 11.230469 9.765625 11.382812 9.824219 11.570312 C 9.9375 11.558594 10.128906 11.496094 10.378906 11.246094 Z M 10.378906 11.246094 "/>
<path style=" stroke:none;fill-rule:nonzero;fill:rgb(77.647059%,42.352941%,31.372549%);fill-opacity:1;" d="M 9.675781 10.53125 C 9.671875 10.53125 9.667969 10.527344 9.664062 10.527344 C 9.621094 10.460938 9.535156 10.246094 9.519531 10.199219 C 9.519531 10.195312 9.519531 10.1875 9.527344 10.1875 C 9.53125 10.183594 9.539062 10.1875 9.539062 10.195312 C 9.554688 10.238281 9.640625 10.453125 9.683594 10.511719 C 9.6875 10.515625 9.6875 10.519531 9.683594 10.523438 C 9.683594 10.527344 9.679688 10.53125 9.675781 10.53125 Z M 9.574219 10.6875 C 9.570312 10.6875 9.570312 10.683594 9.566406 10.683594 C 9.554688 10.667969 9.496094 10.554688 9.484375 10.5 C 9.484375 10.496094 9.484375 10.492188 9.488281 10.488281 C 9.488281 10.484375 9.496094 10.484375 9.5 10.484375 C 9.5 10.488281 9.503906 10.492188 9.503906 10.496094 C 9.515625 10.550781 9.574219 10.65625 9.582031 10.667969 C 9.585938 10.671875 9.585938 10.675781 9.585938 10.679688 C 9.582031 10.683594 9.578125 10.6875 9.574219 10.6875 Z M 9.574219 10.6875 "/>
<path style=" stroke:none;fill-rule:nonzero;fill:url(#linear32);" d="M 13.667969 11.390625 C 12.6875 11.34375 11.800781 12.800781 11.515625 12.777344 C 11.371094 12.765625 10.578125 11.6875 10.378906 11.246094 C 10.128906 11.496094 9.9375 11.558594 9.824219 11.570312 C 9.890625 11.808594 9.976562 12.101562 10.050781 12.3125 C 10.320312 13.054688 10.644531 13.75 11.214844 13.9375 C 11.933594 14.179688 12.789062 13.679688 13.367188 13.132812 C 13.945312 12.589844 14.644531 11.433594 13.667969 11.390625 Z M 13.667969 11.390625 "/>
<path style=" stroke:none;fill-rule:nonzero;fill:rgb(100%,100%,100%);fill-opacity:1;" d="M 11.609375 14.023438 C 11.476562 14.023438 11.34375 14.003906 11.210938 13.960938 C 10.628906 13.765625 10.300781 13.054688 10.03125 12.320312 C 9.964844 12.136719 9.890625 11.886719 9.828125 11.667969 L 9.800781 11.578125 C 9.800781 11.570312 9.800781 11.5625 9.804688 11.558594 C 9.808594 11.550781 9.8125 11.550781 9.820312 11.546875 C 9.9375 11.535156 10.125 11.46875 10.363281 11.230469 C 10.367188 11.226562 10.375 11.222656 10.382812 11.222656 C 10.390625 11.226562 10.394531 11.230469 10.398438 11.238281 C 10.609375 11.703125 11.398438 12.746094 11.515625 12.753906 C 11.605469 12.761719 11.792969 12.578125 12.003906 12.363281 C 12.4375 11.929688 13.027344 11.339844 13.667969 11.367188 C 13.855469 11.375 13.992188 11.425781 14.078125 11.515625 C 14.082031 11.519531 14.085938 11.527344 14.082031 11.535156 C 14.082031 11.542969 14.074219 11.550781 14.066406 11.550781 C 14.058594 11.554688 14.050781 11.550781 14.046875 11.546875 C 13.96875 11.464844 13.839844 11.417969 13.664062 11.410156 C 13.042969 11.382812 12.460938 11.96875 12.035156 12.394531 C 11.796875 12.632812 11.625 12.808594 11.511719 12.800781 C 11.355469 12.789062 10.585938 11.730469 10.371094 11.285156 C 10.152344 11.496094 9.972656 11.570312 9.851562 11.589844 L 9.871094 11.65625 C 9.933594 11.875 10.007812 12.121094 10.074219 12.304688 C 10.335938 13.03125 10.660156 13.730469 11.222656 13.917969 C 12.101562 14.210938 13.074219 13.378906 13.351562 13.117188 C 13.460938 13.011719 13.574219 12.886719 13.679688 12.757812 C 13.6875 12.746094 13.699219 12.746094 13.710938 12.753906 C 13.71875 12.761719 13.722656 12.773438 13.714844 12.785156 C 13.609375 12.917969 13.492188 13.042969 13.382812 13.148438 C 13.140625 13.375 12.386719 14.023438 11.609375 14.023438 Z M 11.609375 14.023438 "/>
<path style=" stroke:none;fill-rule:nonzero;fill:url(#linear33);" d="M 12.121094 15.171875 C 12.195312 14.992188 12.300781 14.832031 12.425781 14.6875 C 12.554688 14.542969 12.699219 14.421875 12.859375 14.320312 C 13.019531 14.222656 13.191406 14.140625 13.371094 14.082031 C 13.53125 14.03125 13.691406 13.996094 13.859375 13.972656 C 13.855469 13.9375 13.847656 13.898438 13.828125 13.867188 C 13.683594 13.59375 13.019531 13.671875 12.457031 13.976562 C 11.882812 14.285156 11.613281 14.71875 11.761719 14.992188 C 11.824219 15.105469 11.949219 15.171875 12.117188 15.183594 C 12.117188 15.179688 12.121094 15.175781 12.121094 15.171875 Z M 12.121094 15.171875 "/>
<path style=" stroke:none;fill-rule:nonzero;fill:url(#linear34);" d="M 13.828125 13.917969 C 13.644531 13.9375 13.460938 13.976562 13.28125 14.035156 C 13.105469 14.09375 12.933594 14.171875 12.773438 14.273438 C 12.613281 14.371094 12.464844 14.496094 12.339844 14.636719 C 12.214844 14.78125 12.109375 14.945312 12.03125 15.121094 C 11.957031 15.296875 11.914062 15.488281 11.898438 15.679688 C 11.890625 15.8125 11.902344 15.949219 11.925781 16.082031 C 11.996094 16.066406 12.070312 16.046875 12.140625 16.027344 C 12.121094 15.917969 12.109375 15.804688 12.117188 15.691406 C 12.121094 15.523438 12.160156 15.355469 12.222656 15.199219 C 12.285156 15.042969 12.375 14.894531 12.484375 14.765625 C 12.597656 14.632812 12.726562 14.519531 12.871094 14.425781 C 13.160156 14.234375 13.5 14.121094 13.847656 14.078125 C 14.121094 14.042969 14.40625 14.054688 14.675781 14.117188 C 14.703125 14.074219 14.730469 14.03125 14.753906 13.988281 C 14.453125 13.90625 14.136719 13.886719 13.828125 13.917969 Z M 13.828125 13.917969 "/>
<path style=" stroke:none;fill-rule:nonzero;fill:url(#linear35);" d="M 18.121094 15.882812 L 16.136719 15.882812 L 16.445312 17.65625 C 16.789062 17.464844 17.109375 17.226562 17.398438 16.933594 C 17.722656 16.601562 17.957031 16.246094 18.121094 15.882812 Z M 18.121094 15.882812 "/>
<path style=" stroke:none;fill-rule:nonzero;fill:rgb(100%,60.784314%,73.333333%);fill-opacity:1;" d="M 17.171875 15.328125 C 16.601562 15.328125 16.136719 15.59375 16.136719 15.921875 C 16.136719 16.25 16.601562 16.515625 17.171875 16.515625 C 17.433594 16.515625 17.671875 16.457031 17.855469 16.367188 C 17.980469 16.175781 18.085938 15.972656 18.171875 15.761719 C 18.046875 15.511719 17.648438 15.328125 17.171875 15.328125 Z M 17.171875 15.328125 "/>
<path style=" stroke:none;fill-rule:nonzero;fill:url(#linear36);" d="M 18.011719 15.894531 C 18.011719 15.636719 17.636719 15.429688 17.171875 15.429688 C 16.710938 15.429688 16.332031 15.636719 16.332031 15.894531 C 16.332031 16.152344 16.710938 16.359375 17.171875 16.359375 C 17.636719 16.359375 18.011719 16.152344 18.011719 15.894531 Z M 18.011719 15.894531 "/>
<path style=" stroke:none;fill-rule:nonzero;fill:url(#linear37);" d="M 17.613281 11.355469 C 17.644531 11.421875 17.597656 11.488281 17.511719 11.523438 C 17.410156 11.566406 17.332031 11.558594 17.296875 11.648438 C 17.265625 11.742188 17.289062 11.84375 17.226562 11.84375 C 17.167969 11.84375 17.066406 11.59375 17.179688 11.414062 C 17.292969 11.230469 17.542969 11.199219 17.613281 11.355469 Z M 17.613281 11.355469 "/>
<path style=" stroke:none;fill-rule:nonzero;fill:url(#linear38);" d="M 17.035156 14.984375 C 16.988281 14.851562 16.492188 14.152344 15.621094 14.085938 C 14.832031 14.023438 14.523438 14.386719 14.597656 14.542969 C 14.652344 14.652344 14.835938 14.621094 14.914062 14.597656 C 14.988281 14.578125 15.121094 14.5 15.210938 14.546875 C 15.300781 14.59375 15.289062 14.710938 15.378906 14.753906 C 15.539062 14.835938 15.707031 14.699219 15.839844 14.648438 C 16.007812 14.585938 16.285156 14.527344 16.480469 14.707031 C 16.722656 14.933594 16.773438 15.125 16.851562 15.464844 C 16.925781 15.804688 16.960938 15.972656 16.976562 15.996094 C 16.996094 16.019531 17.03125 16.050781 17.113281 16.015625 C 17.199219 15.980469 17.089844 15.546875 17.101562 15.371094 C 17.109375 15.191406 17.035156 14.984375 17.035156 14.984375 Z M 17.035156 14.984375 "/>
<path style=" stroke:none;fill-rule:nonzero;fill:url(#linear39);" d="M 16.835938 16 C 16.835938 15.96875 16.726562 15.765625 16.703125 15.570312 C 16.675781 15.316406 16.550781 15.050781 16.4375 14.949219 C 16.296875 14.828125 16.121094 14.765625 16.046875 14.859375 C 15.980469 14.941406 16.042969 15.089844 16.121094 15.164062 C 16.222656 15.261719 16.671875 15.527344 16.59375 15.671875 C 16.550781 15.753906 16.476562 15.636719 16.4375 15.582031 C 16.375 15.484375 16.269531 15.386719 16.203125 15.429688 C 16.132812 15.472656 16.15625 15.613281 16.308594 15.699219 C 16.453125 15.785156 16.585938 15.855469 16.648438 15.925781 C 16.707031 15.996094 16.648438 15.992188 16.683594 16.03125 C 16.71875 16.074219 16.835938 16.082031 16.835938 16 Z M 16.835938 16 "/>
<path style=" stroke:none;fill-rule:nonzero;fill:url(#linear40);" d="M 17.472656 15.996094 C 17.433594 15.972656 17.472656 15.761719 17.546875 15.652344 C 17.625 15.546875 17.765625 15.496094 17.765625 15.417969 C 17.765625 15.34375 17.730469 15.273438 17.773438 15.179688 C 17.8125 15.097656 17.96875 15.128906 17.972656 14.992188 C 17.980469 14.855469 17.910156 14.6875 17.855469 14.386719 C 17.808594 14.121094 17.851562 14.027344 17.921875 13.988281 C 18.007812 13.933594 18.027344 13.808594 17.960938 13.632812 C 17.917969 13.511719 17.941406 12.738281 18.214844 12.714844 C 18.445312 12.699219 18.542969 13.113281 18.542969 13.324219 C 18.546875 13.632812 18.425781 13.710938 18.472656 13.867188 C 18.527344 14.058594 18.605469 14.082031 18.621094 14.292969 C 18.632812 14.464844 18.632812 14.695312 18.273438 15.136719 C 17.933594 15.550781 17.707031 15.730469 17.648438 15.816406 C 17.574219 15.921875 17.542969 16.039062 17.472656 15.996094 Z M 17.472656 15.996094 "/>
<path style=" stroke:none;fill-rule:nonzero;fill:url(#linear41);" d="M 17.175781 15.980469 C 17.175781 15.828125 17.109375 15.335938 17.25 15.074219 C 17.390625 14.8125 17.46875 14.542969 17.402344 14.253906 C 17.335938 13.960938 17.003906 13.394531 17.03125 13.199219 C 17.054688 13.007812 17.15625 12.675781 16.976562 12.039062 C 16.839844 11.558594 16.53125 11.230469 16.316406 11.363281 C 16.171875 11.457031 16.238281 11.796875 16.3125 11.925781 C 16.382812 12.050781 16.511719 12.277344 16.488281 12.402344 C 16.460938 12.53125 16.382812 12.546875 16.390625 12.71875 C 16.402344 13.0625 16.878906 13.585938 16.992188 14.050781 C 17.085938 14.4375 17.121094 14.902344 17.023438 14.921875 C 16.925781 14.941406 17.03125 15.859375 17.074219 15.953125 C 17.121094 16.046875 17.175781 15.980469 17.175781 15.980469 Z M 17.175781 15.980469 "/>
<path style=" stroke:none;fill-rule:nonzero;fill:url(#linear42);" d="M 17.46875 11.90625 C 17.378906 11.964844 17.367188 12.113281 17.40625 12.214844 C 17.441406 12.316406 17.476562 12.363281 17.464844 12.429688 C 17.457031 12.5 17.316406 12.527344 17.269531 12.675781 C 17.226562 12.828125 17.300781 13.128906 17.378906 13.34375 C 17.453125 13.558594 17.433594 13.714844 17.355469 13.726562 C 17.28125 13.742188 17.210938 13.632812 17.1875 13.503906 C 17.160156 13.375 17.171875 12.800781 16.828125 12.902344 C 16.691406 12.945312 16.699219 13.175781 16.789062 13.34375 C 16.855469 13.46875 17.082031 13.746094 17.199219 14.121094 C 17.304688 14.46875 17.390625 14.746094 17.179688 14.789062 C 16.996094 14.824219 16.898438 14.621094 16.875 14.492188 C 16.847656 14.363281 16.765625 13.914062 16.367188 13.992188 C 16.175781 14.027344 16.292969 14.488281 16.574219 14.726562 C 16.761719 14.890625 17.003906 15.09375 17.074219 15.378906 C 17.148438 15.683594 17.039062 16 17.085938 16.058594 C 17.128906 16.121094 17.304688 16.082031 17.300781 16.042969 C 17.296875 16.003906 17.25 15.921875 17.335938 15.851562 C 17.421875 15.78125 17.621094 15.6875 17.753906 15.59375 C 17.890625 15.496094 17.875 15.347656 17.808594 15.296875 C 17.738281 15.242188 17.660156 15.308594 17.628906 15.34375 C 17.570312 15.414062 17.433594 15.832031 17.269531 15.722656 C 17.167969 15.652344 17.332031 15.308594 17.449219 15.148438 C 17.625 14.914062 18.015625 14.824219 18.238281 14.527344 C 18.394531 14.320312 18.300781 14.085938 18.199219 14.042969 C 18.054688 13.988281 17.921875 14.121094 17.890625 14.253906 C 17.855469 14.429688 17.777344 14.710938 17.566406 14.550781 C 17.328125 14.371094 17.691406 14.027344 17.867188 13.828125 C 18.199219 13.464844 18.359375 12.894531 18.070312 12.804688 C 17.945312 12.765625 17.839844 12.945312 17.808594 13.148438 C 17.773438 13.378906 17.601562 14.125 17.449219 14.039062 C 17.355469 13.988281 17.5625 13.808594 17.570312 13.660156 C 17.578125 13.507812 17.558594 13.292969 17.632812 13.101562 C 17.707031 12.910156 17.898438 12.40625 17.796875 12.109375 C 17.703125 11.835938 17.511719 11.878906 17.46875 11.90625 Z M 17.46875 11.90625 "/>
<path style=" stroke:none;fill-rule:nonzero;fill:url(#linear43);" d="M 15.457031 14.929688 C 15.371094 14.96875 15.402344 15.097656 15.554688 15.207031 C 15.699219 15.3125 15.910156 15.316406 15.914062 15.261719 C 15.917969 15.207031 15.800781 15.203125 15.707031 15.113281 C 15.609375 15.023438 15.566406 14.878906 15.457031 14.929688 Z M 15.457031 14.929688 "/>
<path style=" stroke:none;fill-rule:nonzero;fill:url(#linear44);" d="M 6.441406 4.019531 C 6.40625 4.039062 6.519531 4.257812 6.554688 4.316406 C 6.59375 4.378906 7.046875 4.824219 7.222656 5.1875 C 7.398438 5.550781 7.402344 6.035156 7.390625 6.144531 C 7.375 6.25 7.65625 6.296875 7.65625 6.296875 C 7.65625 6.296875 7.796875 5.691406 7.53125 5.160156 C 7.3125 4.71875 6.855469 4.34375 6.761719 4.261719 C 6.648438 4.160156 6.480469 4.003906 6.441406 4.019531 Z M 6.441406 4.019531 "/>
<path style=" stroke:none;fill-rule:nonzero;fill:url(#linear45);" d="M 7.453125 5.023438 C 7.480469 5.066406 7.507812 5.113281 7.53125 5.160156 C 7.539062 5.175781 7.546875 5.195312 7.554688 5.210938 C 7.519531 5.199219 7.332031 5.21875 7.273438 5.304688 C 7.257812 5.265625 7.242188 5.226562 7.222656 5.1875 C 7.21875 5.175781 7.214844 5.167969 7.207031 5.15625 C 7.25 5.066406 7.40625 5.019531 7.453125 5.023438 Z M 7.453125 5.023438 "/>
<path style=" stroke:none;fill-rule:nonzero;fill:url(#linear46);" d="M 7.6875 6.066406 C 7.679688 6.207031 7.65625 6.296875 7.65625 6.296875 C 7.65625 6.296875 7.375 6.25 7.390625 6.144531 C 7.390625 6.113281 7.394531 6.0625 7.394531 5.996094 C 7.5 5.964844 7.617188 6.007812 7.6875 6.066406 Z M 7.6875 6.066406 "/>
<path style=" stroke:none;fill-rule:nonzero;fill:url(#linear47);" d="M 7.554688 6.15625 C 7.472656 6.113281 7.265625 6.042969 7.070312 6.320312 C 6.875 6.597656 6.8125 6.878906 6.941406 7.0625 C 7.070312 7.242188 7.363281 7.335938 7.507812 7.207031 C 7.679688 7.054688 7.792969 6.59375 7.71875 6.34375 C 7.679688 6.222656 7.578125 6.167969 7.554688 6.15625 Z M 7.554688 6.15625 "/>
<path style=" stroke:none;fill-rule:nonzero;fill:url(#linear48);" d="M 7.070312 6.320312 C 7.207031 6.125 7.351562 6.101562 7.453125 6.121094 C 7.355469 6.160156 6.984375 6.667969 6.976562 7.101562 C 6.964844 7.089844 6.953125 7.074219 6.941406 7.0625 C 6.8125 6.878906 6.875 6.597656 7.070312 6.320312 Z M 7.070312 6.320312 "/>
<path style=" stroke:none;fill-rule:nonzero;fill:url(#linear49);" d="M 4.488281 9.464844 L 7.445312 9.59375 L 7.445312 7.238281 L 4.488281 7.238281 Z M 4.488281 9.464844 "/>
<path style=" stroke:none;fill-rule:nonzero;fill:rgb(100%,100%,100%);fill-opacity:1;" d="M 6.605469 9.09375 L 5.273438 9.0625 C 5.261719 9.0625 5.25 9.050781 5.25 9.039062 L 5.25 7.679688 C 5.25 7.675781 5.253906 7.667969 5.257812 7.664062 C 5.261719 7.660156 5.269531 7.660156 5.273438 7.660156 L 6.609375 7.671875 C 6.621094 7.671875 6.628906 7.679688 6.628906 7.691406 L 6.628906 9.070312 C 6.628906 9.078125 6.628906 9.082031 6.625 9.085938 C 6.617188 9.089844 6.613281 9.09375 6.605469 9.09375 Z M 5.296875 9.015625 L 6.585938 9.046875 L 6.585938 7.714844 L 5.296875 7.703125 Z M 5.296875 9.015625 "/>
<path style=" stroke:none;fill-rule:nonzero;fill:url(#linear50);" d="M 8.074219 8.578125 L 7.445312 9.59375 L 7.445312 7.238281 L 8.074219 6.378906 Z M 8.074219 8.578125 "/>
<path style=" stroke:none;fill-rule:nonzero;fill:url(#linear51);" d="M 8.074219 6.378906 L 5.515625 6.378906 L 4.488281 7.238281 L 7.445312 7.238281 Z M 8.074219 6.378906 "/>
<path style=" stroke:none;fill-rule:nonzero;fill:rgb(98.431373%,78.431373%,50.588235%);fill-opacity:1;" d="M 7.734375 9.15625 C 7.722656 9.15625 7.710938 9.144531 7.710938 9.132812 L 7.710938 6.839844 C 7.710938 6.828125 7.722656 6.820312 7.734375 6.820312 C 7.746094 6.820312 7.757812 6.828125 7.757812 6.839844 L 7.757812 9.132812 C 7.757812 9.144531 7.746094 9.15625 7.734375 9.15625 Z M 7.734375 9.15625 "/>
<path style=" stroke:none;fill-rule:nonzero;fill:url(#linear52);" d="M 3.554688 4.25 C 3.566406 4.132812 3.71875 2.753906 4.582031 2.460938 C 4.804688 2.386719 5.25 2.394531 5.558594 2.539062 C 6.066406 2.777344 6.597656 3.195312 6.746094 3.535156 C 6.933594 3.96875 6.886719 4.984375 6.855469 5.0625 C 6.816406 5.160156 6.550781 5.402344 6.238281 5.476562 C 5.992188 5.539062 5.117188 5.59375 4.789062 5.476562 C 4.460938 5.359375 3.523438 4.683594 3.554688 4.25 Z M 3.554688 4.25 "/>
<path style=" stroke:none;fill-rule:nonzero;fill:url(#linear53);" d="M 5.546875 2.730469 C 5.632812 2.804688 5.71875 2.882812 5.789062 2.972656 C 5.855469 3.066406 5.910156 3.167969 5.953125 3.273438 C 6.035156 3.484375 6.078125 3.707031 6.109375 3.929688 C 6.140625 4.148438 6.160156 4.371094 6.175781 4.59375 C 6.1875 4.8125 6.195312 5.035156 6.1875 5.261719 L 6.082031 5.257812 C 6.09375 5.039062 6.085938 4.816406 6.078125 4.597656 C 6.066406 4.378906 6.046875 4.160156 6.015625 3.941406 C 5.988281 3.722656 5.949219 3.507812 5.871094 3.304688 C 5.832031 3.207031 5.78125 3.109375 5.71875 3.023438 C 5.65625 2.9375 5.578125 2.867188 5.496094 2.792969 Z M 5.546875 2.730469 "/>
<path style=" stroke:none;fill-rule:nonzero;fill:rgb(99.215686%,88.235294%,65.490196%);fill-opacity:1;" d="M 6.066406 3.789062 C 5.6875 3.796875 5.234375 3.652344 5.160156 3.558594 C 5.160156 3.558594 5.109375 4.082031 5.15625 4.460938 C 5.3125 4.753906 5.777344 4.917969 6.128906 4.894531 C 6.542969 4.859375 6.820312 4.5625 6.882812 4.410156 C 6.871094 4.097656 6.835938 3.746094 6.746094 3.535156 C 6.722656 3.488281 6.695312 3.4375 6.664062 3.390625 C 6.636719 3.601562 6.398438 3.78125 6.066406 3.789062 Z M 6.066406 3.789062 "/>
<path style=" stroke:none;fill-rule:nonzero;fill:url(#linear54);" d="M 5.109375 5.285156 C 5.179688 5.1875 5.203125 4.175781 5.179688 3.75 C 5.152344 3.28125 4.996094 2.953125 4.652344 2.804688 C 4.425781 2.707031 4.125 2.773438 3.972656 2.964844 C 3.636719 3.480469 3.5625 4.167969 3.554688 4.25 C 3.523438 4.683594 4.460938 5.359375 4.789062 5.476562 C 4.804688 5.484375 4.820312 5.488281 4.835938 5.492188 C 4.960938 5.4375 5.0625 5.355469 5.109375 5.285156 Z M 5.109375 5.285156 "/>
<path style=" stroke:none;fill-rule:nonzero;fill:url(#linear55);" d="M 4.867188 2.648438 C 5.011719 2.777344 5.296875 2.988281 5.636719 2.890625 C 5.914062 2.808594 5.605469 2.523438 5.472656 2.472656 C 5.179688 2.375 4.828125 2.398438 4.675781 2.40625 C 4.628906 2.410156 4.476562 2.453125 4.429688 2.472656 C 4.417969 2.476562 4.417969 2.507812 4.417969 2.535156 C 4.480469 2.503906 4.671875 2.46875 4.867188 2.648438 Z M 4.867188 2.648438 "/>
<path style=" stroke:none;fill-rule:nonzero;fill:rgb(99.215686%,88.235294%,65.490196%);fill-opacity:1;" d="M 3.898438 4.585938 C 3.910156 4.453125 3.941406 3.542969 4.417969 3.667969 C 4.75 3.757812 4.695312 4.410156 4.679688 4.640625 C 4.671875 4.820312 4.636719 5.125 4.636719 5.125 Z M 3.898438 4.585938 "/>
<path style=" stroke:none;fill-rule:nonzero;fill:url(#linear56);" d="M 4.417969 3.667969 C 4.394531 3.664062 4.367188 3.660156 4.339844 3.65625 C 4.625 3.789062 4.570312 4.390625 4.558594 4.613281 C 4.550781 4.746094 4.53125 4.941406 4.519531 5.039062 L 4.636719 5.125 C 4.636719 5.125 4.671875 4.820312 4.679688 4.640625 C 4.695312 4.410156 4.75 3.757812 4.417969 3.667969 Z M 4.417969 3.667969 "/>
<path style=" stroke:none;fill-rule:nonzero;fill:url(#linear57);" d="M 5.179688 3.75 C 5.152344 3.28125 4.996094 2.953125 4.652344 2.804688 C 4.621094 2.789062 4.589844 2.78125 4.558594 2.773438 C 4.894531 2.925781 5.050781 3.25 5.074219 3.714844 C 5.097656 4.144531 5.074219 5.152344 5.007812 5.25 C 4.960938 5.316406 4.875 5.40625 4.757812 5.464844 C 4.769531 5.46875 4.777344 5.472656 4.789062 5.476562 C 4.804688 5.484375 4.820312 5.488281 4.835938 5.492188 C 4.960938 5.4375 5.0625 5.355469 5.109375 5.285156 C 5.179688 5.1875 5.203125 4.175781 5.179688 3.75 Z M 5.179688 3.75 "/>
<path style=" stroke:none;fill-rule:nonzero;fill:url(#linear58);" d="M 4.878906 2.5625 C 5.039062 2.664062 5.265625 2.941406 5.605469 2.839844 C 5.882812 2.761719 5.570312 2.488281 5.4375 2.4375 C 5.214844 2.332031 4.789062 2.328125 4.597656 2.394531 C 4.539062 2.414062 4.480469 2.441406 4.425781 2.472656 C 4.496094 2.4375 4.683594 2.4375 4.878906 2.5625 Z M 4.878906 2.5625 "/>
<path style=" stroke:none;fill-rule:nonzero;fill:rgb(62.352941%,21.176471%,67.843137%);fill-opacity:1;" d="M 5.40625 2.566406 C 5.425781 2.515625 5.351562 2.433594 5.238281 2.386719 C 5.121094 2.34375 5.011719 2.347656 4.992188 2.398438 C 4.972656 2.449219 5.046875 2.527344 5.160156 2.574219 C 5.277344 2.621094 5.386719 2.617188 5.40625 2.566406 Z M 5.40625 2.566406 "/>
<path style=" stroke:none;fill-rule:nonzero;fill:url(#linear59);" d="M 6.867188 5.007812 C 6.863281 5.011719 6.859375 5.015625 6.859375 5.015625 L 6.832031 5.039062 L 6.820312 5.050781 C 6.816406 5.050781 6.816406 5.054688 6.8125 5.058594 C 6.785156 5.078125 6.746094 5.09375 6.707031 5.109375 C 6.632812 5.132812 6.546875 5.148438 6.464844 5.164062 C 6.382812 5.175781 6.296875 5.1875 6.214844 5.191406 C 6.128906 5.199219 6.042969 5.207031 5.957031 5.210938 C 5.875 5.214844 5.789062 5.21875 5.703125 5.21875 C 5.535156 5.222656 5.363281 5.222656 5.195312 5.210938 C 5.152344 5.207031 5.113281 5.203125 5.074219 5.195312 C 5.039062 5.1875 5 5.175781 4.960938 5.164062 C 4.882812 5.136719 4.808594 5.097656 4.734375 5.058594 C 4.585938 4.980469 4.441406 4.890625 4.300781 4.792969 C 4.164062 4.695312 4.027344 4.59375 3.898438 4.480469 C 3.832031 4.425781 3.769531 4.371094 3.707031 4.3125 C 3.675781 4.285156 3.644531 4.253906 3.617188 4.226562 C 3.597656 4.207031 3.582031 4.1875 3.566406 4.164062 C 3.5625 4.195312 3.558594 4.222656 3.554688 4.25 C 3.554688 4.253906 3.554688 4.253906 3.554688 4.257812 C 3.558594 4.261719 3.5625 4.265625 3.566406 4.269531 C 3.59375 4.304688 3.621094 4.335938 3.652344 4.367188 C 3.714844 4.429688 3.773438 4.492188 3.839844 4.550781 C 3.96875 4.664062 4.101562 4.773438 4.242188 4.878906 C 4.378906 4.984375 4.523438 5.078125 4.679688 5.164062 C 4.753906 5.207031 4.835938 5.242188 4.917969 5.273438 C 4.960938 5.289062 5.003906 5.304688 5.050781 5.316406 C 5.097656 5.324219 5.140625 5.328125 5.1875 5.332031 C 5.359375 5.34375 5.535156 5.34375 5.707031 5.335938 C 5.792969 5.332031 5.878906 5.328125 5.964844 5.324219 C 6.050781 5.316406 6.136719 5.308594 6.222656 5.296875 C 6.308594 5.285156 6.394531 5.273438 6.480469 5.257812 C 6.566406 5.238281 6.652344 5.21875 6.738281 5.1875 C 6.75 5.179688 6.761719 5.175781 6.777344 5.171875 C 6.816406 5.128906 6.84375 5.089844 6.855469 5.0625 C 6.859375 5.054688 6.863281 5.035156 6.867188 5.007812 Z M 6.867188 5.007812 "/>
<path style=" stroke:none;fill-rule:nonzero;fill:rgb(62.352941%,21.176471%,67.843137%);fill-opacity:1;" d="M 4.167969 4.722656 C 4.253906 4.738281 4.34375 4.621094 4.367188 4.46875 C 4.390625 4.3125 4.339844 4.175781 4.25 4.164062 C 4.164062 4.152344 4.074219 4.265625 4.050781 4.421875 C 4.03125 4.574219 4.082031 4.710938 4.167969 4.722656 Z M 4.167969 4.722656 "/>
<path style=" stroke:none;fill-rule:nonzero;fill:rgb(78.039216%,62.745098%,96.470588%);fill-opacity:1;" d="M 6.824219 4.113281 C 6.824219 3.929688 6.714844 3.84375 6.5625 3.84375 C 6.503906 3.84375 6.449219 3.863281 6.402344 3.894531 C 6.402344 3.894531 6.308594 3.980469 6.085938 3.988281 C 5.855469 3.996094 5.714844 3.9375 5.664062 3.910156 C 5.65625 3.902344 5.648438 3.898438 5.644531 3.894531 L 5.640625 3.894531 C 5.601562 3.875 5.5625 3.867188 5.519531 3.867188 C 5.371094 3.867188 5.25 3.988281 5.25 4.136719 C 5.25 4.171875 5.253906 4.207031 5.269531 4.238281 C 5.285156 4.304688 5.53125 4.730469 6.082031 4.730469 C 6.585938 4.734375 6.824219 4.292969 6.824219 4.113281 Z M 6.824219 4.113281 "/>
<path style=" stroke:none;fill-rule:nonzero;fill:rgb(12.941176%,18.431373%,40%);fill-opacity:1;" d="M 5.515625 4.265625 L 5.453125 4.207031 C 5.503906 4.152344 5.574219 4.121094 5.648438 4.121094 C 5.710938 4.121094 5.769531 4.140625 5.820312 4.179688 L 5.765625 4.25 C 5.730469 4.222656 5.691406 4.210938 5.648438 4.210938 C 5.597656 4.210938 5.550781 4.230469 5.515625 4.265625 Z M 6.375 4.214844 L 6.3125 4.152344 C 6.363281 4.101562 6.433594 4.070312 6.507812 4.070312 C 6.570312 4.070312 6.628906 4.089844 6.679688 4.128906 L 6.625 4.199219 C 6.59375 4.171875 6.550781 4.160156 6.507812 4.160156 C 6.460938 4.160156 6.410156 4.179688 6.375 4.214844 Z M 6.375 4.214844 "/>
<path style=" stroke:none;fill-rule:nonzero;fill:rgb(62.352941%,21.176471%,67.843137%);fill-opacity:1;" d="M 6.078125 4.59375 C 5.976562 4.59375 5.882812 4.53125 5.851562 4.441406 L 5.894531 4.429688 C 5.917969 4.5 5.992188 4.550781 6.078125 4.550781 C 6.167969 4.550781 6.242188 4.496094 6.265625 4.421875 L 6.308594 4.433594 C 6.28125 4.527344 6.1875 4.59375 6.078125 4.59375 Z M 6.078125 4.59375 "/>
<path style=" stroke:none;fill-rule:nonzero;fill:rgb(78.039216%,62.745098%,96.470588%);fill-opacity:1;" d="M 5.199219 1.59375 L 5.980469 1.363281 L 6.003906 1.472656 L 5.207031 1.625 Z M 5.199219 1.59375 "/>
<path style=" stroke:none;fill-rule:nonzero;fill:rgb(78.039216%,62.745098%,96.470588%);fill-opacity:1;" d="M 5.195312 1.625 L 4.488281 1.433594 L 4.523438 1.328125 L 5.207031 1.59375 Z M 5.195312 1.625 "/>
<path style=" stroke:none;fill-rule:nonzero;fill:rgb(78.039216%,62.745098%,96.470588%);fill-opacity:1;" d="M 5.207031 1.628906 L 4.414062 1.917969 L 4.378906 1.8125 L 5.195312 1.589844 Z M 5.207031 1.628906 "/>
<path style=" stroke:none;fill-rule:nonzero;fill:rgb(78.039216%,62.745098%,96.470588%);fill-opacity:1;" d="M 5.210938 1.59375 L 5.933594 1.871094 L 5.890625 1.972656 L 5.195312 1.628906 Z M 5.210938 1.59375 "/>
<path style=" stroke:none;fill-rule:nonzero;fill:url(#linear60);" d="M 5.257812 1.582031 L 5.144531 1.582031 L 5.144531 2.484375 C 5.144531 2.5 5.171875 2.511719 5.203125 2.511719 C 5.234375 2.511719 5.257812 2.5 5.257812 2.484375 Z M 5.257812 1.582031 "/>
<path style=" stroke:none;fill-rule:nonzero;fill:rgb(100%,34.509804%,72.156863%);fill-opacity:1;" d="M 5.347656 1.609375 C 5.347656 1.570312 5.28125 1.535156 5.203125 1.535156 C 5.121094 1.535156 5.054688 1.570312 5.054688 1.609375 C 5.054688 1.652344 5.121094 1.683594 5.203125 1.683594 C 5.28125 1.683594 5.347656 1.652344 5.347656 1.609375 Z M 5.347656 1.609375 "/>
<path style=" stroke:none;fill-rule:nonzero;fill:rgb(62.352941%,21.176471%,67.843137%);fill-opacity:1;" d="M 5.285156 1.546875 C 5.285156 1.507812 5.246094 1.476562 5.203125 1.476562 C 5.15625 1.476562 5.121094 1.507812 5.121094 1.546875 C 5.121094 1.585938 5.15625 1.617188 5.203125 1.617188 C 5.246094 1.617188 5.285156 1.585938 5.285156 1.546875 Z M 5.285156 1.546875 "/>
<path style=" stroke:none;fill-rule:nonzero;fill:url(#linear61);" d="M 5.203125 1.261719 C 4.492188 1.261719 3.914062 1.449219 3.914062 1.683594 C 3.914062 1.917969 4.492188 2.105469 5.203125 2.105469 C 5.917969 2.105469 6.496094 1.917969 6.496094 1.683594 C 6.496094 1.449219 5.917969 1.261719 5.203125 1.261719 Z M 5.210938 1.910156 C 4.667969 1.910156 4.226562 1.789062 4.226562 1.640625 C 4.226562 1.492188 4.667969 1.371094 5.210938 1.371094 C 5.753906 1.371094 6.195312 1.492188 6.195312 1.640625 C 6.195312 1.789062 5.753906 1.910156 5.210938 1.910156 Z M 5.210938 1.910156 "/>
<path style=" stroke:none;fill-rule:nonzero;fill:rgb(97.647059%,64.313725%,28.627451%);fill-opacity:1;" d="M 5.863281 1.84375 C 5.863281 1.84375 5.832031 1.851562 5.832031 1.851562 C 5.789062 1.859375 5.746094 1.867188 5.699219 1.875 C 5.703125 1.878906 5.707031 1.878906 5.710938 1.882812 C 5.707031 1.882812 5.710938 1.882812 5.710938 1.882812 C 5.714844 1.886719 5.722656 1.886719 5.726562 1.890625 C 5.746094 1.90625 5.757812 1.925781 5.761719 1.949219 C 5.773438 1.984375 5.765625 2.027344 5.746094 2.066406 C 5.773438 2.0625 5.855469 2.046875 5.878906 2.042969 C 5.90625 2.027344 5.949219 1.882812 5.863281 1.84375 Z M 4.519531 2.03125 C 4.503906 1.992188 4.496094 1.949219 4.503906 1.914062 C 4.511719 1.890625 4.523438 1.871094 4.542969 1.855469 C 4.546875 1.855469 4.550781 1.851562 4.550781 1.851562 C 4.554688 1.847656 4.554688 1.847656 4.558594 1.847656 C 4.5625 1.847656 4.5625 1.84375 4.5625 1.84375 C 4.519531 1.832031 4.421875 1.800781 4.417969 1.800781 C 4.324219 1.832031 4.363281 1.988281 4.382812 2.007812 C 4.410156 2.015625 4.496094 2.035156 4.523438 2.042969 C 4.523438 2.039062 4.523438 2.035156 4.519531 2.03125 Z M 4.542969 1.445312 C 4.578125 1.4375 4.667969 1.417969 4.707031 1.410156 C 4.707031 1.410156 4.667969 1.316406 4.585938 1.3125 C 4.527344 1.324219 4.4375 1.34375 4.386719 1.355469 C 4.488281 1.34375 4.542969 1.441406 4.542969 1.445312 Z M 5.785156 1.421875 C 5.820312 1.429688 5.945312 1.464844 5.980469 1.472656 C 5.980469 1.472656 6.011719 1.386719 6.128906 1.386719 C 6.0625 1.367188 5.992188 1.347656 5.914062 1.332031 C 5.828125 1.332031 5.785156 1.417969 5.785156 1.421875 Z M 5.785156 1.421875 "/>
<path style=" stroke:none;fill-rule:nonzero;fill:rgb(0%,100%,100%);fill-opacity:1;" d="M 6.132812 2.207031 C 6.230469 2.175781 6.324219 2.144531 6.417969 2.113281 C 6.511719 2.078125 6.605469 2.039062 6.691406 1.996094 C 6.734375 1.972656 6.777344 1.949219 6.816406 1.921875 C 6.855469 1.894531 6.890625 1.863281 6.917969 1.832031 C 6.949219 1.796875 6.972656 1.765625 6.984375 1.726562 C 6.988281 1.71875 6.988281 1.707031 6.988281 1.699219 L 6.992188 1.683594 C 6.992188 1.675781 6.992188 1.671875 6.992188 1.667969 C 6.988281 1.644531 6.984375 1.625 6.980469 1.601562 C 6.976562 1.589844 6.980469 1.574219 6.992188 1.566406 C 7.003906 1.5625 7.019531 1.5625 7.027344 1.574219 C 7.046875 1.597656 7.0625 1.625 7.070312 1.652344 C 7.070312 1.660156 7.074219 1.667969 7.074219 1.675781 C 7.078125 1.679688 7.078125 1.691406 7.078125 1.695312 C 7.078125 1.714844 7.078125 1.726562 7.078125 1.742188 C 7.070312 1.804688 7.039062 1.859375 7 1.902344 C 6.964844 1.945312 6.917969 1.980469 6.875 2.007812 C 6.828125 2.039062 6.78125 2.0625 6.734375 2.082031 C 6.636719 2.125 6.539062 2.15625 6.441406 2.179688 C 6.339844 2.203125 6.238281 2.21875 6.136719 2.230469 C 6.128906 2.230469 6.125 2.226562 6.125 2.21875 C 6.125 2.214844 6.128906 2.207031 6.132812 2.207031 Z M 3.703125 2.003906 C 3.714844 2.035156 3.730469 2.058594 3.757812 2.082031 C 3.78125 2.101562 3.8125 2.117188 3.84375 2.128906 C 3.90625 2.15625 3.980469 2.175781 4.050781 2.191406 C 4.121094 2.207031 4.195312 2.21875 4.273438 2.226562 L 4.496094 2.253906 C 4.503906 2.257812 4.507812 2.261719 4.507812 2.265625 C 4.507812 2.273438 4.5 2.277344 4.496094 2.277344 C 4.421875 2.285156 4.34375 2.285156 4.265625 2.285156 C 4.191406 2.285156 4.113281 2.28125 4.039062 2.269531 C 3.960938 2.257812 3.882812 2.242188 3.808594 2.207031 C 3.773438 2.1875 3.734375 2.167969 3.707031 2.132812 C 3.691406 2.117188 3.679688 2.097656 3.667969 2.078125 C 3.664062 2.066406 3.660156 2.054688 3.660156 2.042969 C 3.65625 2.035156 3.65625 2.023438 3.65625 2.011719 C 3.65625 2 3.664062 1.988281 3.675781 1.988281 C 3.6875 1.984375 3.699219 1.992188 3.703125 2.003906 Z M 4.738281 0.945312 C 4.617188 0.964844 4.496094 0.988281 4.378906 1.011719 C 4.316406 1.027344 4.257812 1.039062 4.199219 1.054688 C 4.140625 1.070312 4.082031 1.089844 4.027344 1.109375 C 3.910156 1.144531 3.800781 1.191406 3.695312 1.246094 C 3.59375 1.300781 3.496094 1.367188 3.429688 1.457031 L 3.425781 1.457031 C 3.410156 1.476562 3.382812 1.480469 3.359375 1.464844 C 3.34375 1.449219 3.335938 1.421875 3.351562 1.402344 C 3.386719 1.34375 3.433594 1.296875 3.480469 1.253906 C 3.535156 1.214844 3.589844 1.179688 3.644531 1.148438 C 3.757812 1.089844 3.878906 1.050781 4 1.019531 C 4.058594 1.003906 4.121094 0.992188 4.183594 0.980469 C 4.242188 0.96875 4.304688 0.957031 4.367188 0.949219 C 4.488281 0.933594 4.613281 0.925781 4.734375 0.921875 C 4.742188 0.921875 4.746094 0.925781 4.746094 0.933594 C 4.746094 0.9375 4.742188 0.941406 4.738281 0.945312 Z M 4.738281 0.945312 "/>
<path style=" stroke:none;fill-rule:nonzero;fill:url(#linear62);" d="M 4.191406 4.351562 C 4.234375 4.355469 4.242188 4.582031 4.226562 4.652344 C 4.210938 4.722656 3.90625 5.28125 3.847656 5.679688 C 3.789062 6.082031 3.878906 6.558594 3.921875 6.660156 C 3.964844 6.757812 3.710938 6.886719 3.710938 6.886719 C 3.710938 6.886719 3.398438 6.351562 3.492188 5.761719 C 3.570312 5.277344 3.898438 4.785156 3.960938 4.675781 C 4.039062 4.546875 4.152344 4.347656 4.191406 4.351562 Z M 4.191406 4.351562 "/>
<path style=" stroke:none;fill-rule:nonzero;fill:url(#linear63);" d="M 3.636719 5.605469 C 3.601562 5.605469 3.5625 5.605469 3.527344 5.613281 C 3.511719 5.660156 3.503906 5.710938 3.492188 5.761719 C 3.492188 5.78125 3.488281 5.800781 3.484375 5.820312 C 3.5 5.816406 3.511719 5.8125 3.523438 5.808594 C 3.5625 5.792969 3.601562 5.785156 3.644531 5.78125 C 3.710938 5.777344 3.777344 5.785156 3.835938 5.808594 C 3.835938 5.765625 3.84375 5.722656 3.847656 5.679688 C 3.851562 5.671875 3.851562 5.660156 3.851562 5.648438 C 3.835938 5.640625 3.816406 5.632812 3.800781 5.628906 C 3.746094 5.613281 3.691406 5.605469 3.636719 5.605469 Z M 3.636719 5.605469 "/>
<path style=" stroke:none;fill-rule:nonzero;fill:url(#linear64);" d="M 3.613281 6.675781 C 3.664062 6.808594 3.710938 6.886719 3.710938 6.886719 C 3.710938 6.886719 3.964844 6.757812 3.921875 6.660156 C 3.910156 6.632812 3.898438 6.582031 3.882812 6.515625 C 3.773438 6.539062 3.671875 6.613281 3.613281 6.675781 Z M 3.613281 6.675781 "/>
<path style=" stroke:none;fill-rule:nonzero;fill:url(#linear65);" d="M 3.765625 6.71875 C 3.832031 6.65625 4.011719 6.523438 4.28125 6.734375 C 4.550781 6.941406 4.691406 7.191406 4.621094 7.402344 C 4.554688 7.613281 4.304688 7.789062 4.128906 7.710938 C 3.917969 7.617188 3.671875 7.210938 3.667969 6.949219 C 3.667969 6.824219 3.746094 6.738281 3.765625 6.71875 Z M 3.765625 6.71875 "/>
<path style=" stroke:none;fill-rule:nonzero;fill:url(#linear66);" d="M 4.179688 6.835938 C 4.125 6.863281 3.941406 7.097656 3.9375 7.1875 C 3.9375 7.261719 4 7.324219 4.042969 7.3125 C 4.089844 7.300781 4.265625 7.042969 4.339844 6.992188 C 4.386719 6.957031 4.179688 6.835938 4.179688 6.835938 Z M 4.179688 6.835938 "/>
<path style=" stroke:none;fill-rule:nonzero;fill:url(#linear67);" d="M 4.660156 7.027344 C 4.644531 7.054688 4.632812 7.207031 4.664062 7.230469 C 4.691406 7.253906 4.773438 7.195312 4.839844 7.179688 C 4.910156 7.164062 4.976562 7.167969 4.996094 7.148438 C 5.015625 7.128906 5.023438 7 4.925781 6.96875 C 4.824219 6.9375 4.679688 7 4.660156 7.027344 Z M 4.660156 7.027344 "/>
<path style=" stroke:none;fill-rule:nonzero;fill:url(#linear68);" d="M 4.667969 7.515625 C 4.710938 7.5 4.910156 7.695312 4.910156 7.742188 C 4.910156 7.804688 4.792969 7.964844 4.695312 7.964844 C 4.597656 7.964844 4.472656 7.792969 4.464844 7.742188 C 4.460938 7.703125 4.644531 7.523438 4.667969 7.515625 Z M 4.667969 7.515625 "/>
<path style=" stroke:none;fill-rule:nonzero;fill:url(#linear69);" d="M 4.121094 7.851562 C 4.132812 7.824219 4.320312 7.765625 4.351562 7.792969 C 4.378906 7.816406 4.511719 7.949219 4.503906 8.003906 C 4.496094 8.050781 4.40625 8.132812 4.335938 8.113281 C 4.269531 8.089844 4.097656 7.910156 4.121094 7.851562 Z M 4.121094 7.851562 "/>
<path style=" stroke:none;fill-rule:nonzero;fill:url(#linear70);" d="M 4.929688 6.972656 C 4.953125 7.019531 4.945312 7.082031 4.929688 7.09375 C 4.910156 7.113281 4.847656 7.109375 4.773438 7.125 C 4.730469 7.132812 4.683594 7.160156 4.648438 7.171875 C 4.648438 7.199219 4.652344 7.222656 4.664062 7.230469 C 4.691406 7.253906 4.773438 7.195312 4.839844 7.179688 C 4.910156 7.164062 4.976562 7.167969 4.996094 7.148438 C 5.015625 7.128906 5.023438 7.003906 4.929688 6.972656 Z M 4.929688 6.972656 "/>
<path style=" stroke:none;fill-rule:nonzero;fill:url(#linear71);" d="M 4.65625 7.578125 C 4.699219 7.566406 4.867188 7.730469 4.894531 7.792969 C 4.90625 7.773438 4.910156 7.757812 4.910156 7.742188 C 4.910156 7.695312 4.710938 7.5 4.667969 7.515625 C 4.644531 7.523438 4.460938 7.703125 4.464844 7.742188 C 4.464844 7.746094 4.46875 7.753906 4.472656 7.765625 C 4.519531 7.699219 4.636719 7.585938 4.65625 7.578125 Z M 4.65625 7.578125 "/>
<path style=" stroke:none;fill-rule:nonzero;fill:url(#linear72);" d="M 4.351562 7.792969 C 4.320312 7.765625 4.132812 7.824219 4.121094 7.851562 C 4.117188 7.859375 4.121094 7.871094 4.125 7.886719 C 4.183594 7.863281 4.285156 7.835938 4.304688 7.855469 C 4.332031 7.878906 4.464844 8.011719 4.457031 8.070312 C 4.457031 8.070312 4.457031 8.074219 4.457031 8.074219 C 4.480469 8.050781 4.5 8.023438 4.503906 8.003906 C 4.511719 7.949219 4.378906 7.816406 4.351562 7.792969 Z M 4.351562 7.792969 "/>
<path style=" stroke:none;fill-rule:nonzero;fill:url(#linear73);" d="M 4.28125 6.734375 C 4.089844 6.585938 3.945312 6.609375 3.855469 6.65625 C 3.960938 6.667969 4.464844 7.039062 4.601562 7.453125 C 4.609375 7.4375 4.617188 7.417969 4.621094 7.402344 C 4.691406 7.191406 4.550781 6.941406 4.28125 6.734375 Z M 4.28125 6.734375 "/>
</g>
</svg>
