<?xml version="1.0" encoding="UTF-8"?>
<svg xmlns="http://www.w3.org/2000/svg" xmlns:xlink="http://www.w3.org/1999/xlink" width="20px" height="px" viewBox="0 0 20 20" version="1.1">
<g id="surface1">
<path style=" stroke:none;fill-rule:nonzero;fill:rgb(52.156863%,52.156863%,52.156863%);fill-opacity:1;" d="M 12.835938 17.5 L 12.835938 11.695312 L 14.777344 11.695312 L 15.070312 9.4375 L 12.835938 9.4375 L 12.835938 7.996094 C 12.835938 7.34375 13.015625 6.898438 13.953125 6.898438 L 15.148438 6.898438 L 15.148438 4.878906 C 14.941406 4.851562 14.234375 4.792969 13.40625 4.792969 C 11.683594 4.792969 10.503906 5.84375 10.503906 7.773438 L 10.503906 9.4375 L 8.554688 9.4375 L 8.554688 11.695312 L 10.503906 11.695312 L 10.503906 17.5 L 3.332031 17.5 C 2.875 17.5 2.5 17.125 2.5 16.667969 L 2.5 3.332031 C 2.5 2.875 2.875 2.5 3.332031 2.5 L 16.667969 2.5 C 17.125 2.5 17.5 2.875 17.5 3.332031 L 17.5 16.667969 C 17.5 17.125 17.125 17.5 16.667969 17.5 Z M 12.835938 17.5 "/>
</g>
</svg>
