<?xml version="1.0" encoding="UTF-8"?>
<svg xmlns="http://www.w3.org/2000/svg" xmlns:xlink="http://www.w3.org/1999/xlink" width="20px" height="px" viewBox="0 0 20 17" version="1.1">
<g id="surface1">
<path style="fill:none;stroke-width:2;stroke-linecap:butt;stroke-linejoin:miter;stroke:rgb(52.54902%,57.647059%,78.431373%);stroke-opacity:1;stroke-miterlimit:4;" d="M 76.388867 188.105699 L 76.550195 176.100643 C 76.550195 175.782629 76.792188 175.623621 77.114844 175.623621 L 88.004492 175.623621 C 88.407813 175.623621 88.811133 175.544118 89.053125 175.226103 C 89.375781 174.987592 89.537109 174.590074 89.537109 174.192555 L 89.537109 167.275735 C 89.537109 166.71921 89.295117 166.480699 88.730469 166.480699 L 77.195508 166.480699 C 77.03418 166.480699 76.872852 166.401195 76.792188 166.321691 C 76.630859 166.242188 76.630859 166.08318 76.630859 165.924173 L 76.792188 159.007353 C 76.792188 158.768842 76.953516 158.609835 77.195508 158.609835 L 92.52168 158.689338 C 93.166992 158.689338 93.731641 158.132812 93.731641 157.496783 L 93.731641 150.50046 C 93.731641 150.182445 93.650977 149.943934 93.489648 149.784926 C 93.247656 149.546415 93.005664 149.466912 92.763672 149.466912 L 70.258398 149.625919 C 68.806445 149.625919 68.161133 150.341452 68.161133 151.772518 L 68.161133 188.582721 M 110.509766 173.715533 C 110.509766 173.318015 110.832422 173 111.155078 173 L 123.9 173 C 124.30332 173 124.625977 172.681985 124.625977 172.284467 L 124.706641 165.844669 C 124.706641 165.606158 124.625977 165.447151 124.464648 165.288143 C 124.30332 165.20864 124.141992 165.129136 123.9 165.129136 L 111.235742 165.20864 C 110.832422 165.20864 110.509766 164.890625 110.509766 164.493107 L 110.348438 159.325368 C 110.348438 159.16636 110.429102 158.927849 110.59043 158.848346 C 110.671094 158.689338 110.913086 158.609835 111.074414 158.609835 L 127.852539 158.609835 C 128.255859 158.609835 128.578516 158.29182 128.578516 157.894301 L 128.578516 150.261949 C 128.578516 149.86443 128.255859 149.546415 127.852539 149.546415 L 102.524023 149.546415 C 102.120703 149.546415 101.798047 149.86443 101.798047 150.261949 L 101.717383 187.946691 C 101.717383 188.185202 101.798047 188.34421 101.959375 188.503217 C 102.040039 188.582721 102.282031 188.662224 102.443359 188.662224 L 128.497852 188.503217 C 128.901172 188.503217 129.223828 188.185202 129.223828 187.787684 L 129.304492 180.234835 C 129.304492 179.996324 129.223828 179.837316 129.143164 179.678309 C 128.981836 179.598805 128.820508 179.519301 128.578516 179.519301 L 111.155078 179.519301 C 110.751758 179.519301 110.429102 179.121783 110.429102 178.724265 L 110.509766 173.715533 M 145.114648 182.142923 L 158.908203 182.142923 C 159.553516 182.063419 160.118164 182.540441 160.360156 183.096967 L 161.973438 187.867188 C 162.054102 188.264706 162.376758 188.503217 162.780078 188.503217 L 169.95918 188.503217 C 170.120508 188.503217 170.281836 188.423713 170.443164 188.264706 C 170.523828 188.105699 170.523828 187.946691 170.443164 187.70818 C 165.845313 175.464614 161.247461 163.380055 156.649609 151.454504 C 155.600977 148.830882 152.616406 149.466912 150.519141 149.387408 C 147.937891 149.387408 147.857227 151.375 147.13125 153.203585 C 142.694727 164.731618 138.258203 176.259651 133.82168 187.867188 C 133.660352 188.34421 133.82168 188.582721 134.305664 188.582721 L 141.646094 188.503217 C 141.96875 188.503217 142.210742 188.34421 142.37207 188.026195 L 144.469336 182.540441 C 144.55 182.30193 144.872656 182.142923 145.114648 182.142923 M 178.912891 158.689338 C 179.396875 158.689338 179.800195 159.086857 179.800195 159.563879 L 180.042188 187.628676 C 180.042188 187.867188 180.122852 188.105699 180.28418 188.264706 C 180.445508 188.423713 180.6875 188.503217 180.929492 188.503217 L 187.624609 188.503217 C 188.108594 188.503217 188.511914 188.105699 188.511914 187.628676 L 188.511914 159.563879 C 188.511914 159.086857 188.915234 158.689338 189.399219 158.689338 L 198.030273 158.609835 C 198.272266 158.609835 198.514258 158.530331 198.675586 158.371324 C 198.836914 158.212316 198.917578 157.973805 198.917578 157.735294 L 198.917578 150.420956 C 198.917578 149.943934 198.514258 149.546415 198.030273 149.546415 L 170.523828 149.546415 C 170.039844 149.546415 169.717188 149.86443 169.717188 150.420956 L 169.717188 157.735294 C 169.717188 158.212316 170.039844 158.609835 170.523828 158.609835 L 178.912891 158.689338 M 225.698047 179.201287 C 223.520117 179.996324 218.196289 180.075827 216.502344 177.452206 C 215.131055 175.305607 214.485742 172.840993 214.566406 170.217371 C 214.808398 163.618566 214.889063 156.940257 214.889063 150.182445 C 214.889063 149.86443 214.566406 149.546415 214.24375 149.546415 L 207.225977 149.466912 C 206.822656 149.466912 206.580664 149.705423 206.580664 150.102941 C 206.5 157.65579 206.5 165.129136 206.661328 172.602482 C 206.822656 179.28079 208.435938 183.892004 214.405078 186.595129 C 223.762109 190.72932 236.910352 186.992647 237.87832 175.305607 C 238.362305 169.660846 238.362305 161.31296 238.039648 150.261949 C 238.039648 149.86443 237.797656 149.625919 237.394336 149.625919 L 230.295898 149.466912 C 229.973242 149.466912 229.650586 149.625919 229.408594 149.86443 C 229.166602 150.102941 229.085938 150.341452 229.085938 150.738971 C 229.005273 158.450827 229.005273 166.08318 229.005273 173.556526 C 229.005273 176.02114 227.956641 178.40625 225.698047 179.201287 " transform="matrix(0.0484262,0,0,0.0491329,0,0)"/>
<path style="fill:none;stroke-width:2;stroke-linecap:butt;stroke-linejoin:miter;stroke:rgb(56.470588%,63.529412%,89.803922%);stroke-opacity:1;stroke-miterlimit:4;" d="M 256.027734 175.544118 L 260.867578 175.544118 C 261.351562 175.544118 261.674219 175.703125 261.916211 176.180147 L 268.127344 187.867188 C 268.288672 188.185202 268.611328 188.34421 268.933984 188.34421 L 276.839063 188.264706 C 277.484375 188.264706 277.645703 188.026195 277.323047 187.469669 L 270.063281 173.87454 C 269.901953 173.636029 269.982617 173.397518 270.143945 173.159007 C 271.595898 171.648438 273.451172 170.296875 274.499805 168.786305 C 279.823633 160.597426 274.177148 150.738971 264.497461 149.943934 C 258.850977 149.546415 253.285156 149.387408 247.8 149.546415 C 247.39668 149.546415 247.154688 149.86443 247.154688 150.261949 L 247.235352 187.787684 C 247.235352 188.185202 247.558008 188.503217 247.880664 188.423713 L 254.737109 188.423713 C 255.221094 188.423713 255.382422 188.185202 255.382422 187.787684 L 255.463086 176.180147 C 255.463086 175.782629 255.624414 175.544118 256.027734 175.544118 " transform="matrix(0.0484262,0,0,0.0491329,0,0)"/>
<path style="fill:none;stroke-width:2;stroke-linecap:butt;stroke-linejoin:miter;stroke:rgb(58.431373%,67.843137%,95.294118%);stroke-opacity:1;stroke-miterlimit:4;" d="M 292.003906 159.484375 C 292.003906 158.927849 292.407227 158.530331 292.971875 158.530331 L 308.943359 158.450827 C 309.508008 158.450827 309.911328 158.053309 309.911328 157.496783 L 310.314648 150.738971 C 310.314648 150.420956 310.233984 150.182445 309.991992 149.943934 C 309.830664 149.784926 309.588672 149.625919 309.266016 149.625919 L 284.744141 149.466912 C 284.421484 149.466912 284.179492 149.625919 284.018164 149.784926 C 283.776172 149.943934 283.695508 150.261949 283.695508 150.50046 L 283.776172 187.469669 C 283.776172 188.026195 284.260156 188.503217 284.744141 188.503217 L 310.072656 188.34421 C 310.637305 188.34421 311.121289 187.867188 311.121289 187.310662 L 311.121289 180.552849 C 311.121289 180.234835 311.040625 179.996324 310.879297 179.757812 C 310.637305 179.598805 310.395313 179.519301 310.15332 179.519301 L 293.052539 179.598805 C 292.487891 179.598805 292.003906 179.121783 292.003906 178.565257 L 292.003906 173.87454 C 292.003906 173.318015 292.487891 172.840993 292.971875 172.840993 L 305.232813 172.840993 C 305.797461 172.840993 306.281445 172.443474 306.281445 171.886949 L 306.281445 166.242188 C 306.281445 165.685662 305.878125 165.20864 305.313477 165.20864 L 293.133203 165.288143 C 292.568555 165.288143 292.08457 164.811121 292.08457 164.254596 L 292.003906 159.484375 " transform="matrix(0.0484262,0,0,0.0491329,0,0)"/>
<path style="fill:none;stroke-width:2;stroke-linecap:butt;stroke-linejoin:miter;stroke:rgb(61.176471%,72.54902%,97.254902%);stroke-opacity:1;stroke-miterlimit:4;" d="M 318.703711 150.341452 L 318.865039 187.787684 C 318.865039 188.185202 319.187695 188.503217 319.591016 188.503217 L 330.561328 188.423713 C 341.773633 188.423713 350.808008 179.757812 350.727344 169.10432 L 350.727344 168.786305 C 350.727344 158.132812 341.612305 149.546415 330.4 149.625919 L 319.429688 149.625919 C 319.268359 149.625919 319.026367 149.705423 318.945703 149.86443 C 318.784375 149.943934 318.703711 150.182445 318.703711 150.341452 " transform="matrix(0.0484262,0,0,0.0491329,0,0)"/>
<path style="fill:none;stroke-width:2;stroke-linecap:butt;stroke-linejoin:miter;stroke:rgb(52.54902%,57.647059%,78.431373%);stroke-opacity:1;stroke-miterlimit:4;" d="M 147.776563 171.807445 C 147.695898 172.12546 147.695898 172.363971 147.937891 172.602482 C 148.099219 172.840993 148.341211 173 148.663867 173 L 155.681641 173 C 156.004297 173 156.246289 172.840993 156.488281 172.602482 C 156.649609 172.363971 156.649609 172.12546 156.568945 171.807445 L 153.019727 161.471967 C 152.939063 161.074449 152.535742 160.835938 152.213086 160.835938 C 151.809766 160.835938 151.487109 161.074449 151.325781 161.471967 L 147.776563 171.807445 " transform="matrix(0.0484262,0,0,0.0491329,0,0)"/>
<path style="fill:none;stroke-width:2;stroke-linecap:butt;stroke-linejoin:miter;stroke:rgb(56.470588%,63.529412%,89.803922%);stroke-opacity:1;stroke-miterlimit:4;" d="M 255.382422 158.530331 L 255.382422 166.401195 C 255.382422 167.196232 256.027734 167.832261 256.834375 167.832261 L 263.2875 167.752757 C 265.707422 167.752757 267.643359 165.447151 267.643359 162.585018 L 267.643359 162.267004 C 267.643359 160.835938 267.159375 159.563879 266.352734 158.609835 C 265.546094 157.576287 264.416797 157.099265 263.206836 157.099265 L 256.753711 157.099265 C 255.94707 157.099265 255.382422 157.735294 255.382422 158.530331 " transform="matrix(0.0484262,0,0,0.0491329,0,0)"/>
<path style="fill:none;stroke-width:2;stroke-linecap:butt;stroke-linejoin:miter;stroke:rgb(61.176471%,72.54902%,97.254902%);stroke-opacity:1;stroke-miterlimit:4;" d="M 326.931445 159.563879 L 326.770117 178.485754 C 326.770117 179.121783 327.254102 179.598805 327.899414 179.598805 L 332.255273 179.678309 C 337.821094 179.757812 342.499609 175.226103 342.499609 169.660846 L 342.499609 168.706801 C 342.580273 163.141544 338.063086 158.530331 332.416602 158.530331 L 328.060742 158.450827 C 327.496094 158.450827 327.012109 158.927849 326.931445 159.563879 " transform="matrix(0.0484262,0,0,0.0491329,0,0)"/>
<path style=" stroke:none;fill-rule:nonzero;fill:rgb(77.647059%,92.156863%,95.294118%);fill-opacity:1;" d="M 3.699219 9.242188 L 3.707031 8.652344 C 3.707031 8.636719 3.71875 8.628906 3.734375 8.628906 L 4.261719 8.628906 C 4.28125 8.628906 4.300781 8.625 4.3125 8.609375 C 4.328125 8.597656 4.335938 8.578125 4.335938 8.558594 L 4.335938 8.21875 C 4.335938 8.191406 4.324219 8.179688 4.296875 8.179688 L 3.738281 8.179688 C 3.730469 8.179688 3.722656 8.175781 3.71875 8.171875 C 3.710938 8.167969 3.710938 8.160156 3.710938 8.152344 L 3.71875 7.8125 C 3.71875 7.800781 3.726562 7.792969 3.738281 7.792969 L 4.480469 7.796875 C 4.511719 7.796875 4.539062 7.769531 4.539062 7.738281 L 4.539062 7.394531 C 4.539062 7.378906 4.535156 7.367188 4.527344 7.359375 C 4.515625 7.347656 4.503906 7.34375 4.492188 7.34375 L 3.402344 7.351562 C 3.332031 7.351562 3.300781 7.386719 3.300781 7.457031 L 3.300781 9.265625 C 3.140625 9.296875 2.976562 9.328125 2.808594 9.363281 C 2.332031 9.464844 2.191406 9.269531 1.902344 8.949219 C 1.890625 8.9375 1.886719 8.917969 1.890625 8.898438 C 1.890625 8.882812 1.902344 8.867188 1.921875 8.859375 L 2.042969 8.800781 C 2.046875 8.800781 2.054688 8.792969 2.054688 8.785156 C 2.058594 8.777344 2.054688 8.769531 2.050781 8.765625 C 2.011719 8.71875 1.992188 8.691406 2 8.621094 C 2.023438 8.488281 2.050781 8.355469 2.085938 8.226562 C 2.089844 8.210938 2.082031 8.203125 2.070312 8.199219 L 2.015625 8.1875 C 1.996094 8.183594 1.980469 8.164062 1.980469 8.144531 C 1.980469 8.125 1.992188 8.105469 2.011719 8.101562 L 2.105469 8.074219 C 2.109375 8.074219 2.113281 8.070312 2.113281 8.0625 C 2.113281 8.058594 2.109375 8.054688 2.105469 8.054688 L 1.917969 8.023438 C 1.898438 8.019531 1.882812 8.003906 1.875 7.980469 C 1.871094 7.960938 1.882812 7.941406 1.898438 7.929688 L 2.042969 7.835938 C 2.054688 7.832031 2.0625 7.828125 2.074219 7.832031 C 2.113281 7.847656 2.152344 7.84375 2.1875 7.824219 C 2.195312 7.820312 2.203125 7.8125 2.203125 7.800781 C 2.203125 7.792969 2.195312 7.785156 2.1875 7.78125 C 2.132812 7.757812 2.078125 7.761719 2.027344 7.792969 C 2.019531 7.796875 2.011719 7.796875 2.007812 7.792969 C 2 7.789062 1.996094 7.78125 1.996094 7.773438 C 2.003906 7.722656 2.023438 7.683594 2.066406 7.648438 C 2.078125 7.636719 2.085938 7.617188 2.078125 7.601562 C 2.035156 7.507812 1.964844 7.449219 1.863281 7.425781 C 1.847656 7.421875 1.835938 7.40625 1.832031 7.390625 C 1.832031 7.375 1.839844 7.359375 1.855469 7.351562 C 1.941406 7.308594 2.019531 7.25 2.121094 7.242188 C 2.648438 7.203125 3.175781 7.152344 3.703125 7.089844 C 4.59375 6.980469 5.480469 6.878906 6.371094 6.785156 C 6.648438 6.753906 6.96875 6.714844 7.332031 6.667969 C 7.75 6.609375 8.171875 6.558594 8.589844 6.511719 C 8.746094 6.496094 9.023438 6.460938 9.421875 6.410156 C 9.699219 6.371094 9.976562 6.34375 10.253906 6.320312 C 10.402344 6.308594 10.648438 6.277344 10.988281 6.21875 C 11.234375 6.179688 11.476562 6.128906 11.714844 6.066406 C 12.308594 5.910156 12.898438 5.738281 13.484375 5.550781 C 13.539062 5.53125 13.628906 5.496094 13.757812 5.441406 C 13.847656 5.398438 13.941406 5.367188 14.035156 5.339844 C 14.160156 5.308594 14.246094 5.34375 14.371094 5.359375 C 14.386719 5.359375 14.402344 5.367188 14.417969 5.378906 L 14.832031 5.679688 C 14.839844 5.6875 14.84375 5.695312 14.84375 5.703125 L 14.851562 5.804688 C 14.851562 5.820312 14.859375 5.828125 14.875 5.824219 L 15.789062 5.773438 C 15.808594 5.773438 15.824219 5.777344 15.839844 5.785156 C 15.875 5.800781 15.90625 5.796875 15.9375 5.777344 C 15.945312 5.773438 15.957031 5.769531 15.96875 5.769531 L 16.40625 5.730469 C 16.414062 5.730469 16.421875 5.734375 16.425781 5.738281 C 16.429688 5.746094 16.433594 5.753906 16.433594 5.757812 C 16.425781 5.828125 16.390625 5.875 16.332031 5.898438 C 16.324219 5.902344 16.3125 5.898438 16.304688 5.894531 C 16.300781 5.890625 16.296875 5.878906 16.296875 5.871094 L 16.300781 5.808594 C 16.304688 5.796875 16.300781 5.789062 16.289062 5.78125 C 16.28125 5.777344 16.269531 5.777344 16.261719 5.785156 L 16.117188 5.898438 C 16.105469 5.910156 16.089844 5.914062 16.074219 5.914062 L 15.960938 5.925781 C 15.945312 5.925781 15.933594 5.917969 15.929688 5.90625 L 15.910156 5.863281 C 15.90625 5.851562 15.898438 5.847656 15.890625 5.851562 C 15.882812 5.851562 15.875 5.863281 15.878906 5.871094 L 15.898438 6.007812 C 15.902344 6.027344 15.914062 6.035156 15.933594 6.039062 L 16.058594 6.050781 C 16.078125 6.054688 16.09375 6.046875 16.105469 6.03125 C 16.175781 5.957031 16.257812 5.933594 16.351562 5.957031 C 16.367188 5.960938 16.382812 5.960938 16.398438 5.960938 L 16.6875 5.9375 C 16.703125 5.933594 16.71875 5.945312 16.71875 5.960938 C 16.722656 5.976562 16.710938 5.988281 16.695312 5.988281 C 16.65625 5.992188 16.625 5.984375 16.59375 5.964844 C 16.582031 5.957031 16.570312 5.953125 16.558594 5.960938 L 16.371094 6.03125 C 16.359375 6.035156 16.34375 6.035156 16.332031 6.03125 C 16.296875 6.015625 16.257812 6.015625 16.214844 6.035156 C 16.199219 6.046875 16.1875 6.066406 16.191406 6.085938 C 16.195312 6.105469 16.210938 6.121094 16.230469 6.121094 C 16.351562 6.132812 16.464844 6.117188 16.578125 6.082031 C 16.59375 6.078125 16.609375 6.074219 16.625 6.078125 C 16.78125 6.105469 16.914062 6.058594 17.074219 6.09375 C 17.082031 6.09375 17.082031 6.097656 17.082031 6.101562 C 17.082031 6.109375 17.078125 6.113281 17.074219 6.113281 L 16.820312 6.144531 C 16.804688 6.148438 16.796875 6.15625 16.800781 6.171875 L 16.808594 6.191406 C 16.808594 6.195312 16.8125 6.199219 16.816406 6.199219 L 17.113281 6.203125 C 17.132812 6.203125 17.148438 6.210938 17.160156 6.230469 C 17.199219 6.289062 17.257812 6.3125 17.332031 6.296875 C 17.34375 6.296875 17.355469 6.300781 17.359375 6.308594 C 17.367188 6.316406 17.367188 6.332031 17.359375 6.339844 C 17.34375 6.371094 17.359375 6.386719 17.410156 6.382812 C 17.429688 6.382812 17.445312 6.378906 17.460938 6.371094 C 17.503906 6.34375 17.546875 6.347656 17.589844 6.382812 C 17.601562 6.390625 17.613281 6.398438 17.628906 6.402344 C 17.726562 6.421875 17.820312 6.460938 17.910156 6.515625 C 17.917969 6.519531 17.921875 6.527344 17.917969 6.535156 C 17.914062 6.542969 17.910156 6.546875 17.902344 6.542969 C 17.871094 6.539062 17.847656 6.523438 17.832031 6.496094 C 17.824219 6.480469 17.808594 6.472656 17.792969 6.472656 L 17.625 6.480469 C 17.613281 6.480469 17.605469 6.484375 17.601562 6.492188 C 17.597656 6.5 17.597656 6.507812 17.605469 6.515625 L 17.648438 6.589844 C 17.652344 6.597656 17.652344 6.613281 17.644531 6.621094 C 17.640625 6.632812 17.628906 6.636719 17.617188 6.632812 C 17.550781 6.617188 17.519531 6.574219 17.519531 6.503906 C 17.519531 6.488281 17.515625 6.476562 17.503906 6.46875 C 17.492188 6.464844 17.476562 6.460938 17.464844 6.46875 L 17.273438 6.570312 C 17.257812 6.578125 17.246094 6.597656 17.253906 6.617188 L 17.277344 6.695312 C 17.277344 6.703125 17.285156 6.710938 17.296875 6.710938 C 17.304688 6.710938 17.3125 6.703125 17.316406 6.695312 C 17.328125 6.628906 17.359375 6.574219 17.410156 6.539062 C 17.417969 6.53125 17.429688 6.527344 17.4375 6.53125 C 17.449219 6.535156 17.457031 6.542969 17.460938 6.554688 C 17.507812 6.710938 17.613281 6.78125 17.78125 6.761719 C 17.796875 6.761719 17.800781 6.765625 17.792969 6.777344 C 17.785156 6.789062 17.773438 6.796875 17.761719 6.800781 C 17.683594 6.820312 17.601562 6.828125 17.519531 6.816406 C 17.503906 6.816406 17.496094 6.808594 17.488281 6.792969 L 17.457031 6.714844 C 17.449219 6.695312 17.4375 6.691406 17.421875 6.707031 C 17.390625 6.730469 17.382812 6.761719 17.390625 6.804688 C 17.394531 6.820312 17.390625 6.835938 17.375 6.84375 C 17.265625 6.902344 17.171875 6.972656 17.050781 7.011719 C 16.832031 7.074219 16.644531 7.1875 16.488281 7.351562 C 16.480469 7.359375 16.480469 7.363281 16.488281 7.371094 L 16.882812 7.789062 C 16.894531 7.804688 16.910156 7.808594 16.929688 7.808594 C 17.148438 7.800781 17.363281 7.835938 17.566406 7.917969 C 17.585938 7.925781 17.59375 7.9375 17.597656 7.957031 L 17.613281 8.042969 C 17.617188 8.058594 17.628906 8.074219 17.644531 8.082031 L 17.8125 8.175781 C 17.835938 8.191406 17.835938 8.203125 17.8125 8.214844 L 17.722656 8.269531 C 17.707031 8.277344 17.699219 8.292969 17.703125 8.308594 C 17.746094 8.472656 17.742188 8.636719 17.691406 8.800781 C 17.6875 8.816406 17.691406 8.828125 17.707031 8.835938 L 17.746094 8.859375 C 17.75 8.863281 17.753906 8.871094 17.753906 8.878906 C 17.753906 8.886719 17.746094 8.894531 17.738281 8.894531 L 17.667969 8.914062 C 17.644531 8.917969 17.632812 8.9375 17.632812 8.960938 C 17.636719 8.984375 17.65625 9 17.679688 9 L 17.890625 8.996094 C 17.902344 8.996094 17.914062 9.003906 17.917969 9.015625 C 17.921875 9.027344 17.917969 9.039062 17.90625 9.046875 C 17.808594 9.109375 17.707031 9.136719 17.589844 9.128906 C 17.578125 9.128906 17.566406 9.140625 17.5625 9.152344 C 17.5625 9.167969 17.570312 9.179688 17.582031 9.183594 C 17.679688 9.21875 17.722656 9.285156 17.710938 9.386719 C 17.707031 9.402344 17.714844 9.414062 17.726562 9.421875 L 17.914062 9.535156 C 17.921875 9.539062 17.925781 9.546875 17.925781 9.554688 C 17.925781 9.5625 17.921875 9.574219 17.917969 9.578125 C 17.851562 9.636719 17.785156 9.667969 17.722656 9.675781 C 17.277344 9.722656 16.832031 9.804688 16.398438 9.914062 C 16.296875 9.941406 16.195312 9.949219 16.09375 9.945312 C 15.742188 9.925781 15.394531 9.921875 15.042969 9.929688 C 14.859375 9.933594 14.644531 9.949219 14.402344 9.984375 C 14.117188 10.023438 13.832031 10.054688 13.554688 10.105469 C 12.984375 10.214844 12.410156 10.324219 11.839844 10.429688 C 11.722656 10.453125 11.40625 10.523438 10.894531 10.636719 C 10.539062 10.71875 10.179688 10.78125 9.820312 10.828125 C 9.628906 10.851562 9.429688 10.890625 9.230469 10.9375 C 9.023438 10.988281 8.824219 11.027344 8.644531 11.054688 C 8.609375 11.058594 8.566406 11.058594 8.515625 11.046875 C 8.496094 11.042969 8.480469 11.046875 8.464844 11.058594 C 8.425781 11.085938 8.390625 11.078125 8.359375 11.035156 C 8.347656 11.015625 8.332031 11.015625 8.316406 11.03125 C 8.246094 11.101562 8.160156 11.152344 8.058594 11.183594 C 8.050781 11.1875 8.046875 11.183594 8.054688 11.175781 C 8.152344 11.050781 8.292969 11.097656 8.292969 10.886719 C 8.292969 10.878906 8.300781 10.875 8.304688 10.871094 C 8.3125 10.871094 8.320312 10.878906 8.320312 10.882812 C 8.324219 10.898438 8.324219 10.914062 8.320312 10.933594 C 8.320312 10.957031 8.328125 10.980469 8.34375 10.996094 C 8.363281 11.011719 8.386719 11.019531 8.410156 11.015625 C 8.566406 10.984375 8.71875 10.960938 8.867188 10.9375 C 9 10.914062 9.105469 10.867188 9.183594 10.796875 C 9.195312 10.785156 9.207031 10.78125 9.222656 10.789062 L 9.285156 10.820312 C 9.296875 10.828125 9.308594 10.828125 9.320312 10.824219 L 9.574219 10.753906 C 9.585938 10.753906 9.589844 10.746094 9.589844 10.738281 C 9.589844 10.726562 9.585938 10.71875 9.578125 10.714844 C 9.503906 10.6875 9.433594 10.6875 9.363281 10.722656 C 9.347656 10.730469 9.332031 10.730469 9.320312 10.726562 L 9.214844 10.691406 C 9.195312 10.683594 9.175781 10.6875 9.160156 10.699219 L 9.023438 10.808594 C 9.011719 10.816406 8.996094 10.816406 8.984375 10.808594 L 8.875 10.746094 C 8.863281 10.738281 8.851562 10.742188 8.84375 10.753906 C 8.835938 10.761719 8.835938 10.777344 8.84375 10.785156 L 8.875 10.816406 C 8.878906 10.824219 8.878906 10.828125 8.875 10.832031 L 8.867188 10.84375 C 8.863281 10.84375 8.863281 10.84375 8.859375 10.84375 C 8.746094 10.789062 8.636719 10.796875 8.527344 10.863281 C 8.519531 10.867188 8.511719 10.867188 8.503906 10.859375 L 8.492188 10.84375 C 8.488281 10.839844 8.492188 10.835938 8.496094 10.832031 L 8.632812 10.738281 C 8.640625 10.734375 8.648438 10.734375 8.65625 10.738281 C 8.703125 10.757812 8.75 10.765625 8.804688 10.757812 C 8.820312 10.757812 8.835938 10.742188 8.839844 10.722656 C 8.839844 10.707031 8.832031 10.6875 8.816406 10.679688 L 8.664062 10.609375 C 8.648438 10.601562 8.636719 10.605469 8.632812 10.621094 L 8.625 10.636719 C 8.617188 10.648438 8.605469 10.65625 8.589844 10.65625 C 8.539062 10.65625 8.503906 10.675781 8.480469 10.726562 C 8.476562 10.738281 8.464844 10.746094 8.453125 10.742188 L 8.140625 10.707031 C 8.132812 10.707031 8.121094 10.707031 8.113281 10.714844 L 8.03125 10.789062 C 8.015625 10.804688 8.011719 10.800781 8.015625 10.777344 C 8.058594 10.644531 8.148438 10.585938 8.289062 10.609375 C 8.304688 10.613281 8.320312 10.601562 8.324219 10.585938 L 8.347656 10.511719 C 8.347656 10.5 8.359375 10.488281 8.371094 10.488281 L 8.425781 10.476562 C 8.4375 10.472656 8.445312 10.464844 8.449219 10.453125 C 8.449219 10.441406 8.445312 10.429688 8.433594 10.421875 L 8.417969 10.414062 C 8.402344 10.40625 8.390625 10.40625 8.382812 10.421875 C 8.347656 10.464844 8.308594 10.5 8.265625 10.527344 C 8.183594 10.578125 8.105469 10.542969 8.015625 10.601562 C 7.949219 10.644531 7.941406 10.71875 7.894531 10.789062 C 7.882812 10.804688 7.867188 10.808594 7.851562 10.800781 C 7.800781 10.78125 7.753906 10.789062 7.714844 10.824219 C 7.703125 10.835938 7.691406 10.839844 7.679688 10.835938 C 7.613281 10.832031 7.554688 10.84375 7.5 10.871094 C 7.480469 10.878906 7.464844 10.878906 7.449219 10.871094 L 7.074219 10.6875 C 7.0625 10.679688 7.050781 10.667969 7.042969 10.65625 C 7.011719 10.585938 6.957031 10.546875 6.882812 10.539062 C 6.867188 10.535156 6.855469 10.546875 6.851562 10.558594 C 6.847656 10.574219 6.851562 10.589844 6.867188 10.597656 L 7.015625 10.671875 C 7.023438 10.675781 7.03125 10.683594 7.035156 10.695312 L 7.046875 10.773438 C 7.050781 10.789062 7.066406 10.800781 7.082031 10.800781 C 7.164062 10.789062 7.234375 10.816406 7.292969 10.878906 C 7.300781 10.882812 7.300781 10.894531 7.296875 10.902344 C 7.292969 10.910156 7.285156 10.914062 7.277344 10.914062 C 7.203125 10.90625 7.132812 10.925781 7.070312 10.964844 C 7.058594 10.972656 7.046875 10.972656 7.039062 10.964844 C 7.027344 10.957031 7.027344 10.941406 7.03125 10.929688 C 7.035156 10.917969 7.042969 10.90625 7.046875 10.890625 C 7.054688 10.875 7.054688 10.863281 7.050781 10.851562 C 7.046875 10.839844 7.039062 10.828125 7.023438 10.828125 C 7.011719 10.824219 7.003906 10.828125 7 10.839844 L 6.976562 10.921875 C 6.972656 10.929688 6.96875 10.933594 6.960938 10.9375 C 6.953125 10.9375 6.945312 10.933594 6.941406 10.925781 C 6.910156 10.867188 6.859375 10.84375 6.792969 10.859375 C 6.769531 10.863281 6.753906 10.882812 6.757812 10.90625 C 6.761719 10.929688 6.78125 10.941406 6.804688 10.9375 L 6.886719 10.933594 C 6.921875 10.929688 6.925781 10.9375 6.894531 10.957031 C 6.835938 10.996094 6.773438 10.996094 6.707031 10.960938 C 6.6875 10.953125 6.667969 10.957031 6.65625 10.96875 C 6.601562 11.027344 6.546875 11.027344 6.488281 10.972656 C 6.472656 10.960938 6.460938 10.960938 6.457031 10.984375 C 6.453125 10.992188 6.457031 11 6.464844 11.007812 C 6.472656 11.015625 6.46875 11.023438 6.460938 11.03125 C 6.4375 11.050781 6.40625 11.058594 6.375 11.050781 C 6.351562 11.046875 6.34375 11.035156 6.355469 11.011719 L 6.421875 10.871094 C 6.425781 10.859375 6.4375 10.851562 6.449219 10.847656 C 6.464844 10.847656 6.476562 10.851562 6.484375 10.863281 L 6.5625 10.964844 C 6.570312 10.976562 6.585938 10.980469 6.601562 10.980469 C 6.617188 10.980469 6.628906 10.96875 6.636719 10.953125 C 6.664062 10.890625 6.613281 10.839844 6.554688 10.828125 C 6.496094 10.8125 6.449219 10.785156 6.40625 10.742188 C 6.394531 10.730469 6.378906 10.726562 6.363281 10.734375 C 6.351562 10.742188 6.34375 10.757812 6.34375 10.773438 L 6.347656 10.800781 C 6.351562 10.824219 6.339844 10.835938 6.316406 10.839844 C 6.269531 10.847656 6.230469 10.828125 6.207031 10.78125 C 6.191406 10.75 6.175781 10.75 6.164062 10.785156 C 6.136719 10.859375 6.085938 10.910156 6.007812 10.9375 C 5.996094 10.941406 5.984375 10.941406 5.976562 10.933594 C 5.933594 10.914062 5.890625 10.90625 5.839844 10.914062 C 5.8125 10.917969 5.792969 10.941406 5.792969 10.972656 C 5.796875 11 5.816406 11.019531 5.84375 11.023438 C 5.890625 11.023438 5.929688 11.039062 5.960938 11.0625 C 5.976562 11.074219 5.992188 11.078125 6.011719 11.074219 L 6.15625 11.046875 C 6.167969 11.042969 6.175781 11.050781 6.179688 11.058594 C 6.183594 11.070312 6.179688 11.082031 6.167969 11.085938 C 6.113281 11.113281 6.058594 11.117188 6 11.09375 C 5.988281 11.089844 5.976562 11.09375 5.964844 11.097656 C 5.800781 11.1875 5.570312 11.03125 5.429688 10.945312 C 5.414062 10.933594 5.402344 10.941406 5.398438 10.960938 C 5.386719 11.03125 5.34375 11.0625 5.269531 11.050781 C 5.253906 11.050781 5.246094 11.042969 5.238281 11.03125 C 5.210938 10.960938 5.148438 10.976562 5.117188 10.929688 C 5.109375 10.910156 5.109375 10.890625 5.117188 10.871094 C 5.121094 10.855469 5.132812 10.847656 5.148438 10.84375 L 5.191406 10.832031 C 5.199219 10.832031 5.203125 10.824219 5.203125 10.816406 C 5.207031 10.808594 5.203125 10.800781 5.195312 10.796875 C 5.136719 10.765625 5.09375 10.71875 5.0625 10.664062 C 5.046875 10.632812 5.027344 10.628906 5.003906 10.652344 C 4.976562 10.679688 4.96875 10.714844 4.984375 10.753906 C 4.992188 10.769531 5 10.777344 5.019531 10.78125 L 5.078125 10.789062 C 5.117188 10.792969 5.117188 10.804688 5.082031 10.816406 C 5.039062 10.835938 5.003906 10.863281 5 10.914062 C 5 10.957031 5.019531 10.980469 5.0625 10.992188 C 5.078125 10.996094 5.085938 11.003906 5.097656 11.011719 C 5.117188 11.035156 5.144531 11.054688 5.183594 11.070312 C 5.234375 11.089844 5.296875 11.132812 5.371094 11.203125 C 5.390625 11.21875 5.386719 11.230469 5.363281 11.234375 C 5.316406 11.246094 5.289062 11.277344 5.28125 11.328125 C 5.28125 11.34375 5.273438 11.347656 5.257812 11.347656 L 5.238281 11.347656 C 5.230469 11.347656 5.226562 11.34375 5.222656 11.335938 C 5.21875 11.328125 5.21875 11.320312 5.222656 11.3125 L 5.289062 11.234375 C 5.300781 11.214844 5.300781 11.199219 5.285156 11.1875 C 5.257812 11.15625 5.226562 11.144531 5.183594 11.148438 C 5.171875 11.148438 5.15625 11.144531 5.148438 11.132812 L 5.113281 11.09375 C 5.101562 11.078125 5.085938 11.078125 5.070312 11.089844 C 5.039062 11.113281 5.015625 11.140625 5 11.175781 C 4.992188 11.1875 4.984375 11.195312 4.96875 11.191406 L 4.925781 11.179688 C 4.917969 11.175781 4.910156 11.171875 4.910156 11.160156 C 4.910156 11.152344 4.914062 11.144531 4.921875 11.140625 L 5.015625 11.082031 C 5.027344 11.074219 5.03125 11.066406 5.035156 11.050781 C 5.035156 11.039062 5.027344 11.027344 5.015625 11.023438 C 4.964844 10.988281 4.917969 10.996094 4.882812 11.046875 C 4.871094 11.058594 4.855469 11.066406 4.839844 11.0625 L 4.765625 11.039062 C 4.746094 11.035156 4.730469 11.039062 4.722656 11.058594 L 4.699219 11.097656 C 4.691406 11.105469 4.691406 11.117188 4.699219 11.128906 C 4.703125 11.136719 4.714844 11.140625 4.726562 11.140625 C 4.792969 11.136719 4.832031 11.164062 4.84375 11.226562 C 4.84375 11.25 4.835938 11.261719 4.8125 11.261719 C 4.769531 11.257812 4.746094 11.234375 4.738281 11.191406 C 4.734375 11.167969 4.71875 11.148438 4.695312 11.144531 C 4.652344 11.132812 4.621094 11.140625 4.601562 11.167969 C 4.574219 11.203125 4.597656 11.253906 4.609375 11.292969 C 4.609375 11.300781 4.609375 11.308594 4.605469 11.316406 C 4.601562 11.320312 4.59375 11.328125 4.589844 11.328125 C 4.539062 11.339844 4.492188 11.339844 4.441406 11.332031 C 4.4375 11.332031 4.429688 11.324219 4.429688 11.316406 C 4.433594 11.308594 4.4375 11.304688 4.445312 11.304688 C 4.523438 11.3125 4.558594 11.273438 4.550781 11.191406 C 4.550781 11.175781 4.554688 11.160156 4.570312 11.148438 C 4.660156 11.074219 4.722656 10.988281 4.761719 10.894531 C 4.769531 10.875 4.765625 10.855469 4.75 10.84375 C 4.734375 10.832031 4.710938 10.832031 4.695312 10.847656 C 4.621094 10.914062 4.570312 10.992188 4.535156 11.085938 C 4.53125 11.101562 4.523438 11.113281 4.507812 11.117188 C 4.449219 11.140625 4.40625 11.183594 4.386719 11.242188 C 4.375 11.269531 4.367188 11.269531 4.363281 11.238281 C 4.359375 11.207031 4.375 11.164062 4.417969 11.117188 C 4.464844 11.0625 4.558594 10.917969 4.703125 10.6875 C 4.714844 10.671875 4.710938 10.660156 4.691406 10.652344 L 4.675781 10.648438 C 4.664062 10.640625 4.652344 10.644531 4.644531 10.65625 C 4.558594 10.78125 4.460938 10.894531 4.351562 10.996094 C 4.328125 11.015625 4.316406 11.050781 4.308594 11.097656 C 4.308594 11.113281 4.300781 11.121094 4.285156 11.121094 L 4.230469 11.128906 C 4.214844 11.128906 4.210938 11.121094 4.21875 11.105469 C 4.25 11.058594 4.285156 11.003906 4.332031 10.941406 C 4.417969 10.820312 4.5 10.71875 4.582031 10.636719 C 4.59375 10.625 4.601562 10.613281 4.601562 10.597656 C 4.605469 10.578125 4.59375 10.5625 4.574219 10.554688 C 4.558594 10.542969 4.535156 10.550781 4.527344 10.566406 C 4.453125 10.667969 4.375 10.769531 4.292969 10.871094 C 4.246094 10.925781 4.199219 10.957031 4.152344 10.960938 C 4.082031 10.964844 4.023438 10.945312 3.96875 10.898438 C 3.960938 10.890625 3.957031 10.878906 3.957031 10.871094 C 3.960938 10.859375 3.964844 10.851562 3.976562 10.847656 L 4.058594 10.8125 C 4.066406 10.808594 4.074219 10.800781 4.074219 10.792969 C 4.074219 10.78125 4.066406 10.773438 4.058594 10.769531 C 4.027344 10.753906 3.996094 10.757812 3.964844 10.78125 C 3.953125 10.789062 3.945312 10.800781 3.941406 10.8125 C 3.925781 10.851562 3.898438 10.878906 3.863281 10.894531 C 3.835938 10.90625 3.820312 10.894531 3.820312 10.867188 L 3.804688 10.738281 C 3.804688 10.726562 3.796875 10.71875 3.785156 10.71875 C 3.746094 10.714844 3.714844 10.707031 3.679688 10.703125 C 3.660156 10.699219 3.644531 10.703125 3.636719 10.710938 C 3.628906 10.71875 3.621094 10.726562 3.621094 10.738281 C 3.617188 10.761719 3.625 10.769531 3.648438 10.765625 L 3.699219 10.757812 C 3.707031 10.753906 3.714844 10.757812 3.71875 10.761719 C 3.726562 10.765625 3.730469 10.773438 3.730469 10.78125 L 3.738281 10.875 C 3.738281 10.894531 3.730469 10.90625 3.710938 10.910156 L 3.6875 10.914062 C 3.679688 10.914062 3.675781 10.921875 3.675781 10.929688 C 3.675781 10.941406 3.683594 10.945312 3.691406 10.949219 L 3.898438 10.953125 C 3.917969 10.953125 3.9375 10.972656 3.9375 10.992188 C 3.949219 11.070312 3.929688 11.140625 3.886719 11.203125 C 3.875 11.222656 3.851562 11.226562 3.828125 11.222656 C 3.808594 11.214844 3.792969 11.195312 3.792969 11.171875 C 3.792969 11.121094 3.820312 11.097656 3.875 11.097656 C 3.894531 11.097656 3.902344 11.089844 3.898438 11.066406 L 3.878906 11.007812 C 3.875 10.996094 3.871094 10.988281 3.859375 10.984375 C 3.851562 10.980469 3.84375 10.980469 3.832031 10.988281 C 3.753906 11.027344 3.671875 11.039062 3.582031 11.011719 C 3.574219 11.007812 3.570312 11.003906 3.566406 10.996094 C 3.5625 10.988281 3.5625 10.980469 3.566406 10.972656 L 3.613281 10.890625 C 3.628906 10.859375 3.621094 10.847656 3.589844 10.847656 L 3.382812 10.855469 C 3.359375 10.855469 3.347656 10.867188 3.34375 10.890625 L 3.335938 10.921875 C 3.332031 10.929688 3.328125 10.933594 3.320312 10.9375 C 3.316406 10.9375 3.308594 10.9375 3.300781 10.933594 L 3.171875 10.835938 C 3.160156 10.824219 3.152344 10.816406 3.152344 10.800781 L 3.152344 10.761719 C 3.152344 10.746094 3.15625 10.742188 3.167969 10.753906 L 3.285156 10.875 C 3.304688 10.894531 3.320312 10.890625 3.335938 10.871094 L 3.375 10.804688 C 3.386719 10.789062 3.398438 10.785156 3.417969 10.785156 C 3.644531 10.785156 3.503906 10.421875 3.453125 10.320312 C 3.410156 10.230469 3.363281 10.140625 3.316406 10.046875 C 3.304688 10.019531 3.28125 10.011719 3.25 10.023438 C 3.238281 10.03125 3.230469 10.023438 3.234375 10.007812 C 3.242188 9.890625 3.199219 9.800781 3.101562 9.738281 C 3.09375 9.734375 3.089844 9.726562 3.089844 9.71875 C 3.085938 9.710938 3.089844 9.699219 3.09375 9.695312 C 3.195312 9.558594 3.316406 9.472656 3.46875 9.433594 C 3.746094 9.355469 4.007812 9.257812 4.292969 9.199219 C 4.375 9.183594 4.449219 9.152344 4.515625 9.105469 C 4.542969 9.085938 4.539062 9.078125 4.507812 9.078125 C 4.230469 9.085938 3.960938 9.140625 3.699219 9.242188 Z M 15.886719 6.09375 C 15.882812 6.085938 15.867188 6.082031 15.835938 6.085938 C 15.804688 6.085938 15.761719 6.089844 15.71875 6.101562 C 15.632812 6.117188 15.5625 6.144531 15.566406 6.160156 C 15.566406 6.164062 15.585938 6.167969 15.617188 6.167969 C 15.644531 6.167969 15.6875 6.160156 15.730469 6.152344 C 15.820312 6.132812 15.886719 6.109375 15.886719 6.09375 Z M 16.601562 6.195312 C 16.550781 6.1875 16.5 6.199219 16.457031 6.234375 C 16.433594 6.253906 16.4375 6.261719 16.464844 6.257812 L 16.601562 6.238281 C 16.609375 6.234375 16.617188 6.226562 16.617188 6.214844 C 16.617188 6.203125 16.609375 6.195312 16.601562 6.195312 Z M 16.953125 6.304688 L 17.257812 6.445312 C 17.261719 6.445312 17.265625 6.445312 17.269531 6.441406 L 17.269531 6.4375 C 17.28125 6.410156 17.222656 6.359375 17.140625 6.320312 L 17.125 6.3125 C 17.042969 6.273438 16.964844 6.265625 16.949219 6.292969 L 16.949219 6.296875 C 16.949219 6.296875 16.949219 6.300781 16.953125 6.304688 Z M 17.058594 6.535156 C 17.039062 6.527344 17.03125 6.535156 17.039062 6.558594 L 17.054688 6.609375 C 17.0625 6.628906 17.074219 6.636719 17.09375 6.628906 L 17.171875 6.601562 C 17.210938 6.589844 17.210938 6.578125 17.171875 6.566406 Z M 5.351562 8.535156 C 5.351562 8.515625 5.367188 8.5 5.382812 8.5 L 6 8.5 C 6.019531 8.5 6.035156 8.484375 6.035156 8.464844 L 6.039062 8.148438 C 6.039062 8.136719 6.035156 8.128906 6.027344 8.121094 C 6.019531 8.117188 6.011719 8.113281 6 8.113281 L 5.386719 8.117188 C 5.367188 8.117188 5.351562 8.101562 5.351562 8.082031 L 5.34375 7.828125 C 5.34375 7.820312 5.347656 7.808594 5.355469 7.804688 C 5.359375 7.796875 5.371094 7.792969 5.378906 7.792969 L 6.191406 7.792969 C 6.210938 7.792969 6.226562 7.777344 6.226562 7.757812 L 6.226562 7.382812 C 6.226562 7.363281 6.210938 7.347656 6.191406 7.347656 L 4.964844 7.347656 C 4.945312 7.347656 4.929688 7.363281 4.929688 7.382812 L 4.925781 9.234375 C 4.925781 9.246094 4.929688 9.253906 4.9375 9.261719 C 4.941406 9.265625 4.953125 9.269531 4.960938 9.269531 L 6.222656 9.261719 C 6.242188 9.261719 6.257812 9.246094 6.257812 9.226562 L 6.261719 8.855469 C 6.261719 8.84375 6.257812 8.835938 6.253906 8.828125 C 6.246094 8.824219 6.238281 8.820312 6.226562 8.820312 L 5.382812 8.820312 C 5.363281 8.820312 5.347656 8.800781 5.347656 8.78125 Z M 7.027344 8.949219 L 7.695312 8.949219 C 7.726562 8.945312 7.753906 8.96875 7.765625 8.996094 L 7.84375 9.230469 C 7.847656 9.25 7.863281 9.261719 7.882812 9.261719 L 8.230469 9.261719 C 8.238281 9.261719 8.246094 9.257812 8.253906 9.25 C 8.257812 9.242188 8.257812 9.234375 8.253906 9.222656 C 8.03125 8.621094 7.808594 8.027344 7.585938 7.441406 C 7.535156 7.3125 7.390625 7.34375 7.289062 7.339844 C 7.164062 7.339844 7.160156 7.4375 7.125 7.527344 C 6.910156 8.09375 6.695312 8.660156 6.480469 9.230469 C 6.472656 9.253906 6.480469 9.265625 6.503906 9.265625 L 6.859375 9.261719 C 6.875 9.261719 6.886719 9.253906 6.894531 9.238281 L 6.996094 8.96875 C 7 8.957031 7.015625 8.949219 7.027344 8.949219 Z M 8.664062 7.796875 C 8.6875 7.796875 8.707031 7.816406 8.707031 7.839844 L 8.71875 9.21875 C 8.71875 9.230469 8.722656 9.242188 8.730469 9.25 C 8.738281 9.257812 8.75 9.261719 8.761719 9.261719 L 9.085938 9.261719 C 9.109375 9.261719 9.128906 9.242188 9.128906 9.21875 L 9.128906 7.839844 C 9.128906 7.816406 9.148438 7.796875 9.171875 7.796875 L 9.589844 7.792969 C 9.601562 7.792969 9.613281 7.789062 9.621094 7.78125 C 9.628906 7.773438 9.632812 7.761719 9.632812 7.75 L 9.632812 7.390625 C 9.632812 7.367188 9.613281 7.347656 9.589844 7.347656 L 8.257812 7.347656 C 8.234375 7.347656 8.21875 7.363281 8.21875 7.390625 L 8.21875 7.75 C 8.21875 7.773438 8.234375 7.792969 8.257812 7.792969 Z M 10.929688 8.804688 C 10.824219 8.84375 10.566406 8.847656 10.484375 8.71875 C 10.417969 8.613281 10.386719 8.492188 10.390625 8.363281 C 10.402344 8.039062 10.40625 7.710938 10.40625 7.378906 C 10.40625 7.363281 10.390625 7.347656 10.375 7.347656 L 10.035156 7.34375 C 10.015625 7.34375 10.003906 7.355469 10.003906 7.375 C 10 7.746094 10 8.113281 10.007812 8.480469 C 10.015625 8.808594 10.09375 9.035156 10.382812 9.167969 C 10.835938 9.371094 11.472656 9.1875 11.519531 8.613281 C 11.542969 8.335938 11.542969 7.925781 11.527344 7.382812 C 11.527344 7.363281 11.515625 7.351562 11.496094 7.351562 L 11.152344 7.34375 C 11.136719 7.34375 11.121094 7.351562 11.109375 7.363281 C 11.097656 7.375 11.09375 7.386719 11.09375 7.40625 C 11.089844 7.785156 11.089844 8.160156 11.089844 8.527344 C 11.089844 8.648438 11.039062 8.765625 10.929688 8.804688 Z M 12.398438 8.625 L 12.632812 8.625 C 12.65625 8.625 12.671875 8.632812 12.683594 8.65625 L 12.984375 9.230469 C 12.992188 9.246094 13.007812 9.253906 13.023438 9.253906 L 13.40625 9.25 C 13.4375 9.25 13.445312 9.238281 13.429688 9.210938 L 13.078125 8.542969 C 13.070312 8.53125 13.074219 8.519531 13.082031 8.507812 C 13.152344 8.433594 13.242188 8.367188 13.292969 8.292969 C 13.550781 7.890625 13.277344 7.40625 12.808594 7.367188 C 12.535156 7.347656 12.265625 7.339844 12 7.347656 C 11.980469 7.347656 11.96875 7.363281 11.96875 7.382812 L 11.972656 9.226562 C 11.972656 9.246094 11.988281 9.261719 12.003906 9.257812 L 12.335938 9.257812 C 12.359375 9.257812 12.367188 9.246094 12.367188 9.226562 L 12.371094 8.65625 C 12.371094 8.636719 12.378906 8.625 12.398438 8.625 Z M 14.140625 7.835938 C 14.140625 7.808594 14.160156 7.789062 14.1875 7.789062 L 14.960938 7.785156 C 14.988281 7.785156 15.007812 7.765625 15.007812 7.738281 L 15.027344 7.40625 C 15.027344 7.390625 15.023438 7.378906 15.011719 7.367188 C 15.003906 7.359375 14.992188 7.351562 14.976562 7.351562 L 13.789062 7.34375 C 13.773438 7.34375 13.761719 7.351562 13.753906 7.359375 C 13.742188 7.367188 13.738281 7.382812 13.738281 7.394531 L 13.742188 9.210938 C 13.742188 9.238281 13.765625 9.261719 13.789062 9.261719 L 15.015625 9.253906 C 15.042969 9.253906 15.066406 9.230469 15.066406 9.203125 L 15.066406 8.871094 C 15.066406 8.855469 15.0625 8.84375 15.054688 8.832031 C 15.042969 8.824219 15.03125 8.820312 15.019531 8.820312 L 14.191406 8.824219 C 14.164062 8.824219 14.140625 8.800781 14.140625 8.773438 L 14.140625 8.542969 C 14.140625 8.515625 14.164062 8.492188 14.1875 8.492188 L 14.78125 8.492188 C 14.808594 8.492188 14.832031 8.472656 14.832031 8.445312 L 14.832031 8.167969 C 14.832031 8.140625 14.8125 8.117188 14.785156 8.117188 L 14.195312 8.121094 C 14.167969 8.121094 14.144531 8.097656 14.144531 8.070312 Z M 15.433594 7.386719 L 15.441406 9.226562 C 15.441406 9.246094 15.457031 9.261719 15.476562 9.261719 L 16.007812 9.257812 C 16.550781 9.257812 16.988281 8.832031 16.984375 8.308594 L 16.984375 8.292969 C 16.984375 7.769531 16.542969 7.347656 16 7.351562 L 15.46875 7.351562 C 15.460938 7.351562 15.449219 7.355469 15.445312 7.363281 C 15.4375 7.367188 15.433594 7.378906 15.433594 7.386719 Z M 6.699219 9.585938 L 6.535156 9.453125 C 6.53125 9.449219 6.527344 9.449219 6.519531 9.457031 L 6.5 9.476562 C 6.5 9.476562 6.496094 9.484375 6.496094 9.488281 C 6.5 9.492188 6.5 9.496094 6.503906 9.496094 L 6.683594 9.609375 C 6.6875 9.613281 6.695312 9.613281 6.699219 9.605469 C 6.703125 9.601562 6.703125 9.589844 6.699219 9.585938 Z M 7.234375 9.660156 C 7.238281 9.652344 7.226562 9.628906 7.203125 9.605469 C 7.191406 9.597656 7.179688 9.585938 7.167969 9.582031 C 7.160156 9.574219 7.152344 9.574219 7.148438 9.574219 C 7.144531 9.582031 7.15625 9.605469 7.179688 9.628906 C 7.191406 9.640625 7.203125 9.648438 7.214844 9.65625 C 7.222656 9.660156 7.230469 9.664062 7.234375 9.660156 Z M 6.117188 9.792969 C 6.128906 9.804688 6.140625 9.808594 6.152344 9.808594 C 6.164062 9.804688 6.175781 9.796875 6.175781 9.78125 C 6.179688 9.769531 6.171875 9.757812 6.15625 9.75 L 6.03125 9.703125 C 6.023438 9.703125 6.015625 9.707031 6.011719 9.710938 C 6.007812 9.71875 6.011719 9.726562 6.019531 9.730469 C 6.058594 9.753906 6.085938 9.761719 6.117188 9.792969 Z M 3.398438 9.945312 C 3.398438 9.949219 3.398438 9.949219 3.402344 9.949219 C 3.402344 9.945312 3.402344 9.945312 3.402344 9.945312 C 3.398438 9.859375 3.363281 9.789062 3.304688 9.730469 C 3.292969 9.722656 3.277344 9.71875 3.261719 9.726562 L 3.234375 9.746094 C 3.214844 9.757812 3.214844 9.769531 3.230469 9.785156 Z M 7.15625 9.808594 C 7.167969 9.804688 7.175781 9.785156 7.171875 9.761719 C 7.167969 9.738281 7.152344 9.722656 7.136719 9.726562 C 7.125 9.730469 7.117188 9.75 7.121094 9.773438 C 7.125 9.796875 7.140625 9.8125 7.15625 9.808594 Z M 6.464844 9.792969 C 6.441406 9.800781 6.433594 9.820312 6.433594 9.84375 C 6.4375 9.855469 6.449219 9.863281 6.460938 9.863281 C 6.472656 9.863281 6.484375 9.851562 6.484375 9.839844 L 6.484375 9.804688 C 6.488281 9.800781 6.484375 9.796875 6.480469 9.792969 C 6.476562 9.789062 6.46875 9.789062 6.464844 9.792969 Z M 6.027344 9.953125 C 6.039062 9.964844 6.058594 9.964844 6.070312 9.949219 C 6.082031 9.933594 6.082031 9.914062 6.066406 9.898438 C 6.027344 9.859375 5.976562 9.832031 5.921875 9.816406 C 5.882812 9.804688 5.878906 9.816406 5.90625 9.839844 Z M 7.007812 9.839844 C 7.003906 9.871094 7.015625 9.894531 7.046875 9.910156 C 7.070312 9.917969 7.078125 9.914062 7.078125 9.886719 L 7.074219 9.839844 C 7.070312 9.824219 7.058594 9.808594 7.039062 9.808594 C 7.023438 9.808594 7.007812 9.824219 7.007812 9.839844 Z M 7.210938 9.851562 C 7.210938 9.867188 7.21875 9.878906 7.230469 9.886719 C 7.238281 9.898438 7.257812 9.898438 7.269531 9.886719 C 7.28125 9.878906 7.28125 9.859375 7.273438 9.847656 C 7.265625 9.835938 7.253906 9.828125 7.238281 9.824219 C 7.21875 9.820312 7.210938 9.828125 7.210938 9.851562 Z M 13.957031 9.863281 C 13.957031 9.855469 13.941406 9.851562 13.914062 9.851562 C 13.886719 9.847656 13.847656 9.84375 13.808594 9.847656 C 13.726562 9.847656 13.660156 9.859375 13.660156 9.871094 C 13.660156 9.875 13.675781 9.878906 13.703125 9.882812 C 13.730469 9.886719 13.769531 9.886719 13.808594 9.886719 C 13.890625 9.882812 13.957031 9.875 13.957031 9.863281 Z M 6.402344 9.972656 C 6.40625 9.964844 6.402344 9.953125 6.394531 9.945312 C 6.382812 9.933594 6.367188 9.921875 6.351562 9.910156 C 6.316406 9.890625 6.28125 9.886719 6.273438 9.902344 C 6.269531 9.910156 6.273438 9.917969 6.285156 9.929688 C 6.292969 9.941406 6.308594 9.953125 6.324219 9.960938 C 6.34375 9.972656 6.359375 9.976562 6.375 9.980469 C 6.390625 9.980469 6.398438 9.980469 6.402344 9.972656 Z M 7.410156 9.933594 C 7.402344 9.917969 7.386719 9.914062 7.367188 9.917969 C 7.347656 9.925781 7.335938 9.945312 7.339844 9.957031 C 7.347656 9.972656 7.367188 9.976562 7.382812 9.96875 C 7.402344 9.964844 7.414062 9.945312 7.410156 9.933594 Z M 13.328125 9.941406 C 13.328125 9.929688 13.304688 9.917969 13.28125 9.917969 C 13.265625 9.917969 13.253906 9.917969 13.246094 9.921875 C 13.234375 9.925781 13.230469 9.933594 13.230469 9.9375 C 13.230469 9.953125 13.25 9.960938 13.277344 9.964844 C 13.292969 9.964844 13.304688 9.960938 13.3125 9.957031 C 13.320312 9.953125 13.328125 9.949219 13.328125 9.941406 Z M 5.601562 9.941406 L 5.578125 9.972656 C 5.574219 9.976562 5.574219 9.984375 5.574219 9.992188 C 5.578125 10 5.582031 10.003906 5.589844 10.007812 L 5.621094 10.015625 C 5.648438 10.023438 5.65625 10.011719 5.648438 9.984375 L 5.636719 9.949219 C 5.628906 9.925781 5.617188 9.921875 5.601562 9.941406 Z M 11.96875 9.976562 C 11.96875 9.960938 11.898438 9.960938 11.820312 9.976562 C 11.742188 9.992188 11.679688 10.015625 11.679688 10.03125 C 11.683594 10.046875 11.75 10.046875 11.832031 10.03125 C 11.910156 10.019531 11.972656 9.992188 11.96875 9.976562 Z M 6.996094 10.058594 C 7.007812 10.050781 7 10.023438 6.976562 10 C 6.957031 9.972656 6.933594 9.964844 6.921875 9.972656 C 6.910156 9.984375 6.917969 10.011719 6.9375 10.035156 C 6.957031 10.058594 6.984375 10.070312 6.996094 10.058594 Z M 6.203125 10.015625 C 6.191406 10.003906 6.179688 9.992188 6.160156 9.992188 C 6.132812 9.988281 6.128906 9.996094 6.148438 10.015625 L 6.257812 10.128906 C 6.269531 10.140625 6.289062 10.140625 6.300781 10.128906 C 6.308594 10.117188 6.3125 10.101562 6.300781 10.089844 C 6.28125 10.066406 6.257812 10.046875 6.226562 10.035156 C 6.21875 10.03125 6.210938 10.023438 6.203125 10.015625 Z M 5.289062 10.167969 C 5.296875 10.171875 5.328125 10.144531 5.363281 10.105469 C 5.402344 10.066406 5.425781 10.027344 5.417969 10.023438 C 5.414062 10.019531 5.40625 10.023438 5.390625 10.035156 C 5.375 10.046875 5.359375 10.0625 5.339844 10.082031 C 5.304688 10.125 5.28125 10.160156 5.289062 10.167969 Z M 11.605469 10.035156 C 11.601562 10.015625 11.539062 10.015625 11.460938 10.03125 C 11.386719 10.046875 11.328125 10.074219 11.332031 10.089844 C 11.335938 10.109375 11.398438 10.109375 11.476562 10.09375 C 11.550781 10.078125 11.609375 10.050781 11.605469 10.035156 Z M 5.765625 10.101562 C 5.769531 10.066406 5.765625 10.042969 5.75 10.035156 C 5.738281 10.023438 5.714844 10.023438 5.703125 10.035156 C 5.6875 10.042969 5.6875 10.0625 5.699219 10.074219 L 5.738281 10.113281 C 5.742188 10.117188 5.75 10.117188 5.757812 10.117188 C 5.761719 10.113281 5.765625 10.105469 5.765625 10.101562 Z M 6.105469 10.164062 C 6.070312 10.105469 6.023438 10.0625 5.957031 10.039062 C 5.917969 10.027344 5.914062 10.03125 5.945312 10.058594 L 6.085938 10.179688 C 6.089844 10.183594 6.09375 10.183594 6.101562 10.179688 C 6.105469 10.175781 6.105469 10.171875 6.105469 10.164062 Z M 7.238281 10.058594 C 7.257812 10.082031 7.285156 10.089844 7.3125 10.082031 C 7.324219 10.078125 7.332031 10.066406 7.332031 10.054688 C 7.328125 10.042969 7.320312 10.035156 7.308594 10.03125 L 7.253906 10.027344 C 7.246094 10.027344 7.242188 10.03125 7.238281 10.039062 C 7.234375 10.042969 7.234375 10.050781 7.238281 10.058594 Z M 6.652344 10.160156 C 6.65625 10.15625 6.652344 10.144531 6.640625 10.128906 C 6.628906 10.113281 6.609375 10.097656 6.585938 10.082031 C 6.566406 10.066406 6.542969 10.054688 6.527344 10.046875 C 6.507812 10.039062 6.496094 10.039062 6.492188 10.042969 C 6.488281 10.050781 6.492188 10.0625 6.503906 10.074219 C 6.519531 10.089844 6.535156 10.109375 6.558594 10.125 C 6.578125 10.140625 6.601562 10.152344 6.617188 10.160156 C 6.636719 10.167969 6.648438 10.167969 6.652344 10.160156 Z M 5.550781 10.152344 C 5.566406 10.140625 5.566406 10.117188 5.550781 10.097656 C 5.535156 10.078125 5.515625 10.074219 5.5 10.085938 C 5.488281 10.09375 5.488281 10.117188 5.503906 10.136719 C 5.515625 10.15625 5.539062 10.160156 5.550781 10.152344 Z M 11.261719 10.046875 L 10.851562 10.214844 C 10.847656 10.21875 10.847656 10.222656 10.847656 10.226562 C 10.863281 10.261719 10.96875 10.253906 11.082031 10.207031 L 11.09375 10.203125 C 11.207031 10.15625 11.289062 10.085938 11.273438 10.050781 C 11.273438 10.046875 11.269531 10.046875 11.269531 10.046875 C 11.265625 10.042969 11.265625 10.042969 11.261719 10.046875 Z M 9.632812 10.671875 C 9.65625 10.734375 9.703125 10.753906 9.769531 10.726562 C 9.84375 10.699219 9.910156 10.679688 9.972656 10.660156 C 10.007812 10.652344 10.078125 10.644531 10.179688 10.640625 C 10.308594 10.636719 10.425781 10.597656 10.535156 10.527344 C 10.554688 10.515625 10.574219 10.515625 10.59375 10.519531 C 10.730469 10.558594 10.851562 10.535156 10.957031 10.445312 C 10.96875 10.433594 10.984375 10.425781 11 10.425781 C 11.328125 10.382812 11.652344 10.316406 11.972656 10.234375 C 12.136719 10.191406 12.3125 10.183594 12.472656 10.140625 C 12.554688 10.121094 12.554688 10.113281 12.46875 10.121094 C 11.910156 10.167969 11.359375 10.265625 10.816406 10.414062 C 10.800781 10.417969 10.789062 10.414062 10.777344 10.402344 C 10.742188 10.367188 10.703125 10.367188 10.660156 10.402344 C 10.609375 10.441406 10.5625 10.460938 10.511719 10.453125 C 10.496094 10.453125 10.480469 10.453125 10.46875 10.464844 C 10.414062 10.5 10.363281 10.496094 10.3125 10.453125 C 10.308594 10.445312 10.296875 10.445312 10.289062 10.445312 C 10.28125 10.445312 10.273438 10.453125 10.269531 10.460938 C 10.226562 10.53125 10.171875 10.542969 10.101562 10.5 C 10.089844 10.492188 10.070312 10.496094 10.058594 10.507812 C 9.984375 10.585938 9.902344 10.589844 9.816406 10.515625 C 9.808594 10.507812 9.804688 10.5 9.808594 10.492188 C 9.8125 10.484375 9.816406 10.476562 9.824219 10.476562 L 10.359375 10.371094 C 10.367188 10.367188 10.367188 10.363281 10.367188 10.359375 C 10.367188 10.351562 10.363281 10.347656 10.359375 10.347656 L 10.265625 10.335938 C 10.242188 10.332031 10.234375 10.316406 10.234375 10.292969 L 10.234375 10.21875 C 10.234375 10.210938 10.226562 10.207031 10.222656 10.207031 C 10.214844 10.207031 10.210938 10.210938 10.207031 10.214844 L 10.195312 10.292969 C 10.191406 10.304688 10.183594 10.3125 10.167969 10.316406 C 10.113281 10.320312 10.066406 10.339844 10.027344 10.375 C 10.015625 10.390625 10 10.394531 9.980469 10.394531 C 9.808594 10.375 9.640625 10.402344 9.480469 10.46875 C 9.46875 10.476562 9.453125 10.476562 9.4375 10.476562 C 9.371094 10.464844 9.324219 10.492188 9.296875 10.550781 C 9.292969 10.558594 9.292969 10.566406 9.296875 10.574219 C 9.296875 10.582031 9.304688 10.585938 9.3125 10.589844 C 9.371094 10.609375 9.410156 10.589844 9.4375 10.53125 C 9.445312 10.519531 9.457031 10.507812 9.472656 10.507812 C 9.601562 10.511719 9.738281 10.476562 9.816406 10.617188 C 9.824219 10.632812 9.820312 10.640625 9.804688 10.640625 C 9.714844 10.644531 9.628906 10.625 9.550781 10.582031 C 9.542969 10.578125 9.53125 10.582031 9.523438 10.589844 C 9.519531 10.597656 9.515625 10.605469 9.523438 10.617188 C 9.542969 10.644531 9.570312 10.65625 9.609375 10.65625 C 9.621094 10.65625 9.628906 10.660156 9.632812 10.671875 Z M 5.90625 10.214844 C 5.917969 10.199219 5.902344 10.171875 5.875 10.152344 C 5.847656 10.132812 5.816406 10.132812 5.808594 10.148438 C 5.796875 10.160156 5.8125 10.191406 5.835938 10.207031 C 5.863281 10.226562 5.894531 10.230469 5.90625 10.214844 Z M 8.132812 10.242188 C 8.140625 10.230469 8.128906 10.199219 8.101562 10.171875 C 8.074219 10.144531 8.042969 10.128906 8.035156 10.140625 C 8.023438 10.148438 8.039062 10.179688 8.0625 10.207031 C 8.078125 10.222656 8.089844 10.234375 8.105469 10.238281 C 8.117188 10.246094 8.125 10.246094 8.132812 10.242188 Z M 5.800781 10.328125 C 5.808594 10.3125 5.808594 10.292969 5.792969 10.28125 L 5.660156 10.175781 C 5.644531 10.164062 5.625 10.164062 5.613281 10.179688 L 5.613281 10.183594 C 5.601562 10.195312 5.605469 10.214844 5.617188 10.226562 L 5.753906 10.335938 C 5.765625 10.347656 5.785156 10.34375 5.796875 10.332031 Z M 6.183594 10.265625 C 6.199219 10.261719 6.207031 10.238281 6.203125 10.214844 C 6.195312 10.191406 6.179688 10.171875 6.160156 10.179688 C 6.144531 10.183594 6.136719 10.207031 6.144531 10.230469 C 6.152344 10.253906 6.167969 10.269531 6.183594 10.265625 Z M 6.527344 10.292969 C 6.539062 10.28125 6.511719 10.246094 6.476562 10.21875 C 6.4375 10.191406 6.398438 10.179688 6.386719 10.195312 C 6.378906 10.207031 6.402344 10.238281 6.441406 10.269531 C 6.480469 10.296875 6.519531 10.304688 6.527344 10.292969 Z M 5.242188 10.222656 C 5.234375 10.210938 5.222656 10.210938 5.210938 10.21875 L 5.03125 10.386719 C 5.023438 10.394531 5.023438 10.410156 5.03125 10.417969 L 5.03125 10.421875 C 5.039062 10.429688 5.054688 10.433594 5.0625 10.421875 L 5.246094 10.253906 C 5.253906 10.246094 5.253906 10.230469 5.246094 10.222656 Z M 6.828125 10.269531 C 6.832031 10.25 6.816406 10.230469 6.789062 10.226562 C 6.765625 10.21875 6.742188 10.226562 6.738281 10.246094 C 6.734375 10.261719 6.75 10.28125 6.773438 10.289062 C 6.800781 10.296875 6.824219 10.289062 6.828125 10.269531 Z M 10.699219 10.285156 L 10.734375 10.289062 C 10.742188 10.292969 10.746094 10.289062 10.75 10.28125 C 10.753906 10.277344 10.753906 10.269531 10.746094 10.265625 L 10.71875 10.238281 C 10.707031 10.226562 10.691406 10.222656 10.675781 10.226562 L 10.472656 10.292969 C 10.464844 10.296875 10.457031 10.308594 10.457031 10.316406 C 10.457031 10.328125 10.460938 10.339844 10.472656 10.34375 C 10.546875 10.371094 10.609375 10.355469 10.667969 10.296875 C 10.675781 10.289062 10.6875 10.285156 10.699219 10.285156 Z M 7.097656 10.328125 C 7.105469 10.335938 7.117188 10.335938 7.125 10.332031 C 7.140625 10.320312 7.140625 10.3125 7.121094 10.304688 L 7.050781 10.269531 C 7.027344 10.257812 7.019531 10.265625 7.023438 10.289062 C 7.03125 10.316406 7.046875 10.328125 7.070312 10.324219 C 7.082031 10.324219 7.089844 10.324219 7.097656 10.328125 Z M 7.621094 10.363281 C 7.636719 10.363281 7.652344 10.347656 7.65625 10.320312 C 7.660156 10.296875 7.652344 10.273438 7.636719 10.269531 C 7.625 10.269531 7.609375 10.285156 7.605469 10.3125 C 7.601562 10.335938 7.609375 10.359375 7.621094 10.363281 Z M 7.945312 10.289062 C 7.945312 10.28125 7.9375 10.273438 7.921875 10.269531 C 7.910156 10.269531 7.890625 10.265625 7.871094 10.269531 C 7.832031 10.269531 7.796875 10.285156 7.800781 10.296875 C 7.800781 10.304688 7.808594 10.3125 7.824219 10.3125 C 7.835938 10.316406 7.855469 10.320312 7.875 10.316406 C 7.914062 10.316406 7.949219 10.300781 7.945312 10.289062 Z M 6.289062 10.339844 C 6.304688 10.347656 6.316406 10.347656 6.335938 10.339844 C 6.339844 10.335938 6.34375 10.328125 6.34375 10.324219 C 6.34375 10.316406 6.339844 10.308594 6.335938 10.308594 L 6.300781 10.285156 C 6.292969 10.28125 6.285156 10.28125 6.277344 10.285156 C 6.269531 10.292969 6.265625 10.300781 6.269531 10.308594 C 6.269531 10.324219 6.277344 10.332031 6.289062 10.339844 Z M 8.824219 10.320312 L 8.808594 10.339844 C 8.804688 10.34375 8.804688 10.351562 8.808594 10.359375 C 8.8125 10.367188 8.816406 10.371094 8.824219 10.371094 C 8.863281 10.367188 8.886719 10.34375 8.886719 10.300781 C 8.890625 10.292969 8.886719 10.292969 8.878906 10.292969 C 8.871094 10.296875 8.863281 10.296875 8.855469 10.300781 C 8.84375 10.304688 8.832031 10.308594 8.824219 10.320312 Z M 4.648438 10.410156 L 4.621094 10.425781 C 4.601562 10.4375 4.597656 10.453125 4.601562 10.472656 L 4.605469 10.492188 C 4.609375 10.519531 4.621094 10.523438 4.640625 10.5 L 4.738281 10.386719 C 4.753906 10.371094 4.75 10.355469 4.734375 10.339844 L 4.699219 10.308594 C 4.691406 10.300781 4.6875 10.304688 4.6875 10.316406 C 4.691406 10.335938 4.6875 10.355469 4.679688 10.378906 C 4.671875 10.394531 4.664062 10.402344 4.648438 10.410156 Z M 7.183594 10.382812 L 7.191406 10.402344 C 7.191406 10.40625 7.195312 10.410156 7.203125 10.410156 C 7.207031 10.410156 7.210938 10.40625 7.214844 10.402344 L 7.238281 10.359375 C 7.25 10.335938 7.242188 10.324219 7.21875 10.324219 L 7.144531 10.320312 C 7.140625 10.320312 7.140625 10.320312 7.136719 10.324219 C 7.136719 10.324219 7.136719 10.328125 7.140625 10.328125 L 7.175781 10.371094 C 7.179688 10.375 7.183594 10.378906 7.183594 10.382812 Z M 7.464844 10.414062 C 7.488281 10.457031 7.511719 10.480469 7.539062 10.484375 C 7.558594 10.484375 7.566406 10.476562 7.558594 10.457031 C 7.550781 10.425781 7.519531 10.414062 7.464844 10.414062 C 7.46875 10.351562 7.449219 10.316406 7.402344 10.316406 C 7.382812 10.3125 7.367188 10.324219 7.359375 10.339844 C 7.351562 10.359375 7.355469 10.378906 7.371094 10.394531 C 7.390625 10.414062 7.421875 10.421875 7.464844 10.414062 Z M 8.277344 10.328125 C 8.273438 10.316406 8.253906 10.308594 8.230469 10.316406 C 8.21875 10.316406 8.210938 10.324219 8.203125 10.332031 C 8.199219 10.335938 8.195312 10.34375 8.195312 10.351562 C 8.199219 10.363281 8.222656 10.371094 8.242188 10.367188 C 8.253906 10.363281 8.265625 10.359375 8.269531 10.351562 C 8.277344 10.34375 8.28125 10.335938 8.277344 10.328125 Z M 6.765625 10.46875 C 6.777344 10.453125 6.75 10.410156 6.707031 10.375 C 6.660156 10.339844 6.617188 10.324219 6.601562 10.339844 C 6.589844 10.355469 6.617188 10.398438 6.664062 10.433594 C 6.707031 10.46875 6.753906 10.484375 6.765625 10.46875 Z M 8.015625 10.367188 C 8.011719 10.375 8.003906 10.382812 8 10.390625 C 7.992188 10.410156 8 10.421875 8.023438 10.421875 C 8.042969 10.417969 8.0625 10.410156 8.082031 10.394531 C 8.09375 10.382812 8.09375 10.363281 8.082031 10.347656 C 8.070312 10.335938 8.046875 10.332031 8.027344 10.339844 C 8.027344 10.34375 8.023438 10.347656 8.023438 10.355469 C 8.019531 10.359375 8.019531 10.363281 8.015625 10.367188 Z M 5.679688 10.414062 C 5.691406 10.398438 5.683594 10.371094 5.660156 10.355469 C 5.636719 10.339844 5.609375 10.339844 5.601562 10.351562 C 5.589844 10.367188 5.597656 10.394531 5.621094 10.410156 C 5.644531 10.425781 5.671875 10.429688 5.679688 10.414062 Z M 6.039062 10.496094 L 5.902344 10.355469 C 5.890625 10.347656 5.878906 10.34375 5.863281 10.347656 C 5.851562 10.351562 5.839844 10.359375 5.835938 10.375 L 5.828125 10.414062 C 5.824219 10.421875 5.828125 10.433594 5.832031 10.4375 C 5.839844 10.445312 5.847656 10.449219 5.859375 10.445312 C 5.898438 10.4375 5.929688 10.457031 5.949219 10.5 C 5.953125 10.511719 5.964844 10.519531 5.976562 10.523438 L 6.03125 10.535156 C 6.046875 10.535156 6.058594 10.542969 6.066406 10.554688 C 6.132812 10.632812 6.179688 10.683594 6.210938 10.703125 C 6.242188 10.722656 6.269531 10.71875 6.289062 10.695312 C 6.300781 10.683594 6.296875 10.671875 6.28125 10.660156 C 6.222656 10.625 6.167969 10.582031 6.125 10.527344 C 6.117188 10.519531 6.101562 10.511719 6.074219 10.511719 C 6.0625 10.507812 6.050781 10.503906 6.039062 10.496094 Z M 8.582031 10.421875 L 8.636719 10.449219 C 8.660156 10.460938 8.667969 10.453125 8.660156 10.425781 C 8.652344 10.390625 8.628906 10.371094 8.589844 10.371094 C 8.578125 10.371094 8.570312 10.378906 8.566406 10.394531 C 8.5625 10.40625 8.570312 10.417969 8.582031 10.421875 Z M 6.5 10.484375 L 6.460938 10.398438 C 6.453125 10.386719 6.4375 10.382812 6.425781 10.390625 C 6.410156 10.398438 6.40625 10.414062 6.410156 10.429688 C 6.425781 10.464844 6.453125 10.488281 6.488281 10.5 C 6.503906 10.503906 6.507812 10.5 6.5 10.484375 Z M 7.148438 10.542969 C 7.152344 10.535156 7.152344 10.523438 7.140625 10.503906 C 7.128906 10.484375 7.113281 10.464844 7.089844 10.449219 C 7.046875 10.410156 7 10.394531 6.988281 10.410156 C 6.972656 10.425781 7 10.46875 7.042969 10.507812 C 7.085938 10.542969 7.132812 10.5625 7.148438 10.542969 Z M 8.992188 10.421875 L 8.9375 10.4375 C 8.925781 10.441406 8.917969 10.453125 8.917969 10.464844 C 8.921875 10.476562 8.929688 10.488281 8.941406 10.488281 C 8.972656 10.492188 9 10.480469 9.015625 10.453125 C 9.035156 10.421875 9.027344 10.410156 8.992188 10.421875 Z M 5.257812 10.464844 C 5.257812 10.460938 5.253906 10.453125 5.246094 10.449219 C 5.238281 10.445312 5.226562 10.445312 5.21875 10.449219 C 5.199219 10.453125 5.183594 10.464844 5.1875 10.480469 C 5.191406 10.496094 5.207031 10.503906 5.226562 10.5 C 5.246094 10.492188 5.261719 10.480469 5.257812 10.464844 Z M 9.179688 10.441406 C 9.152344 10.585938 8.972656 10.589844 8.859375 10.578125 C 8.839844 10.578125 8.828125 10.585938 8.828125 10.605469 L 8.828125 10.621094 C 8.828125 10.640625 8.835938 10.652344 8.855469 10.652344 L 9.089844 10.667969 C 9.101562 10.667969 9.117188 10.664062 9.125 10.652344 C 9.183594 10.59375 9.207031 10.523438 9.203125 10.441406 C 9.199219 10.4375 9.195312 10.433594 9.191406 10.433594 C 9.183594 10.433594 9.179688 10.4375 9.179688 10.441406 Z M 6.375 10.589844 C 6.386719 10.59375 6.398438 10.585938 6.402344 10.574219 C 6.410156 10.5625 6.40625 10.546875 6.394531 10.539062 L 6.28125 10.449219 C 6.261719 10.4375 6.25 10.4375 6.238281 10.460938 C 6.214844 10.519531 6.222656 10.554688 6.269531 10.570312 C 6.292969 10.574219 6.324219 10.582031 6.375 10.589844 Z M 8.792969 10.523438 C 8.796875 10.519531 8.792969 10.511719 8.785156 10.5 C 8.78125 10.492188 8.769531 10.480469 8.753906 10.472656 C 8.742188 10.464844 8.730469 10.460938 8.71875 10.457031 C 8.707031 10.457031 8.699219 10.460938 8.695312 10.464844 C 8.691406 10.472656 8.691406 10.480469 8.699219 10.488281 C 8.707031 10.5 8.71875 10.507812 8.730469 10.515625 C 8.742188 10.523438 8.757812 10.53125 8.769531 10.53125 C 8.78125 10.53125 8.789062 10.53125 8.792969 10.523438 Z M 4.457031 10.535156 L 4.484375 10.527344 C 4.507812 10.519531 4.507812 10.507812 4.492188 10.492188 L 4.476562 10.472656 C 4.460938 10.460938 4.445312 10.460938 4.429688 10.472656 L 4.332031 10.570312 C 4.320312 10.582031 4.3125 10.597656 4.304688 10.609375 C 4.265625 10.703125 4.199219 10.773438 4.101562 10.816406 C 4.09375 10.820312 4.089844 10.832031 4.089844 10.839844 C 4.089844 10.851562 4.09375 10.859375 4.101562 10.863281 C 4.15625 10.886719 4.207031 10.882812 4.261719 10.847656 C 4.265625 10.84375 4.269531 10.835938 4.265625 10.832031 L 4.257812 10.796875 C 4.253906 10.785156 4.257812 10.769531 4.269531 10.757812 L 4.417969 10.566406 C 4.429688 10.550781 4.441406 10.542969 4.457031 10.535156 Z M 4.945312 10.554688 C 4.957031 10.5625 4.976562 10.546875 4.988281 10.523438 C 4.996094 10.5 4.996094 10.476562 4.984375 10.46875 C 4.972656 10.464844 4.953125 10.476562 4.941406 10.503906 C 4.929688 10.527344 4.929688 10.550781 4.945312 10.554688 Z M 5.757812 10.511719 C 5.773438 10.519531 5.785156 10.527344 5.792969 10.527344 C 5.800781 10.53125 5.808594 10.527344 5.808594 10.511719 C 5.8125 10.492188 5.804688 10.476562 5.789062 10.464844 C 5.785156 10.460938 5.78125 10.460938 5.777344 10.460938 C 5.769531 10.460938 5.765625 10.464844 5.761719 10.46875 L 5.753906 10.484375 C 5.75 10.492188 5.75 10.503906 5.757812 10.511719 Z M 3.699219 10.519531 C 3.691406 10.515625 3.679688 10.515625 3.667969 10.515625 C 3.664062 10.515625 3.660156 10.523438 3.660156 10.527344 C 3.660156 10.535156 3.664062 10.539062 3.667969 10.542969 C 3.722656 10.546875 3.78125 10.546875 3.839844 10.539062 C 3.847656 10.539062 3.859375 10.527344 3.859375 10.515625 C 3.859375 10.507812 3.847656 10.496094 3.835938 10.496094 C 3.800781 10.492188 3.765625 10.5 3.730469 10.511719 C 3.722656 10.519531 3.710938 10.519531 3.699219 10.519531 Z M 4.191406 10.542969 L 4.25 10.5625 C 4.273438 10.570312 4.28125 10.5625 4.269531 10.539062 C 4.253906 10.503906 4.226562 10.492188 4.195312 10.496094 C 4.183594 10.496094 4.175781 10.507812 4.175781 10.519531 C 4.171875 10.527344 4.179688 10.539062 4.191406 10.542969 Z M 4.738281 10.574219 C 4.757812 10.589844 4.785156 10.585938 4.800781 10.566406 C 4.820312 10.546875 4.820312 10.519531 4.804688 10.503906 C 4.789062 10.488281 4.761719 10.492188 4.742188 10.507812 C 4.726562 10.527344 4.722656 10.558594 4.738281 10.574219 Z M 7.328125 10.496094 C 7.320312 10.484375 7.300781 10.484375 7.285156 10.496094 C 7.269531 10.507812 7.261719 10.527344 7.269531 10.539062 C 7.277344 10.554688 7.300781 10.554688 7.316406 10.539062 C 7.332031 10.527344 7.339844 10.507812 7.328125 10.496094 Z M 5.722656 10.652344 C 5.738281 10.632812 5.707031 10.582031 5.652344 10.542969 C 5.601562 10.5 5.546875 10.484375 5.53125 10.503906 C 5.515625 10.523438 5.546875 10.574219 5.601562 10.613281 C 5.652344 10.652344 5.707031 10.671875 5.722656 10.652344 Z M 5.902344 10.527344 C 5.894531 10.515625 5.886719 10.511719 5.878906 10.511719 C 5.855469 10.507812 5.832031 10.523438 5.824219 10.546875 C 5.820312 10.570312 5.832031 10.597656 5.851562 10.609375 C 5.921875 10.644531 5.976562 10.691406 6.023438 10.753906 C 6.035156 10.769531 6.054688 10.773438 6.070312 10.765625 C 6.089844 10.753906 6.09375 10.734375 6.089844 10.71875 C 6.066406 10.648438 6.015625 10.59375 5.9375 10.558594 C 5.925781 10.550781 5.914062 10.539062 5.902344 10.527344 Z M 7.707031 10.5625 C 7.714844 10.542969 7.699219 10.519531 7.675781 10.507812 C 7.648438 10.5 7.621094 10.507812 7.617188 10.527344 C 7.609375 10.546875 7.621094 10.574219 7.648438 10.582031 C 7.671875 10.59375 7.699219 10.582031 7.707031 10.5625 Z M 8.574219 10.535156 C 8.574219 10.523438 8.554688 10.511719 8.527344 10.515625 C 8.515625 10.515625 8.503906 10.519531 8.496094 10.523438 C 8.488281 10.527344 8.484375 10.535156 8.484375 10.542969 C 8.484375 10.554688 8.507812 10.566406 8.53125 10.5625 C 8.542969 10.5625 8.554688 10.558594 8.5625 10.554688 C 8.570312 10.546875 8.578125 10.542969 8.574219 10.535156 Z M 5.351562 10.703125 C 5.320312 10.644531 5.273438 10.628906 5.207031 10.660156 C 5.195312 10.664062 5.1875 10.675781 5.183594 10.6875 C 5.183594 10.699219 5.1875 10.710938 5.195312 10.71875 C 5.21875 10.738281 5.25 10.746094 5.28125 10.742188 C 5.296875 10.738281 5.316406 10.742188 5.328125 10.757812 C 5.371094 10.804688 5.421875 10.851562 5.46875 10.894531 C 5.492188 10.914062 5.519531 10.914062 5.542969 10.894531 C 5.550781 10.890625 5.554688 10.882812 5.554688 10.875 C 5.554688 10.863281 5.550781 10.855469 5.542969 10.851562 C 5.453125 10.796875 5.441406 10.730469 5.503906 10.652344 C 5.511719 10.644531 5.511719 10.636719 5.511719 10.628906 C 5.507812 10.621094 5.503906 10.617188 5.496094 10.613281 L 5.371094 10.542969 C 5.355469 10.535156 5.351562 10.539062 5.351562 10.558594 C 5.355469 10.574219 5.363281 10.582031 5.375 10.585938 C 5.390625 10.59375 5.398438 10.605469 5.402344 10.617188 C 5.410156 10.660156 5.398438 10.6875 5.371094 10.707031 C 5.363281 10.714844 5.355469 10.710938 5.351562 10.703125 Z M 3.933594 10.558594 C 3.914062 10.546875 3.902344 10.554688 3.90625 10.578125 L 3.910156 10.664062 C 3.910156 10.699219 3.925781 10.707031 3.949219 10.675781 L 3.992188 10.632812 C 3.996094 10.625 4 10.617188 3.996094 10.605469 C 3.996094 10.597656 3.992188 10.589844 3.984375 10.585938 Z M 6.648438 10.558594 C 6.644531 10.558594 6.636719 10.558594 6.632812 10.5625 C 6.628906 10.566406 6.628906 10.570312 6.628906 10.578125 L 6.640625 10.609375 C 6.644531 10.625 6.652344 10.632812 6.667969 10.632812 C 6.726562 10.636719 6.765625 10.660156 6.792969 10.707031 C 6.808594 10.730469 6.816406 10.730469 6.824219 10.703125 C 6.828125 10.667969 6.816406 10.640625 6.78125 10.625 C 6.742188 10.605469 6.695312 10.585938 6.648438 10.558594 Z M 7.261719 10.59375 C 7.269531 10.578125 7.265625 10.566406 7.253906 10.566406 C 7.226562 10.5625 7.203125 10.570312 7.179688 10.582031 C 7.164062 10.589844 7.164062 10.601562 7.175781 10.613281 C 7.226562 10.679688 7.269531 10.71875 7.304688 10.742188 C 7.339844 10.761719 7.367188 10.757812 7.390625 10.726562 C 7.40625 10.710938 7.402344 10.695312 7.382812 10.683594 L 7.273438 10.625 C 7.261719 10.617188 7.257812 10.609375 7.261719 10.59375 Z M 7.617188 10.679688 C 7.621094 10.671875 7.621094 10.664062 7.617188 10.65625 C 7.617188 10.648438 7.613281 10.644531 7.605469 10.640625 L 7.457031 10.558594 C 7.441406 10.550781 7.421875 10.554688 7.414062 10.570312 L 7.414062 10.574219 C 7.410156 10.582031 7.410156 10.589844 7.410156 10.597656 C 7.414062 10.605469 7.417969 10.609375 7.425781 10.613281 L 7.574219 10.695312 C 7.589844 10.703125 7.605469 10.699219 7.613281 10.683594 Z M 7.761719 10.59375 C 7.753906 10.605469 7.753906 10.621094 7.761719 10.632812 C 7.769531 10.644531 7.78125 10.652344 7.796875 10.648438 C 7.820312 10.640625 7.835938 10.628906 7.84375 10.605469 C 7.851562 10.585938 7.847656 10.574219 7.824219 10.570312 C 7.796875 10.5625 7.773438 10.570312 7.761719 10.59375 Z M 4.160156 10.640625 C 4.148438 10.59375 4.117188 10.582031 4.066406 10.601562 C 4.042969 10.613281 4.039062 10.628906 4.050781 10.648438 L 4.074219 10.679688 C 4.089844 10.699219 4.113281 10.707031 4.136719 10.699219 C 4.15625 10.6875 4.167969 10.664062 4.160156 10.640625 Z M 4.875 10.695312 C 4.886719 10.667969 4.910156 10.660156 4.925781 10.636719 C 4.933594 10.625 4.929688 10.613281 4.921875 10.605469 C 4.914062 10.597656 4.902344 10.597656 4.890625 10.601562 L 4.753906 10.714844 C 4.746094 10.722656 4.742188 10.734375 4.742188 10.746094 C 4.742188 10.753906 4.75 10.765625 4.761719 10.769531 L 4.835938 10.804688 C 4.863281 10.816406 4.871094 10.808594 4.867188 10.78125 C 4.863281 10.75 4.863281 10.722656 4.875 10.695312 Z M 6.46875 10.609375 C 6.449219 10.621094 6.4375 10.632812 6.425781 10.648438 C 6.410156 10.667969 6.414062 10.695312 6.4375 10.710938 C 6.460938 10.722656 6.492188 10.71875 6.507812 10.699219 C 6.527344 10.675781 6.523438 10.652344 6.5 10.617188 C 6.488281 10.605469 6.480469 10.605469 6.46875 10.609375 Z M 8.445312 10.652344 C 8.453125 10.640625 8.449219 10.628906 8.4375 10.625 C 8.402344 10.609375 8.378906 10.625 8.363281 10.671875 C 8.359375 10.683594 8.367188 10.699219 8.382812 10.707031 C 8.394531 10.710938 8.410156 10.707031 8.417969 10.695312 Z M 5.800781 10.664062 C 5.792969 10.660156 5.78125 10.660156 5.777344 10.667969 C 5.769531 10.671875 5.769531 10.683594 5.773438 10.691406 C 5.800781 10.757812 5.847656 10.800781 5.910156 10.824219 C 5.933594 10.832031 5.960938 10.816406 5.96875 10.792969 C 5.980469 10.769531 5.96875 10.742188 5.945312 10.730469 Z M 5.734375 10.824219 C 5.742188 10.8125 5.742188 10.792969 5.726562 10.785156 L 5.613281 10.699219 C 5.601562 10.691406 5.582031 10.695312 5.574219 10.707031 L 5.566406 10.714844 C 5.558594 10.726562 5.5625 10.746094 5.574219 10.757812 L 5.6875 10.839844 C 5.699219 10.851562 5.71875 10.847656 5.726562 10.832031 Z M 6.953125 10.796875 C 6.960938 10.769531 6.9375 10.742188 6.898438 10.734375 C 6.863281 10.726562 6.828125 10.738281 6.824219 10.761719 C 6.816406 10.785156 6.839844 10.8125 6.878906 10.824219 C 6.914062 10.832031 6.949219 10.820312 6.953125 10.796875 Z M 6.777344 10.835938 C 6.785156 10.8125 6.761719 10.78125 6.726562 10.765625 C 6.6875 10.75 6.648438 10.753906 6.640625 10.777344 C 6.632812 10.796875 6.652344 10.828125 6.691406 10.84375 C 6.730469 10.863281 6.765625 10.855469 6.777344 10.835938 Z M 7.476562 10.820312 C 7.484375 10.824219 7.492188 10.824219 7.5 10.820312 C 7.535156 10.800781 7.539062 10.777344 7.507812 10.753906 C 7.492188 10.742188 7.476562 10.738281 7.460938 10.75 C 7.414062 10.777344 7.421875 10.800781 7.476562 10.820312 Z M 4.945312 10.84375 L 4.953125 10.832031 C 4.957031 10.824219 4.957031 10.816406 4.949219 10.808594 C 4.941406 10.804688 4.929688 10.804688 4.925781 10.8125 L 4.8125 10.929688 C 4.800781 10.941406 4.796875 10.957031 4.808594 10.96875 L 4.835938 11 C 4.84375 11.011719 4.855469 11.015625 4.863281 11.011719 C 4.875 11.011719 4.882812 11.003906 4.886719 10.992188 L 4.9375 10.867188 C 4.9375 10.859375 4.941406 10.851562 4.945312 10.84375 Z M 5.25 10.847656 C 5.226562 10.84375 5.214844 10.851562 5.214844 10.875 C 5.210938 10.941406 5.242188 10.96875 5.316406 10.957031 C 5.367188 10.949219 5.375 10.925781 5.335938 10.894531 C 5.3125 10.871094 5.28125 10.855469 5.25 10.847656 Z M 5.757812 11.019531 C 5.765625 11 5.757812 10.980469 5.742188 10.972656 L 5.621094 10.910156 C 5.605469 10.898438 5.585938 10.90625 5.578125 10.921875 L 5.574219 10.925781 C 5.566406 10.941406 5.574219 10.960938 5.589844 10.972656 L 5.710938 11.035156 C 5.726562 11.042969 5.746094 11.039062 5.753906 11.019531 Z M 5.757812 11.019531 "/>
<path style=" stroke:none;fill-rule:nonzero;fill:rgb(77.647059%,92.156863%,95.294118%);fill-opacity:1;" d="M 16.625 5.828125 C 16.632812 5.8125 16.613281 5.785156 16.582031 5.761719 C 16.550781 5.742188 16.519531 5.734375 16.511719 5.746094 C 16.5 5.761719 16.519531 5.789062 16.550781 5.8125 C 16.582031 5.832031 16.613281 5.839844 16.625 5.828125 Z M 16.625 5.828125 "/>
<path style=" stroke:none;fill-rule:nonzero;fill:rgb(77.647059%,92.156863%,95.294118%);fill-opacity:1;" d="M 16.796875 5.761719 L 17.167969 5.757812 C 17.175781 5.757812 17.183594 5.761719 17.183594 5.769531 L 17.183594 5.785156 C 17.183594 5.792969 17.175781 5.800781 17.167969 5.800781 L 16.796875 5.804688 C 16.789062 5.804688 16.78125 5.796875 16.78125 5.789062 L 16.78125 5.773438 C 16.78125 5.765625 16.789062 5.761719 16.796875 5.761719 Z M 16.796875 5.761719 "/>
<path style=" stroke:none;fill-rule:nonzero;fill:rgb(77.647059%,92.156863%,95.294118%);fill-opacity:1;" d="M 17.96875 6.726562 C 17.96875 6.71875 17.945312 6.722656 17.917969 6.730469 C 17.890625 6.742188 17.867188 6.753906 17.871094 6.761719 C 17.875 6.769531 17.898438 6.765625 17.925781 6.753906 C 17.953125 6.746094 17.972656 6.730469 17.96875 6.726562 Z M 17.96875 6.726562 "/>
<path style=" stroke:none;fill-rule:nonzero;fill:rgb(77.647059%,92.156863%,95.294118%);fill-opacity:1;" d="M 17.515625 6.886719 L 17.554688 6.882812 C 17.5625 6.882812 17.570312 6.890625 17.570312 6.898438 C 17.574219 6.90625 17.570312 6.914062 17.5625 6.917969 C 17.535156 6.925781 17.519531 6.921875 17.507812 6.894531 C 17.507812 6.894531 17.507812 6.890625 17.511719 6.890625 C 17.511719 6.886719 17.515625 6.886719 17.515625 6.886719 Z M 17.515625 6.886719 "/>
<path style=" stroke:none;fill-rule:nonzero;fill:rgb(27.058824%,23.137255%,61.568627%);fill-opacity:1;" d="M 3.699219 9.242188 C 3.589844 9.277344 3.457031 9.285156 3.300781 9.265625 L 3.300781 7.457031 C 3.300781 7.386719 3.332031 7.351562 3.402344 7.351562 L 4.492188 7.34375 C 4.503906 7.34375 4.515625 7.347656 4.527344 7.359375 C 4.535156 7.367188 4.539062 7.378906 4.539062 7.394531 L 4.539062 7.738281 C 4.539062 7.769531 4.511719 7.796875 4.480469 7.796875 L 3.738281 7.792969 C 3.726562 7.792969 3.71875 7.800781 3.71875 7.8125 L 3.710938 8.152344 C 3.710938 8.160156 3.710938 8.167969 3.71875 8.171875 C 3.722656 8.175781 3.730469 8.179688 3.738281 8.179688 L 4.296875 8.179688 C 4.324219 8.179688 4.335938 8.191406 4.335938 8.21875 L 4.335938 8.558594 C 4.335938 8.578125 4.328125 8.597656 4.3125 8.609375 C 4.300781 8.625 4.28125 8.628906 4.261719 8.628906 L 3.734375 8.628906 C 3.71875 8.628906 3.707031 8.636719 3.707031 8.652344 Z M 5.351562 8.535156 L 5.347656 8.78125 C 5.347656 8.800781 5.363281 8.820312 5.382812 8.820312 L 6.226562 8.820312 C 6.238281 8.820312 6.246094 8.824219 6.253906 8.828125 C 6.257812 8.835938 6.261719 8.84375 6.261719 8.855469 L 6.257812 9.226562 C 6.257812 9.246094 6.242188 9.261719 6.222656 9.261719 L 4.960938 9.269531 C 4.953125 9.269531 4.941406 9.265625 4.9375 9.261719 C 4.929688 9.253906 4.925781 9.246094 4.925781 9.234375 L 4.929688 7.382812 C 4.929688 7.363281 4.945312 7.347656 4.964844 7.347656 L 6.191406 7.347656 C 6.210938 7.347656 6.226562 7.363281 6.226562 7.382812 L 6.226562 7.757812 C 6.226562 7.777344 6.210938 7.792969 6.191406 7.792969 L 5.378906 7.792969 C 5.371094 7.792969 5.359375 7.796875 5.355469 7.804688 C 5.347656 7.808594 5.34375 7.820312 5.34375 7.828125 L 5.351562 8.082031 C 5.351562 8.101562 5.367188 8.117188 5.386719 8.117188 L 6 8.113281 C 6.011719 8.113281 6.019531 8.117188 6.027344 8.121094 C 6.035156 8.128906 6.039062 8.136719 6.039062 8.148438 L 6.035156 8.464844 C 6.035156 8.484375 6.019531 8.5 6 8.5 L 5.382812 8.5 C 5.367188 8.5 5.351562 8.515625 5.351562 8.535156 Z M 6.996094 8.96875 L 6.894531 9.238281 C 6.886719 9.253906 6.875 9.261719 6.859375 9.261719 L 6.503906 9.265625 C 6.480469 9.265625 6.472656 9.253906 6.480469 9.230469 C 6.695312 8.660156 6.910156 8.09375 7.125 7.527344 C 7.160156 7.4375 7.164062 7.339844 7.289062 7.339844 C 7.390625 7.34375 7.535156 7.3125 7.585938 7.441406 C 7.808594 8.027344 8.03125 8.621094 8.253906 9.222656 C 8.257812 9.234375 8.257812 9.242188 8.253906 9.25 C 8.246094 9.257812 8.238281 9.261719 8.230469 9.261719 L 7.882812 9.261719 C 7.863281 9.261719 7.847656 9.25 7.84375 9.230469 L 7.765625 8.996094 C 7.753906 8.96875 7.726562 8.945312 7.695312 8.949219 L 7.027344 8.949219 C 7.015625 8.949219 7 8.957031 6.996094 8.96875 Z M 7.15625 8.441406 C 7.152344 8.457031 7.152344 8.46875 7.164062 8.480469 C 7.171875 8.492188 7.183594 8.5 7.199219 8.5 L 7.539062 8.5 C 7.554688 8.5 7.566406 8.492188 7.578125 8.480469 C 7.585938 8.46875 7.585938 8.457031 7.582031 8.441406 L 7.410156 7.933594 C 7.40625 7.914062 7.386719 7.902344 7.371094 7.902344 C 7.351562 7.902344 7.335938 7.914062 7.328125 7.933594 Z M 8.664062 7.796875 L 8.257812 7.792969 C 8.234375 7.792969 8.21875 7.773438 8.21875 7.75 L 8.21875 7.390625 C 8.21875 7.363281 8.234375 7.347656 8.257812 7.347656 L 9.589844 7.347656 C 9.613281 7.347656 9.632812 7.367188 9.632812 7.390625 L 9.632812 7.75 C 9.632812 7.761719 9.628906 7.773438 9.621094 7.78125 C 9.613281 7.789062 9.601562 7.792969 9.589844 7.792969 L 9.171875 7.796875 C 9.148438 7.796875 9.128906 7.816406 9.128906 7.839844 L 9.128906 9.21875 C 9.128906 9.242188 9.109375 9.261719 9.085938 9.261719 L 8.761719 9.261719 C 8.75 9.261719 8.738281 9.257812 8.730469 9.25 C 8.722656 9.242188 8.71875 9.230469 8.71875 9.21875 L 8.707031 7.839844 C 8.707031 7.816406 8.6875 7.796875 8.664062 7.796875 Z M 10.929688 8.804688 C 11.039062 8.765625 11.089844 8.648438 11.089844 8.527344 C 11.089844 8.160156 11.089844 7.785156 11.09375 7.40625 C 11.09375 7.386719 11.097656 7.375 11.109375 7.363281 C 11.121094 7.351562 11.136719 7.34375 11.152344 7.34375 L 11.496094 7.351562 C 11.515625 7.351562 11.527344 7.363281 11.527344 7.382812 C 11.542969 7.925781 11.542969 8.335938 11.519531 8.613281 C 11.472656 9.1875 10.835938 9.371094 10.382812 9.167969 C 10.09375 9.035156 10.015625 8.808594 10.007812 8.480469 C 10 8.113281 10 7.746094 10.003906 7.375 C 10.003906 7.355469 10.015625 7.34375 10.035156 7.34375 L 10.375 7.347656 C 10.390625 7.347656 10.40625 7.363281 10.40625 7.378906 C 10.40625 7.710938 10.402344 8.039062 10.390625 8.363281 C 10.386719 8.492188 10.417969 8.613281 10.484375 8.71875 C 10.566406 8.847656 10.824219 8.84375 10.929688 8.804688 Z M 10.929688 8.804688 "/>
<path style=" stroke:none;fill-rule:nonzero;fill:rgb(34.901961%,34.509804%,84.313725%);fill-opacity:1;" d="M 12.371094 8.65625 L 12.367188 9.226562 C 12.367188 9.246094 12.359375 9.257812 12.335938 9.257812 L 12.003906 9.257812 C 11.988281 9.261719 11.972656 9.246094 11.972656 9.226562 L 11.96875 7.382812 C 11.96875 7.363281 11.980469 7.347656 12 7.347656 C 12.265625 7.339844 12.535156 7.347656 12.808594 7.367188 C 13.277344 7.40625 13.550781 7.890625 13.292969 8.292969 C 13.242188 8.367188 13.152344 8.433594 13.082031 8.507812 C 13.074219 8.519531 13.070312 8.53125 13.078125 8.542969 L 13.429688 9.210938 C 13.445312 9.238281 13.4375 9.25 13.40625 9.25 L 13.023438 9.253906 C 13.007812 9.253906 12.992188 9.246094 12.984375 9.230469 L 12.683594 8.65625 C 12.671875 8.632812 12.65625 8.625 12.632812 8.625 L 12.398438 8.625 C 12.378906 8.625 12.371094 8.636719 12.371094 8.65625 Z M 12.367188 7.789062 L 12.367188 8.175781 C 12.367188 8.214844 12.398438 8.246094 12.4375 8.246094 L 12.75 8.242188 C 12.867188 8.242188 12.960938 8.128906 12.960938 7.988281 L 12.960938 7.972656 C 12.960938 7.902344 12.9375 7.839844 12.898438 7.792969 C 12.859375 7.742188 12.804688 7.71875 12.746094 7.71875 L 12.433594 7.71875 C 12.394531 7.71875 12.367188 7.75 12.367188 7.789062 Z M 12.367188 7.789062 "/>
<path style=" stroke:none;fill-rule:nonzero;fill:rgb(39.215686%,43.137255%,95.294118%);fill-opacity:1;" d="M 14.140625 7.835938 L 14.144531 8.070312 C 14.144531 8.097656 14.167969 8.121094 14.195312 8.121094 L 14.785156 8.117188 C 14.8125 8.117188 14.832031 8.140625 14.832031 8.167969 L 14.832031 8.445312 C 14.832031 8.472656 14.808594 8.492188 14.78125 8.492188 L 14.1875 8.492188 C 14.164062 8.492188 14.140625 8.515625 14.140625 8.542969 L 14.140625 8.773438 C 14.140625 8.800781 14.164062 8.824219 14.191406 8.824219 L 15.019531 8.820312 C 15.03125 8.820312 15.042969 8.824219 15.054688 8.832031 C 15.0625 8.84375 15.066406 8.855469 15.066406 8.871094 L 15.066406 9.203125 C 15.066406 9.230469 15.042969 9.253906 15.015625 9.253906 L 13.789062 9.261719 C 13.765625 9.261719 13.742188 9.238281 13.742188 9.210938 L 13.738281 7.394531 C 13.738281 7.382812 13.742188 7.367188 13.753906 7.359375 C 13.761719 7.351562 13.773438 7.34375 13.789062 7.34375 L 14.976562 7.351562 C 14.992188 7.351562 15.003906 7.359375 15.011719 7.367188 C 15.023438 7.378906 15.027344 7.390625 15.027344 7.40625 L 15.007812 7.738281 C 15.007812 7.765625 14.988281 7.785156 14.960938 7.785156 L 14.1875 7.789062 C 14.160156 7.789062 14.140625 7.808594 14.140625 7.835938 Z M 14.140625 7.835938 "/>
<path style=" stroke:none;fill-rule:nonzero;fill:rgb(44.705882%,52.941176%,99.215686%);fill-opacity:1;" d="M 15.433594 7.386719 C 15.433594 7.378906 15.4375 7.367188 15.445312 7.363281 C 15.449219 7.355469 15.460938 7.351562 15.46875 7.351562 L 16 7.351562 C 16.542969 7.347656 16.984375 7.769531 16.984375 8.292969 L 16.984375 8.308594 C 16.988281 8.832031 16.550781 9.257812 16.007812 9.257812 L 15.476562 9.261719 C 15.457031 9.261719 15.441406 9.246094 15.441406 9.226562 Z M 15.832031 7.839844 L 15.824219 8.769531 C 15.824219 8.800781 15.847656 8.824219 15.878906 8.824219 L 16.089844 8.828125 C 16.359375 8.832031 16.585938 8.609375 16.585938 8.335938 L 16.585938 8.289062 C 16.589844 8.015625 16.371094 7.789062 16.097656 7.789062 L 15.886719 7.785156 C 15.859375 7.785156 15.835938 7.808594 15.832031 7.839844 Z M 15.832031 7.839844 "/>
<path style=" stroke:none;fill-rule:nonzero;fill:rgb(77.647059%,92.156863%,95.294118%);fill-opacity:1;" d="M 12.367188 7.789062 C 12.367188 7.75 12.394531 7.71875 12.433594 7.71875 L 12.746094 7.71875 C 12.804688 7.71875 12.859375 7.742188 12.898438 7.792969 C 12.9375 7.839844 12.960938 7.902344 12.960938 7.972656 L 12.960938 7.988281 C 12.960938 8.128906 12.867188 8.242188 12.75 8.242188 L 12.4375 8.246094 C 12.398438 8.246094 12.367188 8.214844 12.367188 8.175781 Z M 15.832031 7.839844 C 15.835938 7.808594 15.859375 7.785156 15.886719 7.785156 L 16.097656 7.789062 C 16.371094 7.789062 16.589844 8.015625 16.585938 8.289062 L 16.585938 8.335938 C 16.585938 8.609375 16.359375 8.832031 16.089844 8.828125 L 15.878906 8.824219 C 15.847656 8.824219 15.824219 8.800781 15.824219 8.769531 Z M 7.15625 8.441406 L 7.328125 7.933594 C 7.335938 7.914062 7.351562 7.902344 7.371094 7.902344 C 7.386719 7.902344 7.40625 7.914062 7.410156 7.933594 L 7.582031 8.441406 C 7.585938 8.457031 7.585938 8.46875 7.578125 8.480469 C 7.566406 8.492188 7.554688 8.5 7.539062 8.5 L 7.199219 8.5 C 7.183594 8.5 7.171875 8.492188 7.164062 8.480469 C 7.152344 8.46875 7.152344 8.457031 7.15625 8.441406 Z M 8.390625 10.820312 C 8.390625 10.816406 8.398438 10.8125 8.402344 10.816406 C 8.414062 10.828125 8.414062 10.832031 8.398438 10.839844 C 8.371094 10.851562 8.339844 10.851562 8.3125 10.832031 C 8.296875 10.824219 8.300781 10.816406 8.316406 10.816406 C 8.335938 10.8125 8.355469 10.816406 8.371094 10.828125 C 8.371094 10.828125 8.375 10.828125 8.378906 10.828125 C 8.382812 10.828125 8.386719 10.824219 8.390625 10.820312 Z M 2.867188 10.980469 L 2.78125 10.945312 C 2.761719 10.9375 2.75 10.925781 2.753906 10.902344 L 2.753906 10.886719 C 2.757812 10.863281 2.769531 10.859375 2.785156 10.875 L 2.882812 10.957031 C 2.890625 10.960938 2.890625 10.96875 2.886719 10.976562 C 2.882812 10.980469 2.875 10.984375 2.867188 10.980469 Z M 2.964844 10.878906 L 3.558594 11.191406 C 3.574219 11.203125 3.589844 11.199219 3.601562 11.183594 L 3.683594 11.082031 C 3.695312 11.070312 3.707031 11.070312 3.710938 11.089844 C 3.722656 11.125 3.722656 11.160156 3.707031 11.191406 C 3.648438 11.304688 3.453125 11.222656 3.386719 11.160156 C 3.375 11.148438 3.359375 11.144531 3.34375 11.148438 C 3.3125 11.148438 3.296875 11.140625 3.285156 11.121094 C 3.28125 11.109375 3.269531 11.097656 3.257812 11.089844 L 2.984375 10.945312 C 2.96875 10.9375 2.960938 10.921875 2.957031 10.902344 L 2.957031 10.882812 C 2.957031 10.878906 2.960938 10.875 2.964844 10.878906 Z M 7.742188 10.917969 C 7.800781 10.894531 7.859375 10.898438 7.917969 10.929688 C 7.925781 10.933594 7.929688 10.945312 7.925781 10.953125 C 7.921875 10.964844 7.914062 10.96875 7.90625 10.96875 L 7.738281 10.957031 C 7.726562 10.957031 7.710938 10.960938 7.703125 10.96875 C 7.667969 11 7.628906 11.019531 7.582031 11.027344 C 7.570312 11.027344 7.5625 11.023438 7.558594 11.015625 C 7.554688 11.007812 7.554688 10.996094 7.558594 10.988281 C 7.59375 10.9375 7.640625 10.917969 7.703125 10.925781 C 7.714844 10.925781 7.730469 10.925781 7.742188 10.917969 Z M 6.238281 10.949219 L 6.265625 10.953125 C 6.28125 10.957031 6.289062 10.96875 6.285156 10.980469 C 6.285156 10.992188 6.273438 11.003906 6.257812 11 L 6.214844 10.996094 C 6.1875 10.996094 6.183594 10.984375 6.203125 10.964844 L 6.210938 10.957031 C 6.21875 10.949219 6.230469 10.945312 6.238281 10.949219 Z M 2.707031 10.992188 C 2.691406 11.027344 2.671875 11.046875 2.636719 11.050781 C 2.628906 11.050781 2.621094 11.046875 2.617188 11.039062 C 2.613281 11.03125 2.613281 11.023438 2.617188 11.015625 C 2.640625 10.984375 2.671875 10.96875 2.710938 10.96875 C 2.71875 10.96875 2.71875 10.972656 2.714844 10.976562 C 2.710938 10.984375 2.707031 10.988281 2.707031 10.992188 Z M 7.371094 11 C 7.402344 10.992188 7.433594 11 7.460938 11.019531 C 7.480469 11.035156 7.476562 11.042969 7.453125 11.042969 C 7.417969 11.046875 7.382812 11.03125 7.355469 11 C 7.351562 10.996094 7.34375 10.996094 7.339844 11 C 7.328125 11.003906 7.328125 11 7.332031 10.992188 C 7.332031 10.988281 7.335938 10.984375 7.339844 10.988281 L 7.363281 11 C 7.367188 11.003906 7.367188 11.003906 7.371094 11 Z M 7.371094 11 "/>
<path style=" stroke:none;fill-rule:nonzero;fill:rgb(77.647059%,92.156863%,95.294118%);fill-opacity:1;" d="M 7.257812 11.046875 C 7.25 11.035156 7.222656 11.039062 7.191406 11.054688 C 7.164062 11.074219 7.144531 11.097656 7.152344 11.113281 C 7.160156 11.125 7.191406 11.121094 7.21875 11.101562 C 7.25 11.085938 7.265625 11.058594 7.257812 11.046875 Z M 7.257812 11.046875 "/>
<path style=" stroke:none;fill-rule:nonzero;fill:rgb(77.647059%,92.156863%,95.294118%);fill-opacity:1;" d="M 4.058594 11.144531 C 4.054688 11.148438 4.050781 11.152344 4.042969 11.152344 C 4.039062 11.148438 4.035156 11.148438 4.03125 11.140625 L 4.011719 11.113281 C 4 11.097656 4.003906 11.085938 4.019531 11.074219 C 4.039062 11.0625 4.0625 11.054688 4.089844 11.054688 C 4.128906 11.054688 4.132812 11.070312 4.105469 11.097656 Z M 6.640625 11.085938 C 6.640625 11.082031 6.644531 11.074219 6.652344 11.074219 C 6.65625 11.070312 6.664062 11.070312 6.667969 11.074219 L 6.699219 11.097656 C 6.722656 11.117188 6.71875 11.128906 6.695312 11.144531 L 6.648438 11.167969 C 6.628906 11.179688 6.621094 11.175781 6.625 11.152344 Z M 5.457031 11.152344 C 5.472656 11.109375 5.503906 11.109375 5.554688 11.15625 C 5.5625 11.164062 5.5625 11.171875 5.5625 11.179688 C 5.558594 11.1875 5.550781 11.195312 5.542969 11.195312 L 5.488281 11.199219 C 5.476562 11.199219 5.464844 11.195312 5.460938 11.183594 C 5.453125 11.175781 5.453125 11.164062 5.457031 11.152344 Z M 7.890625 11.136719 C 7.828125 11.15625 7.800781 11.125 7.742188 11.121094 C 7.742188 11.121094 7.742188 11.125 7.742188 11.125 C 7.789062 11.117188 7.839844 11.117188 7.890625 11.121094 C 7.910156 11.125 7.910156 11.128906 7.890625 11.136719 Z M 5.691406 11.179688 C 5.683594 11.203125 5.6875 11.222656 5.675781 11.242188 C 5.667969 11.253906 5.652344 11.261719 5.640625 11.253906 C 5.625 11.25 5.621094 11.234375 5.625 11.21875 C 5.632812 11.191406 5.648438 11.167969 5.671875 11.144531 C 5.691406 11.128906 5.699219 11.132812 5.695312 11.15625 C 5.695312 11.164062 5.695312 11.171875 5.691406 11.179688 Z M 7.128906 11.308594 L 7.121094 11.253906 C 7.117188 11.238281 7.125 11.230469 7.136719 11.230469 C 7.199219 11.222656 7.246094 11.242188 7.28125 11.289062 C 7.292969 11.304688 7.320312 11.3125 7.339844 11.300781 C 7.359375 11.292969 7.367188 11.269531 7.363281 11.246094 C 7.355469 11.21875 7.335938 11.199219 7.308594 11.1875 C 7.296875 11.179688 7.292969 11.167969 7.296875 11.15625 C 7.300781 11.144531 7.3125 11.140625 7.324219 11.144531 L 7.390625 11.171875 C 7.433594 11.183594 7.457031 11.230469 7.445312 11.273438 C 7.433594 11.316406 7.386719 11.339844 7.34375 11.328125 C 7.289062 11.316406 7.230469 11.308594 7.175781 11.3125 C 7.160156 11.3125 7.148438 11.320312 7.140625 11.332031 L 7.128906 11.355469 C 7.121094 11.371094 7.109375 11.375 7.097656 11.367188 C 7.023438 11.332031 6.960938 11.34375 6.917969 11.410156 C 6.910156 11.417969 6.898438 11.421875 6.890625 11.414062 C 6.878906 11.410156 6.875 11.394531 6.882812 11.386719 C 6.90625 11.34375 6.933594 11.304688 6.972656 11.273438 C 6.976562 11.269531 6.984375 11.269531 6.992188 11.269531 C 6.996094 11.269531 7.003906 11.273438 7.007812 11.277344 L 7.050781 11.339844 C 7.0625 11.355469 7.085938 11.359375 7.101562 11.351562 C 7.121094 11.34375 7.132812 11.328125 7.128906 11.308594 Z M 3.234375 11.171875 C 3.257812 11.179688 3.269531 11.203125 3.265625 11.226562 C 3.261719 11.246094 3.238281 11.261719 3.214844 11.261719 L 3.195312 11.257812 C 3.195312 11.257812 3.179688 11.25 3.160156 11.238281 C 3.097656 11.199219 3.039062 11.214844 2.992188 11.273438 C 2.984375 11.28125 2.972656 11.285156 2.964844 11.285156 C 2.953125 11.285156 2.945312 11.277344 2.941406 11.269531 C 2.925781 11.234375 2.945312 11.207031 3 11.1875 C 3.082031 11.15625 3.160156 11.152344 3.234375 11.171875 Z M 7.625 11.160156 C 7.632812 11.164062 7.640625 11.171875 7.640625 11.183594 C 7.640625 11.195312 7.632812 11.203125 7.625 11.207031 C 7.582031 11.214844 7.542969 11.214844 7.507812 11.199219 C 7.492188 11.195312 7.492188 11.1875 7.503906 11.179688 C 7.542969 11.15625 7.582031 11.152344 7.625 11.160156 Z M 4.160156 11.222656 L 4.171875 11.199219 C 4.175781 11.191406 4.179688 11.1875 4.1875 11.195312 C 4.207031 11.210938 4.210938 11.226562 4.199219 11.242188 C 4.195312 11.246094 4.1875 11.25 4.183594 11.246094 L 4.160156 11.234375 C 4.15625 11.230469 4.15625 11.226562 4.160156 11.222656 Z M 2.851562 11.226562 C 2.871094 11.28125 2.855469 11.3125 2.796875 11.320312 C 2.78125 11.324219 2.769531 11.316406 2.765625 11.300781 C 2.75 11.246094 2.761719 11.214844 2.808594 11.203125 C 2.828125 11.199219 2.84375 11.210938 2.851562 11.226562 Z M 2.851562 11.226562 "/>
<path style=" stroke:none;fill-rule:nonzero;fill:rgb(77.647059%,92.156863%,95.294118%);fill-opacity:1;" d="M 2.195312 11.28125 L 2.695312 11.226562 C 2.703125 11.226562 2.710938 11.230469 2.710938 11.238281 L 2.710938 11.25 C 2.710938 11.257812 2.707031 11.265625 2.699219 11.265625 L 2.199219 11.320312 C 2.191406 11.320312 2.183594 11.316406 2.183594 11.308594 L 2.183594 11.296875 C 2.183594 11.289062 2.1875 11.28125 2.195312 11.28125 Z M 2.195312 11.28125 "/>
<path style=" stroke:none;fill-rule:nonzero;fill:rgb(77.647059%,92.156863%,95.294118%);fill-opacity:1;" d="M 5.074219 11.226562 C 5.078125 11.210938 5.09375 11.203125 5.105469 11.207031 C 5.121094 11.207031 5.132812 11.21875 5.132812 11.234375 C 5.132812 11.269531 5.113281 11.296875 5.070312 11.308594 C 5.058594 11.3125 5.050781 11.308594 5.054688 11.292969 Z M 6.445312 11.445312 C 6.507812 11.328125 6.617188 11.277344 6.777344 11.289062 C 6.792969 11.289062 6.796875 11.296875 6.785156 11.308594 C 6.746094 11.367188 6.648438 11.34375 6.59375 11.34375 C 6.578125 11.34375 6.5625 11.351562 6.554688 11.367188 C 6.527344 11.40625 6.488281 11.433594 6.445312 11.445312 Z M 6.445312 11.445312 "/>
<path style=" stroke:none;fill-rule:nonzero;fill:rgb(77.647059%,92.156863%,95.294118%);fill-opacity:1;" d="M 4.355469 11.316406 C 4.351562 11.308594 4.308594 11.324219 4.257812 11.351562 C 4.207031 11.378906 4.167969 11.40625 4.171875 11.410156 C 4.175781 11.417969 4.21875 11.398438 4.269531 11.375 C 4.320312 11.347656 4.359375 11.320312 4.355469 11.316406 Z M 4.355469 11.316406 "/>
<path style=" stroke:none;fill-rule:nonzero;fill:rgb(77.647059%,92.156863%,95.294118%);fill-opacity:1;" d="M 3.449219 11.382812 L 3.390625 11.402344 C 3.375 11.410156 3.371094 11.40625 3.378906 11.390625 C 3.394531 11.359375 3.417969 11.347656 3.449219 11.355469 C 3.484375 11.363281 3.484375 11.375 3.449219 11.382812 Z M 3.632812 11.386719 C 3.613281 11.402344 3.597656 11.402344 3.578125 11.386719 C 3.574219 11.382812 3.574219 11.378906 3.574219 11.375 C 3.578125 11.371094 3.582031 11.367188 3.585938 11.367188 L 3.617188 11.363281 C 3.644531 11.359375 3.648438 11.367188 3.632812 11.386719 Z M 2.90625 11.449219 C 2.9375 11.417969 2.976562 11.402344 3.023438 11.398438 C 3.03125 11.398438 3.035156 11.402344 3.035156 11.40625 L 3.035156 11.421875 C 3.035156 11.425781 3.03125 11.429688 3.027344 11.429688 L 2.875 11.464844 C 2.875 11.464844 2.871094 11.464844 2.871094 11.464844 C 2.871094 11.460938 2.871094 11.460938 2.871094 11.460938 C 2.871094 11.453125 2.875 11.453125 2.878906 11.453125 C 2.890625 11.457031 2.898438 11.453125 2.90625 11.449219 Z M 4.019531 11.46875 C 3.953125 11.507812 3.882812 11.511719 3.808594 11.480469 C 3.800781 11.480469 3.796875 11.472656 3.800781 11.464844 C 3.800781 11.460938 3.808594 11.453125 3.816406 11.457031 C 3.886719 11.460938 3.957031 11.464844 4.023438 11.46875 C 4.023438 11.46875 4.023438 11.46875 4.027344 11.46875 C 4.027344 11.46875 4.023438 11.464844 4.023438 11.464844 L 4.019531 11.464844 C 4.019531 11.464844 4.019531 11.46875 4.019531 11.46875 Z M 6.445312 11.445312 C 6.402344 11.480469 6.355469 11.496094 6.3125 11.496094 C 6.285156 11.496094 6.285156 11.488281 6.308594 11.476562 C 6.34375 11.457031 6.390625 11.445312 6.445312 11.445312 Z M 5.144531 11.652344 C 5.148438 11.648438 5.152344 11.648438 5.15625 11.652344 C 5.160156 11.65625 5.164062 11.660156 5.164062 11.664062 C 5.167969 11.683594 5.152344 11.691406 5.121094 11.6875 C 5.113281 11.6875 5.109375 11.679688 5.109375 11.671875 C 5.109375 11.664062 5.113281 11.65625 5.121094 11.65625 Z M 4.703125 11.765625 C 4.691406 11.773438 4.679688 11.777344 4.664062 11.777344 C 4.65625 11.777344 4.648438 11.769531 4.648438 11.761719 C 4.648438 11.75 4.65625 11.746094 4.664062 11.746094 L 4.699219 11.746094 C 4.722656 11.746094 4.722656 11.753906 4.703125 11.765625 Z M 4.703125 11.765625 "/>
</g>
</svg>
