<?xml version="1.0" encoding="UTF-8"?>
<svg xmlns="http://www.w3.org/2000/svg" xmlns:xlink="http://www.w3.org/1999/xlink" width="20px" height="px" viewBox="0 0 20 20" version="1.1">
<g id="surface1">
<path style=" stroke:none;fill-rule:nonzero;fill:rgb(52.156863%,52.156863%,52.156863%);fill-opacity:1;" d="M 10.855469 1.667969 C 11.792969 1.667969 12.269531 1.675781 12.679688 1.6875 L 12.84375 1.691406 C 13.027344 1.699219 13.214844 1.707031 13.4375 1.71875 C 14.324219 1.757812 14.925781 1.898438 15.457031 2.105469 C 16.007812 2.316406 16.472656 2.601562 16.933594 3.066406 C 17.398438 3.527344 17.683594 3.992188 17.894531 4.542969 C 18.101562 5.074219 18.242188 5.679688 18.285156 6.566406 C 18.292969 6.785156 18.300781 6.972656 18.308594 7.160156 L 18.3125 7.320312 C 18.324219 7.730469 18.332031 8.207031 18.332031 9.144531 L 18.332031 9.765625 C 18.332031 9.839844 18.332031 9.917969 18.332031 10 L 18.332031 10.855469 C 18.332031 11.792969 18.328125 12.269531 18.3125 12.679688 L 18.308594 12.84375 C 18.300781 13.027344 18.292969 13.214844 18.285156 13.4375 C 18.242188 14.324219 18.101562 14.925781 17.894531 15.457031 C 17.683594 16.007812 17.398438 16.472656 16.933594 16.933594 C 16.472656 17.398438 16.003906 17.683594 15.457031 17.894531 C 14.925781 18.101562 14.324219 18.242188 13.4375 18.285156 C 13.214844 18.292969 13.027344 18.300781 12.84375 18.308594 L 12.679688 18.3125 C 12.269531 18.324219 11.792969 18.332031 10.855469 18.332031 L 10.234375 18.332031 C 10.160156 18.332031 10.082031 18.332031 10 18.332031 L 9.144531 18.332031 C 8.207031 18.332031 7.730469 18.328125 7.320312 18.3125 L 7.160156 18.308594 C 6.972656 18.300781 6.785156 18.292969 6.566406 18.285156 C 5.679688 18.242188 5.074219 18.101562 4.542969 17.894531 C 3.992188 17.683594 3.527344 17.398438 3.066406 16.933594 C 2.601562 16.472656 2.316406 16.003906 2.105469 15.457031 C 1.898438 14.925781 1.757812 14.324219 1.71875 13.4375 C 1.707031 13.214844 1.699219 13.027344 1.691406 12.84375 L 1.6875 12.679688 C 1.675781 12.269531 1.667969 11.792969 1.667969 10.855469 L 1.667969 9.144531 C 1.667969 8.207031 1.675781 7.730469 1.6875 7.320312 L 1.691406 7.160156 C 1.699219 6.972656 1.707031 6.785156 1.71875 6.566406 C 1.757812 5.675781 1.898438 5.074219 2.105469 4.542969 C 2.316406 3.992188 2.601562 3.527344 3.066406 3.066406 C 3.527344 2.601562 3.992188 2.316406 4.542969 2.105469 C 5.074219 1.898438 5.675781 1.757812 6.566406 1.71875 C 6.785156 1.707031 6.972656 1.699219 7.160156 1.691406 L 7.320312 1.6875 C 7.730469 1.675781 8.207031 1.667969 9.144531 1.667969 Z M 10 5.832031 C 7.699219 5.832031 5.832031 7.699219 5.832031 10 C 5.832031 12.300781 7.699219 14.167969 10 14.167969 C 12.300781 14.167969 14.167969 12.300781 14.167969 10 C 14.167969 7.699219 12.300781 5.832031 10 5.832031 Z M 10 7.5 C 11.382812 7.5 12.5 8.617188 12.5 10 C 12.5 11.382812 11.382812 12.5 10 12.5 C 8.621094 12.5 7.5 11.382812 7.5 10 C 7.5 8.621094 8.617188 7.5 10 7.5 Z M 14.375 4.582031 C 13.800781 4.582031 13.332031 5.050781 13.332031 5.625 C 13.332031 6.199219 13.800781 6.667969 14.375 6.667969 C 14.949219 6.667969 15.417969 6.199219 15.417969 5.625 C 15.417969 5.050781 14.949219 4.582031 14.375 4.582031 Z M 14.375 4.582031 "/>
</g>
</svg>
