<?xml version="1.0" encoding="UTF-8"?>
<svg xmlns="http://www.w3.org/2000/svg" xmlns:xlink="http://www.w3.org/1999/xlink" width="20px" height="px" viewBox="0 0 20 20" version="1.1">
<g id="surface1">
<path style=" stroke:none;fill-rule:nonzero;fill:rgb(76.862745%,7.45098%,12.54902%);fill-opacity:1;" d="M 15.492188 10.894531 C 14.375 10.894531 14.167969 10.234375 14.167969 10.074219 L 14.980469 10.074219 C 14.980469 10.167969 15.105469 10.285156 15.21875 10.332031 C 15.308594 10.363281 15.402344 10.382812 15.5 10.378906 C 15.726562 10.378906 15.914062 10.320312 15.914062 10.1875 C 15.914062 10.019531 15.722656 9.988281 15.511719 9.957031 C 14.9375 9.871094 14.128906 9.773438 14.128906 9.121094 C 14.128906 8.507812 14.785156 8.199219 15.480469 8.199219 C 16.597656 8.199219 16.894531 8.824219 16.894531 9.007812 L 16.066406 9.007812 C 16.058594 8.914062 16 8.832031 15.914062 8.789062 C 15.8125 8.734375 15.703125 8.707031 15.589844 8.707031 C 15.277344 8.707031 15.105469 8.773438 15.105469 8.917969 C 15.105469 9.035156 15.265625 9.09375 15.488281 9.132812 C 16.074219 9.234375 16.972656 9.269531 16.972656 9.992188 C 16.96875 10.359375 16.65625 10.894531 15.492188 10.894531 Z M 14.117188 8.582031 L 13.800781 8.929688 L 13.667969 8.929688 L 13.8125 8.550781 L 13.523438 8.550781 L 13.523438 8.042969 L 14.117188 8.042969 Z M 12.277344 8.261719 L 13.328125 8.261719 L 13.328125 10.820312 L 12.277344 10.820312 Z M 10.910156 10.824219 L 9.992188 10.824219 L 8.625 8.265625 L 9.863281 8.265625 L 10.648438 9.820312 L 10.667969 9.867188 L 10.691406 9.820312 L 11.421875 8.265625 L 12.164062 8.265625 Z M 8.941406 9.765625 L 6.820312 9.765625 C 6.832031 10.105469 7.125 10.375 7.46875 10.347656 L 7.464844 10.347656 C 7.6875 10.359375 7.898438 10.253906 8.027344 10.078125 L 8.027344 10.074219 L 8.875 10.074219 C 8.597656 10.71875 8.0625 10.902344 7.332031 10.902344 C 6.378906 10.902344 5.707031 10.378906 5.707031 9.550781 C 5.707031 8.667969 6.367188 8.203125 7.332031 8.203125 C 8.40625 8.203125 8.945312 8.90625 8.945312 9.589844 C 8.949219 9.648438 8.945312 9.707031 8.9375 9.765625 Z M 5.6875 10.820312 L 3.265625 10.820312 L 3.265625 8.265625 L 4.355469 8.265625 L 4.355469 10.125 L 5.6875 10.125 Z M 18.078125 6.179688 C 18.085938 6.195312 18.09375 6.210938 18.105469 6.230469 C 18.167969 6.375 18.207031 6.546875 18.207031 6.722656 L 18.207031 6.746094 C 18.207031 6.925781 18.167969 7.097656 18.101562 7.253906 L 18.105469 7.246094 C 18.039062 7.394531 17.945312 7.535156 17.832031 7.648438 C 17.71875 7.765625 17.585938 7.855469 17.4375 7.917969 L 17.433594 7.921875 C 17.277344 7.984375 17.117188 8.015625 16.949219 8.015625 L 16.933594 8.015625 C 16.757812 8.015625 16.59375 7.980469 16.441406 7.917969 L 16.449219 7.921875 C 16.296875 7.859375 16.160156 7.765625 16.042969 7.648438 C 15.929688 7.535156 15.835938 7.402344 15.773438 7.253906 L 15.769531 7.246094 C 15.703125 7.085938 15.667969 6.917969 15.667969 6.746094 L 15.667969 6.722656 C 15.667969 6.546875 15.707031 6.378906 15.773438 6.222656 L 15.769531 6.230469 C 15.777344 6.214844 15.785156 6.195312 15.792969 6.179688 L 0.824219 6.179688 L 2.59375 13.824219 C 6.308594 11.40625 9.878906 13.734375 10.023438 13.820312 L 10.027344 13.820312 C 10.171875 13.730469 13.742188 11.402344 17.457031 13.824219 L 19.226562 6.179688 Z M 7.308594 8.734375 C 7.035156 8.734375 6.820312 8.953125 6.820312 9.222656 L 6.820312 9.25 L 7.847656 9.25 C 7.863281 8.949219 7.605469 8.703125 7.308594 8.734375 Z M 16.195312 7.515625 C 16.386719 7.714844 16.652344 7.832031 16.929688 7.832031 L 16.949219 7.832031 C 17.09375 7.832031 17.230469 7.800781 17.351562 7.746094 L 17.347656 7.75 C 17.46875 7.695312 17.582031 7.617188 17.675781 7.519531 C 17.765625 7.421875 17.839844 7.308594 17.894531 7.179688 L 17.894531 7.171875 C 17.945312 7.046875 17.976562 6.902344 17.976562 6.75 L 17.976562 6.730469 C 17.976562 6.585938 17.949219 6.4375 17.894531 6.304688 L 17.894531 6.308594 C 17.878906 6.265625 17.855469 6.222656 17.835938 6.179688 L 17.835938 6.1875 L 17.480469 6.1875 C 17.515625 6.25 17.535156 6.328125 17.535156 6.40625 L 17.535156 6.425781 C 17.542969 6.535156 17.503906 6.644531 17.421875 6.722656 C 17.351562 6.785156 17.25 6.824219 17.148438 6.835938 L 17.566406 7.492188 L 17.320312 7.492188 L 16.921875 6.839844 L 16.679688 6.839844 L 16.679688 7.480469 L 16.449219 7.480469 L 16.449219 6.179688 L 16.035156 6.179688 C 16.015625 6.210938 15.996094 6.25 15.980469 6.292969 L 15.976562 6.300781 C 15.921875 6.433594 15.894531 6.578125 15.894531 6.71875 L 15.894531 6.738281 C 15.894531 6.894531 15.925781 7.035156 15.980469 7.171875 L 15.976562 7.164062 C 16.03125 7.300781 16.105469 7.417969 16.195312 7.515625 Z M 17.0625 6.648438 C 17.109375 6.644531 17.148438 6.636719 17.191406 6.617188 L 17.1875 6.617188 C 17.222656 6.601562 17.25 6.578125 17.273438 6.542969 C 17.292969 6.507812 17.304688 6.464844 17.304688 6.421875 L 17.304688 6.394531 C 17.304688 6.355469 17.292969 6.320312 17.273438 6.285156 C 17.253906 6.257812 17.230469 6.234375 17.203125 6.21875 C 17.167969 6.203125 17.136719 6.191406 17.097656 6.183594 C 17.078125 6.179688 17.0625 6.179688 17.046875 6.179688 L 16.679688 6.179688 L 16.679688 6.648438 L 16.917969 6.648438 C 16.96875 6.652344 17.019531 6.648438 17.0625 6.648438 Z M 17.0625 6.648438 "/>
</g>
</svg>
