<?xml version="1.0" encoding="UTF-8"?>
<svg xmlns="http://www.w3.org/2000/svg" xmlns:xlink="http://www.w3.org/1999/xlink" width="20px" height="px" viewBox="0 0 20 20" version="1.1">
<g id="surface1">
<path style=" stroke:none;fill-rule:nonzero;fill:rgb(20%,20%,20%);fill-opacity:1;" d="M 10 1.667969 C 14.601562 1.667969 18.332031 5.398438 18.332031 10 C 18.332031 14.601562 14.601562 18.332031 10 18.332031 C 5.398438 18.332031 1.667969 14.601562 1.667969 10 C 1.667969 5.398438 5.398438 1.667969 10 1.667969 Z M 10.132812 13.332031 C 8.4375 13.332031 6.910156 14.058594 5.84375 15.214844 C 6.984375 16.121094 8.429688 16.667969 10 16.667969 C 11.640625 16.667969 13.144531 16.074219 14.304688 15.089844 C 13.246094 14.007812 11.769531 13.332031 10.132812 13.332031 Z M 10 3.332031 C 6.316406 3.332031 3.332031 6.316406 3.332031 10 C 3.332031 11.507812 3.835938 12.902344 4.679688 14.019531 C 6.046875 12.570312 7.984375 11.667969 10.132812 11.667969 C 12.203125 11.667969 14.078125 12.503906 15.433594 13.863281 C 16.210938 12.773438 16.667969 11.4375 16.667969 10 C 16.667969 6.316406 13.683594 3.332031 10 3.332031 Z M 10 4.167969 C 11.839844 4.167969 13.332031 5.660156 13.332031 7.5 C 13.332031 9.339844 11.839844 10.832031 10 10.832031 C 8.160156 10.832031 6.667969 9.339844 6.667969 7.5 C 6.667969 5.660156 8.160156 4.167969 10 4.167969 Z M 10 5.832031 C 9.078125 5.832031 8.332031 6.578125 8.332031 7.5 C 8.332031 8.421875 9.078125 9.167969 10 9.167969 C 10.921875 9.167969 11.667969 8.421875 11.667969 7.5 C 11.667969 6.578125 10.921875 5.832031 10 5.832031 Z M 10 5.832031 "/>
</g>
</svg>
