<?xml version="1.0" encoding="UTF-8"?>
<svg xmlns="http://www.w3.org/2000/svg" xmlns:xlink="http://www.w3.org/1999/xlink" width="20px" height="px" viewBox="0 0 20 20" version="1.1">
<g id="surface1">
<path style=" stroke:none;fill-rule:nonzero;fill:rgb(0%,0%,0%);fill-opacity:1;" d="M 8.378906 11.421875 L 8.882812 11.421875 C 8.902344 11.421875 8.914062 11.410156 8.917969 11.394531 C 9.113281 10.300781 9.304688 9.207031 9.492188 8.117188 C 9.570312 7.65625 9.597656 7.316406 9.578125 7.09375 C 9.542969 6.738281 9.4375 6.398438 9.261719 6.074219 C 9.257812 6.066406 9.253906 6.050781 9.261719 6.042969 C 9.265625 6.03125 9.273438 6.023438 9.285156 6.019531 L 9.519531 5.949219 C 9.535156 5.945312 9.550781 5.949219 9.566406 5.964844 C 9.722656 6.144531 9.828125 6.355469 9.875 6.59375 C 9.878906 6.613281 9.894531 6.625 9.914062 6.625 C 10.425781 6.625 10.9375 6.625 11.445312 6.625 C 11.703125 6.625 11.90625 6.648438 12.054688 6.699219 C 13.066406 7.039062 13.488281 8.214844 12.878906 9.109375 C 12.6875 9.394531 12.421875 9.59375 12.082031 9.703125 C 11.917969 9.753906 11.679688 9.78125 11.359375 9.78125 C 10.785156 9.78125 10.214844 9.78125 9.640625 9.78125 C 9.621094 9.78125 9.613281 9.792969 9.609375 9.808594 L 9.339844 11.390625 C 9.335938 11.398438 9.339844 11.40625 9.34375 11.414062 C 9.347656 11.417969 9.355469 11.421875 9.363281 11.421875 L 10.902344 11.417969 C 10.929688 11.417969 10.953125 11.441406 10.953125 11.46875 C 10.957031 11.59375 10.921875 11.703125 10.84375 11.796875 C 10.832031 11.8125 10.8125 11.820312 10.792969 11.820312 C 9.496094 11.820312 8.203125 11.820312 6.90625 11.816406 C 6.757812 11.816406 6.683594 11.726562 6.765625 11.585938 C 6.777344 11.570312 6.789062 11.558594 6.804688 11.550781 C 6.925781 11.492188 6.996094 11.414062 7.011719 11.316406 C 7.226562 10.105469 7.445312 8.898438 7.671875 7.6875 C 7.777344 7.113281 7.664062 6.585938 7.335938 6.101562 C 7.324219 6.085938 7.324219 6.070312 7.339844 6.058594 C 7.4375 5.953125 7.546875 5.9375 7.675781 6.007812 C 7.769531 6.058594 7.847656 6.164062 7.90625 6.328125 C 8.097656 6.835938 8.140625 7.347656 8.035156 7.871094 C 7.964844 8.21875 7.929688 8.390625 7.929688 8.394531 C 7.773438 9.394531 7.59375 10.386719 7.398438 11.378906 C 7.398438 11.390625 7.398438 11.398438 7.40625 11.40625 C 7.410156 11.414062 7.421875 11.417969 7.429688 11.417969 L 7.914062 11.417969 C 7.933594 11.417969 7.949219 11.402344 7.949219 11.386719 C 8.148438 10.300781 8.34375 9.214844 8.535156 8.128906 C 8.667969 7.386719 8.726562 6.796875 8.328125 6.164062 C 8.300781 6.125 8.3125 6.070312 8.355469 6.042969 C 8.503906 5.941406 8.660156 5.984375 8.75 6.144531 C 9.148438 6.882812 9.046875 7.417969 8.898438 8.34375 C 8.730469 9.363281 8.550781 10.382812 8.359375 11.394531 C 8.355469 11.414062 8.363281 11.421875 8.378906 11.421875 Z M 9.964844 7.050781 C 10.023438 7.828125 9.773438 8.59375 9.6875 9.363281 C 9.683594 9.382812 9.691406 9.394531 9.714844 9.394531 C 10.304688 9.398438 10.894531 9.398438 11.484375 9.398438 C 11.710938 9.398438 11.886719 9.371094 12.011719 9.320312 C 13.035156 8.898438 13.039062 7.515625 12.019531 7.097656 C 11.898438 7.046875 11.738281 7.023438 11.539062 7.019531 C 11.023438 7.019531 10.511719 7.015625 9.996094 7.015625 C 9.972656 7.015625 9.964844 7.027344 9.964844 7.050781 Z M 9.964844 7.050781 "/>
<path style=" stroke:none;fill-rule:nonzero;fill:rgb(0%,0%,0%);fill-opacity:1;" d="M 11.203125 13.28125 C 11.035156 13.140625 10.757812 13.160156 10.734375 13.417969 C 10.707031 13.75 11.027344 13.835938 11.25 13.652344 C 11.257812 13.644531 11.269531 13.640625 11.28125 13.644531 C 11.292969 13.652344 11.300781 13.660156 11.300781 13.671875 L 11.316406 13.863281 C 11.320312 13.886719 11.3125 13.90625 11.292969 13.917969 C 11.023438 14.097656 10.582031 13.925781 10.480469 13.648438 C 10.433594 13.527344 10.433594 13.398438 10.488281 13.269531 C 10.613281 12.960938 10.964844 12.871094 11.261719 12.988281 C 11.300781 13.003906 11.332031 13.035156 11.34375 13.078125 C 11.351562 13.121094 11.34375 13.164062 11.316406 13.195312 L 11.25 13.277344 C 11.246094 13.285156 11.234375 13.289062 11.226562 13.289062 C 11.21875 13.289062 11.207031 13.285156 11.203125 13.28125 Z M 11.203125 13.28125 "/>
<path style=" stroke:none;fill-rule:nonzero;fill:rgb(0%,0%,0%);fill-opacity:1;" d="M 5.867188 13.769531 L 5.867188 13.929688 C 5.867188 13.960938 5.851562 13.976562 5.820312 13.976562 L 5.644531 13.972656 C 5.621094 13.972656 5.609375 13.960938 5.609375 13.9375 L 5.613281 13 C 5.613281 12.984375 5.621094 12.976562 5.636719 12.976562 C 5.867188 12.949219 6.238281 12.914062 6.40625 13.085938 C 6.542969 13.226562 6.546875 13.421875 6.429688 13.578125 C 6.308594 13.734375 6.136719 13.785156 5.914062 13.734375 C 5.902344 13.730469 5.890625 13.734375 5.882812 13.742188 C 5.875 13.75 5.867188 13.757812 5.867188 13.769531 Z M 5.882812 13.242188 L 5.882812 13.484375 C 5.882812 13.503906 5.898438 13.519531 5.917969 13.519531 L 6.070312 13.523438 C 6.117188 13.523438 6.164062 13.507812 6.199219 13.484375 C 6.234375 13.457031 6.253906 13.425781 6.253906 13.390625 L 6.253906 13.335938 C 6.253906 13.265625 6.171875 13.203125 6.070312 13.203125 L 5.921875 13.203125 C 5.898438 13.203125 5.882812 13.21875 5.882812 13.242188 Z M 5.882812 13.242188 "/>
<path style=" stroke:none;fill-rule:nonzero;fill:rgb(0%,0%,0%);fill-opacity:1;" d="M 7.398438 13.804688 L 7.355469 13.925781 C 7.347656 13.945312 7.328125 13.960938 7.308594 13.960938 L 7.089844 13.960938 C 7.078125 13.960938 7.070312 13.957031 7.066406 13.949219 C 7.058594 13.941406 7.058594 13.929688 7.0625 13.921875 L 7.441406 12.988281 C 7.449219 12.964844 7.46875 12.953125 7.492188 12.953125 L 7.703125 12.949219 C 7.726562 12.949219 7.742188 12.960938 7.753906 12.984375 L 8.148438 13.9375 C 8.15625 13.953125 8.152344 13.960938 8.136719 13.96875 C 7.972656 14.019531 7.871094 13.972656 7.835938 13.824219 C 7.832031 13.800781 7.808594 13.78125 7.78125 13.78125 L 7.441406 13.773438 C 7.421875 13.773438 7.40625 13.78125 7.398438 13.804688 Z M 7.507812 13.519531 C 7.503906 13.527344 7.507812 13.535156 7.511719 13.542969 C 7.515625 13.550781 7.527344 13.554688 7.535156 13.554688 L 7.6875 13.550781 C 7.695312 13.550781 7.703125 13.542969 7.710938 13.539062 C 7.714844 13.53125 7.714844 13.519531 7.710938 13.511719 L 7.628906 13.304688 C 7.625 13.296875 7.613281 13.289062 7.601562 13.289062 C 7.589844 13.289062 7.582031 13.296875 7.578125 13.308594 Z M 7.507812 13.519531 "/>
<path style=" stroke:none;fill-rule:nonzero;fill:rgb(0%,0%,0%);fill-opacity:1;" d="M 9.140625 13.734375 L 9.144531 13.941406 C 9.144531 13.964844 9.136719 13.972656 9.117188 13.972656 L 8.886719 13.976562 C 8.867188 13.976562 8.855469 13.964844 8.855469 13.945312 L 8.851562 13.011719 C 8.851562 12.988281 8.863281 12.976562 8.886719 12.972656 C 9.109375 12.9375 9.492188 12.90625 9.65625 13.101562 C 9.8125 13.289062 9.796875 13.480469 9.605469 13.679688 C 9.59375 13.695312 9.589844 13.710938 9.601562 13.726562 L 9.730469 13.925781 C 9.738281 13.933594 9.738281 13.945312 9.734375 13.953125 C 9.730469 13.964844 9.71875 13.96875 9.710938 13.96875 L 9.527344 13.980469 C 9.503906 13.980469 9.484375 13.972656 9.46875 13.953125 L 9.265625 13.6875 C 9.25 13.664062 9.214844 13.652344 9.1875 13.664062 C 9.160156 13.675781 9.140625 13.703125 9.140625 13.734375 Z M 9.4375 13.480469 C 9.457031 13.480469 9.476562 13.46875 9.488281 13.457031 C 9.5 13.441406 9.503906 13.421875 9.503906 13.402344 L 9.476562 13.273438 C 9.472656 13.246094 9.449219 13.222656 9.417969 13.21875 L 9.203125 13.199219 C 9.183594 13.195312 9.164062 13.203125 9.152344 13.214844 C 9.136719 13.226562 9.128906 13.246094 9.128906 13.261719 L 9.128906 13.414062 C 9.128906 13.449219 9.160156 13.480469 9.195312 13.480469 Z M 9.4375 13.480469 "/>
<path style=" stroke:none;fill-rule:nonzero;fill:rgb(0%,0%,0%);fill-opacity:1;" d="M 12.402344 13.210938 L 12.402344 13.308594 C 12.402344 13.320312 12.40625 13.328125 12.414062 13.332031 C 12.417969 13.339844 12.429688 13.34375 12.4375 13.34375 L 12.785156 13.339844 C 12.804688 13.339844 12.820312 13.355469 12.820312 13.375 L 12.820312 13.550781 C 12.820312 13.5625 12.816406 13.570312 12.8125 13.578125 C 12.804688 13.582031 12.796875 13.585938 12.785156 13.585938 L 12.425781 13.585938 C 12.40625 13.585938 12.390625 13.601562 12.390625 13.621094 L 12.390625 13.707031 C 12.390625 13.726562 12.40625 13.742188 12.425781 13.742188 L 12.816406 13.742188 C 12.832031 13.742188 12.847656 13.757812 12.847656 13.777344 L 12.851562 13.941406 C 12.851562 13.949219 12.847656 13.957031 12.84375 13.964844 C 12.835938 13.972656 12.828125 13.976562 12.820312 13.976562 L 12.132812 13.972656 C 12.117188 13.972656 12.101562 13.957031 12.101562 13.9375 L 12.105469 12.988281 C 12.105469 12.96875 12.121094 12.953125 12.140625 12.953125 L 12.808594 12.957031 C 12.828125 12.957031 12.84375 12.96875 12.84375 12.988281 L 12.847656 13.140625 C 12.847656 13.148438 12.84375 13.160156 12.835938 13.164062 C 12.828125 13.171875 12.820312 13.175781 12.8125 13.175781 L 12.4375 13.179688 C 12.417969 13.179688 12.402344 13.195312 12.402344 13.210938 Z M 12.402344 13.210938 "/>
<path style=" stroke:none;fill-rule:nonzero;fill:rgb(0%,0%,0%);fill-opacity:1;" d="M 13.933594 13.730469 L 14.378906 13.730469 C 14.394531 13.730469 14.40625 13.746094 14.40625 13.761719 L 14.40625 13.945312 C 14.40625 13.960938 14.394531 13.976562 14.378906 13.976562 L 13.683594 13.972656 C 13.667969 13.972656 13.65625 13.960938 13.65625 13.945312 L 13.644531 13 C 13.644531 12.984375 13.65625 12.972656 13.675781 12.972656 L 13.871094 12.96875 C 13.886719 12.96875 13.898438 12.984375 13.898438 13 L 13.90625 13.703125 C 13.90625 13.71875 13.917969 13.730469 13.933594 13.730469 Z M 13.933594 13.730469 "/>
</g>
</svg>
