<?xml version="1.0" encoding="UTF-8"?>
<svg xmlns="http://www.w3.org/2000/svg" xmlns:xlink="http://www.w3.org/1999/xlink" width="20px" height="px" viewBox="0 0 20 20" version="1.1">
<g id="surface1">
<rect x="0" y="0" width="20" height="20" style="fill:rgb(100%,100%,100%);fill-opacity:1;stroke:none;"/>
<path style=" stroke:none;fill-rule:evenodd;fill:rgb(0%,0%,0%);fill-opacity:1;" d="M 3.546875 11.140625 C 3.390625 11.140625 3.269531 11.246094 3.269531 11.40625 C 3.269531 11.5625 3.390625 11.671875 3.546875 11.671875 C 3.699219 11.671875 3.820312 11.5625 3.820312 11.40625 C 3.820312 11.246094 3.699219 11.140625 3.546875 11.140625 Z M 3.546875 11.59375 C 3.4375 11.59375 3.355469 11.515625 3.355469 11.40625 C 3.355469 11.296875 3.433594 11.214844 3.546875 11.214844 C 3.65625 11.214844 3.738281 11.296875 3.738281 11.40625 C 3.738281 11.511719 3.65625 11.59375 3.546875 11.59375 Z M 6.222656 10.210938 L 4.882812 10.210938 L 5.035156 7.882812 L 4.167969 10.210938 L 2.921875 10.210938 L 4.898438 4.945312 L 6.21875 4.945312 L 6.066406 7.308594 L 6.953125 4.945312 L 8.199219 4.945312 Z M 6.386719 10.210938 L 8.359375 4.945312 L 9.605469 4.945312 L 7.628906 10.210938 Z M 6.386719 10.210938 "/>
<path style=" stroke:none;fill-rule:evenodd;fill:rgb(0%,0%,0%);fill-opacity:1;" d="M 2.777344 8.394531 C 1.039062 10.4375 -0.601562 13.15625 0.847656 14.40625 C 2.253906 15.617188 4.007812 14.902344 5.203125 14.421875 C 6.398438 13.945312 19.625 8.199219 19.625 8.199219 C 19.753906 8.136719 19.730469 8.058594 19.570312 8.097656 C 19.503906 8.113281 5.171875 11.996094 5.171875 11.996094 C 3.351562 12.507812 1.277344 11.394531 2.777344 8.394531 Z M 2.777344 8.394531 "/>
<path style=" stroke:none;fill-rule:evenodd;fill:rgb(0%,0%,0%);fill-opacity:1;" d="M 3.59375 11.421875 C 3.632812 11.421875 3.660156 11.402344 3.660156 11.347656 C 3.660156 11.28125 3.617188 11.261719 3.542969 11.261719 L 3.433594 11.261719 L 3.433594 11.546875 L 3.503906 11.546875 L 3.503906 11.425781 L 3.515625 11.425781 L 3.582031 11.546875 L 3.667969 11.546875 Z M 3.546875 11.378906 L 3.503906 11.378906 L 3.503906 11.3125 L 3.539062 11.3125 C 3.5625 11.3125 3.585938 11.3125 3.585938 11.339844 C 3.585938 11.371094 3.570312 11.378906 3.546875 11.378906 Z M 16.054688 4.929688 C 15.902344 4.929688 15.78125 5.039062 15.78125 5.195312 C 15.78125 5.351562 15.902344 5.460938 16.054688 5.460938 C 16.207031 5.460938 16.328125 5.351562 16.328125 5.195312 C 16.332031 5.039062 16.210938 4.929688 16.054688 4.929688 Z M 16.054688 5.382812 C 15.945312 5.382812 15.863281 5.304688 15.863281 5.195312 C 15.863281 5.085938 15.945312 5.003906 16.054688 5.003906 C 16.164062 5.003906 16.246094 5.089844 16.246094 5.195312 C 16.246094 5.300781 16.164062 5.382812 16.054688 5.382812 Z M 16.054688 5.382812 "/>
<path style=" stroke:none;fill-rule:evenodd;fill:rgb(0%,0%,0%);fill-opacity:1;" d="M 16.101562 5.214844 C 16.140625 5.210938 16.171875 5.191406 16.171875 5.140625 C 16.171875 5.070312 16.125 5.050781 16.050781 5.050781 L 15.941406 5.050781 L 15.941406 5.339844 L 16.015625 5.339844 L 16.015625 5.214844 L 16.027344 5.214844 L 16.09375 5.339844 L 16.175781 5.339844 Z M 16.054688 5.167969 L 16.015625 5.167969 L 16.015625 5.101562 L 16.050781 5.101562 C 16.070312 5.101562 16.09375 5.105469 16.09375 5.132812 C 16.09375 5.160156 16.082031 5.167969 16.054688 5.167969 Z M 15.234375 5.824219 L 15.570312 4.945312 L 11.773438 4.945312 L 10.46875 6.523438 L 11.070312 4.945312 L 9.808594 4.945312 L 7.851562 10.210938 L 9.097656 10.210938 L 9.933594 8.007812 L 9.988281 10.210938 L 13.808594 10.203125 L 14.171875 9.1875 L 12.71875 9.1875 L 13.195312 7.914062 L 14.394531 7.914062 L 14.761719 6.933594 L 13.566406 6.933594 L 13.976562 5.824219 Z M 11.222656 9.859375 L 11.144531 7.117188 L 13.027344 5.050781 Z M 11.222656 9.859375 "/>
</g>
</svg>
