<?xml version="1.0" encoding="UTF-8"?>
<svg xmlns="http://www.w3.org/2000/svg" xmlns:xlink="http://www.w3.org/1999/xlink" width="20px" height="px" viewBox="0 0 19 6" version="1.1">
<g id="surface1">
<path style=" stroke:none;fill-rule:nonzero;fill:rgb(0%,0%,0%);fill-opacity:1;" d="M 0 0 L 19 0 L 19 6 L 0 6 Z M 18.941406 0.785156 C 18.941406 0.378906 18.628906 0.0546875 18.246094 0.0546875 L 0.746094 0.0546875 C 0.363281 0.0546875 0.0507812 0.378906 0.0507812 0.785156 L 0.0507812 5.214844 C 0.0507812 5.621094 0.363281 5.945312 0.746094 5.945312 L 18.246094 5.945312 C 18.628906 5.945312 18.941406 5.621094 18.941406 5.214844 Z M 18.941406 0.785156 "/>
<path style=" stroke:none;fill-rule:nonzero;fill:rgb(66.27451%,66.27451%,66.27451%);fill-opacity:1;" d="M 18.941406 5.214844 C 18.941406 5.621094 18.628906 5.945312 18.246094 5.945312 L 0.746094 5.945312 C 0.363281 5.945312 0.0507812 5.621094 0.0507812 5.214844 L 0.0507812 0.785156 C 0.0507812 0.378906 0.363281 0.0546875 0.746094 0.0546875 L 18.246094 0.0546875 C 18.628906 0.0546875 18.941406 0.378906 18.941406 0.785156 Z M 18.820312 0.808594 C 18.820312 0.460938 18.550781 0.175781 18.21875 0.175781 L 0.773438 0.175781 C 0.441406 0.175781 0.171875 0.460938 0.171875 0.808594 L 0.171875 5.191406 C 0.171875 5.539062 0.441406 5.824219 0.773438 5.824219 L 18.21875 5.824219 C 18.550781 5.824219 18.820312 5.539062 18.820312 5.191406 Z M 18.820312 0.808594 "/>
<path style=" stroke:none;fill-rule:nonzero;fill:rgb(0%,0%,0%);fill-opacity:1;" d="M 18.820312 5.191406 C 18.820312 5.539062 18.550781 5.824219 18.21875 5.824219 L 0.773438 5.824219 C 0.441406 5.824219 0.171875 5.539062 0.171875 5.191406 L 0.171875 0.808594 C 0.171875 0.460938 0.441406 0.175781 0.773438 0.175781 L 18.21875 0.175781 C 18.550781 0.175781 18.820312 0.460938 18.820312 0.808594 Z M 6.574219 1.640625 C 6.554688 1.746094 6.5 1.820312 6.410156 1.855469 C 6.085938 1.980469 5.8125 1.5625 6.082031 1.289062 C 6.203125 1.164062 6.34375 1.164062 6.507812 1.289062 C 6.519531 1.296875 6.53125 1.292969 6.539062 1.285156 L 6.605469 1.222656 C 6.613281 1.214844 6.613281 1.207031 6.605469 1.199219 C 6.507812 1.09375 6.386719 1.046875 6.242188 1.058594 C 5.664062 1.117188 5.742188 2.042969 6.292969 2.011719 C 6.589844 1.996094 6.726562 1.828125 6.710938 1.503906 C 6.710938 1.496094 6.703125 1.488281 6.695312 1.488281 L 6.304688 1.488281 C 6.289062 1.488281 6.28125 1.496094 6.28125 1.515625 L 6.277344 1.597656 C 6.277344 1.613281 6.285156 1.621094 6.300781 1.621094 L 6.558594 1.621094 C 6.570312 1.621094 6.574219 1.628906 6.574219 1.640625 Z M 10.066406 2.011719 C 10.3125 2 10.503906 1.773438 10.492188 1.507812 C 10.476562 1.246094 10.265625 1.042969 10.019531 1.054688 C 9.773438 1.070312 9.582031 1.292969 9.597656 1.558594 C 9.609375 1.824219 9.820312 2.027344 10.066406 2.011719 Z M 9.050781 1.25 C 9.050781 1.242188 9.054688 1.234375 9.058594 1.226562 C 9.0625 1.222656 9.070312 1.21875 9.078125 1.21875 L 9.257812 1.226562 C 9.265625 1.226562 9.273438 1.222656 9.277344 1.21875 C 9.285156 1.210938 9.285156 1.203125 9.285156 1.195312 L 9.289062 1.101562 C 9.289062 1.09375 9.285156 1.085938 9.277344 1.078125 C 9.273438 1.074219 9.265625 1.070312 9.257812 1.070312 L 8.699219 1.078125 C 8.683594 1.078125 8.671875 1.089844 8.667969 1.105469 L 8.667969 1.1875 C 8.667969 1.203125 8.683594 1.21875 8.699219 1.21875 L 8.878906 1.222656 C 8.894531 1.222656 8.90625 1.234375 8.90625 1.25 L 8.914062 1.953125 C 8.914062 1.972656 8.925781 1.984375 8.941406 1.984375 L 9.015625 1.984375 C 9.035156 1.984375 9.046875 1.972656 9.046875 1.957031 Z M 6.949219 1.621094 C 6.949219 1.609375 6.957031 1.597656 6.972656 1.597656 L 7.285156 1.597656 C 7.292969 1.597656 7.296875 1.59375 7.304688 1.585938 C 7.308594 1.582031 7.308594 1.574219 7.308594 1.566406 L 7.300781 1.488281 C 7.296875 1.472656 7.289062 1.464844 7.273438 1.464844 L 6.972656 1.464844 C 6.964844 1.464844 6.957031 1.460938 6.953125 1.457031 C 6.949219 1.449219 6.945312 1.445312 6.945312 1.4375 L 6.949219 1.246094 C 6.949219 1.230469 6.960938 1.21875 6.972656 1.21875 L 7.316406 1.222656 C 7.328125 1.222656 7.339844 1.210938 7.339844 1.195312 L 7.34375 1.101562 C 7.34375 1.097656 7.34375 1.089844 7.335938 1.085938 C 7.332031 1.078125 7.328125 1.074219 7.320312 1.074219 L 6.839844 1.078125 C 6.828125 1.078125 6.816406 1.089844 6.816406 1.101562 L 6.820312 1.960938 C 6.820312 1.972656 6.832031 1.984375 6.84375 1.984375 L 7.316406 1.984375 C 7.332031 1.984375 7.34375 1.972656 7.34375 1.960938 L 7.34375 1.878906 C 7.34375 1.871094 7.339844 1.863281 7.335938 1.859375 C 7.332031 1.855469 7.324219 1.851562 7.316406 1.851562 L 6.972656 1.855469 C 6.960938 1.855469 6.949219 1.84375 6.949219 1.828125 Z M 7.808594 1.246094 C 7.808594 1.230469 7.816406 1.222656 7.828125 1.222656 L 8.019531 1.21875 C 8.03125 1.21875 8.039062 1.207031 8.039062 1.195312 L 8.042969 1.097656 C 8.042969 1.09375 8.042969 1.085938 8.039062 1.082031 C 8.03125 1.078125 8.027344 1.074219 8.019531 1.074219 L 7.449219 1.078125 C 7.4375 1.078125 7.425781 1.085938 7.425781 1.101562 L 7.429688 1.195312 C 7.429688 1.207031 7.4375 1.21875 7.449219 1.21875 L 7.644531 1.21875 C 7.65625 1.21875 7.664062 1.230469 7.664062 1.242188 L 7.667969 1.960938 C 7.667969 1.976562 7.679688 1.984375 7.691406 1.984375 L 7.78125 1.984375 C 7.792969 1.984375 7.804688 1.972656 7.804688 1.960938 Z M 8.558594 1.09375 C 8.558594 1.085938 8.550781 1.074219 8.539062 1.074219 L 8.445312 1.078125 C 8.4375 1.078125 8.429688 1.085938 8.429688 1.09375 L 8.429688 1.964844 C 8.429688 1.972656 8.429688 1.976562 8.433594 1.980469 C 8.4375 1.984375 8.441406 1.984375 8.449219 1.984375 L 8.542969 1.984375 C 8.550781 1.984375 8.558594 1.976562 8.558594 1.964844 Z M 10.730469 1.984375 C 10.734375 1.984375 10.742188 1.980469 10.742188 1.972656 L 10.742188 1.335938 C 10.742188 1.332031 10.746094 1.328125 10.75 1.328125 C 10.753906 1.324219 10.761719 1.328125 10.761719 1.332031 L 11.144531 1.980469 C 11.144531 1.984375 11.148438 1.984375 11.152344 1.984375 L 11.269531 1.984375 C 11.277344 1.984375 11.28125 1.980469 11.28125 1.972656 L 11.289062 1.089844 C 11.289062 1.082031 11.28125 1.078125 11.277344 1.078125 L 11.15625 1.078125 C 11.148438 1.078125 11.144531 1.082031 11.144531 1.089844 L 11.152344 1.691406 C 11.152344 1.695312 11.148438 1.703125 11.144531 1.703125 C 11.140625 1.703125 11.132812 1.703125 11.132812 1.699219 L 10.773438 1.085938 C 10.769531 1.082031 10.765625 1.078125 10.761719 1.078125 L 10.621094 1.078125 C 10.613281 1.078125 10.609375 1.085938 10.609375 1.089844 L 10.613281 1.972656 C 10.613281 1.980469 10.621094 1.984375 10.625 1.984375 Z M 1.480469 1.195312 C 1.457031 1.242188 1.445312 1.285156 1.445312 1.332031 C 1.441406 1.90625 1.441406 3.003906 1.445312 4.625 C 1.445312 4.714844 1.46875 4.78125 1.515625 4.824219 C 1.589844 4.90625 1.679688 4.917969 1.789062 4.851562 C 2.480469 4.441406 3.167969 4.03125 3.855469 3.617188 C 4.125 3.46875 4.351562 3.332031 4.535156 3.214844 C 4.714844 3.105469 4.75 2.914062 4.550781 2.792969 C 4.308594 2.644531 4.078125 2.503906 3.851562 2.371094 C 3.222656 1.992188 2.601562 1.621094 1.992188 1.257812 C 1.839844 1.164062 1.625 1 1.480469 1.195312 Z M 7.328125 3.746094 C 7.273438 4.191406 6.777344 4.34375 6.433594 4.15625 C 5.957031 3.898438 5.957031 3.183594 6.433594 2.917969 C 6.679688 2.777344 6.929688 2.8125 7.179688 3.015625 C 7.1875 3.019531 7.195312 3.019531 7.203125 3.011719 L 7.363281 2.84375 C 7.367188 2.839844 7.367188 2.835938 7.367188 2.828125 C 7.367188 2.824219 7.363281 2.820312 7.359375 2.816406 C 7.039062 2.519531 6.609375 2.476562 6.25 2.699219 C 5.644531 3.078125 5.648438 3.949219 6.214844 4.347656 C 6.539062 4.574219 7.019531 4.578125 7.324219 4.300781 C 7.546875 4.09375 7.636719 3.816406 7.589844 3.46875 C 7.585938 3.449219 7.578125 3.441406 7.5625 3.441406 L 6.738281 3.441406 C 6.734375 3.441406 6.730469 3.445312 6.730469 3.449219 L 6.730469 3.714844 C 6.730469 3.71875 6.734375 3.722656 6.738281 3.722656 L 7.308594 3.722656 C 7.324219 3.722656 7.328125 3.730469 7.328125 3.746094 Z M 15.28125 2.640625 C 15.28125 2.632812 15.277344 2.628906 15.273438 2.628906 L 15.015625 2.628906 C 15.007812 2.628906 15.003906 2.632812 15.003906 2.640625 L 15.003906 4.460938 C 15.003906 4.46875 15.007812 4.472656 15.015625 4.472656 L 15.273438 4.472656 C 15.277344 4.472656 15.28125 4.46875 15.28125 4.460938 Z M 11.875 2.648438 C 11.875 2.640625 11.867188 2.628906 11.855469 2.628906 L 11.625 2.628906 C 11.613281 2.628906 11.605469 2.640625 11.605469 2.648438 L 11.605469 4.453125 C 11.605469 4.464844 11.613281 4.472656 11.625 4.472656 L 11.855469 4.472656 C 11.867188 4.472656 11.875 4.464844 11.875 4.453125 Z M 13.957031 3.777344 C 14.132812 3.773438 14.347656 3.796875 14.496094 3.746094 C 15.011719 3.574219 14.988281 2.816406 14.476562 2.65625 C 14.417969 2.636719 14.320312 2.628906 14.191406 2.628906 C 14.019531 2.628906 13.851562 2.628906 13.679688 2.628906 C 13.667969 2.628906 13.664062 2.636719 13.664062 2.648438 L 13.664062 4.445312 C 13.664062 4.464844 13.671875 4.472656 13.6875 4.472656 L 13.914062 4.472656 C 13.929688 4.472656 13.941406 4.460938 13.941406 4.449219 L 13.941406 3.792969 C 13.941406 3.78125 13.945312 3.777344 13.957031 3.777344 Z M 16.195312 4.375 L 16.183594 4.425781 C 16.179688 4.4375 16.183594 4.449219 16.191406 4.457031 C 16.195312 4.46875 16.207031 4.472656 16.21875 4.472656 L 16.429688 4.472656 C 16.445312 4.472656 16.449219 4.46875 16.449219 4.453125 C 16.449219 4.207031 16.445312 3.960938 16.441406 3.714844 C 16.429688 3.1875 15.667969 3.085938 15.453125 3.511719 C 15.445312 3.527344 15.449219 3.539062 15.464844 3.546875 L 15.660156 3.636719 C 15.675781 3.644531 15.691406 3.636719 15.699219 3.621094 C 15.722656 3.566406 15.773438 3.53125 15.851562 3.515625 C 16.003906 3.484375 16.113281 3.539062 16.179688 3.671875 C 16.214844 3.742188 16.199219 3.761719 16.128906 3.726562 C 15.886719 3.605469 15.441406 3.722656 15.414062 4.066406 C 15.398438 4.285156 15.535156 4.441406 15.730469 4.496094 C 15.894531 4.539062 16.042969 4.496094 16.175781 4.363281 C 16.191406 4.347656 16.199219 4.351562 16.195312 4.375 Z M 8.886719 3.882812 C 8.886719 3.53125 8.617188 3.25 8.285156 3.25 C 7.949219 3.25 7.679688 3.53125 7.679688 3.882812 C 7.679688 4.234375 7.949219 4.515625 8.285156 4.515625 C 8.617188 4.515625 8.886719 4.234375 8.886719 3.882812 Z M 10.191406 3.882812 C 10.191406 3.53125 9.917969 3.25 9.585938 3.25 C 9.253906 3.25 8.984375 3.53125 8.984375 3.882812 C 8.984375 4.234375 9.253906 4.519531 9.585938 4.519531 C 9.917969 4.519531 10.191406 4.234375 10.191406 3.882812 Z M 11.15625 3.363281 C 11.003906 3.238281 10.839844 3.21875 10.65625 3.296875 C 10.015625 3.585938 10.277344 4.636719 10.980469 4.496094 C 11.039062 4.484375 11.109375 4.445312 11.148438 4.402344 C 11.167969 4.378906 11.179688 4.382812 11.179688 4.417969 C 11.1875 4.648438 11.101562 4.777344 10.925781 4.8125 C 10.78125 4.839844 10.648438 4.757812 10.585938 4.625 C 10.578125 4.605469 10.558594 4.597656 10.542969 4.605469 L 10.363281 4.683594 C 10.339844 4.691406 10.335938 4.707031 10.34375 4.730469 C 10.554688 5.183594 11.21875 5.207031 11.390625 4.71875 C 11.421875 4.625 11.4375 4.464844 11.4375 4.238281 C 11.4375 3.929688 11.4375 3.621094 11.441406 3.316406 C 11.441406 3.296875 11.429688 3.289062 11.414062 3.289062 L 11.199219 3.292969 C 11.1875 3.292969 11.179688 3.300781 11.179688 3.3125 L 11.175781 3.355469 C 11.175781 3.371094 11.167969 3.375 11.15625 3.363281 Z M 12.351562 4.058594 L 13.082031 3.742188 C 13.09375 3.734375 13.101562 3.71875 13.097656 3.707031 C 13.03125 3.476562 12.859375 3.292969 12.628906 3.253906 C 12.507812 3.234375 12.394531 3.257812 12.289062 3.320312 C 11.894531 3.566406 11.902344 4.207031 12.285156 4.425781 C 12.558594 4.582031 12.875 4.527344 13.070312 4.269531 C 13.089844 4.242188 13.085938 4.222656 13.058594 4.203125 L 12.921875 4.105469 C 12.898438 4.089844 12.875 4.09375 12.855469 4.117188 C 12.71875 4.304688 12.5 4.292969 12.339844 4.140625 C 12.304688 4.105469 12.308594 4.078125 12.351562 4.058594 Z M 17.070312 4.0625 C 17.070312 4.066406 17.066406 4.066406 17.0625 4.066406 C 17.058594 4.066406 17.054688 4.066406 17.050781 4.0625 L 16.753906 3.296875 C 16.75 3.292969 16.746094 3.289062 16.742188 3.289062 L 16.472656 3.292969 C 16.46875 3.292969 16.464844 3.292969 16.464844 3.296875 C 16.460938 3.300781 16.460938 3.304688 16.464844 3.308594 L 16.921875 4.402344 C 16.921875 4.402344 16.921875 4.40625 16.921875 4.410156 L 16.664062 5.015625 C 16.660156 5.019531 16.660156 5.023438 16.664062 5.027344 C 16.664062 5.027344 16.667969 5.03125 16.671875 5.03125 L 16.9375 5.03125 C 16.941406 5.03125 16.945312 5.027344 16.945312 5.023438 L 17.652344 3.304688 C 17.65625 3.304688 17.65625 3.300781 17.652344 3.296875 C 17.652344 3.292969 17.648438 3.292969 17.644531 3.292969 L 17.367188 3.289062 C 17.363281 3.289062 17.359375 3.292969 17.355469 3.296875 Z M 17.070312 4.0625 "/>
<path style=" stroke:none;fill-rule:nonzero;fill:rgb(100%,100%,100%);fill-opacity:1;" d="M 6.558594 1.621094 L 6.300781 1.621094 C 6.285156 1.621094 6.277344 1.613281 6.277344 1.597656 L 6.28125 1.515625 C 6.28125 1.496094 6.289062 1.488281 6.304688 1.488281 L 6.695312 1.488281 C 6.703125 1.488281 6.710938 1.496094 6.710938 1.503906 C 6.726562 1.828125 6.589844 1.996094 6.292969 2.011719 C 5.742188 2.042969 5.664062 1.117188 6.242188 1.058594 C 6.386719 1.046875 6.507812 1.09375 6.605469 1.199219 C 6.613281 1.207031 6.613281 1.214844 6.605469 1.222656 L 6.539062 1.285156 C 6.53125 1.292969 6.519531 1.296875 6.507812 1.289062 C 6.34375 1.164062 6.203125 1.164062 6.082031 1.289062 C 5.8125 1.5625 6.085938 1.980469 6.410156 1.855469 C 6.5 1.820312 6.554688 1.746094 6.574219 1.640625 C 6.574219 1.628906 6.570312 1.621094 6.558594 1.621094 Z M 10.066406 2.011719 C 9.820312 2.027344 9.609375 1.824219 9.597656 1.558594 C 9.582031 1.292969 9.773438 1.070312 10.019531 1.054688 C 10.265625 1.042969 10.476562 1.246094 10.492188 1.507812 C 10.503906 1.773438 10.3125 2 10.066406 2.011719 Z M 10.023438 1.875 C 10.191406 1.886719 10.339844 1.742188 10.351562 1.554688 C 10.363281 1.367188 10.234375 1.207031 10.066406 1.195312 C 9.894531 1.183594 9.746094 1.324219 9.734375 1.511719 C 9.722656 1.699219 9.851562 1.863281 10.023438 1.875 Z M 10.023438 1.875 "/>
<path style=" stroke:none;fill-rule:nonzero;fill:rgb(100%,100%,100%);fill-opacity:1;" d="M 9.050781 1.25 L 9.046875 1.957031 C 9.046875 1.972656 9.035156 1.984375 9.015625 1.984375 L 8.941406 1.984375 C 8.925781 1.984375 8.914062 1.972656 8.914062 1.953125 L 8.90625 1.25 C 8.90625 1.234375 8.894531 1.222656 8.878906 1.222656 L 8.699219 1.21875 C 8.683594 1.21875 8.667969 1.203125 8.667969 1.1875 L 8.667969 1.105469 C 8.671875 1.089844 8.683594 1.078125 8.699219 1.078125 L 9.257812 1.070312 C 9.265625 1.070312 9.273438 1.074219 9.277344 1.078125 C 9.285156 1.085938 9.289062 1.09375 9.289062 1.101562 L 9.285156 1.195312 C 9.285156 1.203125 9.285156 1.210938 9.277344 1.21875 C 9.273438 1.222656 9.265625 1.226562 9.257812 1.226562 L 9.078125 1.21875 C 9.070312 1.21875 9.0625 1.222656 9.058594 1.226562 C 9.054688 1.234375 9.050781 1.242188 9.050781 1.25 Z M 6.949219 1.621094 L 6.949219 1.828125 C 6.949219 1.84375 6.960938 1.855469 6.972656 1.855469 L 7.316406 1.851562 C 7.324219 1.851562 7.332031 1.855469 7.335938 1.859375 C 7.339844 1.863281 7.34375 1.871094 7.34375 1.878906 L 7.34375 1.960938 C 7.34375 1.972656 7.332031 1.984375 7.316406 1.984375 L 6.84375 1.984375 C 6.832031 1.984375 6.820312 1.972656 6.820312 1.960938 L 6.816406 1.101562 C 6.816406 1.089844 6.828125 1.078125 6.839844 1.078125 L 7.320312 1.074219 C 7.328125 1.074219 7.332031 1.078125 7.335938 1.085938 C 7.34375 1.089844 7.34375 1.097656 7.34375 1.101562 L 7.339844 1.195312 C 7.339844 1.210938 7.328125 1.222656 7.316406 1.222656 L 6.972656 1.21875 C 6.960938 1.21875 6.949219 1.230469 6.949219 1.246094 L 6.945312 1.4375 C 6.945312 1.445312 6.949219 1.449219 6.953125 1.457031 C 6.957031 1.460938 6.964844 1.464844 6.972656 1.464844 L 7.273438 1.464844 C 7.289062 1.464844 7.296875 1.472656 7.300781 1.488281 L 7.308594 1.566406 C 7.308594 1.574219 7.308594 1.582031 7.304688 1.585938 C 7.296875 1.59375 7.292969 1.597656 7.285156 1.597656 L 6.972656 1.597656 C 6.957031 1.597656 6.949219 1.609375 6.949219 1.621094 Z M 7.808594 1.246094 L 7.804688 1.960938 C 7.804688 1.972656 7.792969 1.984375 7.78125 1.984375 L 7.691406 1.984375 C 7.679688 1.984375 7.667969 1.976562 7.667969 1.960938 L 7.664062 1.242188 C 7.664062 1.230469 7.65625 1.21875 7.644531 1.21875 L 7.449219 1.21875 C 7.4375 1.21875 7.429688 1.207031 7.429688 1.195312 L 7.425781 1.101562 C 7.425781 1.085938 7.4375 1.078125 7.449219 1.078125 L 8.019531 1.074219 C 8.027344 1.074219 8.03125 1.078125 8.039062 1.082031 C 8.042969 1.085938 8.042969 1.09375 8.042969 1.097656 L 8.039062 1.195312 C 8.039062 1.207031 8.03125 1.21875 8.019531 1.21875 L 7.828125 1.222656 C 7.816406 1.222656 7.808594 1.230469 7.808594 1.246094 Z M 7.808594 1.246094 "/>
<path style=" stroke:none;fill-rule:nonzero;fill:rgb(100%,100%,100%);fill-opacity:1;" d="M 8.445312 1.078125 L 8.539062 1.074219 C 8.550781 1.074219 8.558594 1.085938 8.558594 1.09375 L 8.558594 1.964844 C 8.558594 1.976562 8.550781 1.984375 8.542969 1.984375 L 8.449219 1.984375 C 8.4375 1.984375 8.429688 1.976562 8.429688 1.964844 L 8.429688 1.09375 C 8.429688 1.085938 8.4375 1.078125 8.445312 1.078125 Z M 8.445312 1.078125 "/>
<path style=" stroke:none;fill-rule:nonzero;fill:rgb(100%,100%,100%);fill-opacity:1;" d="M 10.730469 1.984375 L 10.625 1.984375 C 10.621094 1.984375 10.613281 1.980469 10.613281 1.972656 L 10.609375 1.089844 C 10.609375 1.085938 10.613281 1.078125 10.621094 1.078125 L 10.761719 1.078125 C 10.765625 1.078125 10.769531 1.082031 10.773438 1.085938 L 11.132812 1.699219 C 11.132812 1.703125 11.140625 1.703125 11.144531 1.703125 C 11.148438 1.703125 11.152344 1.695312 11.152344 1.691406 L 11.144531 1.089844 C 11.144531 1.082031 11.148438 1.078125 11.15625 1.078125 L 11.277344 1.078125 C 11.28125 1.078125 11.289062 1.082031 11.289062 1.089844 L 11.28125 1.972656 C 11.28125 1.980469 11.277344 1.984375 11.269531 1.984375 L 11.152344 1.984375 C 11.148438 1.984375 11.144531 1.984375 11.144531 1.980469 L 10.761719 1.332031 C 10.761719 1.328125 10.753906 1.324219 10.75 1.328125 C 10.746094 1.328125 10.742188 1.332031 10.742188 1.335938 L 10.742188 1.972656 C 10.742188 1.980469 10.734375 1.984375 10.730469 1.984375 Z M 10.730469 1.984375 "/>
<path style=" stroke:none;fill-rule:nonzero;fill:rgb(0.392157%,93.72549%,46.666667%);fill-opacity:1;" d="M 3.851562 2.371094 C 3.710938 2.523438 3.578125 2.675781 3.449219 2.832031 C 3.394531 2.894531 3.328125 2.949219 3.265625 3 C 3.269531 3.003906 3.265625 3.003906 3.25 3.007812 C 3.195312 2.953125 3.140625 2.898438 3.09375 2.835938 C 3.03125 2.757812 2.980469 2.699219 2.941406 2.660156 C 2.652344 2.371094 2.367188 2.074219 2.089844 1.773438 C 2.078125 1.761719 2.011719 1.695312 1.886719 1.582031 C 1.78125 1.484375 1.699219 1.367188 1.628906 1.234375 C 1.625 1.222656 1.617188 1.21875 1.605469 1.214844 L 1.480469 1.195312 C 1.625 1 1.839844 1.164062 1.992188 1.257812 C 2.601562 1.621094 3.222656 1.992188 3.851562 2.371094 Z M 3.851562 2.371094 "/>
<path style=" stroke:none;fill-rule:nonzero;fill:rgb(0%,82.745098%,100%);fill-opacity:1;" d="M 1.480469 1.195312 L 1.605469 1.214844 C 1.617188 1.21875 1.625 1.222656 1.628906 1.234375 C 1.699219 1.367188 1.78125 1.484375 1.886719 1.582031 C 2.011719 1.695312 2.078125 1.761719 2.089844 1.773438 C 2.367188 2.074219 2.652344 2.371094 2.941406 2.660156 C 2.980469 2.699219 3.03125 2.757812 3.09375 2.835938 C 3.140625 2.898438 3.195312 2.953125 3.25 3.007812 L 1.515625 4.824219 C 1.46875 4.78125 1.445312 4.714844 1.445312 4.625 C 1.441406 3.003906 1.441406 1.90625 1.445312 1.332031 C 1.445312 1.285156 1.457031 1.242188 1.480469 1.195312 Z M 1.480469 1.195312 "/>
<path style=" stroke:none;fill-rule:nonzero;fill:rgb(0%,0%,0%);fill-opacity:1;" d="M 10.023438 1.875 C 10.191406 1.886719 10.339844 1.742188 10.351562 1.554688 C 10.363281 1.367188 10.234375 1.207031 10.066406 1.195312 C 9.894531 1.183594 9.746094 1.324219 9.734375 1.511719 C 9.722656 1.699219 9.851562 1.863281 10.023438 1.875 Z M 10.023438 1.875 "/>
<path style=" stroke:none;fill-rule:nonzero;fill:rgb(99.215686%,80%,0.784314%);fill-opacity:1;" d="M 3.851562 2.371094 C 4.078125 2.503906 4.308594 2.644531 4.550781 2.792969 C 4.75 2.914062 4.714844 3.105469 4.535156 3.214844 C 4.351562 3.332031 4.125 3.46875 3.855469 3.617188 L 3.265625 3 C 3.328125 2.949219 3.394531 2.894531 3.449219 2.832031 C 3.578125 2.675781 3.710938 2.523438 3.851562 2.371094 Z M 3.851562 2.371094 "/>
<path style=" stroke:none;fill-rule:nonzero;fill:rgb(100%,100%,100%);fill-opacity:1;" d="M 7.308594 3.722656 L 6.738281 3.722656 C 6.734375 3.722656 6.730469 3.71875 6.730469 3.714844 L 6.730469 3.449219 C 6.730469 3.445312 6.734375 3.441406 6.738281 3.441406 L 7.5625 3.441406 C 7.578125 3.441406 7.585938 3.449219 7.589844 3.46875 C 7.636719 3.816406 7.546875 4.09375 7.324219 4.300781 C 7.019531 4.578125 6.539062 4.574219 6.214844 4.347656 C 5.648438 3.949219 5.644531 3.078125 6.25 2.699219 C 6.609375 2.476562 7.039062 2.519531 7.359375 2.816406 C 7.363281 2.820312 7.367188 2.824219 7.367188 2.828125 C 7.367188 2.835938 7.367188 2.839844 7.363281 2.84375 L 7.203125 3.011719 C 7.195312 3.019531 7.1875 3.019531 7.179688 3.015625 C 6.929688 2.8125 6.679688 2.777344 6.433594 2.917969 C 5.957031 3.183594 5.957031 3.898438 6.433594 4.15625 C 6.777344 4.34375 7.273438 4.191406 7.328125 3.746094 C 7.328125 3.730469 7.324219 3.722656 7.308594 3.722656 Z M 7.308594 3.722656 "/>
<path style=" stroke:none;fill-rule:nonzero;fill:rgb(100%,100%,100%);fill-opacity:1;" d="M 15.015625 2.628906 L 15.273438 2.628906 C 15.277344 2.628906 15.28125 2.632812 15.28125 2.640625 L 15.28125 4.460938 C 15.28125 4.46875 15.277344 4.472656 15.273438 4.472656 L 15.015625 4.472656 C 15.007812 4.472656 15.003906 4.46875 15.003906 4.460938 L 15.003906 2.640625 C 15.003906 2.632812 15.007812 2.628906 15.015625 2.628906 Z M 15.015625 2.628906 "/>
<path style=" stroke:none;fill-rule:nonzero;fill:rgb(100%,100%,100%);fill-opacity:1;" d="M 11.625 2.628906 L 11.855469 2.628906 C 11.867188 2.628906 11.875 2.640625 11.875 2.648438 L 11.875 4.453125 C 11.875 4.464844 11.867188 4.472656 11.855469 4.472656 L 11.625 4.472656 C 11.613281 4.472656 11.605469 4.464844 11.605469 4.453125 L 11.605469 2.648438 C 11.605469 2.640625 11.613281 2.628906 11.625 2.628906 Z M 11.625 2.628906 "/>
<path style=" stroke:none;fill-rule:nonzero;fill:rgb(100%,100%,100%);fill-opacity:1;" d="M 13.941406 3.792969 L 13.941406 4.449219 C 13.941406 4.460938 13.929688 4.472656 13.914062 4.472656 L 13.6875 4.472656 C 13.671875 4.472656 13.664062 4.464844 13.664062 4.445312 L 13.664062 2.648438 C 13.664062 2.636719 13.667969 2.628906 13.679688 2.628906 C 13.851562 2.628906 14.019531 2.628906 14.191406 2.628906 C 14.320312 2.628906 14.417969 2.636719 14.476562 2.65625 C 14.988281 2.816406 15.011719 3.574219 14.496094 3.746094 C 14.347656 3.796875 14.132812 3.773438 13.957031 3.777344 C 13.945312 3.777344 13.941406 3.78125 13.941406 3.792969 Z M 13.9375 2.90625 L 13.941406 3.5 C 13.941406 3.503906 13.941406 3.507812 13.945312 3.511719 C 13.945312 3.511719 13.949219 3.515625 13.953125 3.515625 L 14.300781 3.511719 C 14.46875 3.511719 14.601562 3.371094 14.601562 3.203125 L 14.601562 3.199219 C 14.597656 3.027344 14.464844 2.890625 14.296875 2.894531 L 13.949219 2.894531 C 13.945312 2.894531 13.9375 2.902344 13.9375 2.90625 Z M 13.9375 2.90625 "/>
<path style=" stroke:none;fill-rule:nonzero;fill:rgb(0%,0%,0%);fill-opacity:1;" d="M 13.9375 2.90625 C 13.9375 2.902344 13.945312 2.894531 13.949219 2.894531 L 14.296875 2.894531 C 14.464844 2.890625 14.597656 3.027344 14.601562 3.199219 L 14.601562 3.203125 C 14.601562 3.371094 14.46875 3.511719 14.300781 3.511719 L 13.953125 3.515625 C 13.949219 3.515625 13.945312 3.511719 13.945312 3.511719 C 13.941406 3.507812 13.941406 3.503906 13.941406 3.5 Z M 13.9375 2.90625 "/>
<path style=" stroke:none;fill-rule:nonzero;fill:rgb(96.470588%,20%,30.196078%);fill-opacity:1;" d="M 3.25 3.007812 C 3.265625 3.003906 3.269531 3.003906 3.265625 3 L 3.855469 3.617188 C 3.167969 4.03125 2.480469 4.441406 1.789062 4.851562 C 1.679688 4.917969 1.589844 4.90625 1.515625 4.824219 Z M 3.25 3.007812 "/>
<path style=" stroke:none;fill-rule:nonzero;fill:rgb(100%,100%,100%);fill-opacity:1;" d="M 16.175781 4.363281 C 16.042969 4.496094 15.894531 4.539062 15.730469 4.496094 C 15.535156 4.441406 15.398438 4.285156 15.414062 4.066406 C 15.441406 3.722656 15.886719 3.605469 16.128906 3.726562 C 16.199219 3.761719 16.214844 3.742188 16.179688 3.671875 C 16.113281 3.539062 16.003906 3.484375 15.851562 3.515625 C 15.773438 3.53125 15.722656 3.566406 15.699219 3.621094 C 15.691406 3.636719 15.675781 3.644531 15.660156 3.636719 L 15.464844 3.546875 C 15.449219 3.539062 15.445312 3.527344 15.453125 3.511719 C 15.667969 3.085938 16.429688 3.1875 16.441406 3.714844 C 16.445312 3.960938 16.449219 4.207031 16.449219 4.453125 C 16.449219 4.46875 16.445312 4.472656 16.429688 4.472656 L 16.21875 4.472656 C 16.207031 4.472656 16.195312 4.46875 16.191406 4.457031 C 16.183594 4.449219 16.179688 4.4375 16.183594 4.425781 L 16.195312 4.375 C 16.199219 4.351562 16.191406 4.347656 16.175781 4.363281 Z M 15.804688 4.242188 C 15.976562 4.292969 16.089844 4.195312 16.179688 4.042969 C 16.1875 4.027344 16.191406 4.011719 16.1875 3.996094 C 16.183594 3.980469 16.171875 3.96875 16.160156 3.960938 C 16.046875 3.902344 15.8125 3.882812 15.71875 4.003906 C 15.640625 4.105469 15.699219 4.210938 15.804688 4.242188 Z M 8.886719 3.882812 C 8.886719 4.234375 8.617188 4.515625 8.285156 4.515625 C 7.949219 4.515625 7.679688 4.234375 7.679688 3.882812 C 7.679688 3.53125 7.949219 3.25 8.285156 3.25 C 8.617188 3.25 8.886719 3.53125 8.886719 3.882812 Z M 8.289062 4.253906 C 8.472656 4.253906 8.617188 4.085938 8.617188 3.878906 C 8.613281 3.671875 8.464844 3.507812 8.28125 3.507812 C 8.097656 3.511719 7.949219 3.679688 7.953125 3.886719 C 7.957031 4.09375 8.105469 4.257812 8.289062 4.253906 Z M 10.191406 3.882812 C 10.191406 4.234375 9.917969 4.519531 9.585938 4.519531 C 9.253906 4.519531 8.984375 4.234375 8.984375 3.882812 C 8.984375 3.53125 9.253906 3.25 9.585938 3.25 C 9.917969 3.25 10.191406 3.53125 10.191406 3.882812 Z M 9.574219 4.257812 C 9.757812 4.261719 9.910156 4.101562 9.917969 3.894531 C 9.925781 3.6875 9.78125 3.515625 9.597656 3.507812 C 9.414062 3.503906 9.261719 3.664062 9.257812 3.871094 C 9.25 4.078125 9.394531 4.25 9.574219 4.257812 Z M 9.574219 4.257812 "/>
<path style=" stroke:none;fill-rule:nonzero;fill:rgb(100%,100%,100%);fill-opacity:1;" d="M 11.175781 3.355469 L 11.179688 3.3125 C 11.179688 3.300781 11.1875 3.292969 11.199219 3.292969 L 11.414062 3.289062 C 11.429688 3.289062 11.441406 3.296875 11.441406 3.316406 C 11.4375 3.621094 11.4375 3.929688 11.4375 4.238281 C 11.4375 4.464844 11.421875 4.625 11.390625 4.71875 C 11.21875 5.207031 10.554688 5.183594 10.34375 4.730469 C 10.335938 4.707031 10.339844 4.691406 10.363281 4.683594 L 10.542969 4.605469 C 10.558594 4.597656 10.578125 4.605469 10.585938 4.625 C 10.648438 4.757812 10.78125 4.839844 10.925781 4.8125 C 11.101562 4.777344 11.1875 4.648438 11.179688 4.417969 C 11.179688 4.382812 11.167969 4.378906 11.148438 4.402344 C 11.109375 4.445312 11.039062 4.484375 10.980469 4.496094 C 10.277344 4.636719 10.015625 3.585938 10.65625 3.296875 C 10.839844 3.21875 11.003906 3.238281 11.15625 3.363281 C 11.167969 3.375 11.175781 3.371094 11.175781 3.355469 Z M 10.878906 4.257812 C 11.058594 4.257812 11.199219 4.089844 11.199219 3.882812 C 11.199219 3.675781 11.058594 3.507812 10.878906 3.507812 C 10.703125 3.507812 10.5625 3.675781 10.5625 3.882812 C 10.5625 4.089844 10.703125 4.257812 10.878906 4.257812 Z M 12.351562 4.058594 C 12.308594 4.078125 12.304688 4.105469 12.339844 4.140625 C 12.5 4.292969 12.71875 4.304688 12.855469 4.117188 C 12.875 4.09375 12.898438 4.089844 12.921875 4.105469 L 13.058594 4.203125 C 13.085938 4.222656 13.089844 4.242188 13.070312 4.269531 C 12.875 4.527344 12.558594 4.582031 12.285156 4.425781 C 11.902344 4.207031 11.894531 3.566406 12.289062 3.320312 C 12.394531 3.257812 12.507812 3.234375 12.628906 3.253906 C 12.859375 3.292969 13.03125 3.476562 13.097656 3.707031 C 13.101562 3.71875 13.09375 3.734375 13.082031 3.742188 Z M 12.285156 3.847656 L 12.730469 3.652344 C 12.792969 3.625 12.796875 3.59375 12.734375 3.5625 L 12.667969 3.527344 C 12.605469 3.492188 12.539062 3.492188 12.476562 3.523438 C 12.347656 3.585938 12.28125 3.6875 12.265625 3.832031 C 12.261719 3.847656 12.269531 3.855469 12.285156 3.847656 Z M 17.070312 4.0625 L 17.355469 3.296875 C 17.359375 3.292969 17.363281 3.289062 17.367188 3.289062 L 17.644531 3.292969 C 17.648438 3.292969 17.652344 3.292969 17.652344 3.296875 C 17.65625 3.300781 17.65625 3.304688 17.652344 3.304688 L 16.945312 5.023438 C 16.945312 5.027344 16.941406 5.03125 16.9375 5.03125 L 16.671875 5.03125 C 16.667969 5.03125 16.664062 5.027344 16.664062 5.027344 C 16.660156 5.023438 16.660156 5.019531 16.664062 5.015625 L 16.921875 4.410156 C 16.921875 4.40625 16.921875 4.402344 16.921875 4.402344 L 16.464844 3.308594 C 16.460938 3.304688 16.460938 3.300781 16.464844 3.296875 C 16.464844 3.292969 16.46875 3.292969 16.472656 3.292969 L 16.742188 3.289062 C 16.746094 3.289062 16.75 3.292969 16.753906 3.296875 L 17.050781 4.0625 C 17.054688 4.066406 17.058594 4.066406 17.0625 4.066406 C 17.066406 4.066406 17.070312 4.066406 17.070312 4.0625 Z M 17.070312 4.0625 "/>
<path style=" stroke:none;fill-rule:nonzero;fill:rgb(0%,0%,0%);fill-opacity:1;" d="M 8.289062 4.253906 C 8.472656 4.253906 8.617188 4.085938 8.617188 3.878906 C 8.613281 3.671875 8.464844 3.507812 8.28125 3.507812 C 8.097656 3.511719 7.949219 3.679688 7.953125 3.886719 C 7.957031 4.09375 8.105469 4.257812 8.289062 4.253906 Z M 8.289062 4.253906 "/>
<path style=" stroke:none;fill-rule:nonzero;fill:rgb(0%,0%,0%);fill-opacity:1;" d="M 9.574219 4.257812 C 9.757812 4.261719 9.910156 4.101562 9.917969 3.894531 C 9.925781 3.6875 9.78125 3.515625 9.597656 3.507812 C 9.414062 3.503906 9.261719 3.664062 9.257812 3.871094 C 9.25 4.078125 9.394531 4.25 9.574219 4.257812 Z M 9.574219 4.257812 "/>
<path style=" stroke:none;fill-rule:nonzero;fill:rgb(0%,0%,0%);fill-opacity:1;" d="M 10.878906 4.257812 C 11.058594 4.257812 11.199219 4.089844 11.199219 3.882812 C 11.199219 3.675781 11.058594 3.507812 10.878906 3.507812 C 10.703125 3.507812 10.5625 3.675781 10.5625 3.882812 C 10.5625 4.089844 10.703125 4.257812 10.878906 4.257812 Z M 10.878906 4.257812 "/>
<path style=" stroke:none;fill-rule:nonzero;fill:rgb(0%,0%,0%);fill-opacity:1;" d="M 12.730469 3.652344 L 12.285156 3.847656 C 12.269531 3.855469 12.261719 3.847656 12.265625 3.832031 C 12.28125 3.6875 12.347656 3.585938 12.476562 3.523438 C 12.539062 3.492188 12.605469 3.492188 12.667969 3.527344 L 12.734375 3.5625 C 12.796875 3.59375 12.792969 3.625 12.730469 3.652344 Z M 16.179688 4.042969 C 16.089844 4.195312 15.976562 4.292969 15.804688 4.242188 C 15.699219 4.210938 15.640625 4.105469 15.71875 4.003906 C 15.8125 3.882812 16.046875 3.902344 16.160156 3.960938 C 16.171875 3.96875 16.183594 3.980469 16.1875 3.996094 C 16.191406 4.011719 16.1875 4.027344 16.179688 4.042969 Z M 16.179688 4.042969 "/>
</g>
</svg>
