<?xml version="1.0" encoding="UTF-8"?>
<svg xmlns="http://www.w3.org/2000/svg" xmlns:xlink="http://www.w3.org/1999/xlink" width="20px" height="px" viewBox="0 0 20 20" version="1.1">
<g id="surface1">
<path style=" stroke:none;fill-rule:nonzero;fill:rgb(0%,0%,0%);fill-opacity:1;" d="M 10.585938 6.296875 C 10.535156 6.296875 10.488281 6.484375 10.394531 6.578125 C 10.300781 6.675781 10.234375 6.644531 10.191406 6.726562 C 10.144531 6.804688 10.191406 6.808594 10.160156 6.863281 C 10.128906 6.921875 10 7 10 7.085938 C 10 7.171875 10.113281 7.230469 10.210938 7.316406 C 10.304688 7.398438 10.296875 7.433594 10.390625 7.46875 C 10.484375 7.503906 10.589844 7.40625 10.695312 7.441406 C 10.800781 7.476562 10.863281 7.484375 10.886719 7.574219 C 10.90625 7.664062 10.886719 7.785156 10.78125 7.769531 C 10.65625 7.738281 10.523438 7.726562 10.394531 7.734375 C 10.164062 7.734375 9.894531 7.835938 9.894531 8.089844 C 9.898438 8.171875 9.9375 8.25 10 8.304688 C 10.0625 8.355469 10.148438 8.382812 10.230469 8.371094 C 10.34375 8.371094 10.289062 8.210938 10.355469 8.140625 C 10.421875 8.070312 10.921875 8.445312 11.355469 8.445312 C 11.53125 8.453125 11.703125 8.382812 11.820312 8.25 C 11.820312 8.25 11.851562 8.214844 11.871094 8.214844 C 11.894531 8.21875 11.914062 8.226562 11.933594 8.238281 C 12.402344 8.832031 13.132812 9.160156 13.886719 9.113281 C 14.097656 9.128906 14.300781 9.21875 14.453125 9.363281 C 14.609375 9.535156 14.722656 9.734375 14.785156 9.953125 C 14.953125 10.347656 15.195312 10.703125 15.5 11 L 15.839844 11.265625 L 15.839844 11.351562 C 15.839844 11.570312 15.800781 12.203125 16.273438 12.234375 C 16.390625 12.234375 16.359375 12.160156 16.359375 12.101562 C 16.34375 11.988281 16.359375 11.871094 16.398438 11.765625 C 16.480469 11.609375 16.230469 11.539062 16.234375 11.199219 C 16.234375 10.949219 16.03125 10.988281 15.925781 10.800781 C 15.855469 10.714844 15.8125 10.605469 15.808594 10.496094 C 15.851562 10.015625 15.765625 9.535156 15.554688 9.105469 C 15.480469 9.011719 15.421875 8.976562 15.488281 8.929688 C 15.703125 8.816406 15.875 8.644531 15.988281 8.429688 C 16.125 8.003906 16.347656 7.613281 16.648438 7.285156 C 16.734375 7.21875 16.824219 7.15625 16.921875 7.105469 C 17.078125 7.042969 17.230469 6.957031 17.363281 6.851562 C 17.476562 6.738281 17.566406 6.511719 17.453125 6.375 C 17.34375 6.238281 17.089844 6.339844 16.988281 6.375 C 16.261719 6.804688 16.15625 7.570312 15.898438 8.003906 C 15.738281 8.332031 15.4375 8.566406 15.078125 8.636719 C 14.839844 8.644531 14.601562 8.601562 14.386719 8.5 C 14.03125 8.339844 13.707031 8.128906 13.425781 7.863281 C 13.269531 7.746094 12.078125 6.574219 11.109375 6.523438 C 11.109375 6.523438 10.988281 6.285156 10.960938 6.285156 C 10.929688 6.285156 10.816406 6.425781 10.765625 6.445312 C 10.714844 6.464844 10.636719 6.28125 10.585938 6.285156 M 6.324219 13.296875 C 6.234375 13.289062 6.160156 13.214844 6.15625 13.125 L 6.15625 10.125 L 5.15625 10.125 L 5.15625 13.449219 C 5.15625 13.613281 5.285156 13.746094 5.449219 13.75 L 7.191406 13.75 C 7.269531 13.75 7.34375 13.71875 7.398438 13.660156 C 7.457031 13.605469 7.488281 13.527344 7.484375 13.449219 L 7.484375 10.105469 L 6.5 10.105469 L 6.5 13.105469 C 6.496094 13.195312 6.421875 13.269531 6.328125 13.273438 M 9.65625 10.105469 L 8.15625 10.105469 C 7.976562 10.105469 7.828125 10.25 7.828125 10.429688 L 7.828125 13.730469 L 8.828125 13.730469 L 8.828125 10.703125 C 8.832031 10.613281 8.90625 10.539062 9 10.535156 C 9.09375 10.535156 9.167969 10.609375 9.171875 10.699219 L 9.171875 13.730469 L 10.171875 13.730469 L 10.171875 10.699219 C 10.171875 10.605469 10.246094 10.53125 10.339844 10.53125 C 10.433594 10.53125 10.511719 10.605469 10.511719 10.699219 L 10.511719 13.726562 L 11.511719 13.726562 L 11.511719 10.425781 C 11.511719 10.246094 11.363281 10.101562 11.183594 10.101562 L 9.683594 10.101562 M 4.5 12.820312 L 3.5 12.820312 L 3.5 13.730469 L 2.5 13.730469 L 2.5 10.105469 L 4.5 10.105469 C 4.585938 10.105469 4.667969 10.140625 4.726562 10.199219 C 4.789062 10.261719 4.820312 10.34375 4.820312 10.429688 L 4.820312 12.5 C 4.816406 12.675781 4.675781 12.816406 4.5 12.820312 Z M 3.828125 10.710938 C 3.832031 10.617188 3.757812 10.539062 3.664062 10.535156 L 3.5 10.535156 L 3.5 12.371094 L 3.671875 12.371094 C 3.761719 12.367188 3.835938 12.292969 3.835938 12.199219 L 3.835938 10.699219 "/>
<path style=" stroke:none;fill-rule:nonzero;fill:rgb(0%,0%,0%);fill-opacity:1;" d="M 13.15625 13.730469 L 13.15625 12.820312 L 12.816406 12.820312 L 12.816406 13.730469 L 11.816406 13.730469 L 11.816406 10.429688 C 11.816406 10.25 11.960938 10.105469 12.140625 10.105469 L 13.820312 10.105469 C 13.996094 10.109375 14.140625 10.253906 14.140625 10.429688 L 14.140625 13.730469 Z M 13.15625 12.371094 L 13.15625 10.699219 C 13.148438 10.609375 13.074219 10.539062 12.984375 10.539062 C 12.894531 10.539062 12.816406 10.613281 12.816406 10.703125 L 12.816406 12.371094 L 13.15625 12.371094 "/>
</g>
</svg>
