<?xml version="1.0" encoding="UTF-8"?>
<svg xmlns="http://www.w3.org/2000/svg" xmlns:xlink="http://www.w3.org/1999/xlink" width="20px" height="px" viewBox="0 0 20 20" version="1.1">
<g id="surface1">
<path style=" stroke:none;fill-rule:nonzero;fill:rgb(0%,0%,0%);fill-opacity:1;" d="M 16.253906 12.816406 L 16.25 16.25 C 16.25 16.421875 16.109375 16.5625 15.9375 16.5625 L 0.941406 16.558594 C 0.773438 16.558594 0.632812 16.421875 0.632812 16.253906 L 0.640625 4.601562 C 0.640625 4.359375 0.738281 4.125 0.910156 3.957031 L 3.257812 1.628906 C 3.304688 1.578125 3.375 1.550781 3.445312 1.550781 L 18.316406 1.554688 C 18.554688 1.554688 18.75 1.746094 18.75 1.988281 L 18.75 8.867188 C 18.75 8.996094 18.683594 9.0625 18.554688 9.0625 L 18.320312 9.0625 C 18.210938 9.0625 18.125 8.972656 18.125 8.867188 L 18.117188 3.234375 C 18.117188 2.824219 17.972656 2.765625 17.679688 3.054688 L 16.488281 4.265625 C 16.335938 4.421875 16.25 4.628906 16.25 4.847656 L 16.25 8.195312 C 16.25 8.292969 16.292969 8.363281 16.378906 8.414062 C 21.808594 11.367188 19.273438 19.339844 13.164062 18.710938 C 13.054688 18.699219 12.996094 18.636719 12.992188 18.523438 L 12.992188 18.347656 C 12.992188 18.222656 13.089844 18.121094 13.214844 18.117188 C 15.988281 18.046875 17.792969 15.238281 16.390625 12.777344 C 16.300781 12.617188 16.253906 12.628906 16.253906 12.816406 Z M 7.355469 4.054688 C 7.382812 4.054688 7.40625 4.042969 7.425781 4.023438 L 9.082031 2.355469 C 9.109375 2.328125 9.121094 2.285156 9.105469 2.246094 C 9.089844 2.207031 9.050781 2.183594 9.007812 2.183594 L 3.585938 2.195312 C 3.5625 2.195312 3.539062 2.203125 3.519531 2.222656 L 1.851562 3.894531 C 1.824219 3.921875 1.816406 3.964844 1.828125 4.003906 C 1.84375 4.039062 1.882812 4.066406 1.921875 4.066406 Z M 9.175781 4.136719 L 10.917969 2.398438 C 11.003906 2.3125 10.988281 2.253906 10.871094 2.222656 C 10.457031 2.109375 10.171875 2.148438 9.84375 2.472656 C 9.210938 3.09375 8.585938 3.726562 7.960938 4.363281 C 7.882812 4.441406 7.84375 4.539062 7.839844 4.648438 L 7.796875 6.359375 C 7.792969 6.5 7.863281 6.570312 8.003906 6.570312 L 8.820312 6.558594 C 8.976562 6.558594 9.054688 6.476562 9.054688 6.320312 L 9.066406 4.402344 C 9.066406 4.300781 9.101562 4.210938 9.175781 4.136719 Z M 11.484375 2.726562 C 11.058594 3.074219 10.667969 3.46875 10.3125 3.910156 C 10.226562 4.015625 10.25 4.070312 10.386719 4.070312 L 15.476562 4.039062 C 15.742188 4.039062 15.992188 3.933594 16.175781 3.742188 L 17.40625 2.476562 C 17.527344 2.355469 17.5 2.285156 17.328125 2.273438 C 15.777344 2.125 14.238281 2.117188 12.710938 2.253906 C 12.230469 2.292969 11.824219 2.453125 11.484375 2.726562 Z M 13.410156 6.289062 L 13.445312 7.589844 C 13.449219 7.683594 13.519531 7.757812 13.609375 7.773438 L 15.441406 8.007812 C 15.488281 8.011719 15.535156 7.996094 15.574219 7.964844 C 15.609375 7.933594 15.628906 7.886719 15.628906 7.839844 L 15.632812 4.867188 C 15.632812 4.769531 15.554688 4.691406 15.457031 4.691406 L 9.847656 4.6875 C 9.742188 4.683594 9.691406 4.738281 9.691406 4.839844 L 9.683594 6.957031 C 9.683594 7.082031 9.578125 7.1875 9.449219 7.1875 L 7.425781 7.183594 C 7.300781 7.183594 7.203125 7.085938 7.203125 6.960938 L 7.179688 4.839844 C 7.179688 4.738281 7.128906 4.683594 7.023438 4.683594 L 1.480469 4.691406 C 1.351562 4.691406 1.246094 4.796875 1.246094 4.925781 L 1.253906 15.78125 C 1.253906 15.863281 1.320312 15.929688 1.40625 15.929688 L 15.460938 15.9375 C 15.554688 15.9375 15.601562 15.886719 15.601562 15.789062 L 15.601562 11.957031 C 15.601562 11.867188 15.558594 11.785156 15.492188 11.726562 C 14.9375 11.285156 14.304688 11.027344 13.597656 10.953125 C 13.472656 10.9375 13.410156 10.996094 13.410156 11.121094 L 13.402344 12.554688 C 13.402344 12.65625 13.347656 12.75 13.257812 12.796875 C 13.164062 12.84375 13.058594 12.835938 12.976562 12.773438 L 8.582031 9.632812 C 8.5 9.578125 8.453125 9.484375 8.453125 9.382812 C 8.453125 9.28125 8.5 9.1875 8.582031 9.132812 L 12.917969 6.042969 C 13.011719 5.976562 13.132812 5.964844 13.238281 6.015625 C 13.339844 6.070312 13.40625 6.171875 13.410156 6.289062 Z M 13.023438 10.386719 C 16.867188 10.023438 18.699219 14.417969 16.433594 17.289062 C 16.417969 17.304688 16.414062 17.332031 16.429688 17.351562 C 16.449219 17.367188 16.476562 17.371094 16.492188 17.351562 C 20.039062 15.007812 19.226562 10.199219 15.386719 8.664062 C 14.886719 8.460938 14.105469 8.394531 13.039062 8.453125 C 12.984375 8.457031 12.929688 8.4375 12.890625 8.398438 C 12.847656 8.363281 12.824219 8.308594 12.820312 8.253906 L 12.804688 7.164062 C 12.804688 6.960938 12.722656 6.917969 12.554688 7.035156 L 9.425781 9.269531 C 9.328125 9.335938 9.328125 9.40625 9.425781 9.476562 L 12.632812 11.777344 C 12.75 11.863281 12.808594 11.832031 12.808594 11.6875 L 12.816406 10.617188 C 12.816406 10.476562 12.886719 10.398438 13.023438 10.386719 Z M 13.023438 10.386719 "/>
<path style=" stroke:none;fill-rule:nonzero;fill:rgb(0%,0%,0%);fill-opacity:1;" d="M 2.148438 13.4375 L 5.359375 13.445312 C 5.507812 13.445312 5.628906 13.5625 5.628906 13.710938 L 5.628906 13.773438 C 5.628906 13.921875 5.507812 14.042969 5.359375 14.042969 L 2.144531 14.039062 C 1.996094 14.039062 1.878906 13.917969 1.878906 13.769531 L 1.878906 13.707031 C 1.878906 13.558594 2 13.4375 2.148438 13.4375 Z M 2.148438 13.4375 "/>
<path style=" stroke:none;fill-rule:nonzero;fill:rgb(0%,0%,0%);fill-opacity:1;" d="M 2.144531 14.699219 L 5.394531 14.707031 C 5.546875 14.710938 5.667969 14.832031 5.667969 14.984375 L 5.667969 15.007812 C 5.667969 15.160156 5.542969 15.285156 5.394531 15.285156 L 2.144531 15.273438 C 1.992188 15.273438 1.867188 15.148438 1.867188 14.996094 L 1.867188 14.972656 C 1.871094 14.820312 1.992188 14.695312 2.144531 14.699219 Z M 2.144531 14.699219 "/>
</g>
</svg>
