<?xml version="1.0" encoding="UTF-8"?>
<svg xmlns="http://www.w3.org/2000/svg" xmlns:xlink="http://www.w3.org/1999/xlink" width="20px" height="px" viewBox="0 0 20 20" version="1.1">
<g id="surface1">
<path style=" stroke:none;fill-rule:nonzero;fill:rgb(0%,0%,0%);fill-opacity:1;" d="M 9.167969 1.667969 C 13.308594 1.667969 16.667969 5.027344 16.667969 9.167969 C 16.667969 13.308594 13.308594 16.667969 9.167969 16.667969 C 5.027344 16.667969 1.667969 13.308594 1.667969 9.167969 C 1.667969 5.027344 5.027344 1.667969 9.167969 1.667969 Z M 9.167969 15 C 12.390625 15 15 12.390625 15 9.167969 C 15 5.945312 12.390625 3.332031 9.167969 3.332031 C 5.945312 3.332031 3.332031 5.945312 3.332031 9.167969 C 3.332031 12.390625 5.945312 15 9.167969 15 Z M 16.238281 15.058594 L 18.59375 17.417969 L 17.417969 18.59375 L 15.058594 16.238281 Z M 16.238281 15.058594 "/>
</g>
</svg>
