<?xml version="1.0" encoding="UTF-8"?>
<svg xmlns="http://www.w3.org/2000/svg" xmlns:xlink="http://www.w3.org/1999/xlink" width="20px" height="px" viewBox="0 0 20 20" version="1.1">
<g id="surface1">
<path style=" stroke:none;fill-rule:nonzero;fill:rgb(0%,0%,0%);fill-opacity:1;" d="M 18.390625 8.648438 C 18.390625 8.511719 18.28125 8.398438 18.148438 8.398438 L 1.953125 8.378906 C 1.855469 8.378906 1.757812 8.417969 1.691406 8.488281 C 1.621094 8.558594 1.582031 8.652344 1.585938 8.746094 L 1.605469 14.203125 C 1.605469 15.132812 2.074219 15.601562 3.003906 15.601562 L 11.441406 15.601562 C 11.515625 15.601562 11.585938 15.644531 11.617188 15.714844 L 11.8125 16.164062 C 11.878906 16.316406 11.828125 16.394531 11.664062 16.394531 C 8.769531 16.40625 5.882812 16.40625 3 16.390625 C 1.136719 16.382812 0.800781 15.199219 0.808594 13.535156 C 0.820312 10.890625 0.839844 8.242188 0.859375 5.597656 C 0.875 3.878906 2.097656 3.605469 3.609375 3.601562 C 8.070312 3.59375 12.535156 3.59375 17 3.601562 C 18.65625 3.601562 19.167969 4.585938 19.191406 6.140625 C 19.214844 7.8125 19.214844 9.484375 19.1875 11.152344 C 19.183594 11.359375 19.085938 11.421875 18.894531 11.339844 L 18.609375 11.21875 C 18.472656 11.160156 18.402344 11.058594 18.402344 10.910156 Z M 2.699219 4.46875 C 1.570312 4.472656 0.867188 6.421875 2.578125 6.414062 C 7.75 6.40625 12.925781 6.410156 18.105469 6.425781 C 18.242188 6.425781 18.328125 6.355469 18.363281 6.21875 C 18.824219 4.390625 17.203125 4.386719 16 4.394531 C 11.566406 4.414062 7.132812 4.4375 2.699219 4.46875 Z M 2.699219 4.46875 "/>
<path style=" stroke:none;fill-rule:nonzero;fill:rgb(0%,0%,0%);fill-opacity:1;" d="M 3.902344 9.6875 L 9.675781 9.695312 C 9.859375 9.699219 10.007812 9.847656 10.007812 10.03125 L 10.007812 10.054688 C 10.007812 10.238281 9.859375 10.386719 9.675781 10.386719 L 3.898438 10.375 C 3.714844 10.375 3.566406 10.226562 3.566406 10.042969 L 3.566406 10.019531 C 3.566406 9.835938 3.71875 9.6875 3.902344 9.6875 Z M 3.902344 9.6875 "/>
<path style=" stroke:none;fill-rule:nonzero;fill:rgb(0%,0%,0%);fill-opacity:1;" d="M 20 12.441406 L 20 13.679688 C 19.644531 16.449219 18.34375 18.554688 16.105469 20 L 15.871094 20 C 13.246094 18.285156 11.960938 15.832031 12.011719 12.636719 C 12.015625 12.503906 12.078125 12.421875 12.207031 12.386719 C 13.003906 12.171875 13.589844 12.015625 14.421875 11.613281 C 16.484375 10.609375 17.984375 11.957031 20 12.441406 Z M 18.984375 13.011719 C 17.820312 12.628906 16.375 11.679688 15.207031 12.1875 C 14.488281 12.503906 13.757812 12.789062 13.015625 13.042969 C 12.894531 13.085938 12.835938 13.167969 12.839844 13.300781 C 12.925781 15.671875 13.90625 17.5625 15.789062 18.96875 C 15.902344 19.054688 16.0625 19.050781 16.175781 18.964844 C 18.027344 17.535156 19.023438 15.644531 19.171875 13.289062 C 19.179688 13.164062 19.101562 13.050781 18.984375 13.011719 Z M 18.984375 13.011719 "/>
</g>
</svg>
