<?xml version="1.0" encoding="UTF-8"?>
<svg xmlns="http://www.w3.org/2000/svg" xmlns:xlink="http://www.w3.org/1999/xlink" width="20px" height="px" viewBox="0 0 20 20" version="1.1">
<g id="surface1">
<path style=" stroke:none;fill-rule:nonzero;fill:rgb(52.156863%,52.156863%,52.156863%);fill-opacity:1;" d="M 10.203125 3.332031 C 10.648438 3.335938 11.761719 3.347656 12.945312 3.394531 L 13.363281 3.414062 C 14.554688 3.46875 15.746094 3.566406 16.335938 3.730469 C 17.125 3.949219 17.742188 4.597656 17.953125 5.414062 C 18.285156 6.714844 18.328125 9.25 18.332031 9.863281 L 18.332031 10 C 18.332031 10 18.332031 10.003906 18.332031 10.007812 L 18.332031 10.136719 C 18.328125 10.75 18.285156 13.285156 17.953125 14.585938 C 17.738281 15.40625 17.121094 16.050781 16.335938 16.269531 C 15.746094 16.433594 14.554688 16.53125 13.363281 16.585938 L 12.945312 16.605469 C 11.761719 16.652344 10.648438 16.664062 10.203125 16.664062 L 10 16.664062 C 10 16.664062 9.996094 16.664062 9.992188 16.664062 L 9.796875 16.664062 C 8.851562 16.660156 4.914062 16.617188 3.660156 16.269531 C 2.875 16.046875 2.253906 15.402344 2.046875 14.585938 C 1.714844 13.285156 1.671875 10.75 1.667969 10.136719 L 1.667969 9.863281 C 1.671875 9.25 1.714844 6.714844 2.046875 5.414062 C 2.257812 4.59375 2.878906 3.949219 3.660156 3.730469 C 4.914062 3.382812 8.851562 3.339844 9.796875 3.332031 Z M 8.332031 7.082031 L 8.332031 12.914062 L 13.332031 10 Z M 8.332031 7.082031 "/>
</g>
</svg>
