<?xml version="1.0" encoding="UTF-8"?>
<svg xmlns="http://www.w3.org/2000/svg" xmlns:xlink="http://www.w3.org/1999/xlink" width="20px" height="px" viewBox="0 0 19 13" version="1.1">
<g id="surface1">
<path style=" stroke:none;fill-rule:nonzero;fill:rgb(0%,0%,0%);fill-opacity:1;" d="M 16.058594 9.46875 L 13.894531 3.347656 L 13.890625 3.34375 L 13.847656 3.34375 L 13.402344 4.601562 L 12.589844 6.890625 C 12.308594 6.636719 11.910156 6.476562 11.410156 6.417969 L 11.257812 6.398438 L 11.410156 6.378906 C 12.234375 6.226562 12.789062 5.695312 12.789062 5.050781 C 12.789062 4.167969 11.980469 3.550781 10.820312 3.550781 L 8.410156 3.550781 L 8.410156 3.597656 L 9.109375 3.597656 L 9.109375 8.15625 L 7.40625 3.347656 L 7.40625 3.34375 L 7.363281 3.34375 L 6.917969 4.601562 L 5.199219 9.453125 L 5.1875 9.453125 C 5.15625 9.457031 5.128906 9.460938 5.101562 9.460938 C 5.054688 9.464844 5.011719 9.46875 4.96875 9.46875 L 3.234375 9.46875 L 6.535156 3.597656 L 6.558594 3.550781 L 2.519531 3.550781 L 2.519531 5.367188 L 2.5625 5.367188 C 2.570312 4.484375 3.074219 3.597656 4.183594 3.597656 L 5.519531 3.597656 L 2.191406 9.511719 L 6.675781 9.511719 L 6.675781 7.773438 L 6.632812 7.773438 C 6.628906 8.542969 6.203125 9.273438 5.273438 9.441406 L 5.246094 9.445312 L 5.949219 7.457031 L 7.925781 7.457031 L 8.640625 9.46875 L 7.9375 9.46875 L 7.9375 9.511719 L 10.695312 9.511719 L 10.695312 9.46875 L 9.988281 9.46875 L 9.988281 6.433594 L 10.800781 6.433594 C 11.628906 6.433594 12.105469 6.8125 12.105469 7.472656 L 12.105469 8.011719 C 12.105469 8.070312 12.109375 8.160156 12.113281 8.230469 L 12.113281 8.234375 L 11.675781 9.46875 L 11.105469 9.46875 L 11.105469 9.511719 L 12.289062 9.511719 L 12.289062 9.46875 L 11.722656 9.46875 L 12.121094 8.34375 C 12.121094 8.355469 12.121094 8.363281 12.121094 8.363281 L 12.132812 8.464844 L 12.144531 8.53125 C 12.210938 8.945312 12.363281 9.25 12.601562 9.433594 L 12.636719 9.460938 C 12.816406 9.589844 13.042969 9.65625 13.304688 9.65625 C 13.652344 9.65625 13.882812 9.566406 14.074219 9.355469 L 14.050781 9.332031 C 13.875 9.5 13.726562 9.566406 13.539062 9.566406 C 13.222656 9.566406 13.058594 9.171875 13.058594 8.785156 L 13.058594 8.03125 C 11.796875 8.183594 10.65625 7.257812 10.507812 5.964844 C 10.359375 4.667969 11.261719 3.496094 12.523438 3.34375 L 12.515625 3.320312 L 14.414062 3.320312 L 15.125 5.332031 L 14.421875 5.332031 L 14.421875 5.378906 L 16.808594 5.378906 L 16.808594 5.332031 Z M 5.96875 7.410156 L 6.941406 4.667969 L 7.910156 7.410156 Z M 9.988281 6.390625 L 9.988281 3.597656 L 10.609375 3.597656 C 11.441406 3.597656 11.878906 4.101562 11.878906 5.058594 C 11.878906 6.078125 11.625 6.390625 10.800781 6.390625 Z M 12.949219 7.410156 L 12.945312 7.402344 C 11.855469 7.519531 10.875 6.707031 10.757812 5.589844 C 10.644531 4.46875 11.433594 3.464844 12.523438 3.34375 L 12.480469 3.300781 L 13.28125 1.042969 L 14.25 3.789062 Z M 12.949219 7.410156 "/>
</g>
</svg>
