<svg xmlns="http://www.w3.org/2000/svg" width="496" height="170"><path d="M0 0h496v170H0V0Zm30.45 2.04A28.44 28.44 0 0 0 2.01 30.48l.01 109.08A28.44 28.44 0 0 0 30.46 168h435.68a28.44 28.44 0 0 0 28.44-28.44l.02-109.06a28.44 28.44 0 0 0-28.44-28.44L30.45 2.04Z"/><path fill="#a9a9a9" d="m30.45 2.04 435.71.02A28.44 28.44 0 0 1 494.6 30.5l-.02 109.06A28.44 28.44 0 0 1 466.14 168H30.46a28.44 28.44 0 0 1-28.44-28.44L2.01 30.48A28.44 28.44 0 0 1 30.45 2.04Zm460.52 28.58a25 25 0 0 0-25-25H30.63a25 25 0 0 0-25 25V139.3a25 25 0 0 0 25 25h435.34a25 25 0 0 0 25-25V30.62Z"/><path d="M490.97 139.3a25 25 0 0 1-25 25H30.63a25 25 0 0 1-25-25V30.62a25 25 0 0 1 25-25h435.34a25 25 0 0 1 25 25V139.3ZM249.824 30.544a.57.57 0 0 0-.569-.571l-3.14-.006a.57.57 0 0 0-.571.57l-.048 27.54a.57.57 0 0 0 .569.57l3.14.006a.57.57 0 0 0 .571-.57l.048-27.54ZM319.26 56.02l-.15 1.73q-.09.97.89.95l2.27-.04q.91-.01.91-.93l-.02-27.51q0-.19-.19-.19l-3.71-.06a.27.27 0 0 0-.28.27l.02 10.5a.37.37 0 0 1-.67.21q-3.02-4.36-8.35-2.93c-11.1 2.97-7.69 25.23 5.46 20.28 1.38-.52 2.16-1.57 3.24-2.56a.35.35 0 0 1 .58.28Zm103.06-15.26.02-10.49q0-.32-.32-.31l-3.72.07q-.17 0-.16.17l.06 27.6q0 .85.85.87l2.45.05q.98.02.97-.97l-.11-11.07a5.17 5.17 0 0 1 4.71-5.19l1.18-.11a3.63 3.63 0 0 1 3.96 3.61l.03 12.58q.01 1.09 1.09 1.11l1.89.04a1.19 1.19 0 0 0 1.21-1.18q.07-6.27-.09-13.05c-.19-7.83-9.17-8.85-13.57-3.57q-.45.54-.45-.16ZM135.3 31.61l-.18 26.58a.41.41 0 0 0 .4.41l10.26.07a12.65 12.29.4 0 0 12.74-12.2l.02-2.82a12.65 12.29.4 0 0-12.56-12.38l-10.26-.07a.41.41 0 0 0-.42.41Zm272.69 5.91-.05-4.13q-.01-.3-.31-.33l-3.63-.27q-.22-.02-.22.2l-.06 4.6q0 .55-.56.53l-2.02-.08a.83.83 0 0 0-.86.83l.01 1.84q0 .93.92.92l2-.03q.56 0 .55.56-.1 5.17-.28 10.33-.25 7.05 8.17 6.12.76-.09.83-.85l.16-1.5a.79.79 0 0 0-.63-.85l-3.44-.67q-.64-.12-.64-.78l-.09-11.73q-.01-.69.68-.69h2.83q1.15 0 1.15-1.15l-.01-1.24q-.01-1.09-1.09-1.09l-2.88-.01q-.52 0-.53-.53Zm-183.02 2.94-.03-1.75q-.01-.72-.73-.71l-2.54.01q-.81 0-.81.82l-.01 19.41a.58.58 0 0 0 .63.58l3.09-.28q.56-.05.55-.61l-.08-11.65q-.03-4.72 4.68-4.77l1.35-.01a3.58 3.58 0 0 1 3.62 3.56l.05 13.01q0 .59.58.57l3.08-.07q.6-.01.59-.61-.14-5.46-.03-11.35c.14-6.96-3.92-11.07-11.28-8.15q-.46.18-.77.58l-1.27 1.64a.37.37 0 0 1-.67-.22Zm-51.526 18.55a10.68 10.19 90.3 0 0 10.246-10.627 10.68 10.19 90.3 0 0-10.134-10.733 10.68 10.19 90.3 0 0-10.246 10.627 10.68 10.19 90.3 0 0 10.134 10.733Zm33.986-5.98-4.04-14.7q-.12-.44-.58-.43l-3.09.12q-.54.02-.68.53L195.1 53a.38.38 0 0 1-.74-.02l-3.5-14.68q-.07-.3-.38-.3h-3.64q-.29 0-.21.28l5.56 19.78q.14.52.67.51l3.36-.03q.54-.01.69-.53l3.83-13.59a.47.47 0 0 1 .9 0l3.73 12.66a2.82 2.82 0 0 0 5.45-.18q2.09-9.31 5.14-18.34a.37.37 0 0 0-.34-.49l-3.59-.11q-.31-.01-.38.29l-3.48 14.76a.38.38 0 0 1-.74.02Zm57.796 6.004a10.68 10.17 91.9 0 0 10.518-10.337 10.68 10.17 91.9 0 0-9.81-11.011 10.68 10.17 91.9 0 0-10.518 10.337 10.68 10.17 91.9 0 0 9.81 11.011Zm28.744-2.504-.17 1.46a.68.67 2.6 0 0 .69.75l2.56-.08q.93-.03.9-.96-.22-6.21-.33-12.93c-.15-9.61-12.67-8.7-16.68-2.67a.95.95 0 0 0 .86 1.48l2.37-.18q.56-.05.95-.47 2.43-2.63 6.29-1.2 1.45.54 1.98 2l.13.36q.89 2.45-1.71 2.38c-4.59-.12-12.19.83-11.75 6.58.41 5.44 6.01 7.18 10.57 5.15 1.12-.5 1.7-1.26 2.67-2.04a.41.41 0 0 1 .67.37Zm56.904 2.484a10.68 10.17 88.1 0 0 9.81-11.011 10.68 10.17 88.1 0 0-10.518-10.337 10.68 10.17 88.1 0 0-9.81 11.011 10.68 10.17 88.1 0 0 10.518 10.337ZM370.2 40.97l.06-2.32a.61.61 0 0 0-.61-.63l-2.82-.02q-.68-.01-.68.67l.08 19.18q0 .87.87.84l2.1-.05q1.05-.03 1.06-1.09l.09-11.4q.03-4.5 4.53-4.65l1.39-.04a3.6 3.6 0 0 1 3.72 3.6l.01 12.88q0 .69.69.68l2.77-.02q.72 0 .73-.72.11-6.49-.01-13.11c-.14-7.9-9.74-9.55-13.64-3.69q-.36.54-.34-.11Zm76.55 8.49 13.32.06q1.2 0 1.16-1.2c-.49-14.91-19.12-13.34-19.52-.74-.2 6.3 2.9 10.99 9.53 11.4q6.6.41 9.42-5.25.36-.73-.44-.73l-2.68-.01a1.09 1.08-67.1 0 0-.8.33c-4.06 4.18-9.98 2.41-10.53-3.27q-.05-.6.54-.59ZM96.72 38.35c-10.39 1.16-17.18 10.02-17.3 20.1a.51.51 0 0 0 .54.52c10.61-.54 17.89-9.83 17.29-20.18q-.03-.5-.53-.44ZM48.18 69.49c-11.35 16.36-2.22 41.37 9.69 54.54 8.64 9.55 14.13.62 23.31.94q4.12.15 7.97 1.64c5.68 2.2 10.12 2.82 14.56-1.65q8.15-8.2 12.08-19.97.16-.49-.3-.71c-14.57-7.11-15.13-25.47-2.42-34.93q.41-.3.1-.71-7.49-9.9-19.74-8.4c-5.33.65-11.35 5.3-16.45 3.32-3.75-1.46-7.82-3.42-11.83-3.18q-11.12.67-16.97 9.11Zm271.98 47.45c-3.3 8.56-20.92 7.53-22.95-2.47q-.04-.21-.26-.22l-7.43-.07q-.25 0-.22.25 1.72 12.15 14.23 14.47c9.93 1.84 23.27-1.13 24.87-13.03 1.83-13.54-11.19-15.76-21.42-18.06-2.9-.64-6.83-2.55-7.91-5.53-3.54-9.72 18.68-14.27 20.89-1.52q.07.44.52.44l6.96-.02a.33.32-2.4 0 0 .33-.35c-1.59-19.07-33.37-19.37-36.83-2.34-1.41 6.9 2.13 11.92 8.31 14.8 5.68 2.64 13.68 2.83 17.85 5.56q4.94 3.23 3.06 8.09Zm-144.46-2.31a.66.66 0 0 1 .62.45l4.36 12.99a.66.66 0 0 0 .62.45l6.98.07a.66.66 0 0 0 .63-.88l-17.96-50.26a.66.66 0 0 0-.62-.44l-7.65-.02a.66.66 0 0 0-.63.44l-18.01 50.22a.66.66 0 0 0 .62.88l6.91-.01a.66.66 0 0 0 .63-.45l4.3-12.99a.66.66 0 0 1 .63-.45h18.57Zm169.81-17.65 6.26.1a.36.35-88.4 0 0 .36-.35l.16-5.46a.27.27 0 0 0-.27-.27l-6.23.01q-.72 0-.72-.72l.02-8.09q0-.17-.17-.17h-7.2q-.25 0-.26.25l-.02 8.15a.61.61 0 0 1-.62.61l-3.81-.05q-1.01-.01-1.01 1v4.1q0 1.09 1.09 1.07l3.9-.06q.47-.01.47.46-.01 10.85-.01 21.68c.01 9.17 6.86 10.28 14.34 9.21q.36-.05.36-.41l-.04-5.58q0-.3-.3-.24c-5.51 1.17-6.66-1.23-6.7-6.22q-.08-9.33-.04-18.59.01-.43.44-.43Zm81.57 14.73h24.95q.55 0 .6-.55c.63-7.07-1.78-14.87-8.14-18.48-6.03-3.42-14.46-2.66-19.69 1.84-9.25 7.97-8.16 27.83 3.71 32.92 8.47 3.63 20 1.21 23.52-8.43q.55-1.51-1.06-1.51h-4.75q-1.59 0-2.07 1.51-.64 2.01-3.55 3.12c-6.76 2.58-15.06-1.85-13.96-10.04q.06-.38.44-.38Zm-225.5 11.28a.31.31 0 0 1 .57-.17q3.81 5.96 11.11 6.17c19.65.57 21.64-34.55 2.85-38.11q-8.27-1.57-14.13 5.6a.36.36 0 0 1-.64-.24l.12-3.86q.04-1.36-1.33-1.37l-4.63-.03q-1.53-.01-1.53 1.52l.01 47.97q.01.49.49.49l6.75.07a.35.35 0 0 0 .35-.35l.01-17.69Zm41.06.24a.37.37 0 0 1 .67-.21c5.89 8.62 17.98 7.47 23.57-.68 3.49-5.08 3.87-14.11 2.27-19.81-3.51-12.47-17.55-16.34-26.28-5.87a.29.29 0 0 1-.51-.19l.08-4.62q.01-.85-.84-.85h-5.35Q235 91 235 92.25l.01 48.5a.24.23 0 0 0 .24.23l7.07.04q.34 0 .34-.34l-.02-17.45Zm148.695-16.54a15.88 15.88 0 0 0-15.908-15.853l-2.96.006a15.88 15.88 0 0 0-15.852 15.907l.01 6.18a15.88 15.88 0 0 0 15.908 15.853l2.96-.006a15.88 15.88 0 0 0 15.852-15.907l-.01-6.18ZM405.13 96.5l.17-4.2q.05-1.3-1.25-1.3l-4.67-.02q-1.39-.01-1.39 1.39l.01 35.58q0 .7.7.68l6.35-.18q.6-.02.6-.62 0-10.29.03-21.16c.02-7.1 3.96-9.59 10.68-8.86q.65.07.66-.58l.02-5.51q0-.81-.8-.91-7.61-1-10.62 5.81a.26.26 0 0 1-.49-.12Z"/><rect fill="#fff" x="-2.14" y="-14.34" transform="rotate(.1 -25263.923 141920.847)" width="4.28" height="28.68" rx=".57"/><path fill="#fff" d="M318.68 55.74c-1.08.99-1.86 2.04-3.24 2.56-13.15 4.95-16.56-17.31-5.46-20.28q5.33-1.43 8.35 2.93a.37.37 0 0 0 .67-.21l-.02-10.5a.27.27 0 0 1 .28-.27l3.71.06q.19 0 .19.19l.02 27.51q0 .92-.91.93l-2.27.04q-.98.02-.89-.95l.15-1.73a.35.35 0 0 0-.58-.28Zm-5.322-.32a7.07 5.7 90.1 0 0 5.712-7.06 7.07 5.7 90.1 0 0-5.688-7.08 7.07 5.7 90.1 0 0-5.712 7.06 7.07 5.7 90.1 0 0 5.688 7.08ZM422.77 40.92c4.4-5.28 13.38-4.26 13.57 3.57q.16 6.78.09 13.05a1.19 1.19 0 0 1-1.21 1.18l-1.89-.04q-1.08-.02-1.09-1.11l-.03-12.58a3.63 3.63 0 0 0-3.96-3.61l-1.18.11a5.17 5.17 0 0 0-4.71 5.19l.11 11.07q.01.99-.97.97l-2.45-.05q-.85-.02-.85-.87l-.06-27.6q-.01-.17.16-.17l3.72-.07q.32-.01.32.31l-.02 10.49q0 .7.45.16ZM135.3 31.61a.41.41 0 0 1 .42-.41l10.26.07a12.65 12.29.4 0 1 12.56 12.38l-.02 2.82a12.65 12.29.4 0 1-12.74 12.2l-10.26-.07a.41.41 0 0 1-.4-.41l.18-26.58Zm4.24 4.18-.04 18.46a.55.55 0 0 0 .55.55l5.13.01a8.96 8.93.1 0 0 8.98-8.92v-1.7a8.96 8.93.1 0 0-8.94-8.94l-5.13-.01a.55.55 0 0 0-.55.55ZM408.52 38.05l2.88.01q1.08 0 1.09 1.09l.01 1.24q0 1.15-1.15 1.15h-2.83q-.69 0-.68.69l.09 11.73q0 .66.64.78l3.44.67a.79.79 0 0 1 .63.85l-.16 1.5q-.07.76-.83.85-8.42.93-8.17-6.12.18-5.16.28-10.33.01-.56-.55-.56l-2 .03q-.92.01-.92-.92l-.01-1.84a.83.83 0 0 1 .86-.83l2.02.08q.56.02.56-.53l.06-4.6q0-.22.22-.2l3.63.27q.3.03.31.33l.05 4.13q.01.53.53.53Z"/><path d="M139.54 35.79a.55.55 0 0 1 .55-.55l5.13.01a8.96 8.93.1 0 1 8.94 8.94v1.7a8.96 8.93.1 0 1-8.98 8.92l-5.13-.01a.55.55 0 0 1-.55-.55l.04-18.46Z"/><path fill="#fff" d="m225.64 40.68 1.27-1.64q.31-.4.77-.58c7.36-2.92 11.42 1.19 11.28 8.15q-.11 5.89.03 11.35.01.6-.59.61l-3.08.07q-.58.02-.58-.57l-.05-13.01a3.58 3.58 0 0 0-3.62-3.56l-1.35.01q-4.71.05-4.68 4.77l.08 11.65q.01.56-.55.61l-3.09.28a.58.58 0 0 1-.63-.58l.01-19.41q0-.82.81-.82l2.54-.01q.72-.01.73.71l.03 1.75a.37.37 0 0 0 .67.22ZM173.444 59.01a10.68 10.19 90.3 0 1-10.134-10.733 10.68 10.19 90.3 0 1 10.246-10.627 10.68 10.19 90.3 0 1 10.134 10.733 10.68 10.19 90.3 0 1-10.246 10.627Zm.098-3.58a7.11 5.75 89.9 0 0 5.738-7.12 7.11 5.75 89.9 0 0-5.762-7.1 7.11 5.75 89.9 0 0-5.738 7.12 7.11 5.75 89.9 0 0 5.762 7.1Z"/><path fill="#fff" d="M207.43 53.03a.38.38 0 0 0 .74-.02l3.48-14.76q.07-.3.38-.29l3.59.11a.37.37 0 0 1 .34.49q-3.05 9.03-5.14 18.34a2.82 2.82 0 0 1-5.45.18l-3.73-12.66a.47.47 0 0 0-.9 0l-3.83 13.59q-.15.52-.69.53l-3.36.03q-.53.01-.67-.51l-5.56-19.78q-.08-.28.21-.28h3.64q.31 0 .38.3l3.5 14.68a.38.38 0 0 0 .74.02l3.94-14.45q.14-.51.68-.53l3.09-.12q.46-.01.58.43l4.04 14.7ZM265.226 59.034a10.68 10.17 91.9 0 1-9.81-11.011 10.68 10.17 91.9 0 1 10.518-10.337 10.68 10.17 91.9 0 1 9.81 11.011 10.68 10.17 91.9 0 1-10.518 10.337Zm.449-3.564a7.15 5.74 89.4 0 0 5.665-7.21 7.15 5.74 89.4 0 0-5.815-7.09 7.15 5.74 89.4 0 0-5.665 7.21 7.15 5.74 89.4 0 0 5.815 7.09Z"/><path fill="#fff" d="M293.3 56.16c-.97.78-1.55 1.54-2.67 2.04-4.56 2.03-10.16.29-10.57-5.15-.44-5.75 7.16-6.7 11.75-6.58q2.6.07 1.71-2.38l-.13-.36q-.53-1.46-1.98-2-3.86-1.43-6.29 1.2-.39.42-.95.47l-2.37.18a.95.95 0 0 1-.86-1.48c4.01-6.03 16.53-6.94 16.68 2.67q.11 6.72.33 12.93.03.93-.9.96l-2.56.08a.68.67 2.6 0 1-.69-.75l.17-1.46a.41.41 0 0 0-.67-.37ZM285.77 55c3.3 1.35 9.1-.62 7.84-5.08q-.14-.51-.67-.5c-2.46.03-7.65-.38-8.57 2.64a2.41 2.41 0 0 0 1.4 2.94ZM350.874 59.014a10.68 10.17 88.1 0 1-10.518-10.337 10.68 10.17 88.1 0 1 9.81-11.011 10.68 10.17 88.1 0 1 10.518 10.337 10.68 10.17 88.1 0 1-9.81 11.011Zm-.334-3.494a7.19 5.74 90 0 0 5.74-7.19 7.19 5.74 90 0 0-5.74-7.19 7.19 5.74 90 0 0-5.74 7.19 7.19 5.74 90 0 0 5.74 7.19Z"/><path fill="#fff" d="M370.54 41.08c3.9-5.86 13.5-4.21 13.64 3.69q.12 6.62.01 13.11-.01.72-.73.72l-2.77.02q-.69.01-.69-.68l-.01-12.88a3.6 3.6 0 0 0-3.72-3.6l-1.39.04q-4.5.15-4.53 4.65l-.09 11.4q-.01 1.06-1.06 1.09l-2.1.05q-.87.03-.87-.84l-.08-19.18q0-.68.68-.67l2.82.02a.61.61 0 0 1 .61.63l-.06 2.32q-.02.65.34.11ZM446.21 50.05c.55 5.68 6.47 7.45 10.53 3.27a1.09 1.08-67.1 0 1 .8-.33l2.68.01q.8 0 .44.73-2.82 5.66-9.42 5.25c-6.63-.41-9.73-5.1-9.53-11.4.4-12.6 19.03-14.17 19.52.74q.04 1.2-1.16 1.2l-13.32-.06q-.59-.01-.54.59Zm.43-3.52 9.88-.14a.26.26 0 0 0 .25-.26V46a5.07 4.97-.8 0 0-5.14-4.9h-.26a5.07 4.97-.8 0 0-5 5.04v.13a.26.26 0 0 0 .27.26ZM79.42 58.45c.12-10.08 6.91-18.94 17.3-20.1q.5-.06.53.44c.6 10.35-6.68 19.64-17.29 20.18a.51.51 0 0 1-.54-.52Z"/><path d="M446.64 46.53a.26.26 0 0 1-.27-.26v-.13a5.07 4.97-.8 0 1 5-5.04h.26a5.07 4.97-.8 0 1 5.14 4.9v.13a.26.26 0 0 1-.25.26l-9.88.14Z"/><ellipse transform="rotate(89.9 62.563 111.077)" rx="7.11" ry="5.75"/><ellipse transform="rotate(89.4 108.386 158.358)" rx="7.15" ry="5.74"/><ellipse transform="rotate(90 151.105 199.435)" rx="7.19" ry="5.74"/><ellipse transform="rotate(90.1 132.552 180.587)" rx="7.07" ry="5.7"/><path d="M293.61 49.92c1.26 4.46-4.54 6.43-7.84 5.08a2.41 2.41 0 0 1-1.4-2.94c.92-3.02 6.11-2.61 8.57-2.64q.53-.01.67.5Z"/><path fill="#fff" d="M48.18 69.49q5.85-8.44 16.97-9.11c4.01-.24 8.08 1.72 11.83 3.18 5.1 1.98 11.12-2.67 16.45-3.32q12.25-1.5 19.74 8.4.31.41-.1.71c-12.71 9.46-12.15 27.82 2.42 34.93q.46.22.3.71-3.93 11.77-12.08 19.97c-4.44 4.47-8.88 3.85-14.56 1.65q-3.85-1.49-7.97-1.64c-9.18-.32-14.67 8.61-23.31-.94-11.91-13.17-21.04-38.18-9.69-54.54ZM320.16 116.94q1.88-4.86-3.06-8.09c-4.17-2.73-12.17-2.92-17.85-5.56-6.18-2.88-9.72-7.9-8.31-14.8 3.46-17.03 35.24-16.73 36.83 2.34a.33.32-2.4 0 1-.33.35l-6.96.02q-.45 0-.52-.44c-2.21-12.75-24.43-8.2-20.89 1.52 1.08 2.98 5.01 4.89 7.91 5.53 10.23 2.3 23.25 4.52 21.42 18.06-1.6 11.9-14.94 14.87-24.87 13.03q-12.51-2.32-14.23-14.47-.03-.25.22-.25l7.43.07q.22.01.26.22c2.03 10 19.65 11.03 22.95 2.47ZM175.7 114.63h-18.57a.66.66 0 0 0-.63.45l-4.3 12.99a.66.66 0 0 1-.63.45l-6.91.01a.66.66 0 0 1-.62-.88l18.01-50.22a.66.66 0 0 1 .63-.44l7.65.02a.66.66 0 0 1 .62.44l17.96 50.26a.66.66 0 0 1-.63.88l-6.98-.07a.66.66 0 0 1-.62-.45l-4.36-12.99a.66.66 0 0 0-.62-.45Zm-16.77-6.95a.43.43 0 0 0 .41.57l14.23-.03a.43.43 0 0 0 .4-.57l-7.15-21.16a.43.43 0 0 0-.81 0l-7.08 21.19ZM345.07 97.41q-.04 9.26.04 18.59c.04 4.99 1.19 7.39 6.7 6.22q.3-.06.3.24l.04 5.58q0 .36-.36.41c-7.48 1.07-14.33-.04-14.34-9.21q0-10.83.01-21.68 0-.47-.47-.46l-3.9.06q-1.09.02-1.09-1.07v-4.1q0-1.01 1.01-1l3.81.05a.61.61 0 0 0 .62-.61l.02-8.15q.01-.25.26-.25h7.2q.17 0 .17.17l-.02 8.09q0 .72.72.72l6.23-.01a.27.27 0 0 1 .27.27l-.16 5.46a.36.35-88.4 0 1-.36.35l-6.26-.1q-.43 0-.44.43Z"/><path d="m158.93 107.68 7.08-21.19a.43.43 0 0 1 .81 0l7.15 21.16a.43.43 0 0 1-.4.57l-14.23.03a.43.43 0 0 1-.41-.57Z"/><path fill="#fff" d="M426.64 112.09c-1.1 8.19 7.2 12.62 13.96 10.04q2.91-1.11 3.55-3.12.48-1.51 2.07-1.51h4.75q1.61 0 1.06 1.51c-3.52 9.64-15.05 12.06-23.52 8.43-11.87-5.09-12.96-24.95-3.71-32.92 5.23-4.5 13.66-5.26 19.69-1.84 6.36 3.61 8.77 11.41 8.14 18.48q-.05.55-.6.55h-24.95q-.38 0-.44.38Zm.15-5.7 18-.12a.26.26 0 0 0 .26-.26v-.14a9.14 9.11 89.6 0 0-9.17-9.08h-.3a9.14 9.11 89.6 0 0-9.05 9.2v.14a.26.26 0 0 0 .26.26ZM201.58 122.99l-.01 17.69a.35.35 0 0 1-.35.35l-6.75-.07q-.48 0-.49-.49l-.01-47.97q0-1.53 1.53-1.52l4.63.03q1.37.01 1.33 1.37l-.12 3.86a.36.36 0 0 0 .64.24q5.86-7.17 14.13-5.6c18.79 3.56 16.8 38.68-2.85 38.11q-7.3-.21-11.11-6.17a.31.31 0 0 0-.57.17Zm9.808-.44a12.75 9.93 90.1 0 0 9.952-12.733 12.75 9.93 90.1 0 0-9.908-12.767 12.75 9.93 90.1 0 0-9.952 12.733 12.75 9.93 90.1 0 0 9.908 12.767ZM242.64 123.23l.02 17.45q0 .34-.34.34l-7.07-.04a.24.23 0 0 1-.24-.23l-.01-48.5q0-1.25 1.25-1.25h5.35q.85 0 .84.85l-.08 4.62a.29.29 0 0 0 .51.19c8.73-10.47 22.77-6.6 26.28 5.87 1.6 5.7 1.22 14.73-2.27 19.81-5.59 8.15-17.68 9.3-23.57.68a.37.37 0 0 0-.67.21Zm9.812-.67a12.77 9.9 89.9 0 0 9.878-12.787 12.77 9.9 89.9 0 0-9.922-12.753 12.77 9.9 89.9 0 0-9.878 12.787 12.77 9.9 89.9 0 0 9.922 12.753ZM391.345 112.87a15.88 15.88 0 0 1-15.852 15.907l-2.96.006a15.88 15.88 0 0 1-15.908-15.853l-.01-6.18a15.88 15.88 0 0 1 15.852-15.907l2.96-.006a15.88 15.88 0 0 1 15.908 15.853l.01 6.18Zm-25.925 3.94c2.45 6.07 9.54 7.57 14.47 3.75 4.53-3.52 4.6-11.66 3.06-16.79-1.87-6.21-9.69-9.3-14.72-5.04-4.75 4.03-4.98 12.73-2.81 18.08ZM405.62 96.62q3.01-6.81 10.62-5.81.8.1.8.91l-.02 5.51q-.01.65-.66.58c-6.72-.73-10.66 1.76-10.68 8.86q-.03 10.87-.03 21.16 0 .6-.6.62l-6.35.18q-.7.02-.7-.68l-.01-35.58q0-1.4 1.39-1.39l4.67.02q1.3 0 1.25 1.3l-.17 4.2a.26.26 0 0 0 .49.12Z"/><path d="M426.79 106.39a.26.26 0 0 1-.26-.26v-.14a9.14 9.11 89.6 0 1 9.05-9.2h.3a9.14 9.11 89.6 0 1 9.17 9.08v.14a.26.26 0 0 1-.26.26l-18 .12ZM365.42 116.81c-2.17-5.35-1.94-14.05 2.81-18.08 5.03-4.26 12.85-1.17 14.72 5.04 1.54 5.13 1.47 13.27-3.06 16.79-4.93 3.82-12.02 2.32-14.47-3.75Z"/><ellipse transform="rotate(90.1 50.9 160.42)" rx="12.75" ry="9.93"/><ellipse transform="rotate(89.9 71.224 181.33)" rx="12.77" ry="9.9"/></svg>