<?xml version="1.0" encoding="UTF-8" standalone="no"?>
<svg xmlns="http://www.w3.org/2000/svg" version="1.2" baseProfile="tiny" viewBox="0.00 0.00 64.00 64.00">
<path fill="#000000" d="
  M 59.95 16.00
  A 11.96 11.96 0.0 0 1 47.99 27.96
  A 11.96 11.96 0.0 0 1 36.03 16.00
  A 11.96 11.96 0.0 0 1 47.99 4.04
  A 11.96 11.96 0.0 0 1 59.95 16.00
  Z
  M 57.96 16.00
  A 9.97 9.97 0.0 0 0 47.99 6.03
  A 9.97 9.97 0.0 0 0 38.02 16.00
  A 9.97 9.97 0.0 0 0 47.99 25.97
  A 9.97 9.97 0.0 0 0 57.96 16.00
  Z"
/>
<path fill="#000000" d="
  M 48.84 11.25
  Q 47.24 10.43 46.23 12.13
  A 1.80 1.80 0.0 0 0 47.51 14.83
  C 51.43 15.42 53.83 19.11 50.24 22.13
  Q 49.32 22.90 48.48 23.76
  Q 48.15 24.09 47.76 23.84
  Q 45.38 22.36 44.10 20.00
  A 0.78 0.76 31.7 0 1 44.01 19.64
  Q 43.93 17.65 45.43 18.07
  A 0.63 0.62 6.0 0 1 45.89 18.63
  Q 46.06 20.70 47.99 20.99
  Q 48.62 21.08 49.09 20.65
  Q 50.84 19.05 49.20 17.41
  A 1.22 1.19 69.6 0 0 48.46 17.06
  Q 43.32 16.59 44.27 11.39
  A 1.21 1.20 -14.7 0 1 44.69 10.68
  L 47.58 8.32
  Q 47.95 8.01 48.37 8.27
  Q 51.00 9.86 52.14 12.65
  A 0.72 0.72 0.0 0 1 51.82 13.55
  L 51.05 13.97
  Q 50.36 14.35 50.18 13.58
  C 49.94 12.61 49.81 11.75 48.84 11.25
  Z"
/>
<path fill="#000000" d="
  M 17.59 29.69
  L 19.32 29.41
  A 0.67 0.67 0.0 0 1 19.90 30.54
  L 16.93 33.52
  A 1.03 1.01 34.8 0 1 15.78 33.72
  Q 13.22 32.53 12.18 29.95
  A 0.53 0.53 0.0 0 1 12.85 29.25
  L 14.08 29.69
  A 0.67 0.66 -79.7 0 0 14.97 29.07
  C 15.02 24.32 13.01 15.33 20.25 15.15
  Q 26.74 14.99 33.22 14.98
  A 0.63 0.62 0.0 0 1 33.85 15.60
  L 33.86 16.44
  Q 33.86 16.99 33.31 16.99
  L 19.49 17.01
  A 2.50 2.50 0.0 0 0 17.00 19.51
  L 17.01 29.20
  A 0.50 0.50 0.0 0 0 17.59 29.69
  Z"
/>
<path fill="#000000" d="
  M 46.30 34.00
  L 45.53 34.77
  A 0.99 0.91 -87.6 0 1 44.31 33.31
  L 47.48 30.10
  A 0.71 0.71 0.0 0 1 48.48 30.10
  L 51.70 33.27
  Q 52.13 33.70 51.72 34.15
  L 51.21 34.72
  Q 50.76 35.21 50.32 34.72
  L 49.68 34.00
  Q 49.03 33.26 49.02 34.25
  Q 48.97 39.40 48.98 44.50
  C 48.99 47.55 45.96 48.90 43.10 48.97
  Q 37.20 49.11 31.32 48.89
  Q 30.59 48.87 30.30 48.53
  Q 30.01 48.21 30.04 47.76
  Q 30.10 47.08 30.78 47.08
  L 43.29 46.97
  Q 47.01 46.93 47.00 43.21
  L 47.00 34.28
  A 0.41 0.41 0.0 0 0 46.30 34.00
  Z"
/>
<path fill="#000000" d="
  M 4.03 41.75
  C 4.03 39.76 7.73 36.07 9.78 36.04
  Q 16.31 35.94 21.11 36.02
  A 7.01 7.01 0.0 0 1 28.00 43.04
  L 27.99 59.00
  A 0.99 0.99 0.0 0 1 27.00 59.99
  L 4.99 59.99
  A 0.96 0.96 0.0 0 1 4.03 59.03
  Q 4.00 50.55 4.03 41.75
  Z
  M 13.0196 38.8316
  A 2.52 0.98 -5.2 0 0 10.4212 38.0840
  A 2.52 0.98 -5.2 0 0 8.0004 39.2884
  A 2.52 0.98 -5.2 0 0 10.5988 40.0360
  A 2.52 0.98 -5.2 0 0 13.0196 38.8316
  Z
  M 18.97 39.23
  Q 21.29 40.39 23.81 39.77
  A 0.46 0.46 0.0 0 0 23.95 38.94
  Q 21.54 37.36 18.94 38.69
  Q 18.46 38.94 17.98 38.70
  Q 16.69 38.04 15.29 38.08
  A 0.92 0.92 0.0 0 0 15.14 39.90
  Q 16.69 40.20 17.97 39.31
  Q 18.45 38.97 18.97 39.23
  Z
  M 13.10 47.96
  A 1.06 1.06 0.0 0 1 12.05 46.92
  L 12.00 43.07
  A 1.06 1.06 0.0 0 0 10.96 42.02
  L 7.09 41.93
  A 1.06 1.06 0.0 0 0 6.01 42.98
  L 5.98 56.95
  A 1.06 1.06 0.0 0 0 7.04 58.01
  L 24.97 58.01
  A 1.06 1.06 0.0 0 0 26.03 56.95
  L 25.99 43.05
  A 1.06 1.06 0.0 0 0 24.93 42.00
  L 20.99 42.02
  A 1.06 1.06 0.0 0 0 19.94 43.08
  L 19.95 46.97
  A 1.06 1.06 0.0 0 1 18.88 48.03
  L 13.10 47.96
  Z
  M 18.1263 43.3772
  A 1.36 1.36 0.0 0 0 16.7975 41.9866
  L 15.3778 41.9544
  A 1.36 1.36 0.0 0 0 13.9873 43.2832
  L 13.9537 44.7628
  A 1.36 1.36 0.0 0 0 15.2825 46.1534
  L 16.7022 46.1856
  A 1.36 1.36 0.0 0 0 18.0927 44.8568
  L 18.1263 43.3772
  Z"
/>
<path fill="#000000" d="
  M 20.09 55.43
  A 0.43 0.43 0.0 0 1 20.00 54.62
  Q 21.65 53.89 23.46 54.38
  A 0.86 0.86 0.0 0 1 23.06 56.05
  L 20.09 55.43
  Z"
/>
</svg>
