<svg xmlns="http://www.w3.org/2000/svg" version="1.2" baseProfile="tiny" viewBox="0 0 413 346"><g stroke-width="2" fill="none"><path stroke="#8693c8" vector-effect="non-scaling-stroke" d="m76.37 188.08.22-11.97q0-.48.49-.48l10.95.03a1.46 1.46 0 0 0 1.47-1.46l.01-6.95q0-.77-.76-.77l-11.58.01a.56.56 0 0 1-.56-.57l.16-6.89a.46.45-88.7 0 1 .45-.44l15.31.09a1.22 1.21-89.5 0 0 1.22-1.21l.01-6.98a1.01 1.01 0 0 0-1.02-1.01l-22.49.17q-2.11.01-2.11 2.13l.03 36.83M110.47 173.7a.72.72 0 0 1 .72-.72l12.74.02a.72.72 0 0 0 .72-.72l.02-6.44a.72.72 0 0 0-.73-.73l-12.73.07a.72.72 0 0 1-.73-.71l-.11-5.13a.72.72 0 0 1 .72-.74h16.78a.72.72 0 0 0 .72-.72l.02-7.65a.72.72 0 0 0-.72-.72l-25.4.02a.72.72 0 0 0-.72.72l-.04 37.71a.72.72 0 0 0 .73.73l26.05-.18a.72.72 0 0 0 .72-.71l.09-7.58a.72.72 0 0 0-.72-.73l-17.43-.01a.72.72 0 0 1-.72-.72l.02-5.06M145.14 182.13l13.78-.02a1.49 1.47 80.1 0 1 1.41 1l1.61 4.76a.91.91 0 0 0 .86.62l7.13.02a.57.57 0 0 0 .54-.77q-6.93-18.41-13.83-36.27c-1.02-2.65-4.02-2.03-6.14-2.07-2.57-.04-2.65 1.94-3.39 3.84q-6.64 17.27-13.27 34.62-.26.69.48.69l7.32-.04q.51-.01.7-.48l2.14-5.45a.72.71-79 0 1 .66-.45M178.91 158.7a.88.88 0 0 1 .87.87l.26 28.07a.88.88 0 0 0 .89.88l6.68-.04a.88.88 0 0 0 .87-.87l.05-28.06a.88.88 0 0 1 .87-.88l8.63-.04a.88.88 0 0 0 .88-.89l-.01-7.34a.88.88 0 0 0-.88-.88l-27.46-.01a.88.88 0 0 0-.88.88v7.37a.88.88 0 0 0 .87.88l8.36.06M225.72 179.19c-2.21.79-7.56.92-9.21-1.73q-2.05-3.29-1.93-7.22.29-9.97.29-20.02a.67.66.4 0 0-.66-.66l-6.95-.08q-.67-.01-.68.66-.14 11.23.09 22.46c.14 6.66 1.73 11.33 7.74 14 9.36 4.14 22.5.41 23.46-11.33q.7-8.46.15-25.03-.02-.6-.62-.61l-7.14-.13a1.2 1.19-89.5 0 0-1.21 1.2q-.01 11.68-.05 22.84c0 2.46-1.02 4.84-3.28 5.65"/><path stroke="#90a2e5" vector-effect="non-scaling-stroke" d="m256.06 175.56 4.8-.03q.72-.01 1.06.63l6.24 11.69a.92.92 0 0 0 .81.48l7.83-.03q.99 0 .52-.87l-7.24-13.52q-.23-.43.1-.78c1.41-1.51 3.28-2.81 4.28-4.35 5.33-8.19-.26-18.06-9.99-18.83q-8.44-.66-16.64-.42a.74.73-1.6 0 0-.71.74l.11 37.52a.68.67 89.2 0 0 .68.67l6.85-.02q.65-.01.65-.65l.03-11.6q0-.63.62-.63"/><path stroke="#95adf3" vector-effect="non-scaling-stroke" d="M292 159.52a1.01 1.01 0 0 1 1-1.02l15.94-.06a1.01 1.01 0 0 0 1-.95l.36-6.77a1.01 1.01 0 0 0-1-1.07l-24.58-.15a1.01 1.01 0 0 0-1.02 1.01l.07 36.96a1.01 1.01 0 0 0 1.01 1.01l25.33-.13a1.01 1.01 0 0 0 1-1l.03-6.83a1.01 1.01 0 0 0-1.02-1.02l-17.1.07a1.01 1.01 0 0 1-1.01-1.01l-.01-4.71a1.01 1.01 0 0 1 1.01-1.01l12.26.04a1.01 1.01 0 0 0 1.01-1.01l.01-5.64a1.01 1.01 0 0 0-1.01-1.01l-12.18.04a1.01 1.01 0 0 1-1.02-.99l-.08-4.75"/><path stroke="#9cb9f8" vector-effect="non-scaling-stroke" d="m318.71 150.34.14 37.44a.71.71 0 0 0 .71.7l11-.04a20.27 19.27-.2 0 0 20.2-19.34v-.32a20.27 19.27-.2 0 0-20.34-19.19l-11 .03a.71.71 0 0 0-.71.72"/><path stroke="#8693c8" vector-effect="non-scaling-stroke" d="M147.78 171.81a.9.9 0 0 0 .86 1.19h7.08a.9.9 0 0 0 .86-1.19l-3.55-10.34a.9.9 0 0 0-1.7 0l-3.55 10.34"/><path stroke="#90a2e5" vector-effect="non-scaling-stroke" d="m255.37 158.51.04 7.92a1.39 1.39 0 0 0 1.4 1.38l6.49-.03a5.17 4.36 89.7 0 0 4.33-5.19v-.36a5.17 4.36 89.7 0 0-4.39-5.15l-6.49.03a1.39 1.39 0 0 0-1.38 1.4"/><path stroke="#9cb9f8" vector-effect="non-scaling-stroke" d="m326.97 159.56-.16 18.96a1.1 1.1 0 0 0 1.09 1.11l4.32.04a10.2 10.09.5 0 0 10.29-10v-.98a10.2 10.09.5 0 0-10.11-10.18l-4.32-.04a1.1 1.1 0 0 0-1.11 1.09"/></g><path fill="#c6ebf3" d="m76.37 188.08.22-11.97q0-.48.49-.48l10.95.03a1.46 1.46 0 0 0 1.47-1.46l.01-6.95q0-.77-.76-.77l-11.58.01a.56.56 0 0 1-.56-.57l.16-6.89a.46.45-88.7 0 1 .45-.44l15.31.09a1.22 1.21-89.5 0 0 1.22-1.21l.01-6.98a1.01 1.01 0 0 0-1.02-1.01l-22.49.17q-2.11.01-2.11 2.13l.03 36.83q-5.02.92-10.16 1.97c-9.88 2.02-12.73-1.94-18.72-8.44a1.16 1.15-33.8 0 1 .37-1.84l2.51-1.15a.48.47-32.3 0 0 .17-.74c-.83-.99-1.24-1.55-1.02-2.91q.67-4.1 1.73-8.09.11-.43-.33-.53l-1.13-.26a.9.9 0 0 1-.04-1.74l1.93-.54a.21.21 0 0 0-.02-.41l-3.87-.66a1.03 1.02-56.2 0 1-.37-1.88l3-1.9a.69.69 0 0 1 .61-.06q1.22.43 2.37-.17a.49.49 0 0 0-.04-.89q-1.69-.69-3.29.25a.41.41 0 0 1-.62-.39q.15-1.54 1.41-2.54a.8.8 0 0 0 .23-.97q-1.31-2.86-4.44-3.62a.78.78 0 0 1-.16-1.46c1.84-.89 3.4-2.08 5.51-2.23q16.38-1.17 32.7-3.12 27.51-3.29 55.06-6.22 8.65-.91 19.85-2.39 12.97-1.71 25.99-3.11 4.86-.53 17.14-2.12 8.58-1.12 17.2-1.78 4.66-.35 15.2-2.08 7.58-1.24 15-3.14 18.39-4.72 36.49-10.5 1.73-.55 5.65-2.24 2.8-1.21 5.77-1.99c2.55-.66 4.37.01 6.92.35q.52.07.94.38l8.56 6.18a.64.61-75.9 0 1 .25.44l.16 2.09q.04.43.47.4l18.91-1.02q.56-.03 1.07.19 1.01.44 1.96-.12.32-.18.68-.21l9.03-.73a.49.49 0 0 1 .53.55q-.25 2.08-2.09 2.82a.53.52-7.9 0 1-.72-.54l.13-1.31a.51.51 0 0 0-.82-.46l-3.03 2.33q-.38.29-.85.33l-2.39.21a.62.61-13.3 0 1-.63-.38l-.37-.92a.36.35-60.6 0 0-.68.19l.46 2.79q.09.56.66.61l2.59.27q.59.06 1-.37 2.13-2.27 5.03-1.58.5.12 1 .08l6-.48a.57.53 38.7 0 1 .15 1.09q-1.17.1-2.1-.53-.34-.23-.72-.08l-3.92 1.48q-.37.15-.74-.01-1.18-.52-2.45.11a.91.91 0 0 0 .33 1.72q3.68.32 7.19-.82.45-.15.93-.07c3.21.57 6.02-.41 9.32.3a.21.21 0 0 1-.01.41l-5.24.67q-.52.07-.39.57l.09.36a.24.24 0 0 0 .23.17l6.07.08q.61.01.96.52 1.27 1.86 3.58 1.39a.57.57 0 0 1 .6.86q-.57.93 1.03.91.55-.01 1.01-.3 1.36-.83 2.69.25.35.29.8.39 3.08.69 5.83 2.36a.3.3 0 0 1-.2.56q-.96-.14-1.45-.99a.89.87-15.5 0 0-.8-.44l-3.49.11a.49.48-16.8 0 0-.4.74l.9 1.49a.6.6 0 0 1-.64.9q-2-.45-1.98-2.66a.77.77 0 0 0-1.12-.69l-3.96 2.03a.86.86 0 0 0-.44 1.01l.46 1.57a.42.41 42.5 0 0 .81-.03q.37-2 1.97-3.19a.66.65 63.2 0 1 1.02.34q1.45 4.82 6.66 4.26.45-.05.19.32-.21.31-.62.42-2.45.67-4.99.36-.44-.05-.61-.46l-.68-1.62q-.24-.58-.72-.19-.93.75-.63 1.99.14.55-.36.81c-2.28 1.19-4.17 2.67-6.71 3.4q-6.68 1.92-11.61 6.92-.22.22-.01.44l8.18 8.51q.38.4.93.38 6.85-.24 13.22 2.24.52.2.63.75l.34 1.76a1.15 1.14-81 0 0 .57.79l3.53 1.95q.72.4 0 .8l-1.9 1.08q-.5.28-.36.84 1.3 5.01-.26 9.98-.15.48.29.74l.81.48a.39.39 0 0 1-.11.71l-1.48.37a.88.88 0 0 0 .23 1.74l4.36-.09a.59.58-61.7 0 1 .32 1.08q-2.95 1.86-6.48 1.68a.56.56 0 0 0-.21 1.09q3.06 1.02 2.64 4.14a.74.73 19.5 0 0 .35.72l3.85 2.3a.54.53 39.9 0 1 .08.86q-2.06 1.78-3.98 1.99-13.88 1.49-27.41 4.87-3.12.78-6.26.61-10.84-.57-21.68-.35-5.72.12-13.22 1.14c-5.88.81-11.78 1.42-17.53 2.49q-17.7 3.3-35.4 6.62-3.62.68-19.54 4.21-11 2.43-22.19 3.86-5.94.76-12.14 2.23-6.49 1.54-12.14 2.38-1.07.16-2.68-.15a1.38 1.33 32.8 0 0-1.02.2q-1.22.83-2.15-.44-.4-.55-.9-.07-2.23 2.16-5.29 3.07-.34.11-.12-.17c2.01-2.51 4.95-1.57 4.96-5.84a.27.27 0 0 1 .54-.06q.09.39.01.99a1.53 1.53 0 0 0 1.8 1.69q4.85-.91 9.48-1.63 4.15-.64 6.51-2.85.37-.34.82-.12l1.26.62a1.07 1.04 50.1 0 0 .74.08l5.28-1.4a.43.43 0 0 0 .05-.82q-2.25-.91-4.45.14-.43.21-.89.06l-2.16-.72q-.62-.2-1.14.2l-2.81 2.18q-.39.31-.82.06l-2.22-1.29a.52.52 0 0 0-.63.82l.61.62q.16.17-.01.33l-.19.19q-.05.05-.11.02-3.51-1.62-6.84.4a.37.36-34.9 0 1-.48-.08l-.25-.31q-.11-.14.03-.24l2.84-1.89q.24-.17.51-.04 1.4.67 3.03.45a.85.85 0 0 0 .24-1.61l-3.15-1.46q-.46-.21-.66.25l-.13.28q-.21.46-.73.44-1.59-.06-2.21 1.39a.61.61 0 0 1-.64.37l-6.42-.73a.71.69-61.4 0 0-.55.17l-1.68 1.47q-.54.48-.32-.21 1.28-4.11 5.6-3.43a.7.69-77.4 0 0 .78-.5l.41-1.48a.73.72 2 0 1 .55-.51l1.13-.23a.57.57 0 0 0 .17-1.05l-.37-.21q-.43-.25-.74.15-1.02 1.3-2.43 2.16c-1.68 1.03-3.24.3-5.11 1.5-1.37.87-1.57 2.43-2.53 3.81q-.34.48-.89.28-1.55-.57-2.82.5a1.04 1.02-61.6 0 1-.75.23q-1.96-.18-3.7.7-.51.25-1.03 0l-7.7-3.75q-.43-.22-.65-.65-1-2.07-3.32-2.38a.63.62-28 0 0-.36 1.18l3.06 1.51q.32.16.39.5l.31 1.59a.66.66 0 0 0 .72.52q2.56-.31 4.36 1.6a.44.43-19.1 0 1-.36.73q-2.32-.18-4.26 1.07a.56.56 0 0 1-.81-.72q.17-.33.34-.78.19-.5.05-.86-.14-.37-.54-.48-.41-.11-.53.3l-.46 1.64a.38.38 0 0 1-.7.09q-1.03-1.84-3.12-1.35a.82.82 0 0 0 .26 1.62l1.74-.15q1.05-.08.16.48-1.87 1.18-3.94.1a.87.86-54.7 0 0-1.03.18q-1.67 1.77-3.43.1-.49-.46-.66.19-.07.26.15.51.21.24-.04.44-.8.66-1.82.45-.74-.15-.41-.83l1.37-2.88a.76.76 0 0 1 1.29-.14l1.6 2.04a.91.91 0 0 0 1.55-.19c.58-1.29-.46-2.29-1.69-2.58q-1.75-.41-3.04-1.73a.75.75 0 0 0-1.29.62l.07.58q.09.69-.61.78-1.53.2-2.26-1.16-.53-.97-.91.06-.84 2.3-3.26 3.1-.32.11-.63-.05-1.29-.7-2.84-.42a1.09 1.09 0 0 0 .14 2.17q1.36.06 2.38.85.46.36 1.04.24l3-.59a.42.42 0 0 1 .27.79q-1.71.84-3.49.21a.91.87-47.9 0 0-.71.05c-3.43 1.83-8.15-1.33-11.05-3.08q-.58-.34-.69.32-.35 2.13-2.64 1.84-.43-.06-.61-.45c-.63-1.41-1.92-1.11-2.5-2.08q-.32-.54-.04-1.19.18-.43.64-.54l.86-.21a.41.4 52.1 0 0 .09-.75q-1.76-.96-2.68-2.68-.49-.92-1.24-.21-.9.84-.41 2.07.19.46.69.52l1.27.15q1.17.14.08.59c-.89.37-1.66.9-1.69 1.95q-.02 1.28 1.26 1.59.43.1.71.44.58.7 1.76 1.14 1.63.6 3.91 2.69.56.51-.18.68-1.49.34-1.66 1.89-.05.45-.5.44h-.37a.44.44 0 0 1-.33-.72l1.33-1.64q.42-.51-.05-.97-.85-.85-2.1-.77a.91.89-22.6 0 1-.73-.29l-.71-.79q-.4-.45-.89-.11-.98.68-1.48 1.73-.2.44-.67.32l-.85-.21a.45.45 0 0 1-.12-.83l1.97-1.15a.73.73 0 0 0 .03-1.24q-1.64-1.07-2.81.5a.82.82 0 0 1-.89.3l-1.48-.43q-.62-.18-.94.37l-.47.82a.6.59 13.1 0 0 .56.89q2.11-.16 2.41 1.75.11.71-.61.67-1.33-.06-1.52-1.42a1.12 1.12 0 0 0-.89-.96q-1.35-.28-1.92.48c-.56.74-.11 1.73.11 2.58a.56.55 76.7 0 1-.42.69q-1.49.31-2.99.09a.27.27 0 0 1 .06-.54q2.41.15 2.19-2.31-.05-.55.37-.89 2.75-2.26 3.97-5.19a.85.85 0 0 0-1.35-.97q-2.3 2.02-3.3 4.88-.16.47-.63.65-1.82.69-2.51 2.54-.32.86-.45-.05-.16-1.06 1.12-2.54 1.44-1.66 5.93-8.7.33-.51-.24-.72l-.33-.12q-.43-.15-.7.22-2.67 3.77-6.05 6.92-.65.61-.84 2.07-.06.45-.51.48l-1.1.09q-.53.03-.24-.41.92-1.44 2.3-3.34 2.68-3.7 5.15-6.2.43-.42.46-.8.05-.61-.59-.94a.79.78-58.6 0 0-1.01.25q-2.21 3.17-4.79 6.24-1.41 1.66-2.94 1.79-2.09.18-3.79-1.28a.58.58 0 0 1 .16-.98l1.71-.7a.51.51 0 0 0 0-.94q-1-.42-1.92.25-.37.26-.53.69-.44 1.14-1.56 1.6-.84.36-.93-.55l-.26-2.58q-.04-.41-.45-.45-1.13-.12-2.17-.28-.59-.08-.9.16-.27.22-.33.56-.11.68.57.56l1.08-.2a.53.53 0 0 1 .63.48l.15 1.95q.04.58-.53.68l-.47.08a.36.36 0 0 0 .05.71l4.25.13a.9.89 87 0 1 .86.78q.28 2.37-1.09 4.27a1.06 1.06 0 0 1-1.92-.64q.03-1.54 1.65-1.48.68.02.49-.63l-.37-1.24a.65.65 0 0 0-.93-.4q-2.45 1.3-5.17.51a.54.54 0 0 1-.32-.77l.92-1.73q.46-.86-.51-.83l-4.25.16q-.69.02-.83.7l-.14.63a.43.42-66.2 0 1-.67.26l-2.74-2.03q-.33-.25-.35-.67l-.02-.79q-.01-.53.36-.15l2.38 2.42q.57.58 1.03-.1l.85-1.28q.31-.47.87-.46c4.7.03 1.78-7.39.76-9.4q-1.42-2.79-2.84-5.57-.44-.85-1.35-.49-.43.16-.39-.3.29-3.57-2.72-5.53a.62.61-54.9 0 1-.15-.89q3.09-4.1 7.7-5.32c5.75-1.53 11.18-3.57 17.04-4.74q2.57-.51 4.65-1.92.82-.55-.17-.53-8.59.24-16.74 3.29Zm251.655-64.06a3.37.54-11.3 0 0-3.41.13 3.37.54-11.3 0 0-3.2 1.19 3.37.54-11.3 0 0 3.41-.13 3.37.54-11.3 0 0 3.2-1.19Zm14.785 2.05q-1.61-.21-2.97.82-.75.57.19.44l2.78-.4a.44.43-45.2 0 0 0-.86Zm7.28 2.24 6.31 2.84a.14.14 0 0 0 .18-.07l.02-.03a3.43 1.13 24.2 0 0-2.67-2.43l-.31-.14a3.43 1.13 24.2 0 0-3.59-.38l-.01.03a.14.14 0 0 0 .07.18Zm2.19 4.68q-.68-.19-.45.48l.35 1.03q.21.62.84.42l1.58-.52q1.23-.4-.02-.75l-2.3-.66ZM110.47 173.7a.72.72 0 0 1 .72-.72l12.74.02a.72.72 0 0 0 .72-.72l.02-6.44a.72.72 0 0 0-.73-.73l-12.73.07a.72.72 0 0 1-.73-.71l-.11-5.13a.72.72 0 0 1 .72-.74h16.78a.72.72 0 0 0 .72-.72l.02-7.65a.72.72 0 0 0-.72-.72l-25.4.02a.72.72 0 0 0-.72.72l-.04 37.71a.72.72 0 0 0 .73.73l26.05-.18a.72.72 0 0 0 .72-.71l.09-7.58a.72.72 0 0 0-.72-.73l-17.43-.01a.72.72 0 0 1-.72-.72l.02-5.06Zm34.67 8.43 13.78-.02a1.49 1.47 80.1 0 1 1.41 1l1.61 4.76a.91.91 0 0 0 .86.62l7.13.02a.57.57 0 0 0 .54-.77q-6.93-18.41-13.83-36.27c-1.02-2.65-4.02-2.03-6.14-2.07-2.57-.04-2.65 1.94-3.39 3.84q-6.64 17.27-13.27 34.62-.26.69.48.69l7.32-.04q.51-.01.7-.48l2.14-5.45a.72.71-79 0 1 .66-.45Zm33.77-23.43a.88.88 0 0 1 .87.87l.26 28.07a.88.88 0 0 0 .89.88l6.68-.04a.88.88 0 0 0 .87-.87l.05-28.06a.88.88 0 0 1 .87-.88l8.63-.04a.88.88 0 0 0 .88-.89l-.01-7.34a.88.88 0 0 0-.88-.88l-27.46-.01a.88.88 0 0 0-.88.88v7.37a.88.88 0 0 0 .87.88l8.36.06Zm46.81 20.49c-2.21.79-7.56.92-9.21-1.73q-2.05-3.29-1.93-7.22.29-9.97.29-20.02a.67.66.4 0 0-.66-.66l-6.95-.08q-.67-.01-.68.66-.14 11.23.09 22.46c.14 6.66 1.73 11.33 7.74 14 9.36 4.14 22.5.41 23.46-11.33q.7-8.46.15-25.03-.02-.6-.62-.61l-7.14-.13a1.2 1.19-89.5 0 0-1.21 1.2q-.01 11.68-.05 22.84c0 2.46-1.02 4.84-3.28 5.65Zm30.34-3.63 4.8-.03q.72-.01 1.06.63l6.24 11.69a.92.92 0 0 0 .81.48l7.83-.03q.99 0 .52-.87l-7.24-13.52q-.23-.43.1-.78c1.41-1.51 3.28-2.81 4.28-4.35 5.33-8.19-.26-18.06-9.99-18.83q-8.44-.66-16.64-.42a.74.73-1.6 0 0-.71.74l.11 37.52a.68.67 89.2 0 0 .68.67l6.85-.02q.65-.01.65-.65l.03-11.6q0-.63.62-.63ZM292 159.52a1.01 1.01 0 0 1 1-1.02l15.94-.06a1.01 1.01 0 0 0 1-.95l.36-6.77a1.01 1.01 0 0 0-1-1.07l-24.58-.15a1.01 1.01 0 0 0-1.02 1.01l.07 36.96a1.01 1.01 0 0 0 1.01 1.01l25.33-.13a1.01 1.01 0 0 0 1-1l.03-6.83a1.01 1.01 0 0 0-1.02-1.02l-17.1.07a1.01 1.01 0 0 1-1.01-1.01l-.01-4.71a1.01 1.01 0 0 1 1.01-1.01l12.26.04a1.01 1.01 0 0 0 1.01-1.01l.01-5.64a1.01 1.01 0 0 0-1.01-1.01l-12.18.04a1.01 1.01 0 0 1-1.02-.99l-.08-4.75Zm26.71-9.18.14 37.44a.71.71 0 0 0 .71.7l11-.04a20.27 19.27-.2 0 0 20.2-19.34v-.32a20.27 19.27-.2 0 0-20.34-19.19l-11 .03a.71.71 0 0 0-.71.72Zm-180.41 44.8-3.34-2.71q-.16-.13-.3.02l-.4.4a.29.29 0 0 0 .05.45l3.68 2.27a.27.26-9.5 0 0 .31-.43Zm11.083 1.462a1.22.31 44.3 0 0-.657-1.074 1.22.31 44.3 0 0-1.09-.63 1.22.31 44.3 0 0 .657 1.074 1.22.31 44.3 0 0 1.09.63Zm-23.063 2.748q.32.31.71.26a.59.58-38.5 0 0 .13-1.13l-2.63-.96a.3.29-20 0 0-.25.53c.8.45 1.37.65 2.04 1.3Zm-56.14 3.1a.04.04 0 0 0 .07-.03q-.13-2.6-2.02-4.36a.7.7 0 0 0-.84-.08l-.62.38q-.56.34-.09.79l3.5 3.3Zm77.578-2.81a.86.54 77.4 0 0 .339-.958.86.54 77.4 0 0-.715-.721.86.54 77.4 0 0-.339.957.86.54 77.4 0 0 .715.721Zm-14.258-.34q-.72.32-.61 1.04a.52.52 0 0 0 1.03-.07l.02-.68a.31.31 0 0 0-.44-.29Zm-9.06 3.28a.72.66 86.2 0 0 .86-1.08q-1.28-1.26-3.02-1.72-1.14-.29-.28.51l2.44 2.29Zm20.24-2.3q-.1.93.84 1.39.7.34.63-.43l-.08-.95a.7.7 0 0 0-1.39-.01Zm4.22.22q.04.45.38.74a.61.61 0 0 0 .91-.8q-.24-.38-.69-.47-.65-.12-.6.53Zm139.309.23a3.07.4-1.5 0 0-3.08-.32 3.07.4-1.5 0 0-3.058.48 3.07.4-1.5 0 0 3.08.32 3.07.4-1.5 0 0 3.058-.48Zm-155.99 2.226a1.51.59 28.3 0 0-1.05-1.236 1.51.59 28.3 0 0-1.609-.196 1.51.59 28.3 0 0 1.05 1.236 1.51.59 28.3 0 0 1.61.196Zm20.784-.806a.75.55-20.3 0 0-.894-.256.75.55-20.3 0 0-.512.776.75.55-20.3 0 0 .894.256.75.55-20.3 0 0 .512-.776Zm122.197.184a.99.47 1.4 0 0-.978-.494.99.47 1.4 0 0-1.002.446.99.47 1.4 0 0 .978.494.99.47 1.4 0 0 1.002-.446Zm-159.49.006-.5.61a.46.45 26.3 0 0 .25.73l.59.15q.87.21.6-.65l-.23-.71q-.23-.72-.71-.13Zm131.47.733a3.03.59-10.4 0 0-3.087-.033 3.03.59-10.4 0 0-2.873 1.127 3.03.59-10.4 0 0 3.087.033 3.03.59-10.4 0 0 2.873-1.127Zm-102.733 1.657a1.16.56 48.6 0 0-.347-1.24 1.16.56 48.6 0 0-1.187-.5 1.16.56 48.6 0 0 .347 1.24 1.16.56 48.6 0 0 1.187.5Zm-16.357-.88q-.35-.42-.85-.49-.85-.12-.25.49l2.26 2.33a.62.62 0 0 0 .89-.85q-.66-.71-1.53-1.09-.3-.14-.52-.39Zm-18.883 3.065a1.98.33 132.3 0 0 1.577-1.243 1.98.33 132.3 0 0 1.089-1.686 1.98.33 132.3 0 0-1.577 1.242 1.98.33 132.3 0 0-1.089 1.686Zm130.455-2.701a2.89.65-11.5 0 0-2.962-.061 2.89.65-11.5 0 0-2.702 1.213 2.89.65-11.5 0 0 2.962.061 2.89.65-11.5 0 0 2.702-1.213ZM119.1 205.56q.05-1.07-.33-1.35a.75.62 1 0 0-1.08.85l.77.75a.38.38 0 0 0 .64-.25Zm6.94 1.32q-1-1.82-3.04-2.55-1.19-.42-.23.4l2.87 2.47a.26.26 0 0 0 .4-.32Zm23.45-2.17q.62.75 1.53.49a.52.52 0 0 0-.11-1.01l-1.11-.08a.37.37 0 0 0-.31.6Zm-12.132 2.109a2.03.52 36.2 0 0-1.33-1.619 2.03.52 36.2 0 0-1.946-.779 2.03.52 36.2 0 0 1.33 1.619 2.03.52 36.2 0 0 1.946.779Zm-22.7-.22a.86.63 52.2 0 0-.03-1.065.86.63 52.2 0 0-1.025-.293.86.63 52.2 0 0 .03 1.065.86.63 52.2 0 0 1.024.293Zm117.932-2.139-8.5 3.47a.15.15 0 0 0-.08.19l.01.02a4.62 1.47-22.2 0 0 4.83-.39l.22-.09a4.62 1.47-22.2 0 0 3.72-3.1v-.02a.15.15 0 0 0-.2-.08Zm-33.66 12.76q.75 1.91 2.83 1.13 2.24-.83 4.15-1.35 1.18-.32 4.29-.43 3.97-.15 7.38-2.28.54-.34 1.16-.17 4.24 1.19 7.51-1.53.4-.34.93-.41 10.13-1.34 20.02-3.9c3.42-.89 7.07-1.02 10.39-1.85q2.49-.63-.07-.41-17.33 1.45-34.14 5.93-.49.13-.85-.23-1.09-1.1-2.38-.04-1.55 1.26-3.09 1.07-.48-.05-.88.21-1.68 1.11-3.19-.22a.62.62 0 0 0-.94.16q-1.25 2.12-3.45.83a.71.69-52.3 0 0-.86.12q-2.4 2.46-5.04.15a.45.45 0 0 1 .21-.79l11.03-2.15a.23.23 0 0 0-.01-.45l-1.93-.28q-.7-.1-.7-.81l.01-1.53a.26.26 0 0 0-.51-.06l-.3 1.55q-.09.42-.51.46-1.67.15-2.91 1.26-.42.38-.97.32-5.36-.51-10.32 1.55-.44.18-.91.12-2.02-.28-2.92 1.56a.56.56 0 0 0 .33.78q1.81.6 2.59-1.17a.78.77-77.3 0 1 .74-.47c2.64.06 5.44-.67 7.11 2.22q.26.45-.26.47-2.82.09-5.25-1.18a.45.45 0 0 0-.57.66q.62.88 1.75.82.39-.02.53.34Zm-76.978-9.312a1.23.69 34.6 0 0-.62-1.266 1.23.69 34.6 0 0-1.404-.13 1.23.69 34.6 0 0 .62 1.266 1.23.69 34.6 0 0 1.404.13Zm45.955.531a1.44.53 46.2 0 0-.615-1.406 1.44.53 46.2 0 0-1.379-.672 1.44.53 46.2 0 0 .614 1.406 1.44.53 46.2 0 0 1.38.672Zm-48.148 1.759a.65.65 0 0 0-.105-.913l-2.79-2.211a.65.65 0 0 0-.913.105l-.05.063a.65.65 0 0 0 .105.913l2.79 2.211a.65.65 0 0 0 .913-.105l.05-.063Zm7.955-1.248a.93.62 75.4 0 0 .366-1.056.93.62 75.4 0 0-.834-.744.93.62 75.4 0 0-.366 1.056.93.62 75.4 0 0 .834.744Zm7.084.544a1.76.61 35.2 0 0-1.086-1.512 1.76.61 35.2 0 0-1.79-.517 1.76.61 35.2 0 0 1.086 1.513 1.76.61 35.2 0 0 1.79.516Zm-26.517-1.47a.46.46 0 0 0-.65-.027l-3.725 3.425a.46.46 0 0 0-.027.65l.04.044a.46.46 0 0 0 .65.027l3.725-3.425a.46.46 0 0 0 .027-.65l-.04-.044Zm32.717.992a.97.68 14.7 0 0-.765-.904.97.68 14.7 0 0-1.111.412.97.68 14.7 0 0 .765.904.97.68 14.7 0 0 1.111-.412Zm79.922.344.74.09a.32.32 0 0 0 .27-.55l-.57-.54q-.38-.35-.87-.2l-4.2 1.35a.53.53 0 0 0-.04.99q2.27.9 4.02-.91a.77.76-64 0 1 .65-.23Zm-74.38.87q.34.19.58.03.47-.29-.03-.54l-1.49-.73q-.67-.33-.54.41.15.8.96.72.28-.02.52.11Zm10.87.676a.95.54 99.7 0 0 .692-.845.95.54 99.7 0 0-.372-1.027.95.54 99.7 0 0-.692.845.95.54 99.7 0 0 .372 1.027Zm6.686-1.527a1.52.51-4.2 0 0-1.553-.398 1.52.51-4.2 0 0-1.479.62 1.52.51-4.2 0 0 1.553.398 1.52.51-4.2 0 0 1.479-.62Zm-34.246 1.061q.46.21.95-.02a.36.36 0 0 0 .02-.64l-.72-.42a.45.45 0 0 0-.67.43q.05.47.42.65Zm52.4-.42-.34.41a.39.38 16.6 0 0 .34.62q1.19-.13 1.29-1.38.02-.23-.2-.16-.24.08-.49.14a1.06 1.03 12.3 0 0-.6.37Zm-86.23 1.88-.62.33q-.53.29-.41.89l.09.41q.18.86.76.2l1.99-2.3q.48-.55-.08-1.01l-.72-.59q-.27-.23-.21.12.09.57-.2 1.29-.18.43-.6.66Zm52.32-.57.14.38a.28.27-41.2 0 0 .5.03l.48-.92q.33-.64-.39-.69l-1.54-.1a.13.12 71 0 0-.1.21l.76.85a.68.6-80.3 0 1 .15.24Zm5.82.66q.72 1.31 1.53 1.38.57.05.43-.51-.25-.96-1.96-.87.08-1.95-1.28-2.06a.92.92 0 0 0-.69 1.61q.66.6 1.97.45Zm16.783-1.745a.87.53-14.3 0 0-.974-.299.87.53-14.3 0 0-.712.729.87.53-14.3 0 0 .974.299.87.53-14.3 0 0 .712-.729Zm-31.225 2.816a2.13.73 38 0 0-1.229-1.886 2.13.73 38 0 0-2.127-.736 2.13.73 38 0 0 1.229 1.886 2.13.73 38 0 0 2.127.736Zm25.812-2.071q-.19.22-.3.49-.24.64.45.6.65-.05 1.19-.53a.84.7 5.2 0 0-1.08-1.09q-.08.05-.14.3a.52.51-17.9 0 1-.12.23Zm-48.209.951a1.04.68 36 0 0-.441-1.161 1.04.68 36 0 0-1.241-.061 1.04.68 36 0 0 .441 1.161 1.04.68 36 0 0 1.241.061Zm7.409 1.659-2.86-2.83a.8.8 0 0 0-1.34.38l-.2.82a.55.54 1 0 0 .64.66q1.28-.25 1.86 1.1a.75.75 0 0 0 .56.44l1.15.22q.44.08.73.43 2.03 2.41 2.96 3 .99.63 1.62-.13.35-.42-.12-.7-1.89-1.1-3.22-2.69-.28-.34-1.06-.39-.42-.02-.72-.31Zm52.46-1.48 1.14.52q.75.35.52-.44-.31-1.08-1.43-1.09a.53.53 0 0 0-.23 1.01Zm-42.97 1.3-.83-1.78a.62.55-73.6 0 0-.99.62q.49 1.05 1.57 1.44.47.17.25-.28Zm13.369 1.198a2.15.79 39.5 0 0-1.156-1.978 2.15.79 39.5 0 0-2.162-.758 2.15.79 39.5 0 0 1.157 1.978 2.15.79 39.5 0 0 2.161.758Zm38.061-2.518-1.1.34a.53.53 0 0 0 .1 1.03q.99.12 1.51-.7.65-1.03-.51-.67Zm-77.055.909a.76.52-11.5 0 0-.849-.359.76.52-11.5 0 0-.64.661.76.52-11.5 0 0 .848.359.76.52-11.5 0 0 .64-.661Zm80.945-.489c-.54 2.91-4.28 2.99-6.57 2.79q-.62-.06-.65.58l-.01.26q-.02.62.59.66l4.79.28q.44.03.75-.28 1.8-1.79 1.57-4.27a.24.24 0 0 0-.47-.02Zm-57.93 3.03a.58.57-21.5 0 0 .45-1.02l-2.34-1.83q-.58-.45-.89.22-.79 1.72.66 2.19.63.2 2.12.44Zm49.941-1.342a1.18.52 31 0 0-.743-1.054 1.18.52 31 0 0-1.28-.162 1.18.52 31 0 0 .744 1.054 1.18.52 31 0 0 1.28.162Zm-89.481.242.54-.17q.68-.23.17-.73l-.37-.37q-.47-.46-.93 0l-2.01 1.99q-.34.35-.54.8-1.26 2.82-4.21 4.19a.52.52 0 0 0 .01.94q1.59.72 3.25-.34.18-.11.13-.32l-.16-.66a1 1 0 0 1 .19-.85l3.1-3.9q.33-.41.83-.58Zm10.015.392a.97.51 116 0 0 .883-.648.97.51 116 0 0-.033-1.096.97.51 116 0 0-.883.648.97.51 116 0 0 .033 1.096Zm16.845-.902q.44.3.68.36.28.08.35-.35.09-.6-.39-.97a.39.39 0 0 0-.56.11l-.19.3a.41.4-56.5 0 0 .11.55Zm-42.54.13q-.28-.04-.62-.03a.26.26 0 0 0-.02.51q1.73.17 3.51-.08a.41.41 0 0 0-.01-.82q-1.11-.12-2.2.33-.32.14-.66.09Zm10.14.5 1.22.39q.77.25.41-.48-.5-1.02-1.55-.87a.5.49-40.4 0 0-.08.96Zm11.348.614a.98.84 134.1 0 0 1.285-.12.98.84 134.1 0 0 .079-1.288.98.84 134.1 0 0-1.285.12.98.84 134.1 0 0-.079 1.288Zm53.488-1.539a.76.55-35.8 0 0-.938-.001.76.55-35.8 0 0-.294.89.76.55-35.8 0 0 .938.002.76.55-35.8 0 0 .294-.89Zm-33.204 3.135a2.47.92 37.4 0 0-1.403-2.23 2.47.92 37.4 0 0-2.521-.77 2.47.92 37.4 0 0 1.403 2.23 2.47.92 37.4 0 0 2.521.77Zm3.728-2.52q-.24-.31-.5-.34a1.07 1.03 60.7 0 0-.52 2q2.1 1.05 3.54 2.94a.77.77 0 0 0 1.34-.72q-.77-2.13-3.12-3.28-.44-.22-.74-.6Zm37.274.74a1.02.79 20.7 0 0-.675-1.099 1.02.79 20.7 0 0-1.233.379 1.02.79 20.7 0 0 .675 1.099 1.02.79 20.7 0 0 1.233-.379Zm17.933-.58a.96.49-4.2 0 0-.993-.419.96.49-4.2 0 0-.921.56.96.49-4.2 0 0 .993.418.96.49-4.2 0 0 .921-.56Zm-66.587 3.4q-.92-1.74-3.01-.88a.72.71-35.6 0 0-.2 1.2q.74.63 1.74.47a1.09 1.08-26.3 0 1 .98.33q1.39 1.51 2.95 2.77.72.58 1.49.04a.52.51-46.5 0 0-.02-.86q-2.74-1.68-.76-4.1a.52.52 0 0 0-.16-.79l-2.58-1.39q-.47-.25-.39.28.08.44.48.6.44.17.53.64.25 1.22-.65 1.8-.26.17-.4-.11Zm-29.27-2.92q-.63-.34-.59.38l.09 1.73q.06 1.17.83.3l.83-.93a.6.6 0 0 0-.16-.93l-1-.55Zm56.07.02a.3.3 0 0 0-.42.35l.2.65q.14.48.64.5 1.71.06 2.56 1.51.42.72.59-.09.23-1.13-.87-1.61-1.22-.54-2.7-1.31Zm12.68.72q.19-.53-.23-.57-.79-.09-1.49.3-.48.26-.13.68 1.64 1.91 2.72 2.58 1.07.65 1.79-.32.39-.52-.18-.83l-2.24-1.21q-.39-.22-.24-.63Zm7.297 1.744a.61.61 0 0 0-.248-.827l-3.082-1.659a.61.61 0 0 0-.826.248l-.038.07a.61.61 0 0 0 .248.827l3.082 1.659a.61.61 0 0 0 .826-.248l.038-.07Zm2.963-1.774a.72.72 0 0 0 .76 1.11q.68-.17.98-.89.24-.6-.39-.72-.9-.17-1.35.5Zm-74.31.95q-.38-1.37-1.97-.75-.72.28-.29.92l.46.66a1.01 1 20.2 0 0 1.8-.83Zm14.71 1.15c.25-.59.75-.77 1.09-1.24a.5.5 0 0 0-.72-.67l-2.85 2.29a.65.65 0 0 0 .14 1.1l1.58.72q.75.34.61-.47-.16-.97.15-1.73Zm32.92-1.74q-.53.28-.89.75a1.07.92-10.1 0 0 1.72 1.01q.53-.63-.21-1.62-.25-.34-.62-.14Zm40.82.85q.25-.4-.18-.59-1.09-.49-1.49.95a.62.62 0 0 0 1.11.5l.56-.86Zm-54.64.22a.41.41 0 0 0-.55.53q.88 2.05 2.86 2.72a1.01 1.01 0 0 0 .74-1.87l-3.05-1.38Zm-1.345 3.297a.6.6 0 0 0-.131-.838l-2.343-1.709a.6.6 0 0 0-.838.131l-.118.162a.6.6 0 0 0 .131.838l2.343 1.709a.6.6 0 0 0 .838-.131l.118-.162Zm25.192-.611a1.4.93 14.3 0 0-1.127-1.247 1.4.93 14.3 0 0-1.587.555 1.4.93 14.3 0 0 1.127 1.247 1.4.93 14.3 0 0 1.587-.555Zm-3.662.8a1.53.88 23.3 0 0-1.057-1.414 1.53.88 23.3 0 0-1.753.203 1.53.88 23.3 0 0 1.057 1.413 1.53.88 23.3 0 0 1.753-.203Zm14.485-.276a.58.57 39.7 0 0 .46-.04q1.1-.58.14-1.37a.83.82 48.7 0 0-.96-.07q-1.42.88.36 1.48Zm-52.28.49.15-.24a.38.38 0 0 0-.6-.45l-2.34 2.41q-.38.39-.03.8l.56.66a.63.63 0 0 0 1.06-.18l.99-2.57q.09-.22.21-.43Zm6.26.06q-.68-.14-.74.55-.14 2.06 2.16 1.67 1.55-.27.38-1.32-.78-.69-1.8-.9Zm10.474 3.455a.69.69 0 0 0-.29-.932l-2.479-1.301a.69.69 0 0 0-.931.29l-.028.053a.69.69 0 0 0 .29.932l2.479 1.301a.69.69 0 0 0 .931-.29l.028-.053Z"/><ellipse fill="#c6ebf3" transform="rotate(34.9 -16.306 603.068)" rx="1.42" ry=".6"/><rect fill="#c6ebf3" x="-4.13" y="-.43" transform="rotate(-.6 11409.03 -33428.347)" width="8.26" height=".86" rx=".27"/><ellipse fill="#c6ebf3" transform="rotate(-20.1 572.245 -975.404)" rx="1.09" ry=".26"/><path fill="#c6ebf3" d="m361.73 140.13.76-.03a.35.35 0 0 1 .15.67q-.81.33-1.07-.41a.18.17-11 0 1 .16-.23Z"/><path fill="#453b9d" d="M76.37 188.08q-3.41 1.13-8.2.53l-.03-36.83q0-2.12 2.11-2.13l22.49-.17a1.01 1.01 0 0 1 1.02 1.01l-.01 6.98a1.22 1.21-89.5 0 1-1.22 1.21l-15.31-.09a.46.45-88.7 0 0-.45.44l-.16 6.89a.56.56 0 0 0 .56.57l11.58-.01q.76 0 .76.77l-.01 6.95a1.46 1.46 0 0 1-1.47 1.46l-10.95-.03q-.49 0-.49.48l-.22 11.97ZM110.47 173.7l-.02 5.06a.72.72 0 0 0 .72.72l17.43.01a.72.72 0 0 1 .72.73l-.09 7.58a.72.72 0 0 1-.72.71l-26.05.18a.72.72 0 0 1-.73-.73l.04-37.71a.72.72 0 0 1 .72-.72l25.4-.02a.72.72 0 0 1 .72.72l-.02 7.65a.72.72 0 0 1-.72.72h-16.78a.72.72 0 0 0-.72.74l.11 5.13a.72.72 0 0 0 .73.71l12.73-.07a.72.72 0 0 1 .73.73l-.02 6.44a.72.72 0 0 1-.72.72l-12.74-.02a.72.72 0 0 0-.72.72ZM144.48 182.58l-2.14 5.45q-.19.47-.7.48l-7.32.04q-.74 0-.48-.69 6.63-17.35 13.27-34.62c.74-1.9.82-3.88 3.39-3.84 2.12.04 5.12-.58 6.14 2.07q6.9 17.86 13.83 36.27a.57.57 0 0 1-.54.77l-7.13-.02a.91.91 0 0 1-.86-.62l-1.61-4.76a1.49 1.47 80.1 0 0-1.41-1l-13.78.02a.72.71-79 0 0-.66.45Zm3.3-10.77a.9.9 0 0 0 .86 1.19h7.08a.9.9 0 0 0 .86-1.19l-3.55-10.34a.9.9 0 0 0-1.7 0l-3.55 10.34ZM178.91 158.7l-8.36-.06a.88.88 0 0 1-.87-.88v-7.37a.88.88 0 0 1 .88-.88l27.46.01a.88.88 0 0 1 .88.88l.01 7.34a.88.88 0 0 1-.88.89l-8.63.04a.88.88 0 0 0-.87.88l-.05 28.06a.88.88 0 0 1-.87.87l-6.68.04a.88.88 0 0 1-.89-.88l-.26-28.07a.88.88 0 0 0-.87-.87ZM225.72 179.19c2.26-.81 3.28-3.19 3.28-5.65q.04-11.16.05-22.84a1.2 1.19-89.5 0 1 1.21-1.2l7.14.13q.6.01.62.61.55 16.57-.15 25.03c-.96 11.74-14.1 15.47-23.46 11.33-6.01-2.67-7.6-7.34-7.74-14q-.23-11.23-.09-22.46.01-.67.68-.66l6.95.08a.67.66.4 0 1 .66.66q0 10.05-.29 20.02-.12 3.93 1.93 7.22c1.65 2.65 7 2.52 9.21 1.73Z"/><path fill="#5958d7" d="m255.44 176.19-.03 11.6q0 .64-.65.65l-6.85.02a.68.67 89.2 0 1-.68-.67l-.11-37.52a.74.73-1.6 0 1 .71-.74q8.2-.24 16.64.42c9.73.77 15.32 10.64 9.99 18.83-1 1.54-2.87 2.84-4.28 4.35q-.33.35-.1.78l7.24 13.52q.47.87-.52.87l-7.83.03a.92.92 0 0 1-.81-.48l-6.24-11.69q-.34-.64-1.06-.63l-4.8.03q-.62 0-.62.63Zm-.07-17.68.04 7.92a1.39 1.39 0 0 0 1.4 1.38l6.49-.03a5.17 4.36 89.7 0 0 4.33-5.19v-.36a5.17 4.36 89.7 0 0-4.39-5.15l-6.49.03a1.39 1.39 0 0 0-1.38 1.4Z"/><path fill="#646ef3" d="m292 159.52.08 4.75a1.01 1.01 0 0 0 1.02.99l12.18-.04a1.01 1.01 0 0 1 1.01 1.01l-.01 5.64a1.01 1.01 0 0 1-1.01 1.01l-12.26-.04a1.01 1.01 0 0 0-1.01 1.01l.01 4.71a1.01 1.01 0 0 0 1.01 1.01l17.1-.07a1.01 1.01 0 0 1 1.02 1.02l-.03 6.83a1.01 1.01 0 0 1-1 1l-25.33.13a1.01 1.01 0 0 1-1.01-1.01l-.07-36.96a1.01 1.01 0 0 1 1.02-1.01l24.58.15a1.01 1.01 0 0 1 1 1.07l-.36 6.77a1.01 1.01 0 0 1-1 .95l-15.94.06a1.01 1.01 0 0 0-1 1.02Z"/><path fill="#7287fd" d="M318.71 150.34a.71.71 0 0 1 .71-.72l11-.03a20.27 19.27-.2 0 1 20.34 19.19v.32a20.27 19.27-.2 0 1-20.2 19.34l-11 .04a.71.71 0 0 1-.71-.7l-.14-37.44Zm8.26 9.22-.16 18.96a1.1 1.1 0 0 0 1.09 1.11l4.32.04a10.2 10.09.5 0 0 10.29-10v-.98a10.2 10.09.5 0 0-10.11-10.18l-4.32-.04a1.1 1.1 0 0 0-1.11 1.09Z"/><path fill="#c6ebf3" d="M255.37 158.51a1.39 1.39 0 0 1 1.38-1.4l6.49-.03a5.17 4.36 89.7 0 1 4.39 5.15v.36a5.17 4.36 89.7 0 1-4.33 5.19l-6.49.03a1.39 1.39 0 0 1-1.4-1.38l-.04-7.92ZM326.97 159.56a1.1 1.1 0 0 1 1.11-1.09l4.32.04a10.2 10.09.5 0 1 10.11 10.18v.98a10.2 10.09.5 0 1-10.29 10l-4.32-.04a1.1 1.1 0 0 1-1.09-1.11l.16-18.96ZM147.78 171.81l3.55-10.34a.9.9 0 0 1 1.7 0l3.55 10.34a.9.9 0 0 1-.86 1.19h-7.08a.9.9 0 0 1-.86-1.19ZM173.24 220.26q.1-.22.27-.09.36.27-.05.45-.93.4-1.77-.12-.49-.3.08-.38.57-.09 1.06.24a.28.28 0 0 0 .41-.1ZM59.23 223.5l-1.82-.7q-.61-.23-.55-.89l.04-.32q.07-.73.65-.26l1.99 1.64a.31.31 0 0 1-.31.53ZM61.26 221.41l12.19 6.4a.76.75-56 0 0 .95-.19l1.69-2.03q.36-.44.54.1.37 1.14-.1 2.06c-1.19 2.31-5.25.67-6.61-.58q-.39-.36-.91-.3-.87.09-1.14-.5-.2-.44-.63-.67l-5.58-2.92q-.54-.28-.56-.88l-.01-.39q0-.19.17-.1ZM159.9 222.25q1.83-.77 3.58.21a.43.43 0 0 1-.25.8l-3.41-.26q-.45-.03-.78.28-1.03.96-2.49 1.13a.48.48 0 0 1-.46-.74q1.05-1.59 2.94-1.31.45.07.87-.11ZM128.85 222.81l.55.12a.49.49 0 0 1-.14.97l-.95-.07q-.83-.07-.24-.66l.19-.19q.25-.24.59-.17ZM55.86 223.74q-.37 1.06-1.4 1.17a.44.44 0 0 1-.4-.7q.68-.93 1.94-.94.22-.01.07.15-.16.16-.21.32ZM152.22 223.92q1-.26 1.81.35.68.5-.16.52-1.09.02-2-.87-.14-.14-.33-.06-.27.11-.14-.17.05-.12.16-.06l.5.27a.25.22 48.6 0 0 .16.02Z"/><ellipse fill="#c6ebf3" transform="rotate(-31.7 471.532 -149.319)" rx="1.27" ry=".56"/><path fill="#c6ebf3" d="M83.83 226.84a.4.39 50.2 0 1-.6-.06l-.41-.57q-.35-.5.17-.81.65-.4 1.43-.4 1.26 0 .36.89l-.95.95ZM137.09 225.66a.4.39 24.9 0 1 .63-.23l.63.47q.67.51-.08.91l-.99.53q-.58.3-.45-.34l.26-1.34ZM112.65 227.02q.5-1.38 2.08.08a.44.44 0 0 1-.28.76l-1.14.05a.67.67 0 0 1-.66-.89ZM162.97 226.63c-1.28.47-1.9-.24-3.08-.25h-.02q.01.01.02.01 1.49-.21 3.05-.04.59.07.03.28ZM117.55 227.53c-.15.46-.12.91-.36 1.31a.58.58 0 0 1-1.05-.47q.28-.89.97-1.54.58-.54.52.25-.01.24-.08.45ZM147.21 230.13l-.18-1.1q-.06-.44.38-.48 1.87-.16 2.93 1.2a.98.98 0 0 0 1.72-.84q-.22-.85-1.16-1.25a.44.44 0 0 1 .32-.82l1.4.51a1.69 1.69 0 0 1-.96 3.24q-1.73-.41-3.51-.35-.47.01-.68.43l-.24.47q-.23.46-.69.23-2.29-1.14-3.69.84a.45.45 0 0 1-.76-.47q.74-1.35 1.89-2.28a.51.51 0 0 1 .73.09l.91 1.24a.89.89 0 0 0 1.59-.66ZM66.78 227.41a.91.9-33.6 0 1-.36 1.77l-.42-.06a.94.03 29.6 0 1-.76-.4q-1.94-1.13-3.48.75a.6.59-38 0 1-1-.12q-.52-1.08 1.16-1.67 2.53-.89 4.86-.27ZM157.42 227.15a.48.48 0 0 1 .01.94q-1.24.3-2.41-.15-.48-.18-.04-.44 1.14-.65 2.44-.35ZM85.87 228.43l.25-.51q.12-.24.34-.08.66.46.28.96a.28.28 0 0 1-.36.07l-.45-.25a.15.14 28.5 0 1-.06-.19ZM58.9 228.53q.64 1.58-1.14 1.87-.5.08-.65-.39-.52-1.65.88-1.96a.79.79 0 0 1 .91.48Z"/><rect fill="#c6ebf3" x="-5.48" y="-.4" transform="rotate(-6.3 2109.825 -344.456)" width="10.96" height=".8" rx=".27"/><path fill="#c6ebf3" d="M104.78 228.49a.62.62 0 0 1 1.21.14q.04 1.16-1.28 1.54-.43.13-.31-.31l.38-1.37ZM133.07 232.97q1.95-3.59 6.88-3.24.47.03.2.41c-.86 1.2-2.84.76-3.98.76q-.52-.01-.82.42-.87 1.24-2.28 1.65Z"/><ellipse fill="#c6ebf3" transform="rotate(-27.1 523.84 -67.06)" rx="2.13" ry=".25"/><path fill="#c6ebf3" d="m71.26 231.71-1.25.39q-.51.17-.26-.3.49-.92 1.49-.68 1.07.25.02.59ZM74.98 231.75q-.5.53-1.08 0a.24.24 0 0 1 .14-.41l.69-.08q.81-.1.25.49ZM59.98 232.99q1.03-.9 2.47-.99.18-.01.2.17l.02.27q.01.16-.14.19l-3.16.71a.09.08 88.1 0 1-.1-.1q.03-.18.21-.13.28.08.5-.12ZM82.97 233.4q-2.06 1.18-4.31.28a.26.26 0 0 1 .11-.51q2.26.14 4.31.27.03 0 .04-.03 0-.02.01-.02 0-.01-.02-.01h-.08q-.03 0-.06.02ZM133.07 232.97q-1.35 1.04-2.71 1.01-.86-.02-.09-.43 1.11-.58 2.8-.58ZM106.21 237.12a.34.34 0 0 1 .41.26q.12.57-.83.5a.33.33 0 0 1-.05-.65l.47-.11ZM97.13 239.49q-.37.25-.81.22a.34.33 46.9 0 1 .02-.67l.66.01q.77 0 .13.44Z"/></svg>