<?xml version="1.0" encoding="utf-8"?>
<!-- Generator: Adobe Illustrator 19.2.1, SVG Export Plug-In . SVG Version: 6.00 Build 0)  -->
<svg version="1.1" id="layer" xmlns="http://www.w3.org/2000/svg" xmlns:xlink="http://www.w3.org/1999/xlink" x="0px" y="0px"
	 viewBox="0 0 652 652" style="enable-background:new 0 0 652 652;" xml:space="preserve">
<style type="text/css">
	.st0{fill:#C41320;}
</style>
<path class="st0" d="M505.1,355.1c-36.5,0-43.2-21.4-43.2-26.7h26.5c0,3.1,4.1,6.9,7.7,8.4c2.9,1.1,6,1.7,9.2,1.5h0
	c7.4,0,13.5-1.8,13.5-6.2c0-5.4-6.2-6.5-13.1-7.5c-18.8-2.8-45.1-6-45.1-27.3c0-19.9,21.4-30,44.1-30c36.4,0,46,20.4,46,26.3h-26.9
	c-0.3-3-2.2-5.7-5-7.1l0,0c-3.3-1.7-6.9-2.6-10.6-2.6c-10.1,0-15.7,2.1-15.7,6.8c0,3.8,5.1,5.7,12.4,7c19.1,3.3,48.4,4.5,48.4,28
	C553.2,337.7,543,355.1,505.1,355.1L505.1,355.1z M460.2,279.8l-10.3,11.3h-4.3l4.7-12.4h-9.4v-16.5h19.3V279.8z M400.3,269.3h34.2
	v83.4h-34.2V269.3z M355.7,352.9h-29.9l-44.6-83.4h40.3l25.6,50.7l0.7,1.5l0.7-1.5l23.9-50.7h24.2L355.7,352.9z M291.5,318.3h-69.2
	c0.4,11.2,10,19.9,21.2,19h-0.1c7.2,0.4,14.1-3,18.3-8.8l0-0.1h27.6c-9,21-26.5,27-50.3,27c-31,0-53-17-53-44c0-28.8,21.6-44,53-44
	c35,0,52.6,23,52.6,45.2c0.1,1.9,0,3.9-0.2,5.8L291.5,318.3z M185.4,352.8h-78.9v-83.3H142v60.6h43.4V352.8z M589.4,201.5
	c0.2,0.5,0.5,1,0.8,1.6c2.1,4.7,3.3,10.3,3.3,16.1v0.7c0,5.9-1.2,11.5-3.4,16.6l0.1-0.3c-2.1,4.9-5.2,9.4-8.9,13.2
	c-3.7,3.7-8,6.7-12.8,8.7l-0.2,0.1c-5,2.1-10.3,3.1-15.7,3.1h-0.3h0H552c-5.7,0-11.1-1.1-16-3.2l0.2,0.1c-4.9-2-9.4-5-13.2-8.8
	c-3.7-3.7-6.7-8.1-8.8-12.9l-0.1-0.3c-2.2-5.2-3.3-10.7-3.3-16.3v-0.7c0-5.8,1.2-11.3,3.4-16.3l-0.1,0.2c0.2-0.5,0.5-1.1,0.8-1.6
	h-488l57.7,249.2c121.1-78.9,237.5-3,242.2-0.2l0,0h0.1v0h0c4.7-2.9,121.1-78.8,242.2,0.2l57.7-249.2H589.4z M238.3,284.8h-0.1
	c-8.8,0-15.9,7.1-15.9,15.9v0.8v0h33.5C256.3,291.7,248,283.7,238.3,284.8L238.3,284.8L238.3,284.8z M528,245
	c6.2,6.5,14.9,10.3,23.9,10.3h0.6c4.7,0,9.2-1,13.2-2.8l-0.2,0.1c4-1.7,7.7-4.3,10.7-7.5c3-3.2,5.4-6.9,7.1-11.1l0.1-0.2
	c1.6-4.1,2.6-8.8,2.6-13.8v-0.6c0-4.7-0.9-9.5-2.7-13.9l0.1,0.2c-0.6-1.5-1.3-2.9-2-4.2l0.1,0.2h-11.7c1.2,2.1,1.8,4.6,1.8,7.2v0.6
	v0c0.3,3.6-1,7.1-3.6,9.7h0c-2.4,2-5.6,3.3-8.9,3.6H559l13.7,21.5h-8L551.6,223h-7.9v20.9h-7.5v-42.5h-13.4
	c-0.7,1.1-1.3,2.4-1.9,3.8l-0.1,0.2c-1.7,4.3-2.6,9-2.6,13.6v0.7c0,5,1,9.7,2.7,14.1l-0.1-0.2C522.6,238,525,241.8,528,245L528,245z
	 M556.3,216.7c1.5-0.1,2.8-0.4,4.1-1h-0.1c1.1-0.5,2.1-1.3,2.8-2.4l0,0c0.6-1.1,1-2.6,1-4v-0.8c0-1.3-0.3-2.5-1-3.6v0
	c-0.6-0.9-1.4-1.7-2.3-2.2l0,0c-1.1-0.5-2.2-0.9-3.4-1.1h0c-0.6-0.1-1.1-0.1-1.7-0.2h-12v15.4h7.8
	C553.2,216.9,554.8,216.8,556.3,216.7L556.3,216.7z M556.3,216.7"/>
</svg>
