<?xml version="1.0" encoding="UTF-8" standalone="no"?>
<svg xmlns="http://www.w3.org/2000/svg" version="1.2" baseProfile="tiny" viewBox="0.00 0.00 345.00 345.00">
<path fill="#000000" d="
  M 144.52 197.00
  L 153.26 197.00
  Q 153.74 197.00 153.83 196.53
  Q 158.90 168.26 163.72 140.00
  Q 165.75 128.09 165.22 122.40
  Q 164.36 113.18 159.77 104.81
  A 0.69 0.69 0.0 0 1 160.18 103.82
  L 164.18 102.64
  Q 164.67 102.50 165.00 102.88
  Q 169.11 107.60 170.37 113.72
  Q 170.48 114.25 171.02 114.25
  Q 184.26 114.26 197.45 114.26
  Q 204.12 114.27 207.97 115.56
  C 225.37 121.42 232.69 141.70 222.19 157.13
  Q 217.16 164.52 208.44 167.36
  Q 204.20 168.74 195.93 168.74
  Q 181.11 168.75 166.31 168.76
  Q 165.84 168.76 165.76 169.23
  L 161.09 196.51
  A 0.44 0.43 5.0 0 0 161.52 197.02
  L 188.05 196.96
  A 0.91 0.91 0.0 0 1 188.96 197.85
  Q 189.04 201.03 187.05 203.48
  A 1.11 1.10 19.3 0 1 186.19 203.89
  Q 152.66 203.95 119.15 203.83
  C 116.58 203.82 115.26 202.25 116.73 199.86
  A 1.55 1.54 -87.1 0 1 117.39 199.26
  Q 120.51 197.73 120.95 195.23
  Q 126.52 163.90 132.33 132.61
  Q 135.09 117.75 126.52 105.25
  Q 126.25 104.86 126.58 104.51
  Q 129.12 101.83 132.41 103.63
  Q 134.84 104.96 136.40 109.13
  Q 141.33 122.27 138.60 135.78
  Q 136.79 144.72 136.78 144.81
  Q 132.71 170.64 127.64 196.30
  A 0.55 0.54 5.6 0 0 128.18 196.95
  L 136.54 196.94
  A 0.63 0.62 -85.0 0 0 137.15 196.42
  Q 142.28 168.33 147.25 140.25
  C 149.52 127.41 150.53 117.25 143.65 106.35
  A 1.56 1.56 0.0 0 1 144.10 104.23
  C 146.66 102.50 149.39 103.22 150.91 106.02
  C 157.79 118.73 156.06 127.95 153.47 143.95
  Q 149.19 170.33 144.18 196.58
  Q 144.10 197.00 144.52 197.00
  Z
  M 171.90 121.62
  C 172.93 135.02 168.60 148.25 167.08 161.53
  Q 167.02 162.06 167.55 162.06
  Q 182.83 162.11 198.12 162.09
  Q 203.98 162.09 207.21 160.75
  C 224.86 153.49 224.95 129.64 207.31 122.43
  Q 204.18 121.15 199.02 121.12
  Q 185.77 121.04 172.42 121.05
  Q 171.85 121.05 171.90 121.62
  Z"
/>
<path fill="#000000" d="
  M 193.23 229.10
  C 190.37 226.66 185.57 227.01 185.19 231.48
  C 184.71 237.17 190.19 238.66 194.05 235.48
  A 0.55 0.54 -22.3 0 1 194.94 235.85
  L 195.23 239.13
  Q 195.29 239.75 194.78 240.09
  C 190.18 243.18 182.57 240.21 180.77 235.46
  Q 179.56 232.27 180.91 228.93
  C 183.07 223.58 189.12 222.02 194.25 224.03
  A 2.31 2.31 0.0 0 1 195.20 227.65
  L 194.07 229.03
  A 0.60 0.59 39.9 0 1 193.23 229.10
  Z"
/>
<path fill="#000000" d="
  M 101.22 237.55
  L 101.20 240.32
  Q 101.19 241.09 100.43 241.08
  L 97.39 241.03
  Q 96.76 241.02 96.76 240.39
  L 96.81 224.28
  Q 96.81 223.86 97.23 223.82
  C 101.20 223.40 107.59 222.76 110.50 225.72
  C 112.85 228.13 112.92 231.52 110.89 234.21
  Q 107.82 238.25 102.01 236.92
  A 0.65 0.65 0.0 0 0 101.22 237.55
  Z
  M 101.49 228.40
  L 101.47 232.60
  A 0.64 0.64 0.0 0 0 102.11 233.24
  L 104.72 233.25
  A 3.13 2.28 0.2 0 0 107.86 230.98
  L 107.86 230.06
  A 3.13 2.28 0.2 0 0 104.74 227.77
  L 102.13 227.76
  A 0.64 0.64 0.0 0 0 101.49 228.40
  Z"
/>
<path fill="#000000" d="
  M 127.63 238.12
  L 126.87 240.25
  A 0.84 0.84 0.0 0 1 126.08 240.80
  L 122.27 240.81
  A 0.47 0.47 0.0 0 1 121.83 240.16
  L 128.35 224.07
  Q 128.59 223.46 129.24 223.45
  L 132.89 223.40
  Q 133.50 223.40 133.74 223.97
  L 140.58 240.43
  Q 140.73 240.80 140.35 240.93
  Q 136.07 242.30 135.17 238.48
  A 0.98 0.98 0.0 0 0 134.24 237.72
  L 128.39 237.60
  Q 127.82 237.58 127.63 238.12
  Z
  M 129.51 233.19
  A 0.47 0.47 0.0 0 0 129.97 233.80
  L 132.60 233.73
  A 0.47 0.47 0.0 0 0 133.02 233.08
  L 131.60 229.52
  A 0.47 0.47 0.0 0 0 130.72 229.54
  L 129.51 233.19
  Z"
/>
<path fill="#000000" d="
  M 157.67 236.89
  L 157.76 240.51
  Q 157.77 241.05 157.24 241.05
  L 153.29 241.08
  Q 152.76 241.08 152.76 240.54
  L 152.71 224.48
  Q 152.71 223.88 153.30 223.79
  C 157.13 223.15 163.77 222.61 166.58 225.99
  Q 170.60 230.81 165.71 235.96
  Q 165.35 236.34 165.64 236.78
  L 167.88 240.22
  A 0.50 0.50 0.0 0 1 167.49 240.99
  L 164.35 241.15
  Q 163.73 241.18 163.34 240.68
  L 159.86 236.12
  A 1.22 1.22 0.0 0 0 157.67 236.89
  Z
  M 162.81 232.52
  A 1.13 1.13 0.0 0 0 163.91 231.17
  L 163.49 228.96
  A 1.13 1.13 0.0 0 0 162.49 228.05
  L 158.73 227.67
  A 1.13 1.13 0.0 0 0 157.49 228.79
  L 157.50 231.41
  A 1.13 1.13 0.0 0 0 158.63 232.53
  L 162.81 232.52
  Z"
/>
<path fill="#000000" d="
  M 213.95 227.92
  L 213.94 229.59
  A 0.59 0.59 0.0 0 0 214.54 230.18
  L 220.54 230.13
  A 0.59 0.59 0.0 0 1 221.14 230.71
  L 221.16 233.77
  A 0.59 0.59 0.0 0 1 220.57 234.37
  L 214.35 234.36
  A 0.59 0.59 0.0 0 0 213.76 234.95
  L 213.76 236.44
  A 0.59 0.59 0.0 0 0 214.35 237.03
  L 221.05 237.06
  A 0.59 0.59 0.0 0 1 221.64 237.63
  L 221.71 240.47
  A 0.59 0.59 0.0 0 1 221.12 241.08
  L 209.32 241.04
  A 0.59 0.59 0.0 0 1 208.73 240.45
  L 208.84 224.02
  A 0.59 0.59 0.0 0 1 209.43 223.43
  L 220.95 223.48
  A 0.59 0.59 0.0 0 1 221.54 224.06
  L 221.59 226.67
  A 0.59 0.59 0.0 0 1 221.00 227.28
  L 214.53 227.33
  A 0.59 0.59 0.0 0 0 213.95 227.92
  Z"
/>
<path fill="#000000" d="
  M 240.35 236.87
  L 248.01 236.87
  A 0.50 0.50 0.0 0 1 248.51 237.37
  L 248.51 240.57
  A 0.50 0.50 0.0 0 1 248.01 241.07
  L 236.03 241.04
  A 0.50 0.50 0.0 0 1 235.54 240.55
  L 235.38 224.26
  A 0.50 0.50 0.0 0 1 235.88 223.76
  L 239.26 223.73
  A 0.50 0.50 0.0 0 1 239.76 224.23
  L 239.85 236.37
  A 0.50 0.50 0.0 0 0 240.35 236.87
  Z"
/>
</svg>
