<?xml version="1.0" standalone="no"?>
<!DOCTYPE svg PUBLIC "-//W3C//DTD SVG 20010904//EN"
 "http://www.w3.org/TR/2001/REC-SVG-20010904/DTD/svg10.dtd">
<svg version="1.0" xmlns="http://www.w3.org/2000/svg"
 width="64.000000pt" height="64.000000pt" viewBox="0 0 64.000000 64.000000"
 preserveAspectRatio="xMidYMid meet">

<g transform="translate(0.000000,64.000000) scale(0.100000,-0.100000)"
fill="#000000" stroke="none">
<path d="M112 248 c3 -7 26 -26 51 -42 37 -23 58 -29 101 -28 30 0 67 7 83 15
28 15 28 15 100 -54 61 -60 75 -69 91 -60 41 22 35 41 -36 112 -58 59 -74 69
-103 69 -19 -1 -45 -7 -59 -15 -14 -8 -47 -14 -75 -14 -27 0 -61 6 -75 14 -32
18 -83 20 -78 3z"/>
</g>
</svg>
