<svg xmlns="http://www.w3.org/2000/svg" version="1.2" baseProfile="tiny" width="566" height="170"><path d="M0 0h566v170H0V0Zm564.23 22.2a20.7 20.7 0 0 0-20.7-20.7H22.25a20.7 20.7 0 0 0-20.7 20.7v125.6a20.7 20.7 0 0 0 20.7 20.7h521.28a20.7 20.7 0 0 0 20.7-20.7V22.2Z"/><path fill="#a9a9a9" d="M564.23 147.8a20.7 20.7 0 0 1-20.7 20.7H22.25a20.7 20.7 0 0 1-20.7-20.7V22.2a20.7 20.7 0 0 1 20.7-20.7h521.28a20.7 20.7 0 0 1 20.7 20.7v125.6ZM560.7 22.94a17.95 17.95 0 0 0-17.95-17.95H23.07A17.95 17.95 0 0 0 5.12 22.94v124.12a17.95 17.95 0 0 0 17.95 17.95h519.68a17.95 17.95 0 0 0 17.95-17.95V22.94Z"/><path d="M560.7 147.06a17.95 17.95 0 0 1-17.95 17.95H23.07a17.95 17.95 0 0 1-17.95-17.95V22.94A17.95 17.95 0 0 1 23.07 4.99h519.68a17.95 17.95 0 0 1 17.95 17.95v124.12ZM195.83 46.43q-.8 4.6-4.84 6.09c-9.64 3.55-17.84-8.23-9.85-16.03q5.39-5.27 12.77-.01.47.33.89-.05l1.98-1.8q.36-.33.02-.68-4.33-4.52-10.82-3.92c-17.3 1.6-14.94 27.8 1.52 26.99q13.18-.65 12.4-14.39-.03-.41-.44-.41l-11.63-.03q-.73 0-.74.73l-.06 2.31q-.01.71.7.71l7.7.02q.48 0 .4.47Zm104.06 10.591a13.57 13.34 87 0 0 12.612-14.25A13.57 13.34 87 0 0 298.47 29.92a13.57 13.34 87 0 0-12.612 14.25A13.57 13.34 87 0 0 299.89 57.02Zm-30.3-21.601a.86.86 0 0 1 .89-.86l5.27.2a.86.86 0 0 0 .89-.86l.02-2.7a.86.86 0 0 0-.87-.86l-16.67.17a.86.86 0 0 0-.85.85l-.02 2.28a.86.86 0 0 0 .84.86l5.35.1a.86.86 0 0 1 .85.85l.2 19.94a.86.86 0 0 0 .86.85l2.27.02a.86.86 0 0 0 .86-.86l.11-19.98Zm-62.62 10.56a.73.73 0 0 1 .73-.73l9.31-.02a.73.73 0 0 0 .72-.82l-.28-2.29a.73.73 0 0 0-.73-.64l-9.04-.01a.73.73 0 0 1-.73-.74l.06-5.44a.73.73 0 0 1 .73-.72l10.18.02a.73.73 0 0 0 .73-.69l.13-2.64a.73.73 0 0 0-.73-.77l-14.24.01a.73.73 0 0 0-.73.73l.06 24.29a.73.73 0 0 0 .73.73l14.11.02a.73.73 0 0 0 .73-.73l.02-2.33a.73.73 0 0 0-.74-.74l-10.28.07a.73.73 0 0 1-.73-.73l-.01-5.83Zm25.59-10.71a.68.68 0 0 1 .67-.68l5.63-.07a.68.68 0 0 0 .67-.66l.09-2.71a.68.68 0 0 0-.68-.7l-17.04.05a.68.68 0 0 0-.67.69l.06 2.65a.68.68 0 0 0 .67.66l5.73.03a.68.68 0 0 1 .67.67l.07 20.39a.68.68 0 0 0 .68.67l2.72-.02a.68.68 0 0 0 .67-.67l.06-20.3Zm22.398-4.243a.54.54 0 0 0-.54-.54l-2.82.006a.54.54 0 0 0-.54.54l.043 24.68a.54.54 0 0 0 .542.54l2.82-.005a.54.54 0 0 0 .538-.541l-.043-24.68ZM319.64 56.25a.33.33 0 0 0 .33-.33L320 37.9a.33.33 0 0 1 .61-.17l11.34 18.37a.33.33 0 0 0 .29.16l3.53-.05a.33.33 0 0 0 .32-.32l.17-25.06a.33.33 0 0 0-.33-.33l-3.62.01a.33.33 0 0 0-.33.33l.24 17.09a.33.33 0 0 1-.61.18l-10.72-17.39a.33.33 0 0 0-.28-.16l-4.22.01a.33.33 0 0 0-.33.33l.16 25.04a.33.33 0 0 0 .33.33l3.09-.02ZM44.16 33.84q-1.12 1.98-1.13 3.91-.17 24.38.03 93.24.01 3.83 2.05 5.66 3.36 3.56 8.14.86 30.97-17.49 61.58-34.97 12.1-6.47 20.31-11.41c5.28-3.18 6.37-8.56.48-12q-10.85-6.33-20.85-11.98Q86.6 51.08 59.33 35.6c-4.56-2.59-10.91-7.27-15.17-1.76Zm174.12 72.25c-1.59 12.66-16.41 16.99-26.59 11.72-14.22-7.36-14.19-27.65-.08-35.15q11.1-5.9 22.23 2.73a.57.56 41 0 0 .75-.05l4.72-4.76a.55.55 0 0 0-.03-.79c-9.63-8.41-22.43-9.59-33.14-3.26-17.98 10.63-17.87 35.32-1 46.65 9.61 6.46 23.96 6.56 33.03-1.36q9.94-8.69 7.93-23.57-.1-.75-.85-.75h-24.52q-.26 0-.26.27l.05 7.5a.25.25 0 0 0 .25.25l16.98-.03q.6 0 .53.6Zm236.97-31.32a.31.31 0 0 0-.31-.31h-7.64a.31.31 0 0 0-.31.31v51.66a.31.31 0 0 0 .31.31h7.64a.31.31 0 0 0 .31-.31V74.77Zm-101.5.32a.59.59 0 0 0-.59-.59h-6.84a.59.59 0 0 0-.59.59v51.1a.59.59 0 0 0 .59.59h6.84a.59.59 0 0 0 .59-.59v-51.1Zm61.99 31.93c5.23-.07 11.64.55 16.07-.87 15.37-4.93 14.71-26.4-.6-30.9q-2.6-.76-8.5-.77-7.57-.01-15.22.03-.49.01-.49.5v50.97q0 .74.73.74l6.77.04a.75.75 0 0 0 .75-.75l.01-18.5q0-.49.48-.49Zm66.67 16.9-.34 1.47a1.11 1.11 0 0 0 1.08 1.36h6.33q.54 0 .54-.54-.01-10.48-.24-20.97c-.34-14.96-23-17.79-29.43-5.79q-.39.72.36 1.06l5.82 2.55a.88.87-65.8 0 0 1.14-.44q1.05-2.33 4.53-2.99 6.8-1.29 9.76 4.38 1.6 3.07-1.53 1.59c-7.23-3.42-20.44-.07-21.22 9.63-.51 6.22 3.53 10.57 9.35 12.11q7.4 1.96 13.36-3.7.7-.66.49.28Zm-217.67-13.9a17.97 17.97 0 0 0-17.97-17.97 17.97 17.97 0 0 0-17.97 17.97 17.97 17.97 0 0 0 17.97 17.97 17.97 17.97 0 0 0 17.97-17.97Zm38.8.01a17.97 17.97 0 0 0-17.97-17.97 17.97 17.97 0 0 0-17.97 17.97A17.97 17.97 0 0 0 285.57 128a17.97 17.97 0 0 0 17.97-17.97Zm28.82-14.69q-6.79-5.34-14.9-1.91c-19.15 8.12-11.35 37.89 9.69 33.95 1.73-.33 3.78-1.38 4.91-2.6q.94-1.02.98.37.29 9.79-7.55 11.18c-4.36.78-8.23-1.49-10.13-5.31a1.06 1.05 65.4 0 0-1.33-.5l-5.34 2.19q-.96.39-.5 1.33c6.22 12.84 25.99 13.49 31.1-.34q1.48-4.01 1.47-13.57-.01-13.25.02-26.2 0-.73-.73-.72l-6.42.06q-.6 0-.63.6l-.07 1.21q-.04.68-.57.26ZM368 114.98l21.67-8.99a.83.82-20 0 0 .47-1c-1.96-6.52-7.07-11.67-13.88-12.75q-5.52-.88-10.15 1.86c-11.77 6.98-11.57 25.06-.15 31.31 8.1 4.44 17.55 2.85 23.35-4.45q.86-1.09-.29-1.87l-4.07-2.74q-1.15-.78-2 .32c-4.1 5.34-10.56 4.94-15.35.65q-1.65-1.49.4-2.34Zm140.51.09a.3.3 0 0 1-.55 0l-8.9-21.66a.3.3 0 0 0-.28-.19l-8.06.05a.3.3 0 0 0-.28.42l13.67 31.01a.3.3 0 0 1 0 .24l-7.73 17.16a.3.3 0 0 0 .28.42l7.88-.02a.3.3 0 0 0 .28-.18l21.09-48.64a.3.3 0 0 0-.28-.42l-8.29-.03a.3.3 0 0 0-.28.19l-8.55 21.65Z"/><path fill="#fff" d="m195.43 45.96-7.7-.02q-.71 0-.7-.71l.06-2.31q.01-.73.74-.73l11.63.03q.41 0 .44.41.78 13.74-12.4 14.39c-16.46.81-18.82-25.39-1.52-26.99q6.49-.6 10.82 3.92.34.35-.02.68l-1.98 1.8q-.42.38-.89.05-7.38-5.26-12.77.01c-7.99 7.8.21 19.58 9.85 16.03q4.04-1.49 4.84-6.09.08-.47-.4-.47ZM299.89 57.021a13.57 13.34 87 0 1-14.032-12.853 13.57 13.34 87 0 1 12.612-14.25 13.57 13.34 87 0 1 14.032 12.854 13.57 13.34 87 0 1-12.612 14.25Zm-1.339-3.912a9.64 9.19 93.8 0 0 9.809-9.01 9.64 9.19 93.8 0 0-8.531-10.228 9.64 9.19 93.8 0 0-9.809 9.01 9.64 9.19 93.8 0 0 8.531 10.228Z"/><path fill="#fff" d="m269.59 35.42-.11 19.98a.86.86 0 0 1-.86.86l-2.27-.02a.86.86 0 0 1-.86-.85l-.2-19.94a.86.86 0 0 0-.85-.85l-5.35-.1a.86.86 0 0 1-.84-.86l.02-2.28a.86.86 0 0 1 .85-.85l16.67-.17a.86.86 0 0 1 .87.86l-.02 2.7a.86.86 0 0 1-.89.86l-5.27-.2a.86.86 0 0 0-.89.86ZM206.97 45.98l.01 5.83a.73.73 0 0 0 .73.73l10.28-.07a.73.73 0 0 1 .74.74l-.02 2.33a.73.73 0 0 1-.73.73l-14.11-.02a.73.73 0 0 1-.73-.73l-.06-24.29a.73.73 0 0 1 .73-.73l14.24-.01a.73.73 0 0 1 .73.77l-.13 2.64a.73.73 0 0 1-.73.69l-10.18-.02a.73.73 0 0 0-.73.72l-.06 5.44a.73.73 0 0 0 .73.74l9.04.01a.73.73 0 0 1 .73.64l.28 2.29a.73.73 0 0 1-.72.82l-9.31.02a.73.73 0 0 0-.73.73ZM232.56 35.27l-.06 20.3a.68.68 0 0 1-.67.67l-2.72.02a.68.68 0 0 1-.68-.67l-.07-20.39a.68.68 0 0 0-.67-.67l-5.73-.03a.68.68 0 0 1-.67-.66l-.06-2.65a.68.68 0 0 1 .67-.69l17.04-.05a.68.68 0 0 1 .68.7l-.09 2.71a.68.68 0 0 1-.67.66l-5.63.07a.68.68 0 0 0-.67.68Z"/><rect fill="#fff" x="-1.95" y="-12.88" transform="rotate(-.1 24975.688 -144953.79)" width="3.9" height="25.76" rx=".54"/><path fill="#fff" d="m319.64 56.25-3.09.02a.33.33 0 0 1-.33-.33l-.16-25.04a.33.33 0 0 1 .33-.33l4.22-.01a.33.33 0 0 1 .28.16l10.72 17.39a.33.33 0 0 0 .61-.18l-.24-17.09a.33.33 0 0 1 .33-.33l3.62-.01a.33.33 0 0 1 .33.33l-.17 25.06a.33.33 0 0 1-.32.32l-3.53.05a.33.33 0 0 1-.29-.16l-11.34-18.37a.33.33 0 0 0-.61.17l-.03 18.02a.33.33 0 0 1-.33.33Z"/><path fill="#01ef77" d="M114.77 67.15q-6.32 6.55-12.04 13.04c-1.62 1.84-3.54 3.32-5.41 4.77q.1.18-.49.25-2.49-2.27-4.69-4.85-2.82-3.32-4.54-4.97-12.88-12.36-25.35-25.15-.55-.56-6.03-5.42-4.66-4.14-7.65-9.87-.22-.43-.7-.51l-3.71-.6c4.26-5.51 10.61-.83 15.17 1.76q27.27 15.48 55.44 31.55Z"/><path fill="#00d3ff" d="m44.16 33.84 3.71.6q.48.08.7.51 2.99 5.73 7.65 9.87 5.48 4.86 6.03 5.42Q74.72 63.03 87.6 75.39q1.72 1.65 4.54 4.97 2.2 2.58 4.69 4.85l-51.72 51.44q-2.04-1.83-2.05-5.66-.2-68.86-.03-93.24.01-1.93 1.13-3.91Z"/><ellipse transform="rotate(93.8 129.246 161.734)" rx="9.64" ry="9.19"/><path fill="#fdcc02" d="M114.77 67.15q10 5.65 20.85 11.98c5.89 3.44 4.8 8.82-.48 12q-8.21 4.94-20.31 11.41L97.32 84.96c1.87-1.45 3.79-2.93 5.41-4.77q5.72-6.49 12.04-13.04Z"/><path fill="#fff" d="m217.75 105.49-16.98.03a.25.25 0 0 1-.25-.25l-.05-7.5q0-.27.26-.27h24.52q.75 0 .85.75 2.01 14.88-7.93 23.57c-9.07 7.92-23.42 7.82-33.03 1.36-16.87-11.33-16.98-36.02 1-46.65 10.71-6.33 23.51-5.15 33.14 3.26a.55.55 0 0 1 .03.79l-4.72 4.76a.57.56 41 0 1-.75.05q-11.13-8.63-22.23-2.73c-14.11 7.5-14.14 27.79.08 35.15 10.18 5.27 25 .94 26.59-11.72q.07-.6-.53-.6Z"/><rect fill="#fff" x="446.99" y="74.46" width="8.26" height="52.28" rx=".31"/><rect fill="#fff" x="345.73" y="74.5" width="8.02" height="52.28" rx=".59"/><path fill="#fff" d="m415.26 107.51-.01 18.5a.75.75 0 0 1-.75.75l-6.77-.04q-.73 0-.73-.74V75.01q0-.49.49-.5 7.65-.04 15.22-.03 5.9.01 8.5.77c15.31 4.5 15.97 25.97.6 30.9-4.43 1.42-10.84.8-16.07.87q-.48 0-.48.49Zm-.04-25.13.08 16.82a.36.36 0 0 0 .37.36l10.38-.05a8.94 8.69-.3 0 0 8.89-8.74v-.16a8.94 8.69-.3 0 0-8.99-8.64l-10.38.05a.36.36 0 0 0-.35.36Z"/><path d="M415.22 82.38a.36.36 0 0 1 .35-.36l10.38-.05a8.94 8.69-.3 0 1 8.99 8.64v.16a8.94 8.69-.3 0 1-8.89 8.74l-10.38.05a.36.36 0 0 1-.37-.36l-.08-16.82Z"/><path fill="#f6334d" d="M96.83 85.21q.59-.07.49-.25l17.51 17.58q-30.61 17.48-61.58 34.97-4.78 2.7-8.14-.86l51.72-51.44Z"/><path fill="#fff" d="M481.92 123.64q-5.96 5.66-13.36 3.7c-5.82-1.54-9.86-5.89-9.35-12.11.78-9.7 13.99-13.05 21.22-9.63q3.13 1.48 1.53-1.59-2.96-5.67-9.76-4.38-3.48.66-4.53 2.99a.88.87-65.8 0 1-1.14.44l-5.82-2.55q-.75-.34-.36-1.06c6.43-12 29.09-9.17 29.43 5.79q.23 10.49.24 20.97 0 .54-.54.54h-6.33a1.11 1.11 0 0 1-1.08-1.36l.34-1.47q.21-.94-.49-.28Zm-11.09-3.44c5.05 1.48 8.53-1.35 11.17-5.68a1.62 1.61-60.8 0 0-.64-2.28c-3.35-1.72-10.37-2.2-13.14 1.25-2.25 2.8-.54 5.79 2.61 6.71ZM264.74 110.02a17.97 17.97 0 0 1-17.97 17.97 17.97 17.97 0 0 1-17.97-17.97 17.97 17.97 0 0 1 17.97-17.97 17.97 17.97 0 0 1 17.97 17.97Zm-17.82 10.56a10.58 9.88 89.3 0 0 9.75-10.7 10.58 9.88 89.3 0 0-10.01-10.46 10.58 9.88 89.3 0 0-9.75 10.7 10.58 9.88 89.3 0 0 10.01 10.46ZM303.54 110.03A17.97 17.97 0 0 1 285.57 128a17.97 17.97 0 0 1-17.97-17.97 17.97 17.97 0 0 1 17.97-17.97 17.97 17.97 0 0 1 17.97 17.97Zm-18.283 10.575a10.6 9.86 91.8 0 0 10.188-10.285 10.6 9.86 91.8 0 0-9.522-10.905 10.6 9.86 91.8 0 0-10.188 10.285 10.6 9.86 91.8 0 0 9.522 10.905Z"/><path fill="#fff" d="m332.93 95.08.07-1.21q.03-.6.63-.6l6.42-.06q.73-.01.73.72-.03 12.95-.02 26.2.01 9.56-1.47 13.57c-5.11 13.83-24.88 13.18-31.1.34q-.46-.94.5-1.33l5.34-2.19a1.06 1.05 65.4 0 1 1.33.5c1.9 3.82 5.77 6.09 10.13 5.31q7.84-1.39 7.55-11.18-.04-1.39-.98-.37c-1.13 1.22-3.18 2.27-4.91 2.6-21.04 3.94-28.84-25.83-9.69-33.95q8.11-3.43 14.9 1.91.53.42.57-.26Zm-8.81 25.56a10.62 9.52 90 0 0 9.52-10.62 10.62 9.52 90 0 0-9.52-10.62 10.62 9.52 90 0 0-9.52 10.62 10.62 9.52 90 0 0 9.52 10.62ZM368 114.98q-2.05.85-.4 2.34c4.79 4.29 11.25 4.69 15.35-.65q.85-1.1 2-.32l4.07 2.74q1.15.78.29 1.87c-5.8 7.3-15.25 8.89-23.35 4.45-11.42-6.25-11.62-24.33.15-31.31q4.63-2.74 10.15-1.86c6.81 1.08 11.92 6.23 13.88 12.75a.83.82-20 0 1-.47 1L368 114.98Zm-2-5.98 13.22-5.47q2.88-1.19.1-2.6l-1.9-.96q-2.88-1.46-5.8-.11-5.6 2.56-6.26 8.66-.08.78.64.48ZM508.51 115.07l8.55-21.65a.3.3 0 0 1 .28-.19l8.29.03a.3.3 0 0 1 .28.42l-21.09 48.64a.3.3 0 0 1-.28.18l-7.88.02a.3.3 0 0 1-.28-.42l7.73-17.16a.3.3 0 0 0 0-.24l-13.67-31.01a.3.3 0 0 1 .28-.42l8.06-.05a.3.3 0 0 1 .28.19l8.9 21.66a.3.3 0 0 0 .55 0Z"/><ellipse transform="rotate(89.3 67.719 179.912)" rx="10.58" ry="9.88"/><ellipse transform="rotate(91.8 89.491 193.383)" rx="10.6" ry="9.86"/><ellipse transform="rotate(90 107.05 217.07)" rx="10.62" ry="9.52"/><path d="M379.22 103.53 366 109q-.72.3-.64-.48.66-6.1 6.26-8.66 2.92-1.35 5.8.11l1.9.96q2.78 1.41-.1 2.6ZM482 114.52c-2.64 4.33-6.12 7.16-11.17 5.68-3.15-.92-4.86-3.91-2.61-6.71 2.77-3.45 9.79-2.97 13.14-1.25a1.62 1.61-60.8 0 1 .64 2.28Z"/></svg>