<?xml version="1.0" encoding="UTF-8" standalone="no"?>
<svg xmlns="http://www.w3.org/2000/svg" version="1.2" baseProfile="tiny" viewBox="0.00 0.00 64.00 64.00">
<path fill="#000000" d="
  M 52.01 41.01
  L 52.00 52.00
  A 1.00 1.00 0.0 0 1 51.00 53.00
  L 3.01 52.99
  A 0.98 0.98 0.0 0 1 2.03 52.01
  L 2.05 14.72
  A 2.90 2.89 67.7 0 1 2.91 12.66
  L 10.42 5.21
  A 0.86 0.84 -67.2 0 1 11.02 4.96
  L 58.61 4.97
  A 1.39 1.39 0.0 0 1 60.00 6.36
  L 60.00 28.38
  Q 60.00 29.00 59.37 29.00
  L 58.62 29.00
  A 0.63 0.62 90.0 0 1 58.00 28.37
  L 57.97 10.35
  Q 57.97 8.38 56.58 9.78
  L 52.76 13.65
  A 2.68 2.65 -23.1 0 0 52.00 15.51
  L 52.00 26.22
  Q 52.00 26.69 52.41 26.92
  C 69.79 36.38 61.68 61.89 42.13 59.88
  Q 41.59 59.82 41.58 59.28
  L 41.58 58.71
  A 0.73 0.72 -1.2 0 1 42.29 57.98
  C 51.16 57.75 56.94 48.76 52.45 40.89
  Q 52.01 40.11 52.01 41.01
  Z
  M 23.54 12.97
  A 0.32 0.32 0.0 0 0 23.76 12.88
  L 29.06 7.54
  A 0.32 0.32 0.0 0 0 28.83 6.99
  L 11.48 7.02
  A 0.32 0.32 0.0 0 0 11.26 7.11
  L 5.93 12.46
  A 0.32 0.32 0.0 0 0 6.15 13.01
  L 23.54 12.97
  Z
  M 29.36 13.24
  L 34.94 7.67
  Q 35.35 7.26 34.79 7.11
  C 33.46 6.75 32.55 6.88 31.50 7.91
  Q 28.47 10.90 25.48 13.96
  Q 25.10 14.34 25.09 14.88
  L 24.95 20.35
  Q 24.93 21.03 25.61 21.02
  L 28.22 20.99
  Q 28.98 20.98 28.98 20.23
  L 29.01 14.09
  Q 29.01 13.59 29.36 13.24
  Z
  M 36.75 8.73
  Q 34.71 10.39 33.00 12.51
  Q 32.58 13.02 33.24 13.02
  L 49.53 12.93
  A 3.16 3.15 -67.9 0 0 51.76 11.98
  L 55.70 7.93
  Q 56.28 7.34 55.45 7.27
  Q 48.01 6.56 40.67 7.21
  Q 38.38 7.41 36.75 8.73
  Z
  M 42.91 20.12
  L 43.03 24.29
  A 0.60 0.60 0.0 0 0 43.55 24.87
  L 49.41 25.62
  A 0.54 0.53 3.3 0 0 50.01 25.09
  L 50.03 15.58
  A 0.57 0.57 0.0 0 0 49.46 15.01
  L 31.51 15.00
  Q 31.01 14.99 31.01 15.49
  L 30.99 22.26
  A 0.75 0.74 0.0 0 1 30.24 23.00
  L 23.76 22.99
  A 0.71 0.71 0.0 0 1 23.05 22.28
  L 22.98 15.49
  Q 22.98 14.99 22.48 14.99
  L 4.74 15.01
  A 0.75 0.75 0.0 0 0 3.99 15.76
  L 4.01 50.50
  A 0.49 0.48 -0.0 0 0 4.50 50.98
  L 49.47 51.00
  Q 49.93 51.00 49.93 50.53
  L 49.92 38.26
  A 0.94 0.93 -70.8 0 0 49.57 37.53
  Q 46.91 35.40 43.51 35.05
  Q 42.91 34.98 42.91 35.59
  L 42.89 40.18
  A 0.86 0.86 0.0 0 1 41.52 40.88
  L 27.46 30.83
  A 0.99 0.99 0.0 0 1 27.46 29.22
  L 41.34 19.34
  A 0.99 0.99 0.0 0 1 42.91 20.12
  Z
  M 41.68 33.24
  C 53.97 32.08 59.84 46.14 52.59 55.32
  A 0.14 0.14 0.0 0 0 52.78 55.53
  C 64.12 48.03 61.53 32.64 49.24 27.72
  Q 46.84 26.76 41.73 27.05
  A 0.66 0.66 0.0 0 1 41.03 26.41
  L 40.98 22.92
  Q 40.97 21.95 40.18 22.51
  L 30.16 29.66
  Q 29.70 29.99 30.16 30.33
  L 40.42 37.69
  Q 40.99 38.10 40.99 37.40
  L 41.01 33.97
  Q 41.01 33.30 41.68 33.24
  Z"
/>
<rect fill="#000000" x="-6.00" y="-0.96" transform="translate(12.01,43.97) rotate(0.1)" width="12.00" height="1.92" rx="0.86"/>
<rect fill="#000000" x="-6.08" y="-0.92" transform="translate(12.06,47.97) rotate(0.2)" width="12.16" height="1.84" rx="0.88"/>
</svg>
