<?xml version="1.0" encoding="UTF-8" standalone="no"?>
<svg xmlns="http://www.w3.org/2000/svg" version="1.2" baseProfile="tiny" viewBox="0.00 0.00 50.00 50.00">
<path fill="#000000" d="
  M 45.98 21.62
  A 0.62 0.61 -90.0 0 0 45.37 21.00
  L 4.88 20.95
  A 0.92 0.91 -0.3 0 0 3.96 21.87
  L 4.01 35.51
  Q 4.02 39.00 7.51 39.00
  L 28.60 39.00
  A 0.48 0.47 -11.0 0 1 29.04 39.29
  L 29.53 40.41
  Q 29.78 40.98 29.16 40.99
  Q 18.31 41.03 7.50 40.98
  C 2.84 40.96 2.00 38.00 2.02 33.84
  Q 2.07 23.92 2.15 13.99
  C 2.19 9.70 5.24 9.01 9.02 9.00
  Q 25.76 8.98 42.50 9.00
  C 46.64 9.00 47.92 11.46 47.98 15.35
  Q 48.07 21.62 47.97 27.88
  Q 47.95 28.66 47.24 28.35
  L 46.52 28.05
  Q 46.01 27.83 46.01 27.28
  L 45.98 21.62
  Z
  M 6.75 11.17
  C 3.93 11.18 2.17 16.05 6.45 16.04
  Q 25.84 16.01 45.26 16.06
  Q 45.78 16.06 45.91 15.55
  C 47.06 10.98 43.01 10.97 40.00 10.99
  Q 23.37 11.06 6.75 11.17
  Z"
/>
<rect fill="#000000" x="-8.05" y="-0.86" transform="translate(16.97,25.09) rotate(0.1)" width="16.10" height="1.72" rx="0.83"/>
<path fill="#000000" d="
  M 50.00 31.10
  L 50.00 34.20
  Q 48.66 44.58 40.26 50.00
  L 39.68 50.00
  Q 29.84 43.57 30.03 31.59
  Q 30.04 31.10 30.52 30.97
  C 32.51 30.43 33.97 30.04 36.05 29.03
  C 41.21 26.52 44.96 29.89 50.00 31.10
  Z
  M 47.46 32.53
  C 44.55 31.57 40.94 29.20 38.02 30.47
  Q 35.32 31.65 32.54 32.61
  Q 32.08 32.76 32.10 33.25
  Q 32.42 42.15 39.47 47.42
  A 0.81 0.81 0.0 0 0 40.44 47.41
  Q 47.38 42.05 47.93 33.22
  A 0.69 0.68 -79.6 0 0 47.46 32.53
  Z"
/>
</svg>
