<svg xmlns="http://www.w3.org/2000/svg" xml:space="preserve" id="Layer_1" x="0" y="0" style="enable-background:new 0 0 284.4 170.5" viewBox="0 0 284.4 170.5"><style>.st0{fill:#1d2d5c}.st1{fill:#a41e36}.st2{fill:#15284b}</style><path d="M182 122.5c-.2-.3-.3-.9-.3-1.6-.1-.6-.2-1.3-.4-2-.4-1.2-1.1-2.2-1.3-2.4.1-.2.3-.9.3-1.3v-.1c0-.4-.2-.8-.5-1.3l-.1-.2s-.1-.2-.1-.3c0-.1.3-1.7.3-1.7.2-1 1.6-3.1 1.6-3.1v-.1c0-.5-.1-3-1.3-5.5s-2.5-3.5-3.4-4c.5-.6.7-1.1.7-1.5 0-.2 0-.3-.1-.4-.1-.3-.8-.3-1.9-.2-.1-.1-.3-.5-.3-.5-.2-.3-.7-.5-1.2-.5-.3 0-.7-.4-.8-.6l-.1-.1-.1.1h-.1c-.5-.6-1-1.2-1.5-1.9h.1s-.6-1.7-1.6-3.4c-.7-1.3-.8-2.2-.9-2.8l-.1-.5c-.1-.5-.4-1.2-.5-1.4.3-.5.4-.8.4-1.1 0-1.3-2.6-6.2-2.7-6.4v-.1h-.1s-.4-.4-.4-.5c-.8-3.7-3-6.7-3.5-7.4-.5-.6-4.1-1.4-4.5-1.5v-.9c0-.1-.1-.3-.2-.3-.2-.2-.6-.1-.8-.1h-.1v-.8c0-.8-.2-1.6-.6-2.3v-.2c-.5-1.2-1.9-1.7-2-1.7l-.1.1c-.6-.3-1.3-.5-1.9-.5-3.6 0-4.6 1.7-5 3l-.2.7-.1.5c-.1.5-.2.9-.4 1.3l-.5.7c-.3.2-.5.3-.8.4l-.4.2c-.3.2-.4.5-.4.9v.3c.1.2.1.3.2.3s.2-.1.2-.1c.1 0 1.4.1 1.4.1.2 0 .6-.1.9-.1 0 0 .4-.1.5-.1v.3c0 .3 0 .7-.1 1.1v.1s.2.3.3.4c0 .1-.1.1-.1.2v.1c0 .1.1.2.2.2s.2.1.2.3c-.2-.1-.6-.4-.6-.4l-.1.2s-1 2.8-1.8 4.2c-.3.6-.9 1.2-1.8 1.9-.3-.5-.5-.9-.5-.9v-.1s-.5-.2-.7-.2v-.7s-1-.3-1.1-.3c0-.1-.2-.6-.2-.6-.1-.1-2.1-1.9-3.8-2.4-1.7-.4-4.3-.6-4.3-.6s-.7-.2-.9-.2c0-.1 0-.3-.1-.4 0-.2-.2-.4-.5-.6V71s.1-.4.1-.5c.1-.1.5-.5.6-1.1v-.2c0-.5-.5-.8-.7-.9 0-.1-.3-1-.3-1s-.6.7-.8.9v-.4h-.6c0-.2-.3-.6-.8-1.1-1.5-1.7-3-2.1-5.3-1.5-2.6.7-3.1 3.3-3.3 4.2v.2c-.1.4-.5.6-.5.6h-.1s.5 1.7.5 1.8c0 .1-.5 1.3-.5 1.3l-.1.2c-.2.3-.4.8-.4 1.4 0 .2 0 .5.1.7.3.7.9 1.2 2 1.6 0 0 .8.2 1 .3v.1c0 .1-.6 2.4-.6 2.4s-.2.7-.3 1.2c0-.1-.1-.2-.1-.2l-.1.4-.3 1.2s0 .1.1.1c-.1.5-.4 1.9-.6 2.5 0 0-.2.5-1.5.9-1.4.5-4.3 2.2-4.6 2.5-.1.1-.8.3-1.5.5 0 0-1.5.5-1.9.6 0-.2-.1-.3-.2-.5-.3-.3-.3-.6-.3-.6v-.1c0-.2-.1-.4-.4-.8-.2-.2-.3-.2-.4-.3 0-.2 1-4.6 1-4.6s0-.1-.1-.1c0-.1 8-29.5 8.1-30v.1l.1-.3s1.1-4.5 1.3-4.9c.3.3 1.8 2.3 1.8 2.3.6.6 1.2.8 1.6.7.3-.1.6-.5.7-1 .3-1.3-.7-3.2-3.5-6.7-1.7-2.1-2.2-2.8-2.8-2.8-.4 0-.7.3-1.1.8l-.2.2c-1 1.2.3 2.5.4 2.5 0 0 1.9 2.4 2.1 2.6 0 .1-1.7 6.1-1.7 6.1s.1 0 .2-.1c-.1.5-7.9 30-8 30-.4.2-.7.9-.9 2.3-.2 1.4-.4 2.2-.6 2.6-.2.1-.4.2-.6.7l-.2.6-.1.5c-.1.4-.2.9-.3 1.1-.1.1-.1.3-.1.5 0 .5.2 1.1.6 1.5v.5c0 .4.1.9.5 1.3.5.5.9.4 1.2.4h.3c.5 0 .6-.2.9-.5l.1-.1c.1-.1.2-.1.3-.1.2 0 .4 0 .5-.3l3-.6c2.1-.1 6.8-2 7.2-2.3l.6-.5c.4-.4.9-.8 1.5-1.2 1-.6 1-1.4 1-1.5v-.3c0-.8.5-2.6.7-2.8.1 0 .5-.1.5-.1l.5-.7h.1l.1-.1c.9.9 1.6 1.6 1.9 2.1.2.3.4.5.7.7.5.5 1.1 1 1.4 2 .1.2 1.8 5.3 3.1 6l.9.5s.6.3.8.5c-.1.1-2 3.1-2.1 3.2-.7 0-1.3.1-1.8.2l-.3.1c-.7.1-1.1.3-1.2.5v.2c0 .2.2 1.1 1.1 1.3.5.1.5.3.5.4-.1.1-2.8 4.4-2.8 4.4-1.3 2-1.5 3.2-1.7 4.1-.1.5-.2.9-.5 1.3l-.1.2c-.6.9-1 1.5-1 2.3V113.4c0 .9-.8 2.1-.8 2.1l-.3.4s.1-.1.3-.1c-.3.5-.9 1.6-.9 1.6s1.3-.4 1.6-.5c-.1.2-.1.5-.3.7-.2.5-.3.9-.3 1.3 0 .8.5 1.3.9 1.8l.1.1c.7.8 1.9 1.3 2.1 1.5.1.1.3.1.5.1 0 .1.1.2.1.3v.1l-7.7 14.3s-3.6 6.2-4 6.9c-1.4-.2-5.2.1-5.7.5-.4.3-.3.7-.3 1v.1c0 .4.5.7.5.7.1 0 2.7.9 4.2 1.1 1.4.2 4.5.5 5.6.6 1.1.1 1.2-.4 1.2-.5v-.4c0-.2 0-.5-.2-.8-.3-.4-2.8-1.6-4.3-2.1.1-.3 3.7-6.8 3.7-6.8L129 124c.2.3.5.6.7.8 1.2 1.3 1.6 1.8 1.8 2.7.2.9 1.3 3.3 1.3 3.4 0 0 .3.2 1 .8h-.2s.2.3.3.5c-.2-.3-.6-.6-.7-.6l-.2-.1V131.8l-.1.1s-.6.7-.7 1.3c-.1.6-.2 2-.2 2.2l-.3.3c-.4.6-1.9 2.2-2.8 2.7-.7.3-2.2 1.4-2.2 1.9.1.4 1.2 1.2 1.7 1.3.6.1 2.4-.1 3.4-.5.9 0 .9-.1 1-.2 0 0 .2-.3.3-.4h2.8c.2.9.5 1.7.7 2.2.6 1.6 1.4 2.3 1.6 2.5 0 .1.1 1.5.1 1.5 0 .6.4 1.3.5 1.5-.1 0-.2.2-.2.4l-.2 1.9 1 2.2s.1.3.1.4c0 .1-.3 4.7-.3 4.7l.1.5.2.4c.1.2.1.2.1.3v.2l-.1.1s.5 1.4.6 1.7v.1c0 .2-.1.5-.7 1.4-.4.7-.7 1.3-.8 1.8l-.2.4v.1l.1.1s.5.5 2.4.7H141.6c1.6 0 1.8-.5 1.9-.6 0 0 0-.2-.1-.6-.2-.8-.6-2.2-.8-2.7-.2-.5-.1-1.2.2-1.6.2-.3.6-1 .9-1.5l.2-.3c.1-1.2-1.1-2.1-1.7-2.3-.3-.1-.2-.9 0-1.7l.2-1.2c0-.7-.1-1-.2-1.2-.1-.2-.2-.4-.2-.8-.1-.9.3-1.7.3-1.7l.2-.4s-.1 0-.2.1c.2-.4.4-.9.6-1.9.2-1 .3-1.6.3-2 0-.3-.1-.5-.1-.6l-.1-.2c0-.2-.1-.3-.3-.6-.3-.4-.6-1-.9-2.3-.4-1.6-.4-4-.4-4.9.3.2.7.7 1.1 1.4.5.9 1.1 1.6 1.2 1.7v.3c0 .4.2.9.3 1.3.2.5.6 1.1.7 1.1-.1.3-.2.6-.3.7 0 0-.1.1-.1.2v.1c0 .3.2.9.7 1.3l.3.2c0 .1-.1 3.3-.1 3.3v-.1c0 .2-.1.3-.1.4v.3c0 .3.2.5.3.7-.1.1-.2.3-.2.5s-.3 1.4-.8 2.8c-.1.4-.2.6-.2.8 0 .2 0 .3.1.4.2.2.5.2.8.2h.1c.6 0 1.1-.3 1.5-.6l.1-.1c.4-.2 1 0 1 0h.2s-.2.5-.2 1.1v.3c.1.7.9 1.3 1 1.4v.4c-.2.2-.2.4-.2.6 0 .1.1.3.1.4l-.1.2.2.6c.1.2.3.4.6.5v.1c.4.9.4 2.3-.1 3.5-.5 1.3-.9 2.6-.9 2.6h.2-.1s.1.1.3.5c.2.6.2 1.6.2 2v.5l-.3.3.7 1.1.1-.1s.3-.3.6-.3h.1v.1c0 .1.1.2.3.2.7-.1 1.4-.1 2 0h.3c.2 0 .2 0 .2.1s-.1.2-.2.3l-.2.2h.3c.3 0 .5 0 .7-.1.1-.1.1-.3.1-.5v-.8c0-.3-.1-.6-.2-.8v-.2c0-.2-.1-.6-.4-1.5-.5-1.1-.8-3.9-.8-4 0 0 0-2.3.1-3.5 0 .1.1.1.3.1.3 0 .9-.3 1.3-.7 0 .1 0 .1-.1.2-.2.3-.3.5-.3.8 0 .3.1.5.2.6v.2c0 .2-.1.4-.1.7l-.1.5v.4c0 .5.2.8.2.8h.1c.1 0 3.2.3 3.8.1.6-.1 1.4-.6 1.4-.6h.1v-.1s0-.7.2-1.1c0-.1.1-.2.1-.2 0-.1-.1-.2-.2-.3-.1-.1-.3-.3-.3-.7 0-.6-.1-1-.3-1.3l-.1-.3c0-.2-.2-.3-.5-.5-.2-.2-.5-.4-.6-.6v-.1c0-.2.1-.5.2-.8.1-.3.2-.5.2-.7 0 0 0-.1-.1-.3.1-.1.2-.2.2-.3 0-.3-.2-.6-.5-1l-.4-.5c-.4-.7-1-2.6-1.2-3.9 0 0 .4-2.7.5-3.5.1 0 .1 0 .2-.1s.2-.3.2-.5v-.1c.2-.3 2.2-3.9 2.4-4.9v-.6c0-.7-.1-1.7-.2-2.8-.1-1-.2-2.1-.2-2.8v-.1c0-1.4.2-4 .3-4.7 0 0 .1-.3.1-.4.7-.5 1.1-.6 1.4-.5.2 0 .3.2.3.2.1.1.7.7 1.4.7.7-.1 1.1-.3 1.2-.8.1-.3.4-.5.9-.8l.1-.1c.1-.1.2-.1.2-.1v.3s-.2.4-.2 1.1v.4c.1.8.5 1.7.5 2-.3.5-.5 1-.5 1.5 0 .4.1.9.4 1.2.4.5.4 1.1.4 1.6v.5c0 .5-.3 1.2-.6 1.5-.4.3-.6.7-1 1.7 0 0-.1.2-.1.3s-.3 1-.4 1l-.1.1c-.4.1-1.1.8-1.2.9l-.1.1.1.1s.1.1.1.3c0 .2-.1.5-.3.9-.5 1-.7 2-.7 2v.2l1.7-.2c.5 0 1.2-.3 1.5-.4v.4c0 .4 0 .9-.1 1.7v.4c0 .5.1.9.4 1.2.5.5 1.3.8 3 .8 2.1.1 2.3-.8 2.5-1.5l.1-.3c.1-.2.1-.5.1-.8 0-.4 0-.8-.1-1.2 0-.4-.1-.7-.1-1v-.4c0-.8-.2-1.5-.6-1.7-.2-.1-.5-.2-.7-.2-.2 0-.5-.1-.5-.2v-.1c0-.3.3-.7.5-1.1l.1-.1v-.1c0 .1.1.2.1.2l.1-.2s.3-1 .4-1.7v-.1c0-.4-.1-.7-.2-1-.1-.2-.2-.5-.2-.7v-.2l.1-.2.1-.2c.1-.2.3-.7.7-1 .6-.5 1.2-1 1.3-1.5l.2-.7c.3-.8.6-1.8.6-2.2v-.1c0-.4-.3-.9-.4-1 0-.1.3-.7.3-.8.1 0 1.2.1 1.2.1s-.7-.8-.8-.9c0-.1.1-.2.2-.4.2.3.8 1.3.8 1.3.2.5 1.5 3.2 2.3 3 .9-.2 1.9-.6 2.2-2.8 0-.3.1-.5.1-.8 0-1-.3-2.1-.8-3.3v-.1l-.2-.2-.6-1.1-.3-.3h.5c.4 1.1.9 2.8 1.7 3.4.8.7 1.8.8 2.7.4.7-.3.8-1.1.9-1.8l.1-.4v-.4c.7-.7.3-1.5.1-1.9zm-23.9-3.6s-.5.1-1 .1-1-.4-1-.4.6.1 1 .2c.4 0 1-.2 1-.2s.2-1 .6-1.5c.4-.5.4-.7.4-1 0-.3.4-.2.2-.7-.2-.4-.3-.5-.6-.6-.3-.1-1 .8-1 .8v-.2c-.2 0-.7-1.1-1.4-1.3-.9-.2-1.1.2-1.3.7-.2.5-.4-.8-.4-.8l.1-1-.6-.9s2.8-2.2 3.5-2.3c.9 0 2.5.7 2.5.7l-.1.3c-.3.1-.5.2-.5.2v.3l-1.9-.5-.3.2c-.1 0-.1 0-.2.1-.3.2-1.1.7-1.7 1.2-.1.2-.6.9.1 1 .7.1 1.3.2 1.5.5-.1-.2-.2-.6-.3-.9-.3-.6.7-.4 1.2.5.1.3.2.5.2.7h.5s.4.6.6.7c.2.1.2-.1.2-.1l.1-.3.1.3c-.1.1-.2.2-.2.3v.5l.2.2s-.4.7-.1.6c.2-.1.5-.2.7-.3l.1.3-.9.9s-.8.7-.9 1.1c-.1.4-.2.9-.4.9.1-.1 0-.3 0-.3zm-1-2.8s-.4.6-1 .5c-.6 0-1.2-1.1-1.2-1.1s.7.5 1.1.6h1.1zm-4.8-2c-.4-.3-4.2-2-6.4-3.9-2.3-1.9-3.4-2-2.8-3.5.6-1.5.7-.7.4 0-.3.7-.5 1.1 1.9 2.7s6.7 4.2 6.7 4.2.6.4.6.6c.1.3.2.8.6.6.3-.2.6.4.6.4l.4-.1v.4s-.3-.3-.8-.3c-.4 0-.6.1-.6.1l-.4-.7c.1.1.2-.2-.2-.5zm1.6 27.1c.1.5.7 3.4.7 3.4l-.6 1.3s-.9-3.8-.8-5c.2-1.2.5-1.4.7-1.3.3 0-.1 1.1 0 1.6zm5.7 19.9c0 .5-.3.4-.3.4s-.3-.2-.7-.2c-.5 0-.7.6-1.4.6s-.7-.3-.7-.9c0-.6.1-.8.1-.8s-.6-.1-1-.1-1.1-.3-.3-.3c.9.1.6-.1.6-.1l.1-.3h.2s0-.3-.6-.3c-.6.1-1.7.2-.6-.2s1.7-.3 1.7-.3c1-.2 1.9.5 2.1.7.4.3.8 1.3.8 1.8zm-6.8-2.7.1-.5c.1-.2.1-.4.2-.6.1-.1.2-.1.3-.2.3-.2.7-.2.9-.2h.2l.2 1s-.2-.2-.6.5c-.5.6-1 .4-1.3 0zm.7-86.6s.1.4.5-.1c.3-.5.6-2 .8-1.9.2 0 0 .5 0 .7 0 .3-.8 1.6-1.2 2.4-.4.8-.9 1.6-2 1.9-1.1.3-1.6-.3-1.6-.3-.2-.2-.2-.3.2-.3s.9-.1 1.1-.4c.2-.3 1-.1 1.5-.4.5-.3.4-1.9.5-1.9-.3 0-.3-.8-.8-.8s-.9-.7-.3-.7c.6 0 1.5-.9 1.5-.9l.6-.2s.1 1-.3 1.4c-.4.4-.4 1.2-.7 1.2.1-.1.2.3.2.3zm2-2.5c.1-.5.6-.3.6-.3l-.1.4s-.4-.3-.4.3c0 .5 0 .6-.2 1.1-.1.4-.2 1.8.1 2.4.2.6.3.7.3.7l-1.5 3.1s-1.2-1.2-1-2c.2-.8 1.1-1.6 1.2-2 .1-.4.1-1.6.3-2 .3-.3.5-.7.5-.7l.2-1zm24 55.1c-.2-1.5.2-2 .2-2s-.6 0-.7-.2c-.1-.3.6-.1.7-.5.1-.3.6-.9.6-.9s.4.4.6.8c.2.4 1.1 2.5.9 3.3-.1.8-.2 1.7-.8 1.5-.5-.1-1.3-.5-1.5-2zm-10.1 15.8c-.1-.1-.3-.3-.5-.3l-.2.2c-.1.2-.4.4-1.1.4-.9-.1-1.2-.4-1.2-1v-.2c0-.6-.3-1.6-.4-1.7.1-.1.5-.5.5-.9.1-.4.2-1 .2-1.4v-.4c0-.2-.2-.4-.3-.6-.1-.2-.2-.3-.3-.5h.2c.5 0 .5-.4 1-.4s.6.3.6.3.1 2.5.1 3.1c0 .6.3.7.2.8-.1.2-.5-.3-.7-.3-.2.1.5.5.3.6-.2.2-.5-.6-.7-.5-.2.2.4.8.8.8s.9-.7.9-.7l-.4-.3v-3.3c0-.5-.6-.8-.9-.8-.3-.1-.7.2-.9.3-.2.1-.4-.1-.6-.3 0-.3.1-.5.3-.6.1-.1.2-.1.3-.1l.5.2c.4.2.7.3.8.1v-.1c0-.1-.1-.2-.2-.3-.2-.1-.3-.3-.3-.4v-.1c.1 0 .9.2 1.2.8.1.2.1.5.1.9v1.4c0 .4 0 .7.2.9.3.3.5.5.5.9v.2c0 .2.1.5.2.7.1.3.2.6.2.9v.1c-.1.6-.4 1.4-.4 1.6zm.1 3.2s.2.6-.1.7c-.3.1-.5-.5-.7-.4-.1 0-.5.5-.5.5s.2.2.2.4 0 .8-.2.8-.1-.9-.6-.9-.7.5-.8.5c-.1 0-.1-.4-.1-.4l.2-.4h.2c.2 0 .2-.4.3-.6 0-.2-.2-.2-.2-.2s.2-.2.2-.5 0-.6.3-.7c.3-.1.5.5.7.5.3.5.5-.2.6-.2h.3l.2.9zm-7.1 1.2c.1 0 .2-.7.5-1.4.3-.8.4-1.3.4-1.3l.8-.2c.3-.1 1.2 0 1.2 0s0 .7.1.7.2-.5.4-.5.1.2.1.2.3-.2.2.2c-.1.4-.7.8-.9.9-.1.1 0 .8 0 .8s-.9.4-1.5.5c-.7.1-1.2.1-1.3.1-.1 0-.1 0 0 0zm4.5-1.9c-.1 0-.3.3-.5.7-.2.5-.3.8-.3.8l-.3-.8.4-.4c.2-.2.2-.7.2-.7s.1.3.2-.4c0-.7-.2-.4-.2-.4v-.5s.4.4.7.6c.2.1 0 .6-.1.7-.1.3 0 .4-.1.4zm-2-2.5c.1-.2.3-.7.6-.7h.2c.2 0 .3 0 .3.1v.4c0 .1 0 .2.1.3l.2.4h-.1l-.2.2c-.1-.1-.3-.2-.4-.2-.1 0-.4.2-.5.2 0-.1-.1-.2-.2-.2l-.4.1s-.2-.1-.3-.1c0-.1.2-.7.3-.8l.4.3zm1.6-8.3v-.4s.6.1.5.4c-.1.2-.5 0-.5 0zm1-.3c-.2-.1-.8-.3-1-.3-.2-.1-.5 0-.4-.4.1-.2.1-.2.5-.2.3 0 .5.4.9.6.5.3.2.5 0 .3zm1.4 1.9s0-.9-.2-1.1c-.2-.2-.8-.6-.8-.6s.6.1.8.3c.2.2.5-.1.3-.3-.2-.2-.6-.8-.6-.8l.2-.2.8.9s-.2.5-.3.9c-.1.5-.2.9-.2.9zm-.2-1.7-1.3-.9s.4-.2.6 0c.2.4.7.9.7.9zm-1.9-1.3c-.4 0-1 .3-.9-.1.1-.5.7-.2.9-.2.2 0 .7.2.7.2s-.3.1-.7.1zm-1.6 15.5c.1-1.1 0-1.5 0-1.5s.5.5.7.6l-.3 2.6s0 .7 1.8.8c1.9.1 2.4-.5 2.4-.5v.3s-.4.6-2.2.5c-1.8-.1-2.1-.4-2.4-.8-.3-.5-.1-.9 0-2zm3.2-15.3c-.4 0-.8-.3-.8-.3s.5 0 .8-.3c.3-.3.8-1 .8-1s.5.9.5 1.2c0 .5-.2 1.2-.2 1.2s-.6-.8-1.1-.8zm-7.9-14.8s.1-.2.1-.6l-.5-.6s.4.2.5.6l.1.6h-.2zm-1.1-2.6.2.4c-.3-.2-.3-.3-.2-.4zm-1.6-5.6-.2 1-.4-1h.6zm-3.6 6.4c0 .7-.8.4-1 .2l.1-.2s.4.3.6.1c.2-.2.1-.9.1-.9l.2-.3v1.1zm-1.4-.9-.2.3s-.5-.9-.1-1.3c.3-.2.4-.4.6-.2.3.2.4.5.4.5l-.2.1s-.3-.6-.6-.3c-.2.3.1.9.1.9zm-2.3-19.1c-.2-.4-.8-.9-.9-1.8-.2-.9-.6-3.3-.6-3.3s1.2 2.2 1.4 2.5c.2.3.7.6 1.1.8.4.2.7.8.8.7.2-.1.3-.3.3-.3s.7-.7.7-.6c.1-.5.8-1.1 1.1-1.2 2-.6 3.1 1.6 3.1 1.6l3.9-2.9s.4.3-.3 1.6-1.9 2.9-1.9 2.9-.4-1.2-1.7-1.5c-1.3-.3-2.9-.2-4 .6s-2.9 1.8-2.9 1.8.1-.4-.1-.9zm-1.6-2.2s-.1 1.1-.4 1.6c-.2.5-1 1.3-1 1.3l-.1 1.1c-.1 0-.4-.1-.8-.3-1.4 1.9-1.3 1-1.3 1s.4-.6.7-1.2h-.3c.4-.6 1-1.6 1.3-2.7l.4-1.4c.2-.7.3-1 .5-1.2V89c0-.4-.1-.8-.3-1.1-.2-.3-.7-.5-1.4-.8-.5-.2-1.2-.5-1.8-.9-.1-.1-.3-.2-.4-.3-.4-.3-.9-.6-1.3-.9-.2-.1-.3-.2-.4-.2v-.4c.5-.4 1.4-1.1 1.8-1.5.5-.5 1.3-1.9 1.5-2.4.7.6 5.1 4.5 5.6 4.9.6.5 1.1 1.2 1.1 1.8v.1c0 .3-.4 2.3-1 4.4-.1-.1-.2-.1-.3-.2v-.1l-.3-.5v.2c-.1-.2-.2-.4-.4-.7v-.1l-.9-1.5v.2c-.5-.7-1-1.3-1-1.3s.1 2.1.3 3.2c.2.4.2.7.2 1zm-5.3 10.1c-.3-.2-.5.1-1 .1-.5-.1-.2-.4.2-.7.4-.3 1.6-.1 1.6-.1v-.2c.2.1-.1.6-.2.9-.3.3-.3.2-.6 0zm-16.8 18.4s-.2-.1-.9-.1c-.7.1-1.2-.5-.5-2.1s1-1.8 1.4-1.9c.4-.1.1.1.1.1.8 0 1.8.3 1.6.7-.1.3-.7 1.7-.7 1.7s-1.1-.1-1.2.4c0 .5.2 1.2.2 1.2zm-1.2-6.7v-.1c0-.8.4-1.3 1-2.2l.1-.2c.3-.4.4-.8.5-1.3.2-.8.5-2 1.7-4 .7-1.1 1.7-2.8 2.8-4.4 0 .1-.1.3-.1.3l-.9 1.8s.2-.2.7-.8c.5-.6.8-.7 2-.3 1.2.4 1.2 1.3 1.2 1.3s-.4.3-.8.3c-.5 0-.4.1.1.3.5.2.6.4.6.4s.6-.3.9-.2c.3.1.2.8 0 .7-.9.1-.1.6-.1.6l.9.1s.4.4-.5 1.5c-.8 1.1-1.6.9-1.6.9l-.4 1.4-.2.2c-1.9 1.7-3.1 3.6-3.9 5.5-.8-.4-1.8-.7-2.3-.6-.8.1-2.3.9-2.3.9l-.1.2s-.1 0-.1.1c.2-.6.8-1.5.8-2.4 0 .1 0 .1 0 0zM144 78.8c.2.1.4 1.1 0 1.9-.4.7-1.8 2.5-1.8 2.5l-.4-.7s-1.5 0-2.7-1.3c-1.2-1.3-1.2-2.7-1.2-2.7l-.6 1.8s-1.1-.5-1.2-1.5c-.1-1 .5-1.6.5-1.6s.3-.4.5-.4c.3 0 .8.4.8.4l.7-.8 2.2-.5.2.4 1.2.4v.6s.6.3.8.6c.1.1.8.8 1 .9zm6.6 5.7 1.7-.2-1.5.8-.2-.6zm1.9 7.8s.4-2 1.2-3.2c.5-.7.2-1.4-.2-2.4s.4-3.1.4-3.1 1.2 1.6 1.5 2.6c.4 1 .9 1.2 1.1 1 1.2-.5 2-.5 3-.2s1.7-.2 3-1.5c.3-.3.6-.5.8-.7.4-.5.7-.8.7-.8l-.2-.4-1.1-1.1s-.6-.9-.7-1.4c0-.3.4-.7.9-1.1l1.1 1s.4-1.2.7-1.3c.3-.1 1.1.3 1.1.3s-.1-.4 0-.7c0-.3.4-.5.4-.5s-.2-.2-.5-.6c.1 0 .2-.1.3-.1.2.3 2.6 5.1 2.6 6.3 0 .2-.1.6-.4 1l-.3.4v.1c-1.2 2-3.8 5-5.3 5.6h-.1v-.3c-.2-.3-.6-.7-.9-.9.1-.9 0-1.5 0-1.5s-.6.4-1.1.9c-.6-.2-1.7-.5-3.1-.7-1-.2-3.1.8-4.1 1.5-.3.2-.4.4-.4.5 0 0 0 .1.1.1.2.1.9-.1 1.6-.6 1.1-.8 3.6-.6 4.5-.5.2 0 .4.1.7.3-.2.2-.4.3-.5.4-.5.4-1.3 1.1-1.8 1.4-.6-1-2.2-1.3-3.2-1.2-.9.1-1.4 1.2-1.4 1.2l-.4.2zm24.8 4.9c.1.3.2 1.4-1.4 2.5 0 0-.1 0-.1.1l.3.7.5.2s.7 1.2.9 3c.2 1.7 1 5 1 5s-1.1-2.6-1.1-2.9c0-.3-.3-2.3-.6-2.9-.3-.6-.9-2.8-1-3.1-1.6 1-2.4 1-3.9-.2l-1-.8c-1-.9-1.9-1.7-4-2 0 0-3.4-.5-4.4-.6 0 .2-.1.4-.1.6l.9.4s1.7 2.2 2.3 2.7c.6.5 1.9 2 2.2 2.4 1 0 2.3 0 2.9-.3 0 .2.1.4.1.6-.8.2-2.4.4-3.5.5h-2v.2s-.9.8-1.7.9c-.6.1-1 .3-1.1.4-.3 1.1-.7 1.9-.9 1.9-.4-.1-1-1.3-.4-3.7h-.4.4c.1-.5.3-1 .6-1.6.4-.9.5-1.7.5-2.2 0-.5.1-1.4.1-1.4s1.2 1.2 1.4 1.6c0 .2-.3 1.8-.8 3.4 1.6-.1 3.4-.3 3.9-.3h.5c-.4-.3-1.2-1-1.6-1.6-.4-.7-2.7-3.1-3.5-3.9-.2 1-.6 2-.8 2.4.2.1.1.1-.1.1h-.2c-.2 0-.4.3-.4.3l.1-.2c.1-.1.3-.2.4-.2 0 0 0-.1-.1-.2-.3.1-.8.3-.7 1.1 0 0-.3.3 0 .1.2-.1.5-.1.6-.1.2 0 .6.3.3.6-.5.5-1.2 4.1-1.2 4.1l-.5 2c-.6-.5-1.4-.8-2.1-.9-.3 0-.5 0-.8.1l-.4-.7s-.3-.2-.5-.3c-.2-.1 0-.7 0-.7s-.6-.2-.5-.7c.1-.5-.4.5-.4.5l-.7-1h-.6c-.2 0-.5-.6-.5-.6h-.2v-.6h-.3s-.2.4-.4.4-.2-.5-.2-.5h-.2s.1-1-.6-1.1c-.7-.1-.7-.5-.4-.5.3 0 1.1.6 1.1.6s.2-.1-.3-.6c-.5-.6-.7-.6-.7-.6l.3-.5s1.3-.1 1.8-.6c.6-.5 0-1.2-.2-1.3-.2-.1-.3.5-.3.5s-.1-.5-.6-.4c-.5.1-.4-.5-.1-.6.2-.1.8-.3.8-.3s.2-.3.2-.6-.9.1-1.1.5c-.2.4-.6 2.1-.6 2.1v.5l-.6.8-.3.7s-.2-.8 0-1.2c.2-.4.6-1 .6-1.6 0-.6.1-1.3.1-1.3s2.3-1.4 2.9-1.8c.6-.4 1.2-.7 1.2-.2 0 .6.6 1 .9 1 .3.1.8-1.2 1.5-1.1.6 0 1.5.2 2 1.5s.5 1.5.7 1.8c.1.1.2.3.3.4-.3-.4-.3-1.1-.6-1.6-.2-.5-.8-1.7-.8-1.7s.9-1.1 1.9-2.8l.3-.6c.1.1.3.2.4.4l-1.4 2.7 1.6.1s5 .8 5.4.8c.5 0 1.7-.3 1.7-.3v-.3l-1.5-.3s-.2-1.8-.5-2.2c-.3-.4-1.4-.3-1.4-.3l-3.2-.1v-.2h.1c1.5-.7 4.1-3.6 5.4-5.6.1.2.2.4.2.6 0 .3-.2.4.6 2.6.2.5.4 1 .7 1.5.6 1.7 2.1 3.6 3.3 5.1-.3.3.3 1.1.3 1.1l-.1.4c-1.3-.2-3.2-.5-4.1-.7l-6.6-1.4v.1c1.4.3 6.6 1.4 6.6 1.4 1.3.3 4.2.8 5.3.8l1.2-.1c1-.2 1.9-.3 2-.1zm1 14.6s-.3-1.1-.6-1.3c-.3-.2-.6-.6-.6-.6s.5.1.9.1c.4-.1.4-.4.4-.4s.2 2.1.4 2.9c.2.7.6 2.1.8 2.5.2.4-.1 1.4-.1 1.4l-.3-1.3-.9-3.3zm-1.2 17.9c.2-.4.3-1.3.3-1.9V127.2c0-.4.1-.7.2-.7l.1.2s.1.6.1 1.4c0 .4 0 .9-.2 1.4-.3 1.4-.4 1.4-.7 1.4h-.1v-.1c0-.4.2-.9.3-1.1zm-15.6-20.1c-.3.3-.7.4-1.1.5.3-.9.6-2.2.7-3.1l.1.1c.2.1.7 0 .7 0l.5.8c-.2.7-.5 1.3-.9 1.7zm-8.3 1.7s-.3-1.8-1.8-4.1-2.3-2.2-2.3-3c.1-.8.2-1.1.3-.3 0 .8.6 1.3 1.3 1.9.7.6 1.3 2 2 3.3.7 1.3.9 2.5.9 2.5l-.4-.3zm.2-17.5c.3-.3 1.9-1 1.9-1 2.6-.2 2.8.5 3.7 2.1 0 0-.9-1.5-2.4-1.5s-2.7.5-4.3 1.6c-1.6 1.1-2.2 1-2.2 1s-.1-.4.5-.6c.5-.1 2.5-1.3 2.8-1.6zm-2 8.1s.3.2.4.4l.1.2h-.7l.2-.2v-.4zm-.5.4s-.2-.1-.2-.3c.1-.1.5-.2.5-.2l-.3.5zm.3.5c.4.1.8-.1.8-.1s.1.7.2.9c.1.2.4-.2.4-.2v.4l.5 1.5-.4-.6-.3-.6s-.3.2-.5.1-.1-.5-.1-.5l.1-.3s-.7-.1-1.1-.2c-.5-.1-.6-1-.6-1l.2-.1c-.1.1.3.6.8.7zm9.3 2.9-.5 1.3c0-.2.2-.9.3-1.7.1.1.1.3.2.4zm-.7 2.1c-.2-.2-.6-.5-1.9-.6-2-.1-3.8 2-4 2.3-.1-.1-.3-.6-.3-.6.1-.2 2.3-2.7 4.2-2.7 1.1 0 2.6.8 2.7 2.1.1.8 0 .9 0 .9s-.2-.1-.5-1.1c-.1-.2-.1-.3-.2-.3zm.8.4c0-.3-.1-.6-.3-.9l.2.1.4-1.2c.1.1.1.3.2.4l-.4 2.3c-.1-.2-.1-.4-.1-.7zm3.9-.1s.9-.1 1.6-.6c.7-.5 1.9-1.5 1.9-1.5s.2.2-.8 1.1c-1 .9-2.3 1.3-2.9 1.5-.7.2-1.1-.6-1.5-1.3-.7-1.1-.3-1.2.2-2.1.5-.9.8-.4.9 1.1 0 1.5.2 1.5.5 1.2.3-.3.7-.2.3.1-.3.3-.2.5-.2.5zm1.3.5c.7-.2 2.3-2 2.3-2l.4.1s-.8.8-.7 1.1c.1.3 1.2-.1 1.2-.1l-3.8 2.4-.7-.6-.1-.1-.2-.2s.9-.4 1.6-.6zm4-2.5c.4 0 .3.7.3 1 0 .3-.3.5-.8.2 0 0-.3-.1-.5.1-.2.1-.6.2-.6.2s.5-.3.6-.5c.1-.2.1-.2.2-.1-.3-.5-.2-1 .8-.9zm2.1 4.4c.1.7 1.3 2.9 1 1.7-.3-1.2.6-1.9.6-1.9l.3-.4-.3 4.8-1.1 2.2s.7-.1.6.3c-.1.2-.5.7-.8 1l-.3-.1s-.3-.5-.7-1.1l-.5-.9 1.1-3.8c.1 0 .1-2.5.1-1.8zm2.8 14.9c.3.2.8.2 1.1.1-.3.2-1.1.6-1.2.7-.1-.1-.2-.5-.6-.6-.2-.1-.5-.2-.6-.3.4 0 1-.1 1.3.1zm-.3-.7h-.3c-.7 0-1.1 0-1.4-.3-.3-.3-.3-.5-.3-.6.1-.1.7-.8 1.5-.3.9.6 1.7 1 1.7 1s.2.2.3.4c-.2-.1-.8-.2-1.5-.2zm-8.4-9.5c0-.4-.1-.8-.4-1-.6-.5-1.1 0-1.4.3-.3.2-.5.5-.8.3-.3-.2-.3-.4-.3-.6 0-.3 0-.7-.5-1-.8-.4-1.7-.4-2.1-.4.2-.1 1-.8 1-.9l1.8-.1s1.2 1 1.7 1.3c1.1.8 2.8 1.1 2.9 1.1 0 0 1.6 1 2.3 2 .8.9 1.5 2.1 1.5 2.1s.6.2.7.2v.6c0 .2-.1 1.1-1.3 1.1h-.6c-1 0-2.1-.1-2.9-.6-.9-.6-2.2-1.9-2.3-2 0-.1.7-1.4.7-2.4zm-.8-4.3c.4.4 1.7 2.2 2 2.7-.5-.2-2.1-.9-2.7-1.4-.8-.6-.9-.9-.9-.9s-1.2-.1-1.4-.1c.1-.1 1.3-1.7 1.4-1.8.1.1 1.6 1.5 1.6 1.5zm4.9 3.3c-.1.2-.2.9-.2 1.4-.8-.8-1.8-1.7-2.3-2-.4-.9-1.1-1.8-1.7-2.5l2.6-2.4.6.9s.3.8.4 1.6c.1.8 1 2.2 1 2.2s-.3.4-.4.8zm-2.4 6.2c.2.1 3.5 2 3.8 2.2h-.5l-3.2-2s-.1-.1-.1-.2zm3.2-7.7s-.1-.4-.4-.9c-.3-.5-.6-2.7-.7-3.2-.1-.5-.5-.9-.5-.9s.4.2.7.1c.3-.1.4-.3.4-.3l.2 1.4.7 2.9-.4.9zm-8.3-4.5.9.9-.7.9-.8-.4s.4-.4.6-1.4zm13.1 14.3c0-.1.1-.2.2-.4.1.2.1.4.2.6-.2-.1-.3-.2-.4-.2zm-4.5-15.4c-1-.8-2.9-3.7-2.9-3.7l.4-.1s1.3 1.5 2.3 2.8c1 1.3 2.4 2.1 3.4 2.5.9.4 2.6.2 3.4.1.9 0 .1.5.1.5s-1.7.1-2.8-.1c-1.1-.1-2.9-1.3-3.9-2zm-.2-4.2s.8 1.7 1.1 1.9c.2.2.5.6.5.6s-.4.2-1-.5c-.6-.8-.6-2-.6-2zm-.4-2.4s-1-1.6-1.2-2.2c-.1-.3-.6-.6-1-.8l-.6-.2.6.2c.4.1 1 .4 1.5.5.3.2.6.5.9.8l.7.6c-.2.1-.5.4-.7.9l-.2.2zm-1.6-.2c-.5-.4-.5-1.1-.5-1.1l1-.1.5 1.1-.5.6-.5-.5zm1.1.1.2.3v1.1l-.2-.2c-.2-.2-.4-.5-.4-.5l.4-.7zm4.1 5.1s-.5.1-1.4.1c.8-.2 1.5-.4 2-.6.8-.5 1.1-.5 1.4-.9.2-.3.8-.3.2.4-.7.7-2.2 1-2.2 1zm4.7 4.3c-.3-2.2-.7-4.9-1.1-6.6-.2-1.1-.6-2.1-.9-3.1.5-.1 1.3-.1 1.8.9l.9 1.7c.5 1.2 1.1 2.9.6 4.4-.4 1.5-.9 2.6-.9 2.6l-.4.1zm-16.7-17.7.4.4v-.4c.9.1 2.9.2 3.5.5.8.4.7 1.6.7 1.6s-1.4-.3-1.8-.3c-.5 0-1.5-.1-1.5-.1l-1.4-.9.1-.8zm.5-1s-.1.9-.1 1.2l-.2-.2-.8-.8c.2-.4.2-.7.3-1l.8.8zm-3.4-1.4c-.9-.1-3.4-.3-4.5.5-.7.5-1.3.7-1.5.6 0 0 0-.2.3-.4 1-.7 3-1.6 4-1.4 1.3.2 2.4.5 3 .6-.2.2-.4.3-.6.5-.3-.2-.5-.4-.7-.4zM142.9 96c-1.2.3-1.6.9-1.6.9l.7.1.3.5-.2.3-.4-.2h.3l-.1-.2-.8-.1-.1.5-.2-.1.1-.4-.4-.1c-.1-.2.2-.8.5-1.3.3-.1.6-.3.9-.4 2.1-.6 4.1-1.4 4.5-2.2.3-.6.5-1.1.7-1.4l-.3 1.1c-.3 1.1-.9 2.1-1.4 2.7-.7-.2-1.7.1-2.5.3zm1.9.2v.4l-1.9.8s-.3-.2-.3-.4c.1-.2.5-.2.5-.2l.5-.2c.8-.3 1.2-.4 1.2-.4zm-.7-13.3c-.5.5-1.8 1.5-2 1.7 0-.1-.4-.7-.4-.8.2 0 1-.3 1.7-1.5.9-1.4 1.3-2.3 1.3-2.7.1 0 .5.3 1 .8-.1.2-1.1 2-1.6 2.5zm-10 16.6c2.1.3 3.7 1.7 3.7 1.7s-2.9.3-3.8.1c-1.8-.3-2.6-1.7-2.6-1.7l2.7-.1zm4.4 4.6.2-.4.1.5-1 1.3h-1.4s-.2-.4-.5-.7c-.3-.3-.1-.8-.1-.8l.3.1s.2-.6.7-.7c.5-.2.8.1.8.1.3.1.8.2.8.2s-.4.4-.3.6c0-.1.3 0 .4-.2zm-3.3-.8c-.8-.1-.9-.6-.9-.8.1-.2 1 .1 1 .1.7.2 1.1.3 1.1.3s-.4.5-1.2.4zm2.3-4.1c.5.3 1.9.5 3 .9s.9 1 .9 1l-.5-.4-.4.6-1.4-.3-.4.3s-1-1.4-2.8-2.1c-.8-.3-1.6-.4-2.4-.4 1.2-1.8 2.1-3.2 2.1-3.3h.1c.8.5 1.6.9 2 .8h.4l1 .6.5.3-.3.3.2.1-1-.1s.2.2.6.3c.4.1.7.6.9.6.3 0 .4.3 1.4.4-.5-.1-1.2.1-.5.4.7.3 1.5.8 1.5.8l-1.4-.4s-.9-.6-2.2-.8c-1.2-.2-.5-.4-1.2-.6-.6-.1-.6.7-.1 1zm6.8-.6c-.4 0-.5.1-1.5.5-.5.2-.1-.3.3-.6s.3-.7-.5 0c-.8.6 0-.4.5-.7.7-.4 1.1-.7 1.4-.7.3 0 .4-.4.9-.3.6.1.4.3 0 .5s-.5.4-.5.4-.2.9-.6.9zm5.6 8.2c.4.6 1.6 1.6 2 2.4.4.8.7 1.8.7 1.8s-.4-.1-.6 0c-.2.2-.6.7-.6.7s-.5-1.8-1.2-2.2c-.7-.5-1.9-1.8-1.6-2.7.3-.9.9-.6 1.3 0zm10.5 2.5c.1 0 .1 0 .1-.1l-.1.9h-.2l.2-.8zm1.2.6.6.6s-1 1.4-1.4 1.6l-1 .5.1-1.3c.1 0 1.1-.7 1.7-1.4zm10.9 18.9s-1.1-1.2-1.5-2.1c-.4-1-.6-2.6-.3-3.2.1-.2.2-.3.3-.4.1 0 .2 0 .2.1s-.3.8-.3 1.7c0 .5.1 1 .3 1.5l.6.7c.3.3.5.5.7.8.3.5.6.8.8 1-.2-.1-.8-.1-.8-.1zm4.8-3c-.1-.3-.4-1.1-1.3-1.8l-.5-.4c-.8-.6-1.3-1-2.6-1.2-.6 0-1.1.1-1.2.2-.1-.1-.1-.2-.1-.4v-.1c0-.1.1-.1.2-.1.5 0 2.1.1 3 .5 1.5.6 2.7 2.3 2.8 2.4 0 .2-.2.7-.3.9zm-1-2.8-.5-1.7s.1-1.9.4-2.5c.3-.6 1.6-1.4 1.6-1.4l-.4-.4s.7-.3 1.2-.3c.5-.1 1.1.2 1.4.5l.7.7s-1.1-.7-1.7-.6c-.6 0-2 .5-2.5 2-.4 1.4-.5 2-.5 2h-.3l.4.5.3.8h.6c.1.1.1.2.1.3 0 .1.1.2.1.3l-.8.1c0-.2 0-.2-.1-.3zm.6-.6h-.3c0-.1-.2-.5-.2-.6.1.2.3.3.5.6zm1.8-2.7c-.1-.4-1.3-1.1-.5-1.5 0 0 1.2-.5 1.8-.1.6.4 1.1 2 1.1 2v1.2s-.4-1.1-.6-1c-.3.1-.6.7-.6.7s-.4.8-1.1.5c-.6-.4 0-1.4-.1-1.8zm-12.9-41.8c-.3-.2-.8.4-1.4.8-.6.4-1.4 1-1.4 1l.1.1c-.5.4-.9.9-.9 1.2v.1c0 .3.1.5.3.8l.4.6.1.1-.3.6-2.9 1.7s-2.4.6-3.2.5c-.8-.2-.1-3-3.9-2-1.1.3-2.1-.1-2.6-.1H149c-1.4-1.2-2.9-2.5-3.3-2.9v-.1c-.3-.3-.9-.9-1.1-.9 0 0-.1 0-.1.1v.2c0-.4-.1-.7-.3-.9-.2-.1-.3-.3-.4-.5.7-.6 1.5-1.4 2-2.1.7-1.2 1.5-3.6 1.7-4.1.1.1.5.3.7.5-.1.2-.4-.3-.7-.4l-.4 1.5.6.2s.2-.6.4-.8c.1-.1.2.1.3.3v.3c-.1.2-.3.7-.1.8.2.2.3.8.3 1.1 0 .3.7.8.8.8.1-.1.7.7 1 1 .3.3.7.2.7.2s1.1.9 1.7 1.4c.5.1.8.1.8.1l.2-.2 2.6-5.4.1-.2h-.2l-.3-.3c0-.1-.1-.4-.1-.7v-.8c0-.5.1-1 .1-1.4v-.8h.9v-.1c0-.1 0-.1.1-.2.3-.2.5-.5.6-.6v-.1h.1c1.1.2 4 .9 4.4 1.4.5.6 2.7 3.6 3.5 7.2 0 0 .1 0 .1.1.3.3.4.4.4.5-.1.3-.2.3-.3.4zm-13.5-6.8c.3.3.5 1.1.6 1.7.1.6-1.1.4-1.8.4-.6.1-1.2 0-1.2-.2s.7-.1 1.3-.2c.5-.1 1.2 0 1.2-.3s-.2-.9-.7-1c-.6-.1-1.7-.1-1.7-.1-.3-.2 1.1-.3 1.1-.3l-.5-.3s.4.1.6 0c.2-.1.2-.4.2-.4s.6.5.9.7zm-2.3.8s.8-.2 1.5-.1-.4.3-.9.3c-.6.1-.6-.2-.6-.2zm.1-2.3c0-.2.3-.8.3-.8-.1.4-.1 1-.1 1s.1-.1.3 0c.2 0 .6.6 0 .3-.2-.1-.4.1-.4.1s-.4.2-.5-.1c-.1-.2.4-.3.4-.5zm-13.6 3.6c1.8.6 4.1 2.3 4.1 2.3l-2.2.5-.4.7s-.3-.4-.7-.4c-.4 0-.8.5-.8.5l-1-1.1v-.4l-.9.2s-.4.4-1-.2c-.6-.7-.4-1-.7-1.3-.3-.3-.5-1.2-.5-1.2s2.3-.3 4.1.4zm-14.3 15.4c-.2.1-.7.3-.9.4-.2.2-.4 0 .3-.6s1.1-1.1 1.1-1.1c.8.2.9.2.9.2l-.7.4c0 .1-.5.6-.7.7zm-11.9 5.3c-.5-.1-.6-.5-.8-1.5-.2-1 .3-1.9.3-1.9.2-.1.4-.2.5-.2.3-.1.4 0 .4 0-.2.1-.4.2-.4.3-.1.4 0 2.7.1 2.9.1.2.3.3.7.2-.1.3-.3.2-.4.2-.1-.1-.2-.1-.4 0zm-2.2.1-.1-.3v-1.1l-.2-.3-.1-.1c-.5-.5-.6-1.4-.4-1.8 0 0 .2-.5.7-.7.5-.2.7-.2.7-.2v-.1s-.6-.2-.8-.1h-.1v-.2l.1-.1.2-.2v-.3l.1-.1.5-.3.9.2s.1.2.2.3v.6c0 .2.1.2.3.3l.1.1c.2.2.2.3.2.3v.2c-.1 0-.5 0-.6.3-.1.2-.2.3-.3.4-.1 0-.1.1-.1.1l.1.1s.1 0 .1-.1c0 0 .1-.1.2-.1-.1.2-.4 1-.2 1.9.2 1 .3 1.4.8 1.6-.3.3-.4.4-.8.4h-.3c-.3 0-.6.1-1-.3-.2-.3-.2-.4-.2-.4zm2.7-4.5c.2.3.2.5.1.6-.1 0-.1 0-.1.1l-.1-.4s-.2-.1-.2-.3V89c.1.1.2.3.3.5zm-.4-.9s-.1.3-.1.4c0 0-.1-.1-.2-.3 0-.1-.1-.2-.1-.3-.1-.2-.2-.3-.2-.3l.1-.4c.1.1.3.2.5.3 0 .3.1.5 0 .6zm8-36.3c.2.1.3.2.4.3-1.1 4-7.2 26.5-8.2 30.3-.1-.1-.2-.2-.4-.3-.1 0-.2-.1-.3 0 1-3.9 6.8-25.8 8-30.2.2-.1.3-.1.5-.1zm-1-10.8s0-2.6 3.4 2.1c1.8 2.5 2.6 3.7 3 4.7.3 1 .2 1.8.2 1.8s-1.5-3.2-3.1-5.1c-1.6-2.1-3.5-3.5-3.5-3.5zm-6.9 49.9-.1-.8s2-.6 2.8-.8c.7-.2 2.5-1 2.5-1s.2-.5.8-.8c.6-.3 1.6-.7 2.7-1.3.8-.4 1.6-.7 2.1-.8 0-.2 0-.5.2-1 .1-.5.2-1.1.2-1.1l1.1 1-.5 1.3c-.1.5 0 .2-.1.5s-.3.2-.7.3c-.4.1-2 .5-2.8 1-.9.5-1.8 1.5-1.8 1.5s-.4.2-.8.3c-.4.1-3.9 1.1-4.1 1.2-.4.1-1.5.5-1.5.5zm12.3-7.3c-1-.6-1.4-1.4-1.4-1.4s.2-.7.3-1c.2.4.8 1.8 1.6 2.1 1.4.6 2.4.2 2.8-.1-.2.2-.4.6-.4.6-.1 0-2 .3-2.9-.2zm-1.3-16.4s.2 0 .6-.2c.4-.2 1.2-.4 1.2-.4v.3s-.4.2-1 .4c-.6.1-1 .5-1 .5l.2-.6zm7.7 2-.3.2s-1.2-2.1-2.3-2.4c-1.1-.3-2.2-.2-2.2-.2l-.1-.4s1.2-.4 2.6.4c1.3.7 2.3 2.4 2.3 2.4zm-2.1 1.4s-.8-.7-1.1-.9c-.6-.3-.6.4-.6.4l-.2.4-.4-1.5s1.3.1 1.8.6c.5.7.5 1 .5 1zm-4.4-1-.1 1.5-.3-1-.3.4-.3-.4.6-.6.4.1zm-1.1 6s1.1.3 1.8.5c.7.1 1.4-.2 2.8-.7 1.4-.5 3.1-2.6 3.1-2.6l.8.1s-.7.5-2.1 1.8c-1.4 1.3-3.4 2.1-4.5 2-1.4-.1-2-.7-2-.7l.1-.4zm9.1-5c.2-.9-.8-2.6-.8-2.6s1 1.4 1 2.4-.9 2.2-.9 2.2h-.7s1.2-1.2 1.4-2zm-4.8 6.8s-.6.6-.8.4c-.2-.1-.1-.7-.1-.7l.9.3zm.6 1.5c-.5-.2.3-.6.8-.8.5-.2.9-1.2.9-1.2l.3-.5.7-.5-.4 1.1-.5.3c-.1 0-.6 1.7-1.8 1.6zm2.6-1.8c.4-.3.7-3.2.7-3.2l.4-.4s-.5 3.3-.9 3.7c-.4.4-.9.6-.9.6l.7-.7zm1.1-2.1.3-.2v.7l.1.4.4-.2-.4.7-.5.7.1-2.1zm1.5-2.9c-.2.2-.2 0-.2 0s.2-.4 0-.7c-.2-.3 0-.3 0-.3s.3.4.3.7c.1-.1.1.1-.1.3zm-2.7 6.8c-1 0-1.2-.2-1.2-.2l.4-.4s1 0 1.4-.3c.4-.2 1.2-1 1.4-1.5.2-.5.8-1.5.5-2.4-.3-1-.5-1.8-.5-1.8v-.3s.5.3.5.6l.7.1s-.4.4-.3.7c.1.2.6.4.5 1.5-.1 1.1-.3 1-.3 1s.6.6.1 1.4c-.6.7-1 .2-1 .2l-.3.6-.6-.1s-.3.9-1.3.9zm10.5 26.4s1.7-.9 2.6-2c.9-1.1 1.4-.9 1.4-.9s-.7 1.2-1.3 2.1c-.6.8-1.5 1.5-1.5 1.5l-4 6.8s.4-1-.2-1.6l3-5.9zm1.7 1.4c1.6-1.6 2.5-3.4 2.8-4.2l-.4.1.3-.7.4-.2 1.4-2.8.9-2.4.4.4s-.2 1.1-.4 1.1c-.3 0-1.7 3-1.7 3l2.2-2.4.3-1.4v-1l.5-.5c.6-.6.3-1.1.3-1.1s.2-.8.5-1.2c.2-.2.3-.5.4-.7.7.8.8 1.6.8 1.6 0 .4 0 .7-.2 1.2-.1.2-.2.4-.4.5-.3.6-2.2 3.9-2.2 3.9l-.6.6.5-.2-1.7 2-.3.1c-.6.8-1.2 1.6-1.4 2.1-.6 1.5-7.5 9.9-7.5 9.9 3.3-4.9 4.7-6.8 5.1-7.7zm4.7-3.6c-.3.6-1.5 1.7-1.5 1.7-.3-.6.6-.8 1-1.7.6-.7.8-.5.5 0zm5.9 44.4c.2-.2.3.4.4 1.9.1 1.6-.4 5.9-.4 5.9s0 .2-.3.1c-.3-.2.2-4 .2-4.9-.1-1-.1-2.8.1-3zm.3 19.1c-1.1 0-2.2.9-2.6 1.2v-.1c0-.4 0-1.5-.3-2.1-.2-.4-.3-.6-.4-.6.1-.3.4-1.4.9-2.6.3-.7.4-1.4.4-2.1 0-.6-.1-1.1-.3-1.5l-.1-.1h.2c.4-.1.3-.4.3-.4s-.5 0-.4-.3c0-.2.5-.5 1-.7.5-.2 1 0 1 0l.1-.6s-1-.2-1.8 0c-.5.2-.8.5-1 .8-.1-.1-.1-.3-.1-.4 0-.2.1-.4.3-.5.8-.7 1.7-1 1.8-1l.7-.1c.4-.1.7-.1 1 .2.1.1.2.3.2.5 0 .3-.1.7-.2 1l-.1.5c0 .4-.1 4.1-.1 4.2 0 .1.3 2.9.8 4 .3.7.4 1.1.4 1.3-.2-.1-.7-.6-1.7-.6zm1-13.9v-.8s.2-.8.2-1.4c.1.1.2.3.3.4l.2.2-.1-.1c0 .3.1.5.1.8 0 .6-.1 1.1-.3 1.4-.1.2-.3.5-.4.8v-.1c.1-.2.1-.4.1-.6-.1-.2-.1-.4-.1-.6zm-.5 2.7zm5.8-.9c0 .1 0 .2-.1.2s-.4-.1-.8-.5c-.3-.3-.6-.6-1-.6s-.8.3-1.3.8c-.6.8-.8 1.2-.8 1.4v.2c-.1.2-.1.3-.2.3l-.1-.2c-.1-.3-.1-.6-.1-1 0-.3.1-.6.2-.8.2-.2.4-.7.4-1.3 0-.4-.1-.7-.3-1.1-.2-.5-.5-.8-.8-1.1-.3-.4-.6-.7-.6-1.1v-.5c0-.3.1-.6.1-.8l.1-.3-.1-.2c0-.1-.1-.1-.1-.3 0-.2.1-.5.5-1l.2-.3c.7-1.1 1.3-1.9 2.5-2.2 0 0 .1.1.1.3 0 .1 0 .3-.2.5-.1 0-.1.2-.1.4 0 .4.1 1 .2 1.9l.2 1.8c.1 1.3.7 3.3 1.2 4.1l.4.6c.3.2.5.5.5.8 0-.1 0 0 0 0zm-1.4-9.3s0 .1 0 0c0 0-.3 2.1-.5 3.4l-.2-1.5c-.1-.4-.1-.9-.2-1.4 0-.4.1-.7.1-1 .1-.1.1-.2.1-.3.2.2.5.5.7.8zm-.6-.8s0-.1 0 0v-.4h.3c.1 0 .2 0 .2.1l.1.1c.1.1.2.3.2.4l.1.1v.1c0 .1-.1.3-.2.4l-.1.1v-.1c0-.4-.6-.8-.6-.8zm-7.9 4.2v-.2c0-.3.3-.7.4-.8.1-.1.1-.2.1-.3 0-.2-.1-.3-.2-.4v-1c0-.7-.2-1.2-.4-1.7.1-.1.3-.4.4-.9v-.2c0-.3-.2-.6-.6-.8 0-.1.1-.2.1-.2.1-.3.3-.6.3-1 0-.1 0-.2-.1-.3v-.2l-.2-1.1s.1-.4 1.3-.3c.5 0 .8.1.9.3v.4l-.6 5.5s-1.4 3.1-1.4 3.2c0-.1 0 0 0 0zm-2.9-1c0-.4.1-3.1.1-3.1h-.1c.1-.1.1-.3.1-.6.2-2.2-.2-1.7-.2-1.7s-.1.9-.1 1.1c-.1.2-.4-.5-.7-.5.3-.9.8-2.6 2.1-2.7.6-.1 1.1.1 1.3.3.1.1.2.2.2.4 0 .3-.2.6-.3.9-.1.3-.3.7-.3 1v.1c0 .3.2.7.3 1.1.2.5.4 1.1.5 1.8v1l-.1-.1s0-.1-.1-.1c-.1-.3-.3-.6-.6-.8-.1-.1-.3-.1-.5-.1-.2.1-.4.2-.7.4-.3.5-.7 1.1-.9 1.6.1 0 0 0 0 0zm3-15c-.5 1.6-.6-1.5-.8-2.8-.2-1.3-.6-1.3-1 0s-.5 2-.5 2-.4-2.4-.6-2.1c-.2.3-.9 3.5-.2 4.6.7 1.2 1.1 2.1 1.1 2.1s-1.1.5-1.5-1.3c-.5-1.8-.5-4.1-.5-4.1l-.4.7-.9-1.4s.6 2.2.7 2.8c0 .6 1.1 2.7 1 3.7-.1 1 .1 2.1.1 2.1s-2 .5-2.2-1.8c-.2-2.3-.3-1.7-.3-1.7l-.2.9s-1.3-.4-1.9-2.4c-.6-1.9-.4-4.1-.1-5 1.1-3.2 1.3.3 1.7.9.4.5.8.3.2-.8-.6-1.1-.4-2.2.8-.9 1.2 1.3 2 1.7.3-1.7s-1-4.4-1-4.4-.1-1.7 3.2.4c0 0 1.9 1.8 2.5 4 .6 2.3.9 4.6.5 6.2zm-6.7 17.6v.4c0 .4.1.7.2.8.1.2.2.4.2.8v.3l-.2 1.2c-.1.5-.2.9-.2 1.2 0 .3.1.6.3.7.5.2 1.6 1 1.6 2v.2s-1 1.4-2.1 1.4c-.5 0-.9-.2-1.2-.3h.1s.3-.4.5-.5c.2-.1.8.4.8.4s-.3-.4-.3-.8c0-.3.5-.6.5-.6s-.5.1-.7-.3c-.2-.3.1-.6.1-.6s1.3.9 1.1.7c-.2-.2-1.3-1.6-1-1.5.3.1.5 0 .3-.2s-.7-.4-.7-.4.7-.9.8-1.1c.1-.3.1-.9 0-1.3s-1.1-.2-1.1-.2l.2-.5s.7-.3.7-.6-.4-.6-.4-.6l.2-1.1s-1.2.1-1.9-.1c-.5-.1-.7-.8-.8-1.2 0-.4.1-.5.1-.5l.1.1.1.3c.2.4.4 1.1 1.2 1.2.5.1 1.2-.3 1.5-.5.2.2 0 .6 0 1.2zm-3.1-29.6c-.3-1.1-.8-4 0-2.6s2.1 3.2 1.6 4.8c-.5 1.6-1 2-.9 2.7.1.7.4 2.7-.4 3.1 0 0-1.5-1.8-1.1-3.9.4-2 1.1-2.9.8-4.1zm1.3 32.1c.2.6.4.9.2 1.4-.2.5 0 .7 0 .9 0 .2.2-.1.2-.1s-.2 2.2-.4 2.3c-.1.1-.2.2-.2.3v-.1c-.1 0 .2-4.1.2-4.7zm1.1 9.7zm2.4 2s-.2.6-2.1.5c-1.8-.1-2.4-.5-2.5-.6.1-.2.9-1.7 2.3-1.7.8 0 1.9.4 2.1 1 .2.6.2.8.2.8zm-.6-50.5c-1.2-.2-3-2-3.1-2.6 0-.6 2.7-3.3 2.7-3.3l1.2 2.4c.6 1.2 4.4 4 4.4 4s-4-.3-5.2-.5zm-6.3 21.3s1-.1 1.8.6c.7.6.6 1.9.3 2.4s-2.1.6-2.1.6.3-1.1.3-1.5c0-.5-.3-2.1-.3-2.1zm9.1 15.2c.7-.5.7-.6 1.2-.6.8-.1 1.7.3 1.7.3l.9 2.4s0 .4-.2.4c-.3 0 .4-.5-.5-.4-.9.1-1.3-.2-2 0s-1.7.7-1.7.7-.1-.4.3-.5c.4-.1 1.2-.6 2.1-.5.9.1 1.2.3 1.2-.1s0-.5-.1-.5-.3.2-.3.2-.2-.1-.6-.2c-.4 0-.2-.1 0-.2s-.2-.4.1-.7c.4-.2.4-.4 0-.3-.4.1-1.2.4-1.2.4s.1-.7-.2-.6c-.3.1-1 .7-1 .7s-.4-.1.3-.5zm8.7-10.2c-.2-1.5.3-1.6.4-1 .1.6.5 4.7.5 4.7s-.6-2.2-.9-3.7zM152 130c-1.3-1.3-1.5-2.7-1.5-2.7l1.2.9c.4.5.8.5.8.5s0 .6.4 1.2c.5.7.4 1.4-.9.1zm4.4-63.1c0 .1 0 .2.1.3v-.1c-.2-.2-.1-1.2-.1-1.2s0-.8-.4-1.8c.3.7.5 1.7.4 2.8zm-12 2.9c-.2 0-.3-1 .2-1.2.3-.2.9-.1 1.3-.6.3-.1 1.4-.5 2.4-.6 1.3-.1 3.4-.2 4.8 0s2.1-.1 2.1-.1.3-3.1-.4-3.1c-.6 0-.8.7-.6.8.2.1.2-.4.5-.3.3.1.3 2.3-.1 2.2-.4 0-.6.4-1.3 0-.7-.3-4.6-.3-5.4.2 0 0-.7-.2.4-.4s4.3-.3 4.5-.3c.2 0 .3-.4-1.5-.4s-3 .4-3.4.4c-.3 0-.6-.7-.4-1.1.2-.4.4-1.3.9-1.7.4-.4.5-.9-.1-.4-.4.3-.9 1-1.1 1.6.5-1.5 1.6-2.9 4.9-2.9.6 0 1.3.2 2 .6.3.4 1.3 1.5 1.6 1.9.4.6.2 1.4.1 2.1-.1.7-.5.7.2.9.6.1.7.1.6-.1.1.3.3.5.3.5s-.3 0-.8.2-1.1.4-1.7.4c-.6 0-3.6-.7-4.8-.5-1.2.2-4.2.7-4.5 1.1-.4.2-.5.8-.7.8zm-22.7 76.8c.4.5-.8.6-1.7.5-.9-.1-7.9-1.5-7.9-1.5s-.5-.5-.7 0c-.3.4-.2-.1-.2-.1s.2-.7 1-.8c1.3 0 3.3-.2 4.5-.1-.1.1 4.5 1.5 5 2zm-4.1-2c-.1-.1-.3-.1-.4-.1-.1-.1-.3-.1-.3-.1.1-.1 3.9-6.8 4-6.9.1 0 .4.2.5.2-.2.1-3.6 6.4-3.8 6.9zm17.6-6.3c0 .6-1.5.3-1.5.3s-1 .3-.6.7c-.5.4-1 1.1-2.9 1.1-1.9-.1-2.4 0-2.4-.3s.8-.9 1.5-1.2c.7-.3.9-.9 1.5-1.4.6-.5 2.1-2.1 3-2 1 .2 1.4 2.2 1.4 2.8zm0 2.2.6-.2.3-2.7-.3-2.8-.9-1.9-.8-.2-.3.2s-.1-.3-.3-.5c-.2-.3-.1-.6-.1-.6s.4.3.6.6c.2.3.5.3.5.3l-.5-.7s.6 0 1.1.7c.5.7 1.1 1.7 1.2 3.5.1 1.8 0 3.6 0 3.6l.3.1v.7l-1.4-.1zm24.2-10.5-.5 2c-.2 1.2-.7 3.9-.7 3.9s.2.4-.1.9c-.2.3-.1 1.6-.7 2.6s-1.3 3.3-1.7 2.9c-.4-.4-.4-3.7.1-5.4.5-1.7 2.1-6 1.7-6-.9 0-4.1 3.6-4.2 4.9-.1 1.3.2 2.4.7 3.1.5.6.1.5-.4.3s-1.5-2.1-1.1-3.3c.4-1.2 2.6-3.5 2.6-3.5l2.7-2.9s.4.5.7 1c-.2-1-.5-2-.8-2-.6 0-2.6 3.7-2.6 3.7s-.2-1.1-.6-1.9c-.4-.8-.6-.9-.6-.9l.6.1-.9-1.4h.9s-.4-1.1-1.8-1.6-2.4-.9-2.1-1.3c.3-.3 1.4 0 1.4 0s-.4-1 .7-2.3c1-1.3 1.6-1.5 1.1-1.7-.5-.2-1.5 1.6-1.5 1.6l.4-1.3-.9.2s.6-1.2 1.1-1.6c.5-.4.3-.7-.7-.4-1 .3-.7-.5.4-1.6s1.7-1.8 1.7-1.8l.2.2v.1c.2 1.6 1.3 2.8 2.6 2.9.4 0 .8-.1 1.1-.2l.1.1s1.8 2.8 2 5.3c.3 2.4-.9 5.3-.9 5.3z" class="st0"/><path d="M169.3 107.2c-.1 0-.1-.1-.2-.1.1.1.2.1.2.1zM162.6 104.1c-.2.1-1 .5-1.2.5-.2 0-.2.5-.2.5l1.1-.5.3-.5.5-.2c.4-.1 1.4-.7 1.4-.7l.3-.2c-.6 0-1.3 0-1.9-.1 0 .4-.2.8-.3 1.2zM169.1 107.1zM167.2 134.8c.4 0 .4-.4.4-.4s-.2-.5-.4-.5-.3.4-.3.4.1.1.2-.1.3 0 .3.1c.1.1-.2.4-.2.4s-.2-.1-.3-.1c-.1-.1-.1.2.3.2zM167.7 137.1s-.3-.4-.6-.4c0 0-.3 0-.4.2-.2.2-.1.6-.1.6s.2-.5.5-.5.6.1.6.1zM173.4 97.6l-4.1-.8 2.7 2.4s.4-.7.8-1c.5-.3.6-.6.6-.6zM175 97.6l-.8.1.6.4c.4.2.8 1.5.8 1.5l-.6-2z" class="st0"/><path d="m173.7 97.9.3 1.3s-.8.6-.5.7c1.3.4 1.7-.3 1.7-.3s-.3-1.9-1.5-1.7zM181.2 125.3c-.6-.3-.5-1.1-.6-1.6 0-.5-.5-.5-.5-.5s.2.8.2 1.6c0 .7-.2.7.4.7.6-.1 1.1.1.5-.2zM152.2 62c-.6 0-2.8.3-3.3.9-.5.7.4 0 .8-.1.3-.1 2-.7 2.3-.6.3 0 1 .6 2 1.6.3.3 1 .5.6-.1 0 0-1.9-1.8-2.4-1.7zM152 88.5c0-.2.1-.4.1-.5.2-1-.3-1.1-.3-1.1-.2-.2-.5.8-.4 1.1.1.3.1 1-.1 1.7-.1.5-.3 1-.4 1.3l.3.5.2-.5c-.1 0 .4-1.4.6-2.5z" class="st0"/><path d="M150.6 89.5c-.1-.3.6-.6.6-.6l-.2-1.3s-.5.4-.6 1.1c-.2-.3-.7-.2-.8.2l.9 1.5c.1-.4.2-.7.1-.9zM145.9 82.8c.3 0 .4.7.9.8.5 0 .8.4.7.7 0 .2.8-.2.6-.7-.2-.5-1-.2-1-.2s-.5-.8-.8-1.2c-.3-.4-1.1-.1-1.1-.1-.6.2.4.7.7.7z" class="st0"/><path d="M148 84.6c-.8-.1-.5.6.3.6.8.1.4.1 1 .2s1 .7 1 .7-.1-.3-.4-1c-.3-.6-.6-.6-.9-.7l-.5-.6c.1.1.3.9-.5.8zM154.7 112.9zM157.7 99.8l-.5.3s.2-.9.3-1.5c0-.6-1.4-1.4-1.4-1.4-.6 0-.6 2-.8 2.3-.3.3-.8 1.6.1 2.2.9.6.9 1.3.9 1.3l1.1 2.2s-.2-1.7-.4-2.7c-.2-1 .1-1.5.4-2 .2-.4.3-.7.3-.7zM167.9 84.4c-1.3-.2-1.3.4-1.5.9 0 0-.3 1.1-.4 1.4-.1.3-1.2.9-2 1.5s-.6.5-.6.5l-.2 1.9s.2-.1 1-.7c.7-.6 3.2-3.6 3.4-3.9.1-.3 1.6-1.4.3-1.6z" class="st0"/><path d="M164.5 87.4c.1-.1 1.9-2.6 1.9-2.5-.1-.8-.7-.6-.7-.6s-2.2 4.1-1.2 3.1zM165.5 83.2l.9-.3s0-.3.3-.7c.3-.4.8 0 .7-.4-.1-.4-1.1-.6-1.1-.6l-.4.4s.1.3 0 .6c.1.4-.4 1-.4 1zM167 84.1c0 .1.2 0 .6-.1.4-.1.4.2.6.1.3-.1.1-.3 0-.6s-.4-.4-.4-.4c-.2.1 0 .4-.2.6-.1.3-.6.2-.6.4zM112.4 145.3l7.9 1.5s-.7-.7-1.1-.8c-.3 0-6.4-.9-6.4-.9l-.4.2zM175.7 97.5h-.1l.6 1.3c.8-.4.9-1.4.8-1.5-.1-.2-1.3.2-1.3.2zM169.8 106.7c0-.3 0-.2-.2-.3-.5-.2-.5.3-.2.5.2.2.3.1.4-.2zM163 102.6l-1.8.2 1.7.2zM161.8 96.1c-.2 0-.5 0-.6.1-.1 0-.3.2-.4.5-.1.2-.1.4-.1.4s0-.1.1-.2c0-.1.3-.3.7-.3.2 0 .3-.1.4-.4.7-.1.3-.1-.1-.1z" class="st0"/><path d="m162 96.3-.4.8c-.3.1-.3.6-.3.4 0-.2.4-.2.5-.4.6-1 .4-.8.2-.8z" class="st0"/><path d="m8.1 36.3 1.5 2.2L7 40.2l8.3 12.4c1.9 2.9 4.6 3.1 7.9 1 3.3-2.2 4.1-4.8 2.2-7.6L17 33.5l-2.6 1.8-1.5-2.2 8.1-5.4 1.5 2.2-2.6 1.7 8.6 13c2.7 4 .5 8.5-3.9 11.4-4.3 2.9-9.2 3.1-11.9-.9l-8.6-13-2.6 1.7L0 41.6l8.1-5.3zM38.7 43.4l1.6 3.1-3.2 1.6-1.6-3.1 3.2-1.6zM50.9 15.5l2.1 5.3-3.1 1.2-1.3-3.2c-1.7.2-3.1.5-5 1.2-3.9 1.6-4.4 4-3.6 6 1.1 2.8 3.4 2.6 6.8 1.8 5.2-1.4 9.6-1.4 11.4 3.3 1.6 3.9-.2 8.2-6.1 10.6-2.8 1.1-5.8 1.8-8.6 2.2l-2.2-5.4 3.2-1.3 1.3 3.3c1.7-.2 3.5-.5 5.4-1.3 3.9-1.6 4.7-4.2 3.8-6.5-1.2-3-3.9-2.8-7.7-1.9-5.2 1.3-8.7 1.2-10.5-3.3-1.4-3.5 0-7.7 5.8-10 2.9-1 5.5-1.6 8.3-2zM67.2 32.3l1 3.4-3.4 1.1-1-3.4 3.4-1.1zM88.1 5c4.9-1 7.9 1.9 8.7 5.9.8 4.2-.7 8.1-5.9 9.1l-7.3 1.4 1.4 7.2 3.4-.7.5 2.6-9.8 1.9-.5-2.6 3.1-.6-3.9-19.4-3.1.6-.5-2.6L88.1 5zm-7 4.1 2 9.9 6.7-1.3c3.3-.6 4.2-3.1 3.6-6-.5-2.8-2.2-4.6-5.5-3.9l-6.8 1.3zM124.2 13.1c.7 7.2-2.9 13.3-10.2 14.1-7.3.7-12.2-4.5-12.9-11.7-.7-7.2 3-13.3 10.2-14.1 7.3-.7 12.1 4.6 12.9 11.7zm-19.5 2c.6 5.8 3.6 9.7 8.9 9.1 5.3-.5 7.5-5 6.9-10.8-.6-5.8-3.6-9.7-8.9-9.1-5.3.6-7.5 5-6.9 10.8zM137.1.2l.1 2.6-3.3.1.5 19.9 9.8-.3-.1-4.1 3.4-.1.2 6.8-19.7.5-.1-2.6 3.1-.1-.5-19.9h-3.2l-.1-2.6 9.9-.2zM173.3 13.5c-.3 7.2-4.8 12.8-12.1 12.5-7.3-.3-11.4-6.3-11.1-13.4.3-7.3 4.9-12.9 12.2-12.6 7.3.3 11.3 6.3 11 13.5zm-19.5-.9c-.2 5.8 2.2 10.1 7.5 10.3 5.3.2 8.1-3.8 8.4-9.7.2-5.8-2.2-10.1-7.5-10.3-5.3-.2-8.2 3.9-8.4 9.7zM204.9 5l-.4 2.6-2.9-.5 3.9 20.8 2.5.4-.4 2.6-9.1-1.5.4-2.6 3 .5-1-5.4-9.8-1.6-2.6 4.8 3.2.5-.4 2.6-9.1-1.5.4-2.6 2.5.4 10.3-18.6-3-.5.4-2.6L204.9 5zm-8 4.3-4.7 8.7 8.2 1.3-1.7-9.8c-.1-1-.3-2.2-.4-3.3-.5 1.1-1 2.2-1.4 3.1zM232.7 12.4l-1.5 5.5-3.2-.9.9-3.3c-1.5-.8-2.8-1.5-4.8-2-4.1-1.1-5.9.6-6.4 2.7-.8 2.9 1.2 4.2 4.4 5.5 5.1 2 8.5 4.6 7.2 9.5-1.1 4-5.1 6.5-11.2 4.8-2.9-.8-5.7-2-8.2-3.4l1.5-5.6 3.3.9-.9 3.4c1.5.8 3.1 1.6 5.1 2.2 4.1 1.1 6.3-.6 6.9-2.9.8-3.2-1.5-4.6-5.1-6.1-5-2-7.7-4.3-6.5-8.9 1-3.7 4.5-6.2 10.6-4.6 2.9.7 5.4 1.8 7.9 3.2zM256 20.9l-2.1 5.3-3.2-1.2 1.2-3.2c-1.4-1-2.6-1.8-4.5-2.5-3.9-1.5-5.9-.1-6.7 1.9-1.1 2.8.7 4.3 3.8 6 4.8 2.5 7.9 5.5 6.1 10.2-1.5 3.9-5.8 5.9-11.7 3.6-2.8-1.1-5.4-2.6-7.8-4.3l2.1-5.4 3.2 1.2-1.3 3.3c1.4 1 2.9 2 4.8 2.7 3.9 1.5 6.3.1 7.2-2.1 1.2-3.1-1-4.7-4.3-6.6-4.7-2.6-7.2-5.1-5.5-9.6 1.4-3.5 5.2-5.6 11-3.4 3.1 1.1 5.4 2.5 7.7 4.1zM269.4 26.7l-.4 20.7c0 .8-.2 1.8-.3 2.6.3-.7.8-1.6 1.2-2.3l7.6-13.3L275 33l1.3-2.3 8.1 4.6-1.3 2.3-2.7-1.6-11.2 19.6-3.6-2.1.6-21.9c.1-.8.2-1.7.3-2.5-.3.7-.7 1.5-1.1 2.1l-8.2 14.4 2.7 1.6-1.3 2.3-8.3-4.7 1.3-2.3 2.7 1.6 9.9-17.3-2.7-1.6 1.3-2.3 6.6 3.8zM278.8 58.6l-2.1 2.8-2.9-2.2 2.1-2.8 2.9 2.2z" class="st1"/><path d="M42.6 104.1v2h-.9v-1.4c-.7-.2-1.3-.3-2.2-.3-1.8 0-2.4.9-2.4 1.8 0 1.3 1 1.6 2.4 1.8 1.9.3 3.5.8 3.5 2.8 0 1.6-1.2 2.9-3.6 2.9-1.1 0-2.2-.2-3.3-.5v-2.1h.9v1.4c.7.2 1.5.4 2.3.4 1.8 0 2.5-1 2.5-2 0-1.5-1.2-1.8-2.7-2-1.9-.3-3.2-.7-3.2-2.6 0-1.4 1-2.7 3.4-2.7 1.3 0 2.2.2 3.3.5zM53.2 103.8v.7h-1.3v8.3h1.3v.7h-3.5v-.7H51v-8.3h-1.3v-.7h3.5zM62.3 103.8l4.3 7.6c.1.3.3.6.4.9v-7.8h-1.2v-.7h3.4v.7h-1.3v9.1h-1.1l-4.5-8c-.1-.3-.3-.6-.4-.8v8.1h1.3v.7h-3.4v-.7H61v-8.3h-1.3v-.7h2.6zM83.7 104.1v2.1h-.9v-1.4c-.7-.2-1.5-.3-2.3-.3-2.3 0-3.6 1.8-3.6 4.2 0 2.4 1.2 4.2 3.6 4.2.8 0 1.6-.1 2.3-.3v-1.4h.9v2.1c-1 .3-2.2.5-3.2.5-2.9 0-4.6-2.3-4.6-5 0-2.8 1.6-5 4.6-5 1.1-.2 2.2 0 3.2.3zM98.2 103.8v2.1h-.9v-1.4h-4.5v3.6h4.1v.7h-4.1v4h4.6v-1.4h.9v2.1h-7.7v-.7h1.3v-8.3h-1.3v-.7h7.6zM200.9 113.6v-.7h1.9v-8.2l-2.5 1.7-.4-.7 2.8-1.9h1v9.1h1.7v.7h-4.5zM219.2 106.1c0 1.2-.7 2.1-2.2 2.3 1.5.1 2.4 1.1 2.4 2.6 0 1.6-1.2 2.7-3.3 2.7-2.1 0-3.3-1.1-3.3-2.7 0-1.5 1-2.4 2.4-2.5-1.4-.2-2.2-1.2-2.2-2.3 0-1.4 1.1-2.5 3.1-2.5 2-.1 3.1 1 3.1 2.4zm-5.5 4.8c0 1.2.8 2.1 2.5 2.1 1.6 0 2.4-.9 2.4-2.1 0-1.5-1.2-2.1-2.4-2.1-1.3 0-2.5.5-2.5 2.1zm.2-4.7c0 1.3.9 1.9 2.2 1.9s2.2-.6 2.2-1.9c0-1.1-.8-1.9-2.2-1.9-1.4 0-2.2.8-2.2 1.9zM233.4 108.5c0 3.1-1.2 5.2-3.6 5.2-.9 0-1.9-.2-2.8-.5v-1.9h.9v1.4c.6.2 1.2.3 1.9.3 1.8 0 2.6-1.8 2.7-4.2-.6.7-1.5 1.3-2.7 1.3-2.2 0-3.1-1.5-3.1-3.1 0-1.8 1.1-3.3 3.3-3.3 2.1-.1 3.4 1.7 3.4 4.8zm-5.9-1.6c0 1.3.6 2.5 2.3 2.5 1.1 0 2-.6 2.6-1.3-.1-2.2-.9-3.7-2.5-3.7s-2.4 1-2.4 2.5zM247.3 108.7c0 3.2-1.3 5-3.4 5-2.1 0-3.4-1.9-3.4-5 0-3.2 1.3-5 3.4-5 2-.1 3.4 1.8 3.4 5zm-5.9 0c0 2.4.8 4.2 2.5 4.2s2.5-1.8 2.5-4.2c0-2.4-.8-4.2-2.5-4.2-1.8-.1-2.5 1.7-2.5 4.2z" class="st2"/></svg>